<svg width="384" height="273" viewBox="0 0 384 273" fill="none" xmlns="http://www.w3.org/2000/svg">
<path d="M189.792 272.191C227.51 272.191 258.086 269.656 258.086 266.528C258.086 263.399 227.51 260.864 189.792 260.864C152.074 260.864 121.498 263.399 121.498 266.528C121.498 269.656 152.074 272.191 189.792 272.191Z" fill="#92E3A9"/>
<path opacity="0.5" d="M189.792 272.191C227.51 272.191 258.086 269.656 258.086 266.528C258.086 263.399 227.51 260.864 189.792 260.864C152.074 260.864 121.498 263.399 121.498 266.528C121.498 269.656 152.074 272.191 189.792 272.191Z" fill="white"/>
<path d="M344.119 219.729V211.084H331.96V194.312H314.489V126.188H297.777V167.365H282.583V152.625H262.077V190.751H253.721V202.949H233.973V198.376H240.044V195.834H214.976V198.886H218.02V212.104H205.102V187.189H159.528V204.981H126.854V191.763H114.704V206.511H88.8773V179.564H78.2448V170.417H59.2474V212.104H40.259V221.251H28.1089V249.21H367.669V219.729H344.119Z" stroke="#2E353A" stroke-miterlimit="10"/>
<path d="M66.7199 179.444H62.6133V182.7H66.7199V179.444Z" fill="#2E353A"/>
<path d="M75.2721 179.444H71.1655V182.7H75.2721V179.444Z" fill="#2E353A"/>
<path d="M66.7199 186.233H62.6133V189.49H66.7199V186.233Z" fill="#2E353A"/>
<path d="M75.2721 186.233H71.1655V189.49H75.2721V186.233Z" fill="#2E353A"/>
<path d="M84.5123 186.233H80.4058V189.49H84.5123V186.233Z" fill="#2E353A"/>
<path d="M84.5123 193.016H80.4058V196.273H84.5123V193.016Z" fill="#2E353A"/>
<path d="M84.5123 199.806H80.4058V203.062H84.5123V199.806Z" fill="#2E353A"/>
<path d="M84.5123 206.588H80.4058V209.845H84.5123V206.588Z" fill="#2E353A"/>
<path d="M84.5123 213.378H80.4058V216.635H84.5123V213.378Z" fill="#2E353A"/>
<path d="M84.5123 220.168H80.4058V223.425H84.5123V220.168Z" fill="#2E353A"/>
<path d="M66.7199 193.016H62.6133V196.273H66.7199V193.016Z" fill="#2E353A"/>
<path d="M75.2721 193.016H71.1655V196.273H75.2721V193.016Z" fill="#2E353A"/>
<path d="M66.7199 199.806H62.6133V203.062H66.7199V199.806Z" fill="#2E353A"/>
<path d="M75.2721 199.806H71.1655V203.062H75.2721V199.806Z" fill="#2E353A"/>
<path d="M66.7199 206.588H62.6133V209.845H66.7199V206.588Z" fill="#2E353A"/>
<path d="M75.2721 206.588H71.1655V209.845H75.2721V206.588Z" fill="#2E353A"/>
<path d="M66.7199 213.378H62.6133V216.635H66.7199V213.378Z" fill="#2E353A"/>
<path d="M47.8917 217.18H43.7852V220.437H47.8917V217.18Z" fill="#2E353A"/>
<path d="M107.107 209.845H103V213.102H107.107V209.845Z" fill="#2E353A"/>
<path d="M115.32 209.845H111.214V213.102H115.32V209.845Z" fill="#2E353A"/>
<path d="M304.616 130.032H300.509V133.289H304.616V130.032Z" fill="#2E353A"/>
<path d="M309.749 130.032H305.643V133.289H309.749V130.032Z" fill="#2E353A"/>
<path d="M304.616 136.822H300.509V140.079H304.616V136.822Z" fill="#2E353A"/>
<path d="M309.749 136.822H305.643V140.079H309.749V136.822Z" fill="#2E353A"/>
<path d="M304.616 143.612H300.509V146.869H304.616V143.612Z" fill="#2E353A"/>
<path d="M309.749 143.612H305.643V146.869H309.749V143.612Z" fill="#2E353A"/>
<path d="M304.616 150.395H300.509V153.651H304.616V150.395Z" fill="#2E353A"/>
<path d="M309.749 150.395H305.643V153.651H309.749V150.395Z" fill="#2E353A"/>
<path d="M304.616 157.184H300.509V160.441H304.616V157.184Z" fill="#2E353A"/>
<path d="M309.749 157.184H305.643V160.441H309.749V157.184Z" fill="#2E353A"/>
<path d="M304.616 163.967H300.509V167.224H304.616V163.967Z" fill="#2E353A"/>
<path d="M309.749 163.967H305.643V167.224H309.749V163.967Z" fill="#2E353A"/>
<path d="M304.616 170.757H300.509V174.013H304.616V170.757Z" fill="#2E353A"/>
<path d="M309.749 170.757H305.643V174.013H309.749V170.757Z" fill="#2E353A"/>
<path d="M304.616 177.546H300.509V180.803H304.616V177.546Z" fill="#2E353A"/>
<path d="M309.749 177.546H305.643V180.803H309.749V177.546Z" fill="#2E353A"/>
<path d="M304.616 184.329H300.509V187.586H304.616V184.329Z" fill="#2E353A"/>
<path d="M309.749 184.329H305.643V187.586H309.749V184.329Z" fill="#2E353A"/>
<path d="M269.7 184.329H265.594V187.586H269.7V184.329Z" fill="#2E353A"/>
<path d="M278.601 184.329H274.495V187.586H278.601V184.329Z" fill="#2E353A"/>
<path d="M287.502 184.329H283.396V187.586H287.502V184.329Z" fill="#2E353A"/>
<path d="M269.7 198.991H265.594V202.248H269.7V198.991Z" fill="#2E353A"/>
<path d="M278.601 198.991H274.495V202.248H278.601V198.991Z" fill="#2E353A"/>
<path d="M287.502 198.991H283.396V202.248H287.502V198.991Z" fill="#2E353A"/>
<path d="M269.7 213.647H265.594V216.904H269.7V213.647Z" fill="#2E353A"/>
<path d="M278.601 213.647H274.495V216.904H278.601V213.647Z" fill="#2E353A"/>
<path d="M287.502 213.647H283.396V216.904H287.502V213.647Z" fill="#2E353A"/>
<path d="M304.616 191.119H300.509V194.375H304.616V191.119Z" fill="#2E353A"/>
<path d="M309.749 191.119H305.643V194.375H309.749V191.119Z" fill="#2E353A"/>
<path d="M304.616 197.901H300.509V201.158H304.616V197.901Z" fill="#2E353A"/>
<path d="M309.749 197.901H305.643V201.158H309.749V197.901Z" fill="#2E353A"/>
<path d="M304.616 204.691H300.509V207.948H304.616V204.691Z" fill="#2E353A"/>
<path d="M309.749 204.691H305.643V207.948H309.749V204.691Z" fill="#2E353A"/>
<path d="M318.31 197.901H314.204V201.158H318.31V197.901Z" fill="#2E353A"/>
<path d="M327.898 197.901H323.792V201.158H327.898V197.901Z" fill="#2E353A"/>
<path d="M318.31 204.422H314.204V207.679H318.31V204.422Z" fill="#2E353A"/>
<path d="M327.898 204.422H323.792V207.679H327.898V204.422Z" fill="#2E353A"/>
<path d="M318.31 210.936H314.204V214.192H318.31V210.936Z" fill="#2E353A"/>
<path d="M327.898 210.936H323.792V214.192H327.898V210.936Z" fill="#2E353A"/>
<path d="M318.31 217.449H314.204V220.706H318.31V217.449Z" fill="#2E353A"/>
<path d="M327.898 217.449H323.792V220.706H327.898V217.449Z" fill="#2E353A"/>
<path d="M304.616 211.481H300.509V214.738H304.616V211.481Z" fill="#2E353A"/>
<path d="M309.749 211.481H305.643V214.738H309.749V211.481Z" fill="#2E353A"/>
<path d="M304.616 218.263H300.509V221.52H304.616V218.263Z" fill="#2E353A"/>
<path d="M309.749 218.263H305.643V221.52H309.749V218.263Z" fill="#2E353A"/>
<path d="M75.2721 213.378H71.1655V216.635H75.2721V213.378Z" fill="#2E353A"/>
<path d="M66.7199 220.168H62.6133V223.425H66.7199V220.168Z" fill="#2E353A"/>
<path d="M75.2721 220.168H71.1655V223.425H75.2721V220.168Z" fill="#2E353A"/>
<path d="M66.7199 226.95H62.6133V230.207H66.7199V226.95Z" fill="#2E353A"/>
<path d="M75.2721 226.95H71.1655V230.207H75.2721V226.95Z" fill="#2E353A"/>
<path d="M66.7199 233.74H62.6133V236.997H66.7199V233.74Z" fill="#2E353A"/>
<path d="M75.2721 233.74H71.1655V236.997H75.2721V233.74Z" fill="#2E353A"/>
<path d="M291.608 235.779V249.21H257.381V222.504H291.608V233.386" stroke="#2E353A" stroke-miterlimit="10"/>
<path d="M354.6 245.153V249.21H320.363V235.092H327.434" stroke="#2E353A" stroke-miterlimit="10"/>
<path d="M331.603 235.092H354.6V242.951" stroke="#2E353A" stroke-miterlimit="10"/>
<path d="M102.305 235.092H126.623V249.21H92.3862V235.092H99.055" stroke="#2E353A" stroke-miterlimit="10"/>
<path d="M48.7489 235.092H51.9985V249.21H39.3306V235.092H46.1957" stroke="#2E353A" stroke-miterlimit="10"/>
<path d="M277.227 222.504H271.754V249.21H277.227V222.504Z" stroke="#2E353A" stroke-miterlimit="10"/>
<path d="M234.688 226.136H229.313V219.078H247.454V226.136H239.562" stroke="#2E353A" stroke-miterlimit="10"/>
<path d="M138.603 214.192H117.722V220.168H138.603V214.192Z" stroke="#2E353A" stroke-miterlimit="10"/>
<path d="M129.702 214.192H127.649V249.21H129.702V214.192Z" stroke="#2E353A" stroke-miterlimit="10"/>
<path d="M193.756 1.47437C163.213 1.47437 133.921 11.0968 112.324 28.2248C90.7264 45.3529 78.5933 68.5835 78.5933 92.8062C78.5933 138.366 184.829 245.734 184.829 245.734H193.756C193.756 245.734 308.919 143.244 308.919 92.8062C308.919 68.5835 296.785 45.3529 275.188 28.2248C253.591 11.0968 224.299 1.47437 193.756 1.47437ZM193.756 137.41C182.632 137.41 171.758 134.794 162.509 129.893C153.26 124.992 146.052 118.026 141.795 109.875C137.538 101.725 136.424 92.7567 138.594 84.1044C140.764 75.4521 146.121 67.5044 153.987 61.2664C161.852 55.0285 171.874 50.7804 182.784 49.0593C193.694 47.3383 205.002 48.2216 215.279 51.5975C225.556 54.9735 234.34 60.6905 240.52 68.0256C246.7 75.3606 249.998 83.9843 249.998 92.8062C249.998 98.6636 248.543 104.464 245.717 109.875C242.891 115.287 238.748 120.204 233.525 124.346C228.303 128.488 222.103 131.773 215.279 134.015C208.455 136.256 201.142 137.41 193.756 137.41Z" fill="#2E353A" stroke="#2E353A" stroke-linecap="round" stroke-linejoin="round"/>
<path d="M184.829 1.47437C154.286 1.47437 124.994 11.0968 103.396 28.2248C81.7992 45.3529 69.666 68.5835 69.666 92.8062C69.666 143.244 184.829 245.734 184.829 245.734C184.829 245.734 299.991 143.244 299.991 92.8062C299.991 68.5835 287.858 45.3529 266.261 28.2248C244.664 11.0968 215.372 1.47437 184.829 1.47437ZM184.829 137.41C173.705 137.41 162.831 134.794 153.582 129.893C144.333 124.992 137.124 118.026 132.868 109.875C128.611 101.725 127.497 92.7567 129.667 84.1044C131.837 75.4521 137.194 67.5044 145.059 61.2664C152.925 55.0285 162.946 50.7804 173.856 49.0593C184.766 47.3383 196.075 48.2216 206.352 51.5975C216.629 54.9735 225.412 60.6905 231.592 68.0256C237.772 75.3606 241.071 83.9843 241.071 92.8062C241.071 104.636 235.145 115.981 224.598 124.346C214.05 132.711 199.745 137.41 184.829 137.41Z" fill="#92E3A9" stroke="#2E353A" stroke-linecap="round" stroke-linejoin="round"/>
<path d="M148.61 148.469L161.331 131.3L161.555 137.495L153.966 149.531L148.61 148.469Z" fill="white" stroke="#2E353A" stroke-linecap="round" stroke-linejoin="round"/>
<path d="M161.555 206.468C160.839 209.458 159.194 212.258 156.77 214.617C152.708 218.603 147.209 226.377 146.95 233.768C146.691 241.16 135.943 261.614 137.13 263.129C138.317 264.644 148.843 266.733 152.905 266.733C155.038 266.733 158.574 267.384 159.984 265.735C160.064 265.643 151.637 262.195 151.057 261.862C150.476 261.529 145.781 258.909 145.932 258.577C145.932 258.577 156.949 234.901 162.448 228.841C167.947 222.78 172.009 218.221 173.679 214.433C175.348 210.645 176.848 207.056 176.848 207.056L161.555 206.468Z" fill="white"/>
<mask id="mask0_6_3109" style="mask-type:luminance" maskUnits="userSpaceOnUse" x="137" y="206" width="40" height="61">
<path d="M161.555 206.468C160.839 209.458 159.194 212.258 156.77 214.617C152.708 218.603 147.209 226.377 146.95 233.768C146.691 241.16 135.943 261.614 137.13 263.129C138.317 264.644 148.843 266.733 152.905 266.733C155.038 266.733 158.574 267.384 159.984 265.735C160.064 265.643 151.637 262.195 151.057 261.862C150.476 261.529 145.781 258.909 145.932 258.577C145.932 258.577 156.949 234.901 162.448 228.841C167.947 222.78 172.009 218.221 173.679 214.433C175.348 210.645 176.848 207.056 176.848 207.056L161.555 206.468Z" fill="white"/>
</mask>
<g mask="url(#mask0_6_3109)">
<g style="mix-blend-mode:multiply">
<path d="M158.564 212.592C163.19 214.163 168.05 215.26 173.026 215.856C173.294 215.368 173.535 214.893 173.74 214.44C175.419 210.645 176.847 207.042 176.847 207.042L161.555 206.475C161.044 208.643 160.03 210.718 158.564 212.592Z" fill="#92E3A9"/>
</g>
</g>
<path d="M161.555 206.468C160.839 209.458 159.194 212.258 156.77 214.617C152.708 218.603 147.209 226.377 146.95 233.768C146.691 241.16 135.943 261.614 137.13 263.129C138.317 264.644 148.843 266.733 152.905 266.733C155.038 266.733 158.574 267.384 159.984 265.735C160.064 265.643 151.637 262.195 151.057 261.862C150.476 261.529 145.781 258.909 145.932 258.577C145.932 258.577 156.949 234.901 162.448 228.841C167.947 222.78 172.009 218.221 173.679 214.433C175.348 210.645 176.848 207.056 176.848 207.056L161.555 206.468Z" stroke="#2E353A" stroke-linecap="round" stroke-linejoin="round"/>
<path d="M196.148 208.018C198.48 210.438 200.014 213.28 200.612 216.288C201.621 221.35 205.228 229.789 212.003 234.88C218.779 239.97 230.751 261.38 232.965 261.685C235.563 262.053 239.526 259.419 241.455 258.35C243.91 256.991 249.543 254.215 250.382 251.815C251.391 249.054 247.811 250.442 246.302 251.334C244.347 252.488 234.59 253.458 234.59 253.458C234.59 253.458 219.761 229.712 217.762 222.419C215.762 215.127 214.191 209.675 211.771 206.135C209.352 202.595 206.924 199.36 206.924 199.36L196.148 208.018Z" fill="white"/>
<mask id="mask1_6_3109" style="mask-type:luminance" maskUnits="userSpaceOnUse" x="196" y="199" width="55" height="63">
<path d="M196.148 208.018C198.48 210.438 200.014 213.28 200.612 216.288C201.621 221.35 205.228 229.789 212.003 234.88C218.779 239.97 230.751 261.38 232.965 261.685C235.563 262.053 239.526 259.419 241.455 258.35C243.91 256.991 249.543 254.215 250.382 251.815C251.391 249.054 247.811 250.442 246.302 251.334C244.347 252.488 234.59 253.458 234.59 253.458C234.59 253.458 219.761 229.712 217.762 222.419C215.762 215.127 214.191 209.675 211.771 206.135C209.352 202.595 206.924 199.36 206.924 199.36L196.148 208.018Z" fill="white"/>
</mask>
<g mask="url(#mask1_6_3109)">
<g style="mix-blend-mode:multiply">
<path d="M211.771 206.157C209.334 202.617 206.915 199.381 206.915 199.381L196.148 208.019C197.976 209.915 199.309 212.081 200.068 214.391C204.926 213.704 209.704 212.698 214.351 211.382C213.718 209.575 212.853 207.824 211.771 206.157Z" fill="#92E3A9"/>
</g>
</g>
<path d="M196.148 208.018C198.48 210.438 200.014 213.28 200.612 216.288C201.621 221.35 205.228 229.789 212.003 234.88C218.779 239.97 230.751 261.38 232.965 261.685C235.563 262.053 239.526 259.419 241.455 258.35C243.91 256.991 249.543 254.215 250.382 251.815C251.391 249.054 247.811 250.442 246.302 251.334C244.347 252.488 234.59 253.458 234.59 253.458C234.59 253.458 219.761 229.712 217.762 222.419C215.762 215.127 214.191 209.675 211.771 206.135C209.352 202.595 206.924 199.36 206.924 199.36L196.148 208.018Z" stroke="#2E353A" stroke-linecap="round" stroke-linejoin="round"/>
<path d="M250.391 251.815C251.4 249.054 247.82 250.442 246.311 251.334C244.356 252.488 234.598 253.458 234.598 253.458C234.598 253.458 233.545 251.617 232.009 248.842C230.108 250.034 228.004 251.009 225.76 251.738C229.108 256.97 231.884 261.565 232.974 261.713C235.571 262.081 239.535 259.448 241.463 258.379C243.892 256.991 249.525 254.216 250.391 251.815Z" fill="white" stroke="#2E353A" stroke-linecap="round" stroke-linejoin="round"/>
<path d="M161.876 168.633L153.583 204.932C157.323 206.83 161.306 208.411 165.465 209.647C172 211.53 183.319 211.063 183.319 211.063L187.783 193.398L189.569 209.888C189.569 209.888 198.184 210.596 204.424 209.654C210.664 208.712 220.761 203.523 220.761 203.523L201.121 174.551L196.657 167.719L161.903 167.011L161.876 168.633Z" fill="white"/>
<mask id="mask2_6_3109" style="mask-type:luminance" maskUnits="userSpaceOnUse" x="153" y="167" width="68" height="45">
<path d="M161.876 168.633L153.583 204.932C157.323 206.83 161.306 208.411 165.465 209.647C172 211.53 183.319 211.063 183.319 211.063L187.783 193.398L189.569 209.888C189.569 209.888 198.184 210.596 204.424 209.654C210.664 208.712 220.761 203.523 220.761 203.523L201.121 174.551L196.657 167.719L161.903 167.011L161.876 168.633Z" fill="white"/>
</mask>
<g mask="url(#mask2_6_3109)">
<g style="mix-blend-mode:multiply">
<path d="M188.069 189.469C191.086 186.474 192.175 168.866 192.175 168.866L161.876 167.047V168.633L158.091 185.108C166.572 187.274 185.721 191.791 188.069 189.469Z" fill="#92E3A9"/>
</g>
</g>
<path d="M161.876 168.633L153.583 204.932C157.323 206.83 161.306 208.411 165.465 209.647C172 211.53 183.319 211.063 183.319 211.063L187.783 193.398L189.569 209.888C189.569 209.888 198.184 210.596 204.424 209.654C210.664 208.712 220.761 203.523 220.761 203.523L201.121 174.551L196.657 167.719L161.903 167.011L161.876 168.633Z" stroke="#2E353A" stroke-miterlimit="10"/>
<path d="M213.11 139.973L230.072 143.513L236.991 127.229L211.102 123.335L205.299 138.38L213.11 139.973Z" fill="#2E353A" stroke="#2E353A" stroke-linecap="round" stroke-linejoin="round"/>
<path d="M216.422 132.44L227.207 134.529" stroke="white" stroke-linecap="round" stroke-linejoin="round"/>
<path d="M215.377 134.528L226.162 136.617" stroke="white" stroke-linecap="round" stroke-linejoin="round"/>
<path d="M195.479 140.858C195.479 140.858 200.835 138.557 202.621 136.61C204.406 134.663 206.415 131.3 207.307 130.769C208.2 130.238 212.664 128.468 213.557 127.937C214.449 127.406 215.788 128.468 214.226 129.53C212.664 130.592 209.316 132.893 209.316 132.893C209.316 132.893 210.209 136.079 209.093 137.141C208.496 137.726 207.823 138.26 207.084 138.734L213.11 139.973C213.11 139.973 209.093 142.274 207.307 142.628C205.539 142.898 203.749 143.075 201.951 143.159L194.586 147.761L195.479 140.858Z" fill="white" stroke="#2E353A" stroke-linecap="round" stroke-linejoin="round"/>
<path d="M171.375 102.194C171.375 102.194 164.233 110.442 162.447 120.099C160.662 129.756 161.858 168.632 161.858 168.632C161.858 168.632 171.357 171.691 178.82 171.691C186.283 171.691 197.237 172.165 197.567 168.859C197.898 165.553 195.487 127.632 192.211 118.442C189.942 112.446 186.637 106.728 182.391 101.451C182.391 101.451 174.946 97.4786 171.375 102.194Z" fill="#2E353A" stroke="#2E353A" stroke-linecap="round" stroke-linejoin="round"/>
<path d="M187.667 109.352L178.07 157.85L186.551 160.328L190.345 113.777L187.667 109.352Z" fill="white" stroke="#2E353A" stroke-linecap="round" stroke-linejoin="round"/>
<path d="M166.42 83.4037C166.42 83.4037 167.607 87.8783 169.991 90.2359C172.374 92.5936 176.82 93.7759 176.82 93.7759L175.544 99.1355L183.864 103.143L186.917 91.6519L187.81 77.9875C187.81 77.9875 166.973 80.8125 166.42 83.4037Z" fill="white" stroke="#2E353A" stroke-linecap="round" stroke-linejoin="round"/>
<path d="M166.42 83.404C166.42 83.404 167.607 87.8785 169.991 90.2362C172.374 92.5938 176.82 93.7762 176.82 93.7762C176.82 93.7762 183.962 92.1265 184.542 88.36C184.971 85.6413 184.328 80.9756 183.926 78.5754C177.865 79.5242 166.848 81.5278 166.42 83.404Z" fill="#2E353A" stroke="#2E353A" stroke-linecap="round" stroke-linejoin="round"/>
<path d="M178.579 84.5719C178.579 84.5719 175.607 81.7399 173.83 82.9223C172.053 84.1047 172.634 87.4039 174.723 89.0536C176.812 90.7032 179.481 89.2872 179.481 89.2872C179.481 89.2872 180.668 92.3458 182.748 93.7618C184.829 95.1778 191.953 96.1194 194.354 94.7034C196.755 93.2874 195.836 88.1049 195.836 88.1049C195.836 88.1049 199.996 86.4552 199.701 85.2729C199.407 84.0905 196.425 83.1489 196.425 82.2143C196.4 81.5011 196.302 80.7908 196.131 80.0903V78.2L182.472 80.5576C182.472 80.5576 180.677 85.9879 178.579 84.5719Z" fill="white"/>
<mask id="mask3_6_3109" style="mask-type:luminance" maskUnits="userSpaceOnUse" x="172" y="78" width="28" height="18">
<path d="M178.579 84.5719C178.579 84.5719 175.607 81.7399 173.83 82.9223C172.053 84.1047 172.634 87.4039 174.723 89.0536C176.812 90.7032 179.481 89.2872 179.481 89.2872C179.481 89.2872 180.668 92.3458 182.748 93.7618C184.829 95.1778 191.953 96.1194 194.354 94.7034C196.755 93.2874 195.836 88.1049 195.836 88.1049C195.836 88.1049 199.996 86.4552 199.701 85.2729C199.407 84.0905 196.425 83.1489 196.425 82.2143C196.4 81.5011 196.302 80.7908 196.131 80.0903V78.2L182.472 80.5576C182.472 80.5576 180.677 85.9879 178.579 84.5719Z" fill="white"/>
</mask>
<g mask="url(#mask3_6_3109)">
<g style="mix-blend-mode:multiply" opacity="0.5">
<g style="mix-blend-mode:multiply">
<path d="M182.463 80.5788C182.08 81.7165 181.522 82.8126 180.803 83.8427C186.159 83.6515 191.882 83.3825 197.006 83.0285C196.691 82.8294 196.48 82.5441 196.417 82.2285C196.392 81.5153 196.293 80.8049 196.122 80.1045V78.2L182.463 80.5788Z" fill="#92E3A9"/>
</g>
</g>
</g>
<path d="M178.579 84.5719C178.579 84.5719 175.607 81.7399 173.83 82.9223C172.053 84.1047 172.634 87.4039 174.723 89.0536C176.812 90.7032 179.481 89.2872 179.481 89.2872C179.481 89.2872 180.668 92.3458 182.748 93.7618C184.829 95.1778 191.953 96.1194 194.354 94.7034C196.755 93.2874 195.836 88.1049 195.836 88.1049C195.836 88.1049 199.996 86.4552 199.701 85.2729C199.407 84.0905 196.425 83.1489 196.425 82.2143C196.4 81.5011 196.302 80.7908 196.131 80.0903V78.2L182.472 80.5576C182.472 80.5576 180.677 85.9879 178.579 84.5719Z" stroke="#2E353A" stroke-linecap="round" stroke-linejoin="round"/>
<path d="M166.42 83.4037L196.121 78.1999C196.121 78.1999 191.961 66.6525 186.917 65.7108C181.873 64.7692 172.062 64.2948 166.715 68.5428C161.367 72.7908 166.42 83.4037 166.42 83.4037Z" fill="white" stroke="#2E353A" stroke-linecap="round" stroke-linejoin="round"/>
<path d="M186.319 80.1046C190.234 80.7941 194.204 81.2672 198.202 81.5206C203.558 81.7543 215.726 77.9806 212.762 77.747C209.798 77.5134 196.122 78.2214 196.122 78.2214L186.319 80.1046Z" fill="#2E353A" stroke="#2E353A" stroke-linecap="round" stroke-linejoin="round"/>
<path d="M172.571 97.2451L169.893 101.96L183.266 108.552L185.935 101.96L172.571 97.2451Z" fill="white" stroke="#2E353A" stroke-linecap="round" stroke-linejoin="round"/>
<path d="M145.039 146.522L192.577 156.257L187.64 183.826C187.56 184.277 187.36 184.709 187.053 185.094C186.747 185.479 186.342 185.809 185.864 186.061C185.386 186.313 184.846 186.482 184.28 186.557C183.714 186.632 183.134 186.611 182.579 186.495L139.361 177.589C138.55 177.423 137.852 177.013 137.416 176.446C136.979 175.879 136.838 175.199 137.022 174.551L145.039 146.522Z" fill="white" stroke="#2E353A" stroke-linecap="round" stroke-linejoin="round"/>
<path d="M145.039 146.522C145.039 146.522 156.261 168.116 163.135 170.948C170.009 173.78 192.595 156.278 192.595 156.278" stroke="#2E353A" stroke-linecap="round" stroke-linejoin="round"/>
<path d="M154.475 137.063C154.475 137.063 151.503 142.246 152.395 144.143C153.288 146.04 190.122 156.632 190.122 156.632C190.122 156.632 190.417 160.632 191.309 161.588C192.074 162.625 192.674 163.733 193.095 164.887C193.095 164.887 191.309 168.187 192.202 168.895C193.095 169.603 195.773 165.595 195.773 164.42C195.773 163.245 196.068 156.88 195.184 155.216C194.3 153.552 169.036 141.318 169.036 141.318L154.475 137.063Z" fill="white" stroke="#2E353A" stroke-linecap="round" stroke-linejoin="round"/>
<path d="M170.786 108.792L153.556 137.764L169 141.304L181.481 118.216" fill="#2E353A"/>
<path d="M170.786 108.792L153.556 137.764L169 141.304L181.481 118.216" stroke="#2E353A" stroke-linecap="round" stroke-linejoin="round"/>
<path d="M169 141.304L180.374 121.076" stroke="white" stroke-linecap="round" stroke-linejoin="round"/>
<path d="M176.473 128.503L182.195 123.965" stroke="white" stroke-linecap="round" stroke-linejoin="round"/>
<path d="M159.51 204.174C166.642 207.107 174.655 208.422 182.668 207.976" stroke="#2E353A" stroke-linecap="round" stroke-linejoin="round"/>
<path d="M155.636 202.319C155.636 202.319 156.324 202.73 157.6 203.339" stroke="#2E353A" stroke-linecap="round" stroke-linejoin="round"/>
<path d="M213.539 202.51C214.673 202.022 215.772 201.486 216.833 200.903" stroke="#2E353A" stroke-linecap="round" stroke-linejoin="round"/>
<path d="M190.685 207.056C197.654 206.982 204.534 205.798 210.914 203.572" stroke="#2E353A" stroke-linecap="round" stroke-linejoin="round"/>
<path d="M187.721 193.37L194.131 184.57" stroke="#2E353A" stroke-linecap="round" stroke-linejoin="round"/>
<path d="M188.069 192.91L198.755 183.302" stroke="#2E353A" stroke-linecap="round" stroke-linejoin="round"/>
<path d="M160.814 189.094L159.921 194.319C162.113 195.536 164.52 196.49 167.063 197.151C171.339 198.284 180.454 198.142 180.454 198.142L181.704 193.186C181.704 193.186 165.849 191.77 162.644 189.646" stroke="#2E353A" stroke-linecap="round" stroke-linejoin="round"/>
<path d="M159.751 196.294C159.751 196.294 157.252 201.101 158.859 202.234C160.466 203.367 171.857 206.751 174.928 206.482C177.999 206.213 179.731 200.266 179.731 200.266" stroke="#2E353A" stroke-linecap="round" stroke-linejoin="round"/>
<path d="M250.391 251.815C251.4 249.054 247.82 250.442 246.311 251.334C244.356 252.488 234.598 253.458 234.598 253.458L233.411 251.334C231.622 252.581 229.574 253.573 227.358 254.265C229.956 258.357 232.036 261.572 232.947 261.692C235.545 262.06 239.508 259.426 241.437 258.357C243.892 256.991 249.525 254.215 250.391 251.815Z" fill="#2E353A" stroke="#2E353A" stroke-linecap="round" stroke-linejoin="round"/>
<path d="M242.973 255.681C238.955 257.338 234.268 259.348 231.563 260.474C232.153 261.182 232.626 261.642 232.947 261.685C235.545 262.053 239.509 259.419 241.437 258.35C243.892 256.991 249.525 254.215 250.364 251.815C250.793 250.654 250.364 250.229 249.695 250.194C248.213 252.162 245.91 254.491 242.973 255.681Z" fill="white" stroke="#2E353A" stroke-linecap="round" stroke-linejoin="round"/>
<path d="M151.119 261.862C150.69 261.607 145.843 258.91 145.994 258.577C145.994 258.577 146.967 256.502 148.458 253.43C145.902 253.176 143.402 252.642 141.031 251.844C138.656 257.564 136.567 262.421 137.156 263.129C138.344 264.644 148.869 266.733 152.931 266.733C155.065 266.733 158.6 267.384 160.01 265.735C160.091 265.643 151.663 262.181 151.119 261.862Z" fill="white" stroke="#2E353A" stroke-linecap="round" stroke-linejoin="round"/>
<path d="M160.011 265.735C160.091 265.643 151.664 262.195 151.083 261.862C150.503 261.529 145.807 258.91 145.959 258.577L146.905 256.573C144.445 256.219 142.035 255.674 139.71 254.945C137.925 259.235 136.666 262.549 137.121 263.129C138.308 264.644 148.834 266.733 152.896 266.733C155.065 266.733 158.6 267.384 160.011 265.735Z" fill="#2E353A" stroke="#2E353A" stroke-linecap="round" stroke-linejoin="round"/>
<path d="M151.655 265.168C146.182 264.906 140.103 263.122 137.13 262.145C137.011 262.466 137.011 262.808 137.13 263.129C138.317 264.644 148.843 266.733 152.905 266.733C155.038 266.733 158.573 267.384 159.984 265.735C159.586 265.511 159.165 265.315 158.725 265.147C156.372 265.284 154.009 265.291 151.655 265.168Z" fill="white" stroke="#2E353A" stroke-linecap="round" stroke-linejoin="round"/>
<path d="M184.775 80.1259L180.008 71.1414" stroke="black" stroke-linecap="round" stroke-linejoin="round"/>
<path d="M179.409 69.4916C179.409 69.4916 177.918 66.8862 179.115 65.7039" stroke="black" stroke-linecap="round" stroke-linejoin="round"/>
</svg>
