<svg width="337" height="252" viewBox="0 0 337 252" fill="none" xmlns="http://www.w3.org/2000/svg">
<path d="M291.108 72.5525H8.86035V87.1056H291.108V72.5525Z" fill="#263238"/>
<path d="M29.5842 0.356934V76.7462" stroke="#263238" stroke-width="2" stroke-miterlimit="10"/>
<path d="M69.7209 0.356934V76.7462" stroke="#263238" stroke-width="2" stroke-miterlimit="10"/>
<path d="M109.851 0.356934V76.7462" stroke="#263238" stroke-width="2" stroke-miterlimit="10"/>
<path d="M149.988 0.356934V76.7462" stroke="#263238" stroke-width="2" stroke-miterlimit="10"/>
<path d="M190.118 0.356934V76.7462" stroke="#263238" stroke-width="2" stroke-miterlimit="10"/>
<path d="M230.255 0.356934V76.7462" stroke="#263238" stroke-width="2" stroke-miterlimit="10"/>
<path d="M270.385 0.356934V76.7462" stroke="#263238" stroke-width="2" stroke-miterlimit="10"/>
<path d="M9.51929 19.946H290.45" stroke="#263238" stroke-width="2" stroke-miterlimit="10"/>
<path d="M9.51929 49.0469H290.45" stroke="#263238" stroke-width="2" stroke-miterlimit="10"/>
<path d="M333.508 0H262.041V87.1003H333.508V0Z" fill="#263238"/>
<path d="M29.5 233.74V218.068" stroke="#92E3A9" stroke-linecap="round" stroke-linejoin="round"/>
<path d="M25.2966 233.692H33.6057L31.5319 250.974H27.3774L25.2966 233.692Z" fill="#263238" stroke="#263238" stroke-linecap="round" stroke-linejoin="round"/>
<path d="M29.339 232.328C28.673 231.622 27.8331 231.021 26.8659 230.559C25.6914 230.172 24.4254 229.973 23.1458 229.972C23.1458 229.972 24.3858 233.388 29.339 232.328Z" fill="#92E3A9"/>
<path d="M29.5 232.328C30.166 231.622 31.0059 231.021 31.9731 230.559C33.1476 230.172 34.4136 229.973 35.6932 229.972C35.6932 229.972 34.4532 233.388 29.5 232.328Z" fill="#92E3A9"/>
<path d="M29.339 228.086C28.6751 227.379 27.8348 226.778 26.8659 226.317C25.6925 225.927 24.4261 225.726 23.1458 225.725C23.1458 225.725 24.3858 229.146 29.339 228.086Z" fill="#92E3A9"/>
<path d="M29.5 228.086C30.1639 227.379 31.0042 226.778 31.9731 226.317C33.1465 225.927 34.4129 225.726 35.6932 225.725C35.6932 225.725 34.4532 229.146 29.5 228.086Z" fill="#92E3A9"/>
<path d="M29.339 223.839C28.674 223.134 27.8338 222.535 26.8659 222.075C25.6925 221.686 24.4261 221.484 23.1458 221.484C23.1458 221.484 24.3858 224.899 29.339 223.839Z" fill="#92E3A9"/>
<path d="M29.5 223.839C30.165 223.134 31.0052 222.535 31.9731 222.075C33.1465 221.686 34.4129 221.484 35.6932 221.484C35.6932 221.484 34.4532 224.899 29.5 223.839Z" fill="#92E3A9"/>
<path d="M29.339 219.597C28.673 218.891 27.8331 218.29 26.8659 217.828C25.6914 217.442 24.4254 217.242 23.1458 217.242C23.1458 217.242 24.3858 220.657 29.339 219.597Z" fill="#92E3A9"/>
<path d="M29.5 219.597C30.166 218.891 31.0059 218.29 31.9731 217.828C33.1476 217.442 34.4136 217.242 35.6932 217.242C35.6932 217.242 34.4532 220.657 29.5 219.597Z" fill="#92E3A9"/>
<path d="M29.5001 218.068C28.7967 217.337 28.3484 216.483 28.197 215.585C28.2693 214.613 28.6032 213.662 29.1779 212.792C29.1779 212.792 32.9751 215.18 29.5001 218.068Z" fill="#92E3A9"/>
<path d="M306.633 233.74V218.068" stroke="#92E3A9" stroke-linecap="round" stroke-linejoin="round"/>
<path d="M302.437 233.692H310.746L308.665 250.974H304.511L302.437 233.692Z" fill="#263238" stroke="#263238" stroke-linecap="round" stroke-linejoin="round"/>
<path d="M306.458 232.328C305.789 231.622 304.947 231.022 303.978 230.559C302.806 230.173 301.542 229.973 300.265 229.972C300.265 229.972 301.554 233.388 306.458 232.328Z" fill="#92E3A9"/>
<path d="M306.633 232.328C307.303 231.622 308.145 231.022 309.113 230.559C310.288 230.172 311.554 229.973 312.833 229.972C312.833 229.972 311.593 233.388 306.633 232.328Z" fill="#92E3A9"/>
<path d="M306.458 228.086C305.791 227.379 304.948 226.778 303.978 226.317C302.807 225.927 301.543 225.726 300.265 225.725C300.265 225.725 301.554 229.146 306.458 228.086Z" fill="#92E3A9"/>
<path d="M306.633 228.086C307.301 227.379 308.143 226.778 309.113 226.317C310.287 225.927 311.553 225.726 312.833 225.725C312.833 225.725 311.593 229.146 306.633 228.086Z" fill="#92E3A9"/>
<path d="M306.458 223.839C305.79 223.134 304.947 222.535 303.978 222.075C302.807 221.686 301.543 221.484 300.265 221.484C300.265 221.484 301.554 224.899 306.458 223.839Z" fill="#92E3A9"/>
<path d="M306.633 223.839C307.302 223.134 308.144 222.535 309.113 222.075C310.287 221.686 311.553 221.484 312.833 221.484C312.833 221.484 311.593 224.899 306.633 223.839Z" fill="#92E3A9"/>
<path d="M306.458 219.597C305.789 218.892 304.947 218.291 303.978 217.828C302.806 217.442 301.542 217.242 300.265 217.242C300.265 217.242 301.554 220.657 306.458 219.597Z" fill="#92E3A9"/>
<path d="M306.633 219.597C307.303 218.892 308.145 218.291 309.113 217.828C310.288 217.442 311.554 217.242 312.833 217.242C312.833 217.242 311.593 220.657 306.633 219.597Z" fill="#92E3A9"/>
<path d="M306.633 218.068C305.93 217.337 305.481 216.483 305.33 215.585C305.403 214.612 305.74 213.661 306.318 212.792C306.318 212.792 310.115 215.18 306.633 218.068Z" fill="#92E3A9"/>
<path d="M271.316 68.8223V53.1448" stroke="#92E3A9" stroke-linecap="round" stroke-linejoin="round"/>
<path d="M267.12 68.769H275.429L273.348 86.0505H269.194L267.12 68.769Z" fill="white" stroke="#263238" stroke-linecap="round" stroke-linejoin="round"/>
<path d="M271.162 67.3995C270.492 66.694 269.65 66.0933 268.682 65.6304C267.51 65.2443 266.246 65.0448 264.969 65.0442C264.969 65.0442 266.209 68.4653 271.162 67.3995Z" fill="#92E3A9"/>
<path d="M271.316 67.3995C271.986 66.694 272.828 66.0933 273.797 65.6304C274.971 65.244 276.237 65.0445 277.517 65.0442C277.517 65.0442 276.277 68.4653 271.316 67.3995Z" fill="#92E3A9"/>
<path d="M271.162 63.163C270.492 62.4575 269.65 61.8568 268.682 61.3938C267.51 61.0077 266.246 60.8082 264.969 60.8076C264.969 60.8076 266.209 64.2021 271.162 63.163Z" fill="#92E3A9"/>
<path d="M271.316 63.163C271.986 62.4575 272.828 61.8568 273.797 61.3938C274.971 61.0075 276.237 60.808 277.517 60.8076C277.517 60.8076 276.277 64.2021 271.316 63.163Z" fill="#92E3A9"/>
<path d="M271.162 58.9212C270.492 58.2157 269.65 57.615 268.682 57.152C267.511 56.7626 266.247 56.5612 264.969 56.5605C264.969 56.5605 266.209 59.9817 271.162 58.9212Z" fill="#92E3A9"/>
<path d="M271.316 58.9212C271.986 58.2157 272.828 57.615 273.797 57.152C274.97 56.7624 276.236 56.5611 277.517 56.5605C277.517 56.5605 276.277 59.9817 271.316 58.9212Z" fill="#92E3A9"/>
<path d="M271.162 54.6793C270.494 53.9724 269.652 53.3715 268.682 52.9101C267.511 52.5206 266.247 52.3192 264.969 52.3186C264.969 52.3186 266.209 55.7397 271.162 54.6793Z" fill="#92E3A9"/>
<path d="M271.316 54.6793C271.984 53.9724 272.826 53.3715 273.797 52.9101C274.97 52.5205 276.236 52.3191 277.517 52.3186C277.517 52.3186 276.277 55.7397 271.316 54.6793Z" fill="#92E3A9"/>
<path d="M271.317 53.1448C270.613 52.4141 270.165 51.5597 270.013 50.6615C270.091 49.6912 270.427 48.743 271.001 47.8745C271.001 47.8745 274.798 50.2565 271.317 53.1448Z" fill="#92E3A9"/>
<path d="M293.854 3.3252H269.404V28.3922H293.854V3.3252Z" fill="#92E3A9" stroke="#263238" stroke-linecap="round" stroke-linejoin="round"/>
<path d="M290.303 6.96484H272.949V24.7579H290.303V6.96484Z" fill="white" stroke="#263238" stroke-linecap="round" stroke-linejoin="round"/>
<path d="M323.279 13.0986H303.383V33.4975H323.279V13.0986Z" fill="#92E3A9" stroke="#263238" stroke-linecap="round" stroke-linejoin="round"/>
<path d="M320.386 16.0557H306.269V30.5289H320.386V16.0557Z" fill="white" stroke="#263238" stroke-linecap="round" stroke-linejoin="round"/>
<path d="M302.332 35.5757H285.321V53.0117H302.332V35.5757Z" fill="#92E3A9" stroke="#263238" stroke-linecap="round" stroke-linejoin="round"/>
<path d="M299.866 38.1064H287.794V50.4801H299.866V38.1064Z" fill="white" stroke="#263238" stroke-linecap="round" stroke-linejoin="round"/>
<path d="M144.446 45.9558H122.328C122.088 45.9572 121.858 46.0308 121.689 46.1606C121.52 46.2904 121.425 46.4658 121.425 46.6486C121.425 46.8309 121.52 47.0057 121.689 47.1346C121.859 47.2636 122.089 47.336 122.328 47.336H145.322V46.6486C145.324 46.469 145.233 46.2959 145.069 46.1664C144.906 46.037 144.682 45.9614 144.446 45.9558Z" fill="white" stroke="#263238" stroke-linecap="round" stroke-linejoin="round"/>
<path d="M135.093 28.6958H106.937C106.368 28.6958 105.907 29.0465 105.907 29.4791V43.7871C105.907 44.2198 106.368 44.5705 106.937 44.5705H135.093C135.662 44.5705 136.123 44.2198 136.123 43.7871V29.4791C136.123 29.0465 135.662 28.6958 135.093 28.6958Z" fill="#263238" stroke="#263238" stroke-linecap="round" stroke-linejoin="round"/>
<path d="M130.119 32.9321H110.713C110.144 32.9321 109.683 33.2828 109.683 33.7155V43.7924C109.683 44.225 110.144 44.5757 110.713 44.5757H130.119C130.688 44.5757 131.149 44.225 131.149 43.7924V33.7155C131.149 33.2828 130.688 32.9321 130.119 32.9321Z" fill="#474747" stroke="#263238" stroke-linecap="round" stroke-linejoin="round"/>
<path d="M121.376 40.1899H119.26C118.691 40.1899 118.23 40.5407 118.23 40.9733V47.4212C118.23 47.8538 118.691 48.2046 119.26 48.2046H121.376C121.944 48.2046 122.406 47.8538 122.406 47.4212V40.9733C122.406 40.5407 121.944 40.1899 121.376 40.1899Z" fill="white" stroke="#263238" stroke-linecap="round" stroke-linejoin="round"/>
<path d="M164.749 48.5085L172.645 26.026C172.917 25.2553 173.544 24.5847 174.413 24.1366C175.281 23.6885 176.332 23.4929 177.374 23.5854L189.046 23.9211C189.615 23.9726 190.166 24.1091 190.666 24.3226C191.167 24.5361 191.607 24.8226 191.961 25.1655C192.316 25.5085 192.578 25.9013 192.733 26.3214C192.888 26.7416 192.932 27.1808 192.864 27.614L189.459 48.6257L164.749 48.5085Z" fill="#B5B5B5" stroke="#263238" stroke-linecap="round" stroke-linejoin="round"/>
<path d="M168.575 32.5696H161.113L148.825 36.87L149.42 40.808L159.537 39.4332L159.775 48.9558H175.447L178.215 43.0941L181.718 48.4229C181.745 48.4647 181.784 48.501 181.833 48.5288C181.882 48.5566 181.939 48.5752 181.999 48.583C182.059 48.5908 182.121 48.5876 182.179 48.5737C182.238 48.5598 182.291 48.5355 182.334 48.5029L194.363 39.252L192.675 38.0583L183.77 41.6286L179.434 34.0297L168.575 32.5696Z" fill="#92E3A9" stroke="#263238" stroke-linecap="round" stroke-linejoin="round"/>
<path d="M165.443 32.5698C165.443 32.5698 162.556 37.419 162.556 40.5311C162.556 43.6432 165.086 47.4906 165.086 47.4906L169.415 48.1301C171.521 46.004 172.925 43.5238 173.507 40.8988C173.946 38.4108 174.068 35.8963 173.871 33.3904C173.871 33.3904 170.858 32.4739 165.443 32.5698Z" fill="#92E3A9" stroke="#263238" stroke-linecap="round" stroke-linejoin="round"/>
<path d="M167.131 33.2944C166.331 35.7606 165.808 38.2743 165.569 40.8081C165.324 44.3784 165.086 48.9559 165.086 48.9559H168.939C168.939 48.9559 170.859 38.3355 171.587 35.8629C172.316 33.3903 170.859 31.7437 167.131 33.2944Z" fill="white" stroke="#263238" stroke-linecap="round" stroke-linejoin="round"/>
<path d="M164.939 23.6602C164.939 23.6602 162.326 23.2872 162.031 21.6512C161.737 20.0153 164.918 18.1182 169.037 17.4148C173.157 16.7114 177.704 19.6582 178.306 22.3653C178.909 25.0723 180.247 28.4455 179.406 29.8257C178.565 31.2059 174.642 31.7068 170.466 32.1437C166.291 32.5807 164.056 30.9607 163.979 29.8577C163.902 28.7546 164.939 23.6602 164.939 23.6602Z" fill="#263238" stroke="#263238" stroke-linecap="round" stroke-linejoin="round"/>
<path d="M168.574 32.1117C168.574 32.1117 167.369 32.1117 167.012 32.57C166.655 33.0283 164.21 36.3002 164.21 36.3002L168.658 35.8419L173.598 37.2167C173.598 37.2167 173.717 33.6464 173.233 32.8204C172.75 31.9945 168.574 32.1117 168.574 32.1117Z" fill="white" stroke="#263238" stroke-linecap="round" stroke-linejoin="round"/>
<path d="M168.217 30.2783C168.217 30.2783 167.972 34.3975 167.972 35.3141C167.98 35.551 168.091 35.7791 168.289 35.9624C168.486 36.1457 168.758 36.2738 169.062 36.3263C169.366 36.3789 169.684 36.353 169.966 36.2526C170.248 36.1523 170.479 35.9833 170.62 35.7724C171.461 34.7652 172.183 30.2783 172.183 30.2783H168.217Z" fill="white" stroke="#263238" stroke-linecap="round" stroke-linejoin="round"/>
<path d="M157.982 23.1375L161.835 29.8199L165.569 28.7222L161.835 22.4075L157.982 23.1375Z" fill="#263238" stroke="#263238" stroke-linecap="round" stroke-linejoin="round"/>
<path d="M168.533 20.793C168.82 21.0061 166.648 22.77 164.967 23.1377C164.154 23.3135 164.967 26.1591 164.721 27.3475C164.462 28.6424 168.007 31.3814 169.436 31.2322C172.547 30.9072 173.738 30.1664 174.151 29.1007C174.298 28.6212 174.405 28.1354 174.474 27.6459C174.474 27.6459 176.036 28.4665 176.281 27.2782C176.526 26.0899 175.679 25.7222 175.679 25.7222C175.679 25.7222 168.813 24.7683 168.533 20.793Z" fill="white" stroke="#263238" stroke-linecap="round" stroke-linejoin="round"/>
<path d="M192.647 38.0584L194.209 34.9464L196.907 34.0565L196.984 34.0352V34.8558L195.414 35.5912H198.182L199.751 34.3069L200.353 34.584L198.903 37.5096L194.335 39.2521L192.647 38.0584Z" fill="white" stroke="#263238" stroke-linecap="round" stroke-linejoin="round"/>
<path d="M159.551 30.0066L157.744 26.1591L160.392 23.9636L161.093 24.326C161.093 24.326 160.49 26.2497 160.49 26.5268C161.023 27.5259 161.626 28.5025 162.298 29.4524L158.094 33.3904L156.293 31.9249L159.551 30.0066Z" fill="white" stroke="#263238" stroke-linecap="round" stroke-linejoin="round"/>
<path d="M156.3 31.9248L147.326 36.7208C146.909 36.9423 146.574 37.2425 146.356 37.5919C146.137 37.9413 146.042 38.3279 146.079 38.7138L146.128 39.2467C146.18 39.7726 146.476 40.2672 146.964 40.6421C147.452 41.0169 148.099 41.2477 148.79 41.2929C149.315 41.3271 149.843 41.2532 150.317 41.0788C150.792 40.9044 151.196 40.636 151.487 40.3018L158.101 33.4329L156.3 31.9248Z" fill="#92E3A9" stroke="#263238" stroke-linecap="round" stroke-linejoin="round"/>
<path d="M102.635 47.2615H224.047V84.5635H102.635C102.362 84.5635 102.1 84.481 101.906 84.3341C101.713 84.1872 101.605 83.9879 101.605 83.7802V48.0768C101.599 47.9713 101.622 47.866 101.671 47.7672C101.72 47.6684 101.795 47.5783 101.891 47.5021C101.987 47.4259 102.103 47.3654 102.231 47.324C102.358 47.2827 102.496 47.2614 102.635 47.2615Z" fill="white" stroke="#263238" stroke-linecap="round" stroke-linejoin="round"/>
<path d="M184.92 43.4834H197.278L195.52 47.3308H183.161L184.92 43.4834Z" fill="#263238" stroke="#263238" stroke-linecap="round" stroke-linejoin="round"/>
<path d="M206.4 43.4834H185.242L187 47.3308H208.158L206.4 43.4834Z" fill="white" stroke="#263238" stroke-linecap="round" stroke-linejoin="round"/>
<path d="M191.491 44.81L191.638 45.0978C191.827 45.4548 191.701 45.6307 191.246 45.6307H191.029L191.47 46.462H191.008L189.852 44.2505H190.552C190.767 44.2557 190.973 44.3128 191.142 44.4134C191.311 44.5141 191.433 44.653 191.491 44.81ZM190.475 44.5809L190.867 45.3322H191.085C191.225 45.3322 191.281 45.279 191.197 45.1191L191.022 44.7887C190.937 44.6288 190.832 44.5809 190.685 44.5809H190.475Z" fill="#263238"/>
<path d="M193.537 46.4779C193.455 46.3954 193.392 46.3037 193.347 46.2062L193.165 45.8598C193.06 45.6519 192.927 45.5773 192.717 45.5773H192.563L193.032 46.4779H192.577L191.414 44.2664H192.114C192.328 44.2599 192.539 44.3092 192.711 44.4061C192.883 44.5031 193.006 44.6418 193.06 44.7993L193.151 44.9752C193.268 45.199 193.247 45.3482 193.088 45.4228C193.219 45.4655 193.336 45.5297 193.43 45.6108C193.525 45.6919 193.595 45.7878 193.635 45.8917L193.817 46.2328C193.858 46.3311 193.922 46.4231 194.006 46.5046L193.537 46.4779ZM192.037 44.5808L192.395 45.2576H192.577C192.745 45.2576 192.822 45.2043 192.724 45.0285L192.612 44.81C192.528 44.6501 192.423 44.5808 192.262 44.5808H192.037Z" fill="#263238"/>
<path d="M194.034 45.1994H194.657L194.826 45.5138H194.202L194.538 46.1586H195.33L195.498 46.4783H194.251L193.088 44.2668H194.363L194.524 44.5813H193.74L194.034 45.1994Z" fill="#263238"/>
<path d="M195.218 44.24C195.432 44.2422 195.639 44.2946 195.812 44.39C195.985 44.4854 196.115 44.6191 196.185 44.7729V44.8422H195.764L195.715 44.7516C195.638 44.5917 195.519 44.5331 195.372 44.5331C195.225 44.5331 195.176 44.5917 195.26 44.7516C195.498 45.2098 196.437 45.2844 196.773 45.9239C196.955 46.2809 196.829 46.4834 196.381 46.4834C196.161 46.4813 195.948 46.4259 195.773 46.3252C195.598 46.2246 195.47 46.0839 195.407 45.9239L195.337 45.7907H195.764L195.841 45.9452C195.925 46.1051 196.052 46.1637 196.192 46.1637C196.332 46.1637 196.402 46.1051 196.318 45.9452C196.08 45.4923 195.141 45.4123 194.812 44.7729C194.65 44.4425 194.777 44.24 195.218 44.24Z" fill="#263238"/>
<path d="M196.171 44.2668H196.626L197.789 46.4783H197.334L196.171 44.2668Z" fill="#263238"/>
<path d="M196.963 44.2669H197.663C197.878 44.265 198.088 44.3159 198.262 44.4118C198.437 44.5078 198.565 44.6438 198.63 44.7998L199.219 45.9188C199.408 46.2759 199.282 46.4517 198.826 46.4517H198.126L196.963 44.2669ZM197.586 44.5813L198.413 46.18H198.672C198.819 46.18 198.875 46.1267 198.791 45.9668L198.189 44.8158C198.105 44.6612 197.986 44.6026 197.838 44.6026L197.586 44.5813Z" fill="#263238"/>
<path d="M199.604 45.1994H200.228L200.396 45.5138H199.772L200.108 46.1586H200.9L201.068 46.4783H199.821L198.658 44.2668H199.905L200.066 44.5813H199.268L199.604 45.1994Z" fill="#263238"/>
<path d="M200.914 44.8741L201.755 46.4727H201.37L200.214 44.2612H200.781L201.951 45.5828L201.25 44.2612H201.657L202.771 46.478H202.301L200.914 44.8741Z" fill="#263238"/>
<path d="M201.825 44.2668H203.226L203.394 44.5813H202.918L203.913 46.4783H203.471L202.47 44.5813H201.993L201.825 44.2668Z" fill="#263238"/>
<path d="M100.582 47.2615H226.1V49.1319H100.582C100.309 49.1319 100.047 49.0494 99.8539 48.9025C99.6608 48.7556 99.5522 48.5563 99.5522 48.3486V48.0448C99.5522 47.8371 99.6608 47.6378 99.8539 47.4909C100.047 47.344 100.309 47.2615 100.582 47.2615Z" fill="#263238"/>
<path d="M214.113 140.208L232.784 143.672C232.982 143.719 233.164 143.798 233.317 143.905C233.469 144.012 233.589 144.144 233.666 144.29C233.744 144.436 233.778 144.594 233.766 144.751C233.754 144.909 233.696 145.063 233.596 145.201L218.12 167.097L224.664 171.27L217.707 170.145L212.221 168.446L213.034 165.818L222.919 147.668C222.968 147.57 222.985 147.464 222.968 147.36C222.951 147.256 222.901 147.156 222.823 147.07C222.744 146.983 222.639 146.913 222.517 146.864C222.395 146.815 222.259 146.789 222.121 146.789H201.369C201.369 146.789 197.166 143.81 201.229 139.766L214.113 140.208Z" fill="#263238" stroke="#263238" stroke-linecap="round" stroke-linejoin="round"/>
<path d="M207.92 167.204V152.874H205.264V150.956H212.116V152.874H209.461V167.012L222.331 169.559V170.305H220.93L209.461 168.664V170.305H207.92V168.802L197.425 170.305H196.031V169.559L207.92 167.204Z" fill="#263238"/>
<path d="M215.332 151.063H194.91L192.962 148.59C192.232 147.673 191.793 146.64 191.68 145.571C191.567 144.503 191.783 143.429 192.31 142.435L193.544 140.101" stroke="#263238" stroke-width="2" stroke-linecap="round" stroke-linejoin="round"/>
<path d="M216.033 125.841L220.236 129.939L231.144 130.685C231.144 130.685 235.684 129.086 236.665 129.086C237.646 129.086 240.343 132.353 240.343 132.353H230.633L219.353 133.754L214.204 131.138L216.033 125.841Z" fill="#5C5C5C" stroke="#263238" stroke-linecap="round" stroke-linejoin="round"/>
<path d="M215.752 123.928L218.359 136.184C218.569 137.17 218.667 140.027 217.167 140.57C216.88 140.656 216.572 140.692 216.264 140.677C214.197 140.677 212.2 140.224 210.169 140.224H202.511C202.038 140.224 201.575 140.12 201.179 139.924C200.782 139.728 200.469 139.449 200.276 139.121L200.136 138.881C199.92 138.511 199.869 138.098 199.989 137.703C200.893 134.767 204.816 123.465 205.685 122.25C206.659 120.869 210.021 119.91 210.021 119.91L215.752 123.928Z" fill="#92E3A9" stroke="#263238" stroke-linecap="round" stroke-linejoin="round"/>
<path d="M218.674 119.564L216.439 120.321L214.821 122.985L210.344 119.676L211.584 117.502C211.584 117.502 209.966 115.7 210.344 114.091C210.722 112.482 214.695 110.782 216.81 112.295C218.926 113.809 218.674 119.564 218.674 119.564Z" fill="white" stroke="#263238" stroke-linecap="round" stroke-linejoin="round"/>
<path d="M219.508 112.162C219.508 112.162 220.986 111.912 220.825 110.915C220.664 109.919 219.508 111.038 219.508 109.919C219.508 108.799 220.825 108.421 220.005 107.787C219.186 107.153 216.558 106.79 215.907 107.664C215.255 108.538 215.409 109.034 214.919 109.034C214.428 109.034 213.118 108.16 212.117 109.284C211.115 110.409 211.465 110.782 211.465 110.782C211.465 110.782 207.696 111.901 207.696 113.771C207.696 115.642 211.57 117.459 211.57 117.459C211.57 117.459 214.085 117.635 215.234 116.766C216.383 115.897 216.712 114.395 217.035 113.771C217.357 113.148 219.508 112.162 219.508 112.162Z" fill="#263238" stroke="#263238" stroke-linecap="round" stroke-linejoin="round"/>
<path d="M218.926 111.336L220.04 113.889V114.549L221.638 115.764V115.796L220.412 116.915L220.531 119.377L217.728 119.532C217.065 119.568 216.404 119.441 215.842 119.169C215.281 118.898 214.849 118.496 214.611 118.024L213.945 116.724C213.602 116.617 213.311 116.432 213.111 116.195C212.912 115.957 212.814 115.678 212.831 115.397C212.831 114.331 212.705 113.979 213.448 113.979C213.995 113.994 214.538 114.056 215.066 114.166L215.816 113.883L215.69 112.935L216.81 112.274L216.937 111.331L218.926 111.336Z" fill="white" stroke="#263238" stroke-linecap="round" stroke-linejoin="round"/>
<path d="M210.715 118.29L217.294 123.182L216.033 125.841L209.041 119.884L210.715 118.29Z" fill="#92E3A9" stroke="#263238" stroke-linecap="round" stroke-linejoin="round"/>
<path d="M199.667 150.535H221.07C221.999 150.535 222.751 149.962 222.751 149.256V147.769C222.751 147.063 221.999 146.49 221.07 146.49H199.667C198.738 146.49 197.986 147.063 197.986 147.769V149.256C197.986 149.962 198.738 150.535 199.667 150.535Z" fill="#B5B5B5" stroke="#263238" stroke-linecap="round" stroke-linejoin="round"/>
<path d="M195.364 144.84L197.58 144.621C198.194 144.561 198.628 144.133 198.548 143.666L196.551 131.956C196.471 131.489 195.909 131.159 195.295 131.22L193.079 131.438C192.465 131.499 192.032 131.927 192.111 132.393L194.108 144.104C194.188 144.571 194.75 144.901 195.364 144.84Z" fill="#B5B5B5" stroke="#263238" stroke-linecap="round" stroke-linejoin="round"/>
<path d="M210.715 122.542L217.133 131.218L229.183 130.845C229.183 130.845 234.36 129.992 235.201 129.886C236.042 129.779 238.417 131.911 238.417 131.911H230.009L214.744 135.369L205.25 126.587" fill="#92E3A9"/>
<path d="M210.715 122.542L217.133 131.218L229.183 130.845C229.183 130.845 234.36 129.992 235.201 129.886C236.042 129.779 238.417 131.911 238.417 131.911H230.009L214.744 135.369L205.25 126.587" stroke="#263238" stroke-linecap="round" stroke-linejoin="round"/>
<path d="M229.204 132.055L228.896 130.84H229.183C229.183 130.84 234.36 129.987 235.201 129.881C236.042 129.774 238.417 131.906 238.417 131.906H230.01L229.204 132.055Z" fill="white" stroke="#263238" stroke-linecap="round" stroke-linejoin="round"/>
<path d="M295.634 146.267C295.634 146.267 308.602 164.518 309.008 165.248C309.398 166.083 309.597 166.963 309.597 167.849C309.597 167.849 309.45 168.073 308.854 168.073C308.259 168.073 302.17 170.108 300.538 170.108H297.568L299.795 168.638L302.318 166.506C302.318 166.506 303.719 166.751 303.719 164.715C303.719 162.68 287.913 146.507 287.318 145.265C286.722 144.023 289.994 143.235 291.031 143.347C292.068 143.459 295.045 143.8 295.045 143.8L295.634 146.267Z" fill="#5C5C5C" stroke="#263238" stroke-linecap="round" stroke-linejoin="round"/>
<path d="M307.075 139.201L284.838 144.039C284.635 144.084 284.447 144.164 284.29 144.272C284.133 144.379 284.01 144.513 283.93 144.662C283.851 144.811 283.817 144.972 283.831 145.133C283.845 145.294 283.906 145.45 284.011 145.59L301.554 165.984L294.45 170.827L299.354 171.291L303.214 170.225L305.393 168.85L304.581 166.223L294.688 148.052C294.639 147.954 294.622 147.848 294.639 147.744C294.656 147.64 294.706 147.541 294.784 147.455C294.863 147.369 294.968 147.298 295.091 147.25C295.213 147.202 295.349 147.177 295.487 147.178H318.957C318.957 147.178 324.204 143.357 320.148 139.313L307.075 139.201Z" fill="white" stroke="#263238" stroke-linecap="round" stroke-linejoin="round"/>
<path d="M298.948 119.564L301.183 120.32L302.801 122.985L307.278 119.676L306.038 117.491C306.038 117.491 307.649 115.69 307.278 114.08C306.907 112.471 302.927 110.771 300.812 112.285C298.696 113.798 298.948 119.564 298.948 119.564Z" fill="white" stroke="#263238" stroke-linecap="round" stroke-linejoin="round"/>
<path d="M298.695 111.336L297.581 113.888V114.549L295.984 115.764V115.796L297.21 116.915L297.091 119.377L299.893 119.532C300.557 119.568 301.219 119.442 301.781 119.172C302.344 118.901 302.777 118.501 303.018 118.029L303.677 116.729C304.021 116.623 304.314 116.439 304.515 116.201C304.716 115.963 304.814 115.684 304.798 115.402C304.798 114.336 304.924 113.984 304.174 113.984C303.629 113.999 303.089 114.062 302.563 114.171L301.813 113.888L301.939 112.94L300.818 112.279L300.692 111.336H298.695Z" fill="white" stroke="#263238" stroke-linecap="round" stroke-linejoin="round"/>
<path d="M302.766 125.484L297.371 130.706L281.797 130.424C281.797 130.424 277.138 128.932 276.403 129.214C275.667 129.497 274.07 131.543 274.07 131.543L277.755 131.079C278.573 131.356 279.439 131.544 280.326 131.639C280.955 131.617 281.577 131.521 282.168 131.356L301.049 134.25L306.57 130.051L302.766 125.484Z" fill="#5C5C5C" stroke="#263238" stroke-linecap="round" stroke-linejoin="round"/>
<path d="M302.023 124.259C302.023 124.259 301.134 130.808 302.023 131.719C302.913 132.63 306.626 133.637 306.78 133.978C306.935 134.319 306.78 138.497 307.075 138.838C307.884 139.397 308.839 139.82 309.877 140.08H319.23C319.23 140.08 320.722 139.174 320.722 138.385C320.722 137.597 317.492 134.655 317.492 134.655C317.492 134.655 315.965 125.735 314.48 123.465C312.995 121.194 306.871 119.804 306.367 119.66C305.863 119.516 302.023 124.259 302.023 124.259Z" fill="#92E3A9" stroke="#263238" stroke-linecap="round" stroke-linejoin="round"/>
<path d="M306.899 118.29L300.328 123.182L301.589 125.841L308.581 119.884L306.899 118.29Z" fill="#92E3A9" stroke="#263238" stroke-linecap="round" stroke-linejoin="round"/>
<path d="M306.899 122.542L300.489 131.218L288.432 130.845C288.432 130.845 283.261 129.992 282.421 129.886C281.58 129.779 279.198 131.911 279.198 131.911H287.605L302.871 135.369L312.364 126.587" fill="#92E3A9"/>
<path d="M306.899 122.542L300.489 131.218L288.432 130.845C288.432 130.845 283.261 129.992 282.421 129.886C281.58 129.779 279.198 131.911 279.198 131.911H287.605L302.871 135.369L312.364 126.587" stroke="#263238" stroke-linecap="round" stroke-linejoin="round"/>
<path d="M288.418 132.055L288.726 130.84H288.432C288.432 130.84 283.261 129.987 282.421 129.881C281.58 129.774 279.198 131.906 279.198 131.906H287.605L288.418 132.055Z" fill="white" stroke="#263238" stroke-linecap="round" stroke-linejoin="round"/>
<path d="M296.65 111.266C296.65 111.266 303.929 117.752 306.752 117.816C311.797 117.928 310.76 112.055 309.127 110.584C308.119 109.652 297.568 106.407 296.65 111.266Z" fill="#263238" stroke="#263238" stroke-linecap="round" stroke-linejoin="round"/>
<path d="M304.251 113.761C304.251 113.761 304.994 116.473 303.81 118.392C302.626 120.31 300.685 120.086 301.134 120.427C301.582 120.768 304.398 122.687 307.075 121.669C309.751 120.651 310.662 116.575 310.662 114.88" fill="#263238"/>
<path d="M304.251 113.761C304.251 113.761 304.994 116.473 303.81 118.392C302.626 120.31 300.685 120.086 301.134 120.427C301.582 120.768 304.398 122.687 307.075 121.669C309.751 120.651 310.662 116.575 310.662 114.88" stroke="#263238" stroke-linecap="round" stroke-linejoin="round"/>
<path d="M320.148 138.945L307.075 138.833L286.758 143.256C288.383 143.927 292.11 145.819 294.737 147.178C294.87 146.965 298.577 147.434 298.941 147.434L318.957 146.8C318.957 146.8 324.204 142.99 320.148 138.945Z" fill="#263238"/>
<path d="M317.576 167.204V152.874H320.232V150.956H313.38V152.874H316.035V167.012L303.165 169.559V170.305H304.559L316.035 168.664V170.305H317.576V168.802L328.064 170.305H329.466V169.559L317.576 167.204Z" fill="#263238"/>
<path d="M310.157 151.063H330.587L332.562 148.59C333.295 147.674 333.736 146.641 333.851 145.572C333.965 144.504 333.749 143.429 333.221 142.435L331.981 140.101" stroke="#263238" stroke-width="2" stroke-linecap="round" stroke-linejoin="round"/>
<path d="M325.829 146.485H304.426C303.498 146.485 302.745 147.058 302.745 147.764V149.251C302.745 149.957 303.498 150.53 304.426 150.53H325.829C326.758 150.53 327.511 149.957 327.511 149.251V147.764C327.511 147.058 326.758 146.485 325.829 146.485Z" fill="#B5B5B5" stroke="#263238" stroke-linecap="round" stroke-linejoin="round"/>
<path d="M331.584 131.563L329.372 131.342C328.759 131.281 328.197 131.609 328.116 132.075L326.098 143.766C326.017 144.232 326.449 144.66 327.062 144.721L329.275 144.942C329.887 145.003 330.449 144.675 330.53 144.209L332.548 132.518C332.629 132.052 332.197 131.624 331.584 131.563Z" fill="#B5B5B5" stroke="#263238" stroke-width="0.998499" stroke-linecap="round" stroke-linejoin="round"/>
<path d="M253.605 132.587L251.356 123.4H250.208L252.456 132.587H248.015V133.216H252.611H253.76L253.605 132.587Z" fill="white" stroke="#263238" stroke-width="0.75" stroke-linecap="round" stroke-linejoin="round"/>
<path d="M246.999 129.054L248.253 129.236L250.383 116.612L249.129 116.425L246.999 129.054Z" fill="white" stroke="#263238" stroke-width="0.75" stroke-linecap="round" stroke-linejoin="round"/>
<path d="M250.208 117.272L251.357 118.727L249.57 128.644L248.253 129.236L250.208 117.272Z" fill="white" stroke="#263238" stroke-width="0.75" stroke-linecap="round" stroke-linejoin="round"/>
<path d="M245.142 132.694H234.465V133.163H245.142V132.694Z" fill="white" stroke="#263238" stroke-width="0.75" stroke-linecap="round" stroke-linejoin="round"/>
<path d="M267.288 132.587L269.544 123.4H270.693L268.444 132.587H272.886V133.216H268.29H267.141L267.288 132.587Z" fill="white" stroke="#263238" stroke-width="0.75" stroke-linecap="round" stroke-linejoin="round"/>
<path d="M273.902 129.054L272.648 129.236L270.518 116.612L271.772 116.425L273.902 129.054Z" fill="white" stroke="#263238" stroke-width="0.75" stroke-linecap="round" stroke-linejoin="round"/>
<path d="M270.693 117.272L269.544 118.727L271.33 128.644L272.648 129.236L270.693 117.272Z" fill="white" stroke="#263238" stroke-width="0.75" stroke-linecap="round" stroke-linejoin="round"/>
<path d="M275.758 133.163H286.435V132.694H275.758V133.163Z" fill="white" stroke="#263238" stroke-width="0.75" stroke-linecap="round" stroke-linejoin="round"/>
<path d="M297.252 135.167H229.785V171.286H297.252V135.167Z" fill="white" stroke="#263238" stroke-linecap="round" stroke-linejoin="round"/>
<path d="M259.007 146.608H226.331V171.291H259.007V146.608Z" fill="white" stroke="#263238" stroke-linecap="round" stroke-linejoin="round"/>
<path d="M301.575 146.608H268.899V171.291H301.575V146.608Z" fill="white" stroke="#263238" stroke-linecap="round" stroke-linejoin="round"/>
<path d="M298.549 132.971H228.49V135.337H298.549V132.971Z" fill="white" stroke="#263238" stroke-linecap="round" stroke-linejoin="round"/>
<path d="M114.818 131.25H101.03C99.4827 131.25 98.228 132.204 98.228 133.382V142.558C98.228 143.735 99.4827 144.689 101.03 144.689H114.818C116.366 144.689 117.62 143.735 117.62 142.558V133.382C117.62 132.204 116.366 131.25 114.818 131.25Z" fill="#B5B5B5" stroke="#263238" stroke-linecap="round" stroke-linejoin="round"/>
<path d="M109.802 111.943C109.802 111.943 112.604 110.392 114.818 112.183C117.032 113.973 115.442 115.039 115.288 116.59C115.133 118.141 119.05 118.972 118.265 121.114C117.48 123.256 114.503 123.501 114.664 124.45C114.825 125.398 116.226 125.516 114.503 126.582C112.779 127.647 108.709 127.535 106.67 125.516C104.632 123.496 107.455 121.823 108.072 119.915C108.688 118.007 106.67 115.865 106.502 114.314C106.334 112.764 109.802 111.943 109.802 111.943Z" fill="#263238" stroke="#263238" stroke-linecap="round" stroke-linejoin="round"/>
<path d="M116.226 137.607L114.419 125.026C114.419 125.026 105.893 122.665 103.385 122.665C102.754 122.665 95.0265 125.026 95.0265 125.026L91.5796 132.673L91.7057 132.801C91.9865 133.078 92.3383 133.31 92.7399 133.482C93.1415 133.654 93.5847 133.763 94.0428 133.801C94.5009 133.839 94.9644 133.807 95.4055 133.705C95.8467 133.604 96.2563 133.436 96.6098 133.211L96.9601 132.992L99.0269 137.703L110.755 137.533L112.107 137.607H116.226Z" fill="white" stroke="#263238" stroke-linecap="round" stroke-linejoin="round"/>
<path d="M96.7502 132.726L97.1216 127.669" stroke="#263238" stroke-linecap="round" stroke-linejoin="round"/>
<path d="M111.399 136.659L110.902 128.148" stroke="#263238" stroke-linecap="round" stroke-linejoin="round"/>
<path d="M104.169 120.64C104.169 120.64 101.661 121.115 101.03 121.951C100.4 122.788 99.1528 127.195 99.1528 127.195L104.638 125.404L109.024 128.149C109.024 128.149 110.117 124.333 109.332 122.783C108.548 121.232 105.731 120.155 104.169 120.64Z" fill="white" stroke="#263238" stroke-linecap="round" stroke-linejoin="round"/>
<path d="M103.539 119.686C103.539 119.686 102.915 127.312 104.008 126.838C105.101 126.363 108.086 119.91 108.086 119.91L103.539 119.686Z" fill="white" stroke="#263238" stroke-linecap="round" stroke-linejoin="round"/>
<path d="M100.596 115.173C100.596 115.173 99.0897 114.107 98.8375 115.679C98.5853 117.251 100.939 117.592 100.939 117.592L100.596 115.173Z" fill="white" stroke="#263238" stroke-linecap="round" stroke-linejoin="round"/>
<path d="M110.11 115.173C110.11 115.173 111.617 114.107 111.869 115.679C112.121 117.251 109.767 117.592 109.767 117.592L110.11 115.173Z" fill="white" stroke="#263238" stroke-linecap="round" stroke-linejoin="round"/>
<path d="M110.559 114.965C110.559 117.629 108.275 120.997 105.458 120.997C102.642 120.997 100.358 117.64 100.358 114.965C100.358 112.29 102.642 110.11 105.458 110.11C108.275 110.11 110.559 112.285 110.559 114.965Z" fill="white" stroke="#263238" stroke-linecap="round" stroke-linejoin="round"/>
<path d="M109.221 111.704C108.894 112.027 108.698 112.417 108.658 112.824C108.619 113.231 108.736 113.638 108.996 113.995C109.133 114.271 109.34 114.523 109.606 114.737C109.872 114.951 110.191 115.123 110.545 115.242C110.545 115.151 110.545 115.055 110.545 114.965C110.566 113.799 110.103 112.658 109.221 111.704Z" fill="#263238" stroke="#263238" stroke-linecap="round" stroke-linejoin="round"/>
<path d="M109.206 111.682C108.791 111.213 108.234 110.825 107.582 110.552C106.93 110.279 106.202 110.127 105.458 110.11C102.656 110.11 100.358 112.285 100.358 114.965C103.334 114.419 106.136 113.424 108.597 112.039C108.8 111.927 109.003 111.805 109.206 111.682Z" fill="#263238" stroke="#263238" stroke-linecap="round" stroke-linejoin="round"/>
<path d="M93.7304 130.104C93.7304 130.104 91.1452 129.614 90.0663 130.269C89.3341 130.805 88.8126 131.486 88.5601 132.235H92.6515L94.375 131.745C94.375 131.745 94.5922 132.56 95.8883 131.905C97.1844 131.25 93.7304 130.104 93.7304 130.104Z" fill="white" stroke="#263238" stroke-linecap="round" stroke-linejoin="round"/>
<path d="M105.543 168.008V153.674H108.198V150.748H101.339V153.674H104.001V167.816L91.1313 170.364V171.11H92.5255L104.001 169.468V171.11H105.543V169.607L116.03 171.11H117.432V170.364L105.543 168.008Z" fill="#263238"/>
<path d="M114.902 147.29H93.4993C92.5707 147.29 91.8179 147.862 91.8179 148.569V150.055C91.8179 150.762 92.5707 151.334 93.4993 151.334H114.902C115.831 151.334 116.584 150.762 116.584 150.055V148.569C116.584 147.862 115.831 147.29 114.902 147.29Z" fill="#B5B5B5" stroke="#263238" stroke-linecap="round" stroke-linejoin="round"/>
<path d="M98.9989 137.703C98.9989 137.703 96.6799 142.099 94.7953 142.323C86.3882 143.341 83.9571 146.117 83.9571 146.117C83.7125 146.789 83.792 147.506 84.1813 148.137C84.8819 148.974 92.8056 167.15 92.8056 167.15L88.3849 171.184H90.1504C90.1504 171.184 93.6954 170.683 94.3539 169.841C95.0125 168.999 95.9022 168.328 96.1264 167.651C96.3506 166.974 96.792 166.809 95.9022 166.138C95.4143 165.75 94.8077 165.461 94.1367 165.296L91.8178 148.569L100.33 166.474C100.33 166.474 103.686 170.523 104.001 171.11C104.316 171.696 106.965 170.849 105.402 168.664C104.659 167.5 103.605 166.467 102.306 165.632L98.5435 147.966L111.82 147.295C112.431 147.108 112.951 146.78 113.308 146.358C113.664 145.936 113.84 145.441 113.809 144.94C113.809 143.085 110.713 137.532 110.713 137.532L98.9989 137.703Z" fill="#263238" stroke="#263238" stroke-linecap="round" stroke-linejoin="round"/>
<path d="M111.399 136.675L101.486 141.263L97.3945 141.758L95.2437 143.069C95.2437 143.069 99.9797 143.528 101.276 143.197C101.989 143.033 102.649 142.755 103.209 142.382L114.202 139.43C114.202 139.43 116.352 137.954 116.142 137.133C115.932 136.312 111.399 136.168 111.399 136.675Z" fill="white" stroke="#263238" stroke-linecap="round" stroke-linejoin="round"/>
<path d="M84.1814 148.137C84.882 148.974 92.2732 165.397 92.2732 165.397L90.872 169.57L88.4059 171.168H90.1714C90.1714 171.168 93.7164 170.667 94.375 169.825C95.0335 168.984 95.9233 168.312 96.1475 167.635C96.3717 166.959 96.813 166.793 95.9233 166.122C95.4353 165.735 94.8287 165.445 94.1578 165.28L91.8388 148.553L100.351 166.458C100.351 166.458 103.707 170.508 104.022 171.094C104.337 171.68 106.986 170.833 105.423 168.648C104.68 167.484 103.626 166.451 102.327 165.616L98.5645 147.95L99.104 147.924C99.104 147.924 98.5505 146.24 97.906 146.101C87.8665 143.933 83.9642 146.101 83.9642 146.101C83.7121 146.778 83.7892 147.5 84.1814 148.137Z" fill="white" stroke="#263238" stroke-linecap="round" stroke-linejoin="round"/>
<path d="M91.8179 148.569C91.8179 148.569 90.1295 145.979 90.2626 145.473Z" fill="white"/>
<path d="M91.8179 148.569C91.8179 148.569 90.1295 145.979 90.2626 145.473" stroke="#263238" stroke-linecap="round" stroke-linejoin="round"/>
<path d="M154.297 140.346L137.483 144.114C137.279 144.159 137.092 144.238 136.935 144.346C136.778 144.454 136.655 144.588 136.575 144.737C136.496 144.886 136.461 145.047 136.475 145.208C136.489 145.368 136.551 145.525 136.656 145.665L150.261 167.246L144.58 171.312L150.689 170.321L156.174 168.621L155.362 165.984L145.476 147.833C145.427 147.735 145.411 147.63 145.427 147.526C145.444 147.422 145.494 147.322 145.573 147.236C145.651 147.15 145.756 147.08 145.879 147.032C146.001 146.984 146.137 146.959 146.275 146.959H167.041C167.041 146.959 171.244 143.981 167.181 139.936L154.297 140.346Z" fill="#263238" stroke="#263238" stroke-linecap="round" stroke-linejoin="round"/>
<path d="M154.43 123.512L143.416 128.436L140.565 130.68L142.351 131.671L153.47 130.477L154.43 123.512Z" fill="white" stroke="#263238" stroke-width="0.75" stroke-linecap="round" stroke-linejoin="round"/>
<path d="M145.21 123.059C145.21 123.059 139.423 129.177 139.409 129.752C139.395 130.328 140.81 131.228 141.721 131.607C142.632 131.985 144.369 130.973 144.369 130.973L147.081 123.917L145.21 123.059Z" fill="white" stroke="#263238" stroke-width="0.75" stroke-linecap="round" stroke-linejoin="round"/>
<path d="M152.65 124.061L151.851 138.412C151.827 138.899 152.056 139.374 152.489 139.733C152.717 139.926 152.996 140.081 153.307 140.186C153.618 140.292 153.956 140.346 154.297 140.346H165.898C166.371 140.345 166.833 140.24 167.228 140.043C167.623 139.846 167.935 139.567 168.126 139.238L168.273 138.998C168.486 138.629 168.538 138.218 168.42 137.826C167.517 134.884 163.593 123.582 162.725 122.372C161.744 120.987 158.388 120.027 158.388 120.027L152.65 124.061Z" fill="white" stroke="#263238" stroke-linecap="round" stroke-linejoin="round"/>
<path d="M149.371 120.672L149.504 119.468L148.348 119.265L147.809 120.032L146.022 120.384L145.168 123.272L147.143 123.992L150.226 121.471L149.371 120.672Z" fill="white" stroke="#263238" stroke-width="0.75" stroke-linecap="round" stroke-linejoin="round"/>
<path d="M149.372 120.688L146.856 120.55L146.716 121.082L148.117 121.376C148.117 121.376 147.039 121.935 146.933 122.249" fill="white"/>
<path d="M149.372 120.688L146.856 120.55L146.716 121.082L148.117 121.376C148.117 121.376 147.039 121.935 146.933 122.249" stroke="#263238" stroke-width="0.75" stroke-linecap="round" stroke-linejoin="round"/>
<path d="M149.736 119.697L151.971 120.454L153.589 123.118L158.066 119.809L156.826 117.635C156.826 117.635 158.437 115.839 158.066 114.229C157.695 112.62 153.715 110.915 151.599 112.428C149.484 113.942 149.736 119.697 149.736 119.697Z" fill="white" stroke="#263238" stroke-linecap="round" stroke-linejoin="round"/>
<path d="M149.238 112.13C149.238 112.13 148.243 111.186 148.243 110.531C148.243 109.876 150.233 109.114 151.228 109.114C152.223 109.114 156.573 109.305 158.066 110.344C158.834 110.929 159.397 111.651 159.702 112.445C160.007 113.238 160.044 114.077 159.81 114.885C159.313 116.483 157.82 117.911 156.307 118.007C154.794 118.103 153.82 116.776 153.568 116.302C152.764 115.118 151.849 113.98 150.829 112.897C150.402 112.534 149.852 112.268 149.238 112.13Z" fill="#263238" stroke="#263238" stroke-linecap="round" stroke-linejoin="round"/>
<path d="M149.483 111.469L148.363 114.022V114.688L146.723 115.892L147.963 117.027L147.837 119.489L150.639 119.644C151.303 119.68 151.965 119.554 152.527 119.284C153.09 119.013 153.523 118.613 153.764 118.141L154.423 116.841C154.768 116.736 155.061 116.551 155.262 116.313C155.463 116.076 155.561 115.796 155.544 115.514C155.544 114.448 155.67 114.096 154.92 114.096C154.375 114.111 153.835 114.173 153.309 114.283L152.559 114L152.685 113.057L151.564 112.391L151.438 111.448L149.483 111.469Z" fill="white" stroke="#263238" stroke-linecap="round" stroke-linejoin="round"/>
<path d="M157.688 118.423L151.116 123.315L152.37 125.979L159.369 120.016L157.688 118.423Z" fill="white" stroke="#263238" stroke-linecap="round" stroke-linejoin="round"/>
<path d="M157.687 122.681L152.377 130.765L139.22 130.978C139.22 130.978 134.043 130.126 133.209 130.019C132.375 129.912 129.986 132.044 129.986 132.044H138.393L154.759 134.916L163.166 126.72" fill="white"/>
<path d="M157.687 122.681L152.377 130.765L139.22 130.978C139.22 130.978 134.043 130.126 133.209 130.019C132.375 129.912 129.986 132.044 129.986 132.044H138.393L154.759 134.916L163.166 126.72" stroke="#263238" stroke-linecap="round" stroke-linejoin="round"/>
<path d="M139.206 132.188L139.507 130.973H139.22C139.22 130.973 134.043 130.12 133.209 130.014C132.375 129.907 129.986 132.039 129.986 132.039H138.393L139.206 132.188Z" fill="white" stroke="#263238" stroke-linecap="round" stroke-linejoin="round"/>
<path d="M160.49 167.342V153.008H163.145V151.095H156.293V153.008H158.948V167.145L146.078 169.698V170.444H147.48L158.948 168.797V170.444H160.49V168.941L170.984 170.444H172.379V169.698L160.49 167.342Z" fill="#263238"/>
<path d="M153.071 151.196H173.5L175.476 148.723C176.208 147.807 176.649 146.774 176.764 145.705C176.878 144.636 176.662 143.562 176.134 142.568L174.901 140.24" stroke="#263238" stroke-width="2" stroke-linecap="round" stroke-linejoin="round"/>
<path d="M168.743 146.624H147.34C146.411 146.624 145.658 147.196 145.658 147.902V149.389C145.658 150.096 146.411 150.668 147.34 150.668H168.743C169.672 150.668 170.424 150.096 170.424 149.389V147.902C170.424 147.196 169.672 146.624 168.743 146.624Z" fill="#B5B5B5" stroke="#263238" stroke-linecap="round" stroke-linejoin="round"/>
<path d="M175.337 131.568L173.121 131.349C172.507 131.288 171.945 131.618 171.865 132.085L169.868 143.795C169.789 144.262 170.222 144.69 170.836 144.751L173.052 144.969C173.666 145.03 174.228 144.7 174.308 144.233L176.305 132.523C176.385 132.056 175.951 131.628 175.337 131.568Z" fill="#B5B5B5" stroke="#263238" stroke-linecap="round" stroke-linejoin="round"/>
<path d="M127.709 132.06H121.6L118.293 124.797H124.395L127.709 132.06Z" fill="white" stroke="#263238" stroke-width="0.75" stroke-linecap="round" stroke-linejoin="round"/>
<path d="M137.104 131.346H121.6V132.06H137.104V131.346Z" fill="white" stroke="#263238" stroke-width="0.75" stroke-linecap="round" stroke-linejoin="round"/>
<path d="M137.104 131.346H130.203V132.06H137.104V131.346Z" fill="white" stroke="#263238" stroke-width="0.75" stroke-linecap="round" stroke-linejoin="round"/>
<path d="M92.6795 124.743H76.4888V131.319H92.6795V124.743Z" fill="white" stroke="#263238" stroke-width="0.75" stroke-linecap="round" stroke-linejoin="round"/>
<path d="M102.046 131.41H76.4888V132.06H102.046V131.41Z" fill="white" stroke="#263238" stroke-width="0.75" stroke-linecap="round" stroke-linejoin="round"/>
<path d="M102.046 131.41H92.5532V132.06H102.046V131.41Z" fill="white" stroke="#263238" stroke-width="0.75" stroke-linecap="round" stroke-linejoin="round"/>
<path d="M142.786 171.285H144.355L145.14 135.992H142.001L142.786 171.285Z" fill="white" stroke="#263238" stroke-linecap="round" stroke-linejoin="round"/>
<path d="M70.2676 171.285H71.8369L72.6146 135.992H69.4829L70.2676 171.285Z" fill="white" stroke="#263238" stroke-linecap="round" stroke-linejoin="round"/>
<path d="M147.179 132.896H67.4514V136.829H147.179V132.896Z" fill="white" stroke="#263238" stroke-linecap="round" stroke-linejoin="round"/>
<path d="M148.545 131.932H65.8818V133.376H148.545V131.932Z" fill="#263238" stroke="#263238" stroke-linecap="round" stroke-linejoin="round"/>
<path d="M50.9735 105.49L42.4683 108.187L46.7209 126.124H63.9204L65.3356 108.997L57.6431 105.549L50.9735 105.49Z" fill="white" stroke="#263238" stroke-linecap="round" stroke-linejoin="round"/>
<path d="M52.8579 109.226L54.4062 111.416L52.4165 120.342L54.6304 123.715L58.6167 119.67L55.7373 111.416L56.8442 109.396L54.6304 106.87L52.8579 109.226Z" fill="#92E3A9" stroke="#263238" stroke-linecap="round" stroke-linejoin="round"/>
<path d="M52.5637 104.27C52.5637 104.27 51.2956 104.376 51.0084 104.914C50.7211 105.453 51.1555 110.616 51.1555 110.616L54.8266 109.018L58.3295 110.616C58.3295 110.616 57.9022 107.174 56.9284 105.559C55.9545 103.945 52.5637 104.27 52.5637 104.27Z" fill="white" stroke="#263238" stroke-linecap="round" stroke-linejoin="round"/>
<path d="M52.0379 103.06C52.0379 103.06 51.8628 104.408 51.8628 105.218C51.8628 106.028 54.1677 109.535 54.8753 109.263C55.5829 108.991 57.3554 106.833 57.3554 106.833L58.2452 106.023L60.0177 104.808C60.0177 104.808 55.8772 101.254 54.7002 101.035C53.5232 100.817 52.0379 103.06 52.0379 103.06Z" fill="white" stroke="#263238" stroke-linecap="round" stroke-linejoin="round"/>
<path d="M59.8496 97.417C59.8496 97.417 60.8445 96.4685 60.8445 95.8184C60.8445 95.1682 58.8548 94.4009 57.86 94.4009C56.8651 94.4009 52.5144 94.5874 51.0222 95.6318C50.2526 96.2158 49.6893 96.9381 49.3844 97.7318C49.0794 98.5254 49.0427 99.3647 49.2777 100.172C49.7751 101.771 51.2674 103.199 52.7807 103.295C54.294 103.391 55.2678 102.064 55.52 101.59C56.318 100.404 57.2313 99.2661 58.2523 98.1844C58.6794 97.8195 59.233 97.5536 59.8496 97.417Z" fill="#263238" stroke="#263238" stroke-linecap="round" stroke-linejoin="round"/>
<path d="M59.6116 96.7561L60.7326 99.3086V99.9694L62.3509 101.2L61.1039 102.335L61.23 104.797L58.4276 104.952C57.7638 104.989 57.1017 104.864 56.539 104.593C55.9764 104.322 55.5431 103.921 55.303 103.449L54.6024 102.149C54.2697 102.036 53.9902 101.848 53.8012 101.611C53.6122 101.374 53.5227 101.099 53.5445 100.822C53.5445 99.7829 53.4184 99.4045 54.161 99.4045C54.7081 99.4188 55.2512 99.4814 55.7794 99.5911L56.529 99.3086L56.4029 98.3601L57.5238 97.6993L57.6429 96.7561H59.6116Z" fill="white" stroke="#263238" stroke-linecap="round" stroke-linejoin="round"/>
<path d="M46.7207 126.124L43.533 166.442H46.9028L54.8755 135.694H56.4729L63.738 166.442L67.1079 166.303L63.9202 126.124H46.7207Z" fill="#263238" stroke="#263238" stroke-linecap="round" stroke-linejoin="round"/>
<path d="M42.468 108.187L38.6848 118.311L29.8013 113.228L28.0779 115.029L39.5466 123.555L45.1513 119.127C45.1513 119.127 43.2387 110.83 42.468 108.187Z" fill="white" stroke="#263238" stroke-linecap="round" stroke-linejoin="round"/>
<path d="M64.0532 108.176L56.5289 118.69L43.666 123.486L44.2685 125.164L61.3069 122.591L66.6945 115.892C66.6945 115.892 68.9574 108.677 64.0532 108.176Z" fill="white" stroke="#263238" stroke-linecap="round" stroke-linejoin="round"/>
<path d="M29.801 113.228L28.7291 111.096L25.9267 110.116L24.8478 110.441L26.1369 111.096L23.5517 110.441L22.0455 109.295L20.9666 109.455L22.9072 112.737L28.0776 115.029L29.801 113.228Z" fill="white" stroke="#263238" stroke-linecap="round" stroke-linejoin="round"/>
<path d="M43.6661 123.486L40.2262 122.655L37.5989 123.886L37.3677 124.749L38.7969 124.29L36.6531 125.569L34.5584 125.894L34.145 126.667L38.811 127.248L44.1775 125.234L43.6661 123.486Z" fill="white" stroke="#263238" stroke-linecap="round" stroke-linejoin="round"/>
<path d="M43.5329 166.442L41.1649 168.973L37.76 171.286H46.8957L46.9027 166.442H43.5329Z" fill="#263238" stroke="#263238" stroke-linecap="round" stroke-linejoin="round"/>
<path d="M67.1081 166.303L69.4761 168.973L72.881 171.285H63.7453L63.7383 166.442L67.1081 166.303Z" fill="#263238" stroke="#263238" stroke-linecap="round" stroke-linejoin="round"/>
<path d="M21.1001 95.0457H17.9194V141.353H21.1001V95.0457Z" fill="#263238" stroke="#263238" stroke-linecap="round" stroke-linejoin="round"/>
<path d="M23.5032 95.0457H20.3225V141.353H23.5032V95.0457Z" fill="white" stroke="#263238" stroke-linecap="round" stroke-linejoin="round"/>
<path d="M24.8833 141.354H16.0769V143.181H24.8833V141.354Z" fill="#263238" stroke="#263238" stroke-linecap="round" stroke-linejoin="round"/>
<path d="M17.9473 121.05L4.0686 170.998H6.73085L19.5447 123.891L17.9473 121.05Z" fill="#263238" stroke="#263238" stroke-linecap="round" stroke-linejoin="round"/>
<path d="M20.4834 142.265L27.8186 170.588H30.4949L23.0195 142.366L20.4834 142.265Z" fill="#263238" stroke="#263238" stroke-linecap="round" stroke-linejoin="round"/>
<path d="M91.9158 200.104L88.7351 201.527V213.623H99.8675V201.314L96.2174 200.179L91.9158 200.104Z" fill="white" stroke="#263238" stroke-linecap="round" stroke-linejoin="round"/>
<path d="M91.0753 200.621V213.783H78.2615L81.8135 203.749C81.8135 203.749 90.3257 200.461 91.0753 200.621Z" fill="#92E3A9" stroke="#263238" stroke-linecap="round" stroke-linejoin="round"/>
<path d="M84.896 213.693V207.857" stroke="#263238" stroke-linecap="round" stroke-linejoin="round"/>
<path d="M97.8081 200.621V213.783H110.622L107.063 203.749C107.063 203.749 98.5577 200.461 97.8081 200.621Z" fill="#92E3A9" stroke="#263238" stroke-linecap="round" stroke-linejoin="round"/>
<path d="M103.98 213.693V207.857" stroke="#263238" stroke-linecap="round" stroke-linejoin="round"/>
<path d="M92.7778 198.825C92.7778 198.825 91.2785 198.969 90.9072 199.678C90.5359 200.386 89.1277 206.296 89.1277 206.296L92.6867 204.943L94.3681 205.795L96.4279 204.799L99.8818 207.08C99.8818 207.08 99.0411 200.317 97.3596 198.969C95.6782 197.621 92.7778 198.825 92.7778 198.825Z" fill="white" stroke="#263238" stroke-linecap="round" stroke-linejoin="round"/>
<path d="M92.3784 198.543C92.4189 200.303 92.5756 202.06 92.8478 203.808C93.2261 205.513 94.3471 206.008 94.9986 205.513C95.6502 205.017 95.9374 203.664 95.9374 203.664L96.8692 198.612L92.3784 198.543Z" fill="white" stroke="#263238" stroke-linecap="round" stroke-linejoin="round"/>
<path d="M94.7181 191.429C97.1983 191.429 99.2089 189.899 99.2089 188.013C99.2089 186.126 97.1983 184.597 94.7181 184.597C92.2379 184.597 90.2273 186.126 90.2273 188.013C90.2273 189.899 92.2379 191.429 94.7181 191.429Z" fill="#263238" stroke="#263238" stroke-linecap="round" stroke-linejoin="round"/>
<path d="M89.3867 192.99C89.3867 192.99 87.7053 191.781 87.425 193.56C87.1448 195.34 89.765 195.692 89.765 195.692L89.3867 192.99Z" fill="white" stroke="#263238" stroke-linecap="round" stroke-linejoin="round"/>
<path d="M100.008 192.99C100.008 192.99 101.696 191.781 101.976 193.56C102.257 195.34 99.6365 195.692 99.6365 195.692L100.008 192.99Z" fill="white" stroke="#263238" stroke-linecap="round" stroke-linejoin="round"/>
<path d="M100.484 192.761C100.484 195.75 97.9339 199.502 94.7883 199.502C91.6426 199.502 89.0854 195.772 89.0854 192.761C89.0854 189.75 91.6356 187.341 94.7883 187.341C97.9409 187.341 100.484 189.766 100.484 192.761Z" fill="white" stroke="#263238" stroke-linecap="round" stroke-linejoin="round"/>
<path d="M99.0199 189.116C98.6541 189.477 98.4353 189.912 98.3904 190.366C98.3456 190.821 98.4768 191.275 98.7677 191.674C99.0787 192.295 99.6975 192.798 100.491 193.075C100.491 192.969 100.491 192.862 100.491 192.761C100.517 191.458 100.002 190.183 99.0199 189.116Z" fill="#263238" stroke="#263238" stroke-linecap="round" stroke-linejoin="round"/>
<path d="M99.0057 189.1C98.5385 188.574 97.9137 188.141 97.1828 187.835C96.4519 187.529 95.6359 187.36 94.8022 187.341C91.6495 187.341 89.0994 189.766 89.0994 192.761C92.4274 192.153 95.5605 191.042 98.3121 189.494L99.0057 189.1Z" fill="#263238" stroke="#263238" stroke-linecap="round" stroke-linejoin="round"/>
<path d="M74.1139 198.538H50.1396V211.135H74.1139V198.538Z" fill="#263238" stroke="#263238" stroke-linecap="round" stroke-linejoin="round"/>
<path d="M70.1696 201.895H53.1382V211.13H70.1696V201.895Z" fill="#474747" stroke="#263238" stroke-linecap="round" stroke-linejoin="round"/>
<path d="M63.2337 207.655H59.9199V214.013H63.2337V207.655Z" fill="#B5B5B5" stroke="#263238" stroke-linecap="round" stroke-linejoin="round"/>
<path d="M134.785 214.625H43.7781V250.968H134.785V214.625Z" fill="#92E3A9" stroke="#263238" stroke-linecap="round" stroke-linejoin="round"/>
<path d="M130.567 209.712H106.089V214.247H130.567V209.712Z" fill="white" stroke="#263238" stroke-linecap="round" stroke-linejoin="round"/>
<path d="M136.908 213.719H42.6431V215.456H136.908V213.719Z" fill="#263238" stroke="#263238" stroke-linecap="round" stroke-linejoin="round"/>
<path d="M96.3437 223.434H83.2076C81.2226 223.434 79.6135 224.658 79.6135 226.168V236.159C79.6135 237.669 81.2226 238.893 83.2076 238.893H96.3437C98.3286 238.893 99.9377 237.669 99.9377 236.159V226.168C99.9377 224.658 98.3286 223.434 96.3437 223.434Z" fill="#263238"/>
<path d="M87.3317 222.088L77.8449 229.304C76.496 230.33 76.496 231.993 77.8449 233.019L87.3317 240.235C88.6805 241.261 90.8674 241.261 92.2162 240.235L101.703 233.019C103.052 231.993 103.052 230.33 101.703 229.304L92.2162 222.088C90.8674 221.062 88.6805 221.062 87.3317 222.088Z" fill="white"/>
<path d="M89.7722 236.042C93.3164 236.042 96.1896 233.857 96.1896 231.161C96.1896 228.465 93.3164 226.28 89.7722 226.28C86.2279 226.28 83.3547 228.465 83.3547 231.161C83.3547 233.857 86.2279 236.042 89.7722 236.042Z" fill="#263238"/>
<path d="M170.389 211.161H260.065C260.661 211.167 261.23 211.349 261.652 211.67C262.073 211.991 262.313 212.424 262.321 212.877V250.952H168.105V212.877C168.111 212.42 168.354 211.983 168.782 211.661C169.21 211.34 169.787 211.16 170.389 211.161Z" fill="#7D7D7D" stroke="#263238" stroke-linecap="round" stroke-linejoin="round"/>
<path d="M170.389 230.942H260.065C260.67 230.942 261.251 231.125 261.68 231.451C262.108 231.777 262.349 232.219 262.349 232.68V250.974H168.105V232.68C168.104 232.451 168.163 232.225 168.277 232.014C168.391 231.803 168.56 231.611 168.772 231.45C168.984 231.288 169.236 231.16 169.514 231.073C169.791 230.986 170.089 230.942 170.389 230.942Z" fill="#7D7D7D" stroke="#263238" stroke-linecap="round" stroke-linejoin="round"/>
<path d="M167.923 236.133H262.321" stroke="#263238" stroke-linecap="round" stroke-linejoin="round"/>
<path d="M163.194 226.2H173.941C174.547 226.2 175.128 226.383 175.556 226.709C175.984 227.034 176.225 227.476 176.225 227.937V251H160.91V227.91C160.918 227.454 161.162 227.018 161.589 226.698C162.017 226.377 162.594 226.198 163.194 226.2Z" fill="#7D7D7D" stroke="#263238" stroke-linecap="round" stroke-linejoin="round"/>
<path d="M256.947 226.2H267.694C268.298 226.2 268.877 226.382 269.304 226.707C269.731 227.032 269.971 227.472 269.971 227.932V250.995H254.67V227.91C254.678 227.455 254.921 227.02 255.347 226.699C255.773 226.379 256.348 226.2 256.947 226.2Z" fill="#7D7D7D" stroke="#263238" stroke-linecap="round" stroke-linejoin="round"/>
<path d="M280.494 212.776C280.494 212.776 277.173 214.529 277.173 221.835V237.39H284.368V212.147L280.494 212.776Z" fill="#7D7D7D" stroke="#263238" stroke-linecap="round" stroke-linejoin="round"/>
<path d="M282.771 211.161H290.569C291.174 211.161 291.755 211.344 292.184 211.67C292.612 211.996 292.853 212.438 292.853 212.899V250.973H280.494V212.877C280.5 212.421 280.742 211.984 281.168 211.663C281.595 211.342 282.171 211.161 282.771 211.161Z" fill="#7D7D7D" stroke="#263238" stroke-linecap="round" stroke-linejoin="round"/>
<path d="M249.57 226.2H290.569C291.175 226.2 291.755 226.383 292.184 226.709C292.612 227.034 292.853 227.476 292.853 227.937V251H247.314V227.91C247.322 227.457 247.562 227.025 247.983 226.705C248.405 226.385 248.975 226.204 249.57 226.2Z" fill="#7D7D7D" stroke="#263238" stroke-linecap="round" stroke-linejoin="round"/>
<path d="M125.334 193.624L122.532 186.409H124.865L126.567 191.327L128.27 186.409H130.372L127.569 193.624V197.2H125.334V193.624Z" fill="#263238"/>
<path d="M130.785 188.999C130.785 187.272 131.983 186.281 134.176 186.281C136.369 186.281 137.56 187.272 137.56 188.999V194.61C137.56 196.337 136.362 197.323 134.176 197.323C131.99 197.323 130.785 196.337 130.785 194.61V188.999ZM133.02 194.717C133.02 195.49 133.461 195.783 134.176 195.783C134.89 195.783 135.332 195.49 135.332 194.717V188.898C135.332 188.13 134.883 187.832 134.176 187.832C133.468 187.832 133.02 188.125 133.02 188.898V194.717Z" fill="#263238"/>
<path d="M141.119 186.409V194.759C141.119 195.532 141.567 195.825 142.275 195.825C142.982 195.825 143.431 195.548 143.431 194.759V186.409H145.532V194.626C145.532 196.353 144.397 197.338 142.205 197.338C140.012 197.338 138.884 196.353 138.884 194.626V186.409H141.119Z" fill="#263238"/>
<path d="M151.725 197.2C151.541 196.772 151.472 196.321 151.522 195.873V194.178C151.522 193.177 151.074 192.804 150.065 192.804H149.294V197.2H147.059V186.409H150.429C152.741 186.409 153.736 187.224 153.736 188.887V189.739C153.736 190.848 153.267 191.573 152.272 191.93C153.386 192.281 153.75 193.097 153.75 194.226V195.889C153.709 196.334 153.792 196.781 153.995 197.2H151.725ZM149.294 187.949V191.264H150.163C150.997 191.264 151.501 190.986 151.501 190.123V189.057C151.501 188.29 151.158 187.949 150.366 187.949H149.294Z" fill="#263238"/>
<path d="M166.249 193.193V194.626C166.249 196.353 165.114 197.339 162.921 197.339C160.728 197.339 159.6 196.353 159.6 194.626V189.015C159.6 187.283 160.735 186.297 162.921 186.297C165.107 186.297 166.249 187.283 166.249 189.015V190.081H164.147V188.898C164.147 188.13 163.699 187.832 162.991 187.832C162.283 187.832 161.835 188.125 161.835 188.898V194.759C161.835 195.532 162.283 195.825 162.991 195.825C163.699 195.825 164.147 195.548 164.147 194.759V193.219L166.249 193.193Z" fill="#263238"/>
<path d="M167.426 189.015C167.426 187.283 168.617 186.297 170.81 186.297C173.003 186.297 174.194 187.283 174.194 189.015V194.626C174.194 196.353 172.996 197.339 170.81 197.339C168.624 197.339 167.426 196.353 167.426 194.626V189.015ZM169.654 194.759C169.654 195.532 170.095 195.825 170.81 195.825C171.524 195.825 171.966 195.532 171.966 194.759V188.898C171.966 188.13 171.517 187.832 170.81 187.832C170.102 187.832 169.654 188.125 169.654 188.898V194.759Z" fill="#263238"/>
<path d="M180.352 194.088L181.872 186.42H184.975V197.216H182.874V189.473L181.332 197.216H179.231L177.549 189.585V197.216H175.602V186.42H178.705L180.352 194.088Z" fill="#263238"/>
<path d="M193.207 189.089V190.496C193.207 192.223 192.107 193.161 189.88 193.161H188.829V197.216H186.594V186.42H189.88C192.107 186.42 193.207 187.363 193.207 189.089ZM188.829 187.965V191.621H189.88C190.58 191.621 190.972 191.37 190.972 190.603V189.004C190.972 188.231 190.587 187.986 189.88 187.986L188.829 187.965Z" fill="#263238"/>
<path d="M201.292 197.216H199.043L198.658 195.26H195.919L195.534 197.216H193.488L195.765 186.42H199.029L201.292 197.216ZM196.206 193.795H198.35L197.278 188.333L196.206 193.795Z" fill="#263238"/>
<path d="M204.312 189.399V197.216H202.301V186.42H205.104L207.395 192.884V186.42H209.377V197.216H207.086L204.312 189.399Z" fill="#263238"/>
<path d="M213.069 193.64L210.267 186.42H212.579L214.281 191.344L215.984 186.42H218.086L215.283 193.64V197.216H213.069V193.64Z" fill="#263238"/>
<path d="M248.793 182.167H228.882C226.897 182.167 225.288 183.391 225.288 184.901V200.046C225.288 201.555 226.897 202.779 228.882 202.779H248.793C250.778 202.779 252.387 201.555 252.387 200.046V184.901C252.387 183.391 250.778 182.167 248.793 182.167Z" fill="#263238"/>
<path d="M236.396 179.753L222.118 190.613C220.769 191.639 220.769 193.302 222.118 194.328L236.396 205.188C237.744 206.214 239.931 206.214 241.28 205.188L255.557 194.328C256.906 193.302 256.906 191.639 255.557 190.613L241.28 179.753C239.931 178.727 237.744 178.727 236.396 179.753Z" fill="white"/>
<path d="M238.837 198.985C243.566 198.985 247.399 196.069 247.399 192.473C247.399 188.877 243.566 185.961 238.837 185.961C234.109 185.961 230.276 188.877 230.276 192.473C230.276 196.069 234.109 198.985 238.837 198.985Z" fill="#263238"/>
<path d="M185.963 88.7791H180.814V173.284H185.963V88.7791Z" fill="#92E3A9"/>
<path d="M336.584 170.875H1V175.671H336.584V170.875Z" fill="#92E3A9"/>
<path d="M1.46265 250.974H336.465" stroke="#263238" stroke-linecap="round" stroke-linejoin="round"/>
<path d="M336.584 84.5476H1V89.3436H336.584V84.5476Z" fill="#92E3A9"/>
</svg>
