<svg width="20" height="20" viewBox="0 0 20 20" fill="none" xmlns="http://www.w3.org/2000/svg">
<g clip-path="url(#clip0_27_549)">
<path d="M4.16675 12.5H3.33341C2.89139 12.5 2.46746 12.3244 2.1549 12.0118C1.84234 11.6993 1.66675 11.2754 1.66675 10.8333V3.33333C1.66675 2.89131 1.84234 2.46738 2.1549 2.15482C2.46746 1.84226 2.89139 1.66667 3.33341 1.66667H10.8334C11.2754 1.66667 11.6994 1.84226 12.0119 2.15482C12.3245 2.46738 12.5001 2.89131 12.5001 3.33333V4.16667M9.16675 7.5H16.6667C17.5872 7.5 18.3334 8.24619 18.3334 9.16667V16.6667C18.3334 17.5871 17.5872 18.3333 16.6667 18.3333H9.16675C8.24627 18.3333 7.50008 17.5871 7.50008 16.6667V9.16667C7.50008 8.24619 8.24627 7.5 9.16675 7.5Z" stroke="#667085" stroke-width="1.66667" stroke-linecap="round" stroke-linejoin="round"/>
</g>
<defs>
<clipPath id="clip0_27_549">
<rect width="20" height="20" fill="white"/>
</clipPath>
</defs>
</svg>
