<svg width="310" height="205" viewBox="0 0 310 205" fill="none" xmlns="http://www.w3.org/2000/svg">
<path d="M154.089 204.556C239.19 204.556 308.177 194.994 308.177 183.198C308.177 171.403 239.19 161.841 154.089 161.841C68.9879 161.841 0 171.403 0 183.198C0 194.994 68.9879 204.556 154.089 204.556Z" fill="#92E3A9"/>
<path opacity="0.5" d="M154.089 204.556C239.19 204.556 308.177 194.994 308.177 183.198C308.177 171.403 239.19 161.841 154.089 161.841C68.9879 161.841 0 171.403 0 183.198C0 194.994 68.9879 204.556 154.089 204.556Z" fill="white"/>
<path d="M217.789 2.60767H220.718C231.735 2.60767 242.302 5.64907 250.092 11.0628C257.883 16.4765 262.26 23.8191 262.26 31.4753V139.962H176.247V31.4753C176.247 23.8191 180.624 16.4765 188.415 11.0628C196.205 5.64907 206.772 2.60767 217.789 2.60767Z" stroke="#263238" stroke-linecap="round" stroke-linejoin="round"/>
<path d="M185.956 139.655V33.4542C185.956 27.3181 189.464 21.4334 195.708 17.0945C201.952 12.7557 210.42 10.3181 219.25 10.3181C223.625 10.3157 227.957 10.9123 232 12.0739C236.042 13.2355 239.716 14.9393 242.81 17.0879C245.905 19.2365 248.359 21.7879 250.034 24.5961C251.709 27.4043 252.571 30.4143 252.571 33.4542V139.655" stroke="#263238" stroke-linecap="round" stroke-linejoin="round"/>
<path d="M219.25 2.60767V139.813" stroke="#263238" stroke-linecap="round" stroke-linejoin="round"/>
<path d="M176.709 29.0356H261.677" stroke="#263238" stroke-linecap="round" stroke-linejoin="round"/>
<path d="M176.709 47.6741H261.677" stroke="#263238" stroke-linecap="round" stroke-linejoin="round"/>
<path d="M176.709 66.3123H261.677" stroke="#263238" stroke-linecap="round" stroke-linejoin="round"/>
<path d="M176.709 84.9458H261.677" stroke="#263238" stroke-linecap="round" stroke-linejoin="round"/>
<path d="M176.709 103.584H261.677" stroke="#263238" stroke-linecap="round" stroke-linejoin="round"/>
<path d="M176.709 122.222H261.677" stroke="#263238" stroke-linecap="round" stroke-linejoin="round"/>
<path d="M188.067 11.9338L195.772 16.8087" stroke="#263238" stroke-linecap="round" stroke-linejoin="round"/>
<path d="M250.105 11.9338L242.4 16.8087" stroke="#263238" stroke-linecap="round" stroke-linejoin="round"/>
<path d="M283.661 163.843C283.661 163.843 299.025 144.995 302.603 136.302C306.181 127.609 292.72 134.44 292.72 134.44C292.72 134.44 308.7 116.09 309.94 104.017C311.18 91.9438 292.847 106.904 292.847 106.904C292.847 106.904 299.146 91.3478 300.519 77.8778C301.893 64.4078 293.149 70.9775 293.149 70.9775C293.149 70.9775 292.419 45.2713 287.454 47.8229C282.489 50.3744 280.298 58.6762 280.298 58.6762C280.298 58.6762 277.517 33.3285 273.463 40.131C269.409 46.9336 275.822 82.7248 275.822 82.7248C275.822 82.7248 266.314 64.0493 263.982 73.7386C261.65 83.4279 279.031 110.424 279.031 110.424C279.031 110.424 270.2 111.388 269.108 115.545C268.016 119.703 282.053 140.423 282.053 140.423C282.053 140.423 270.401 129.579 268.304 136.94C266.207 144.301 278.006 166.827 278.006 166.827L283.661 163.843Z" fill="#92E3A9"/>
<path d="M300.921 126.417C298.777 121.179 293.048 124.629 293.048 124.629C293.048 124.629 305.209 97.6893 300.05 95.5662C294.891 93.443 290.555 103.016 290.555 103.016C290.555 103.016 296.794 61.7817 293.236 63.9375C289.678 66.0932 287.614 79.5307 287.614 79.5307C287.614 79.5307 283.393 41.998 278.702 48.3024C274.012 54.6067 279.533 92.6887 279.533 92.6887C279.533 92.6887 270.742 73.5988 269.891 81.9425C269.041 90.2862 278.307 117.831 278.307 117.831C278.307 117.831 267.801 115.448 268.042 119.657C268.283 123.866 274.354 143.31 274.354 143.31C274.354 143.31 267.861 141.121 269.436 145.4C271.01 149.679 278.421 162.628 278.421 162.628L286.301 164.416C286.301 164.416 297.691 151.444 293.001 151.676C291.657 151.724 290.342 151.967 289.142 152.389C287.942 152.812 286.882 153.405 286.033 154.13C286.033 154.13 303.072 131.646 300.921 126.417Z" stroke="#263238" stroke-linecap="round" stroke-linejoin="round"/>
<path d="M282.341 162.125C282.341 162.125 285.798 119.154 284.351 91.9578" stroke="#263238" stroke-linecap="round" stroke-linejoin="round"/>
<path d="M288.813 181.932H274.16L272.438 160.048H290.529L288.813 181.932Z" fill="#263238" stroke="#263238" stroke-linecap="round" stroke-linejoin="round"/>
<path d="M164.709 24.2446H124.359V62.6665H164.709V24.2446Z" stroke="#263238" stroke-linecap="round" stroke-linejoin="round"/>
<path d="M158.712 29.9529H130.356V56.9535H158.712V29.9529Z" stroke="#263238" stroke-linecap="round" stroke-linejoin="round"/>
<path d="M64.0417 64.1562C66.0638 64.4385 67.9772 65.0145 69.6567 65.8464C72.0018 67.1035 80.5582 76.7835 83.7275 78.8834C86.8968 80.9833 90.6557 83.5674 89.3491 85.6487C88.0425 87.73 85.9989 91.3757 80.3572 89.8392C74.7155 88.3026 73.2012 86.3145 71.7003 84.494C70.1994 82.6735 65.3349 79.9403 65.3349 79.9403" fill="#92E3A9"/>
<path d="M64.0417 64.1562C66.0638 64.4385 67.9772 65.0145 69.6567 65.8464C72.0018 67.1035 80.5582 76.7835 83.7275 78.8834C86.8968 80.9833 90.6557 83.5674 89.3491 85.6487C88.0425 87.73 85.9989 91.3757 80.3572 89.8392C74.7155 88.3026 73.2012 86.3145 71.7003 84.494C70.1994 82.6735 65.3349 79.9403 65.3349 79.9403" stroke="#263238" stroke-linecap="round" stroke-linejoin="round"/>
<path d="M87.2652 84.0984C83.2919 81.1092 79.7809 83.3441 77.4358 85.9142C74.8293 88.7777 72.511 91.7669 70.2061 94.7608C70.2061 94.7608 66.7353 97.0516 66.5611 98.1364C66.3868 99.2213 69.1608 102.113 70.5813 101.996C72.0018 101.88 74.7489 101.27 74.9231 100.669C75.0973 100.069 73.7104 100.204 73.7104 100.204L74.7489 99.1188L74.0789 96.544C78.6418 93.8435 85.7041 89.6391 87.6807 88.2609C89.4965 86.9712 88.8532 85.295 87.2652 84.0984Z" fill="white" stroke="#263238" stroke-linecap="round" stroke-linejoin="round"/>
<path d="M39.0697 101.559C39.0697 101.559 37.2338 107.02 38.0178 108.664C38.8017 110.307 41.6561 114.358 41.6561 114.358L47.5926 166.841L54.0116 166.73L56.9195 111.49L58.2194 111.383L60.531 166.73L67.1443 166.911L71.6001 113.399C71.6001 113.399 72.2701 106.48 72.2701 105.749C72.2701 105.018 70.5347 98.2993 70.5347 98.2993L39.0697 101.559Z" fill="#263238" stroke="#263238" stroke-linecap="round" stroke-linejoin="round"/>
<path d="M47.5925 166.842C47.5925 166.842 39.9741 171.223 39.8133 172.713C39.6525 174.203 45.9375 173.518 48.5841 171.316C51.2308 169.114 53.7635 169.705 53.8841 168.21L54.0114 166.716L47.5925 166.842Z" fill="white" stroke="#263238" stroke-linecap="round" stroke-linejoin="round"/>
<path d="M66.9231 166.842C66.9231 166.842 74.5415 171.218 74.709 172.713C74.8765 174.207 68.5781 173.518 65.9315 171.316C63.2848 169.114 60.7588 169.705 60.6315 168.21L60.5042 166.716L66.9231 166.842Z" fill="white" stroke="#263238" stroke-linecap="round" stroke-linejoin="round"/>
<path d="M66.6621 70.7913L65.9116 64.6779C61.0404 63.2438 52.3902 63.0483 49.8307 63.7467C49.8307 63.7467 35.043 68.9522 33.5421 69.9951C32.0412 71.0381 26.969 86.6639 26.969 89.2759C26.969 91.888 29.0327 93.6992 32.7715 94.2207C36.5103 94.7421 38.956 91.4876 38.956 91.4876C38.956 91.4876 36.8923 99.4029 37.2675 100.334C37.6427 101.265 38.3395 102.592 39.8337 102.723C41.3279 102.853 68.7191 102.024 69.8447 101.633C70.9704 101.242 71.7141 100.464 71.7141 98.6439C71.7141 96.8234 67.9686 78.3481 67.9686 78.3481" fill="#92E3A9"/>
<path d="M66.6621 70.7913L65.9116 64.6779C61.0404 63.2438 52.3902 63.0483 49.8307 63.7467C49.8307 63.7467 35.043 68.9522 33.5421 69.9951C32.0412 71.0381 26.969 86.6639 26.969 89.2759C26.969 91.888 29.0327 93.6992 32.7715 94.2207C36.5103 94.7421 38.956 91.4876 38.956 91.4876C38.956 91.4876 36.8923 99.4029 37.2675 100.334C37.6427 101.265 38.3395 102.592 39.8337 102.723C41.3279 102.853 68.7191 102.024 69.8447 101.633C70.9704 101.242 71.7141 100.464 71.7141 98.6439C71.7141 96.8234 67.9686 78.3481 67.9686 78.3481" stroke="#263238" stroke-linecap="round" stroke-linejoin="round"/>
<path d="M39.6661 81.5233L39.512 76.6484" stroke="#263238" stroke-linecap="round" stroke-linejoin="round"/>
<path d="M53.0868 74.0457C56.8614 74.0457 59.9212 71.7152 59.9212 68.8403C59.9212 65.9653 56.8614 63.6348 53.0868 63.6348C49.3123 63.6348 46.2524 65.9653 46.2524 68.8403C46.2524 71.7152 49.3123 74.0457 53.0868 74.0457Z" fill="white" stroke="#263238" stroke-linecap="round" stroke-linejoin="round"/>
<path d="M48.6846 59.7329C48.6846 59.7329 48.6846 69.1009 50.0246 70.7911C51.3647 72.4812 56.2024 73.0027 56.5776 70.7911C56.9528 68.5794 56.7652 60.5151 56.7652 60.5151L48.6846 59.7329Z" fill="white" stroke="#263238" stroke-linecap="round" stroke-linejoin="round"/>
<path d="M56.7851 64.2541C56.7851 62.2055 56.7382 60.5293 56.7382 60.5293L48.6978 59.7471C48.6978 59.7471 48.6978 61.237 48.7849 63.1367C49.8973 63.7478 51.2019 64.1676 52.5922 64.3618C53.9825 64.556 55.4192 64.5191 56.7851 64.2541Z" fill="#263238" stroke="#263238" stroke-linecap="round" stroke-linejoin="round"/>
<path d="M62.166 42.1705C62.166 42.1705 63.5061 51.6689 63.8545 54.402C64.2029 57.1351 62.7288 60.5154 57.6767 61.8144C52.6247 63.1135 48.5039 61.2976 45.8774 58.8252C43.2508 56.3529 42.5272 56.2225 42.5272 56.2225C42.1095 56.2929 41.6759 56.3049 41.2515 56.2578C40.8272 56.2107 40.4205 56.1055 40.0552 55.9482C39.6898 55.7909 39.3731 55.5848 39.1234 55.3417C38.8738 55.0987 38.6961 54.8235 38.6008 54.5323C37.6627 52.3207 40.2825 51.4081 42.3396 51.017C42.3396 51.017 38.9894 45.6858 38.9894 44.2517C38.9894 42.8177 42.5406 39.8285 50.0316 38.5294C57.5226 37.2304 62.166 42.1705 62.166 42.1705Z" fill="white" stroke="#263238" stroke-linecap="round" stroke-linejoin="round"/>
<path d="M56.1758 47.7668L56.3635 49.8481C56.3635 49.8481 60.6718 50.1088 59.1709 51.0168C58.0049 51.637 56.6652 52.0811 55.2378 52.3205" stroke="#263238" stroke-linecap="round" stroke-linejoin="round"/>
<path d="M49.2476 55.0491C49.9549 55.5255 50.8233 55.8707 51.7728 56.0529C52.7224 56.2352 53.7226 56.2486 54.6816 56.092" stroke="#263238" stroke-linecap="round" stroke-linejoin="round"/>
<path d="M51.4992 49.457C51.4992 50.067 51.077 50.5605 50.5611 50.5605C50.0452 50.5605 49.623 50.067 49.623 49.457C49.623 48.8471 50.0452 48.3489 50.5611 48.3489C51.077 48.3489 51.4992 48.8471 51.4992 49.457Z" fill="#263238"/>
<path d="M58.608 49.3918C59.126 49.3918 59.546 48.8957 59.546 48.2837C59.546 47.6717 59.126 47.1755 58.608 47.1755C58.0899 47.1755 57.6699 47.6717 57.6699 48.2837C57.6699 48.8957 58.0899 49.3918 58.608 49.3918Z" fill="#263238"/>
<path d="M47.0032 47.506C47.0032 47.506 48.685 45.9416 52.4305 46.0719" stroke="#263238" stroke-linecap="round" stroke-linejoin="round"/>
<path d="M55.6125 44.6429C55.8299 44.0639 56.3598 43.5653 57.0922 43.2506C57.8245 42.9359 58.7031 42.8292 59.5457 42.9527" stroke="#263238" stroke-linecap="round" stroke-linejoin="round"/>
<path d="M40.4498 51.0169C40.4498 51.0169 43.2572 53.0981 44.1953 52.0598C45.1333 51.0215 44.1953 49.1964 44.3829 47.7669C44.5705 46.3375 46.8151 46.4632 46.0647 45.2946C45.3143 44.1259 42.7145 45.4249 42.7145 44.1212C42.7145 42.8175 47.7733 40.7409 52.6378 40.7409C57.5023 40.7409 62.7486 44.0002 67.057 42.5614C71.3653 41.1227 69.6768 38.0078 67.2446 36.5784C64.8124 35.149 59.9412 35.2747 59.9412 35.2747C59.9412 35.2747 65.9313 33.9756 63.8743 32.6719C61.8173 31.3682 56.5709 31.2425 53.7634 32.0248C50.956 32.807 47.9408 33.8686 47.9408 33.8686C47.9408 33.8686 50.373 31.1354 47.0027 32.3088C45.6808 32.7396 44.5003 33.3544 43.5345 34.1153C42.5686 34.8762 41.8379 35.7669 41.3878 36.732C40.4498 38.4222 39.6993 39.5909 39.6993 39.5909C39.6993 39.5909 37.4547 38.4222 35.7729 38.9437C34.0911 39.4652 37.113 39.8749 37.113 39.8749C37.113 39.8749 33.1799 41.4393 33.7628 43.5206C34.3457 45.6019 37.8835 48.5911 38.8216 48.9822C39.7596 49.3733 40.4498 51.0169 40.4498 51.0169Z" fill="#263238" stroke="#263238" stroke-linecap="round" stroke-linejoin="round"/>
<path d="M59.5461 72.7421V67.2805C59.5461 66.759 64.4172 66.4983 64.4172 66.4983L64.5981 67.2805L62.5411 68.0581L63.9348 70.2185C63.9348 70.2185 70.9635 67.0198 71.714 67.6716C72.0122 67.9856 72.1552 68.3586 72.1214 68.7341C72.0875 69.1096 71.8787 69.4672 71.5263 69.7529C71.1549 70.0492 70.8988 70.4066 70.7826 70.7912C70.7826 70.7912 70.9635 74.3065 69.6569 74.693C68.3504 75.0794 61.4155 76.3878 61.4155 76.3878C55.9279 80.9042 50.3799 85.4671 43.7801 89.2339C41.0999 90.7704 37.8904 93.3638 34.4598 91.9065C31.1632 90.5097 31.2437 86.9943 33.3342 85.104C37.0797 81.719 42.0447 81.0671 47.0163 79.1488C51.5074 77.3273 55.7075 75.1797 59.5461 72.7421Z" fill="white" stroke="#263238" stroke-linecap="round" stroke-linejoin="round"/>
<path d="M63.9348 70.2186L65.2749 61.6979C65.303 61.4487 65.4631 61.2155 65.7242 61.0435C65.9853 60.8715 66.329 60.7729 66.6887 60.7667L71.1645 60.5432C71.3609 60.5401 71.5561 60.5645 71.7385 60.615C71.921 60.6655 72.0869 60.741 72.2264 60.837C72.3658 60.9331 72.476 61.0477 72.5503 61.174C72.6246 61.3004 72.6615 61.4358 72.6587 61.5722L71.7207 67.6903L63.9348 70.2186Z" fill="#263238" stroke="#263238" stroke-linecap="round" stroke-linejoin="round"/>
<path d="M249.422 139.669C249.422 139.669 253.174 133.15 250.762 119.648C249.71 113.716 250.46 101.531 238.788 101.135C226.332 100.716 221.247 101.573 208.764 101.67C163.737 102.029 130.624 105.149 103.173 103.309C81.1083 101.829 62.0725 99.3983 54.2599 104.851C46.4472 110.303 47.0972 121.915 47.7806 124.169C48.464 126.422 53.5697 141.82 53.5697 141.82L248.229 141.21L249.422 139.669Z" fill="#999999" stroke="#263238" stroke-linecap="round" stroke-linejoin="round"/>
<path d="M56.1289 135.776C56.1289 135.776 52.3766 125.347 46.2324 122.502C40.0881 119.657 32.0812 122.739 25.4612 127.242C18.8412 131.744 16.9316 137.08 19.6654 145.969C22.3991 154.857 30.386 168.01 32.7981 173.938C35.2103 179.865 35.1835 182.947 43.1971 184.842C51.2108 186.737 58.8894 186.858 63.8343 182.114C68.7792 177.369 67.419 155.574 63.4926 147.389C59.5661 139.203 56.1289 135.776 56.1289 135.776Z" fill="#B2B2B2" stroke="#263238" stroke-linecap="round" stroke-linejoin="round"/>
<path d="M55.4456 181.76C52.0351 177.276 41.8036 145.149 41.9711 140.753C42.1386 136.358 37.0262 129.02 30.7145 128.424C25.515 127.959 21.3339 131.395 20.0542 132.615C18.0441 136.093 17.8966 140.306 19.632 145.959C22.3591 154.847 22.0174 168.276 24.4027 174.203C26.7881 180.13 26.768 183.222 34.8084 185.117C40.0816 186.364 53.5695 186.565 57.8644 185.396C57.1795 184.147 56.3713 182.932 55.4456 181.76Z" fill="#8A8A8A" stroke="#263238" stroke-linecap="round" stroke-linejoin="round"/>
<path d="M239.17 135.576C239.17 135.576 243.137 125.146 249.616 122.301C256.095 119.457 264.571 122.539 271.593 127.041C278.615 131.544 280.605 136.88 277.724 145.768C274.843 154.657 266.374 167.81 263.848 173.737C261.322 179.664 261.328 182.747 252.859 184.642C244.39 186.537 236.289 186.658 231.063 181.918C225.837 177.178 227.284 155.378 231.425 147.188C235.565 138.998 239.17 135.576 239.17 135.576Z" fill="#B2B2B2" stroke="#263238" stroke-linecap="round" stroke-linejoin="round"/>
<path d="M239.88 182.221C243.478 177.658 254.286 145.144 254.112 140.707C253.938 136.27 259.331 128.853 265.972 128.229C271.466 127.731 275.855 131.232 277.228 132.475C279.379 135.995 279.513 140.26 277.684 145.978C274.796 154.978 270.394 168.294 267.868 174.296C265.342 180.298 265.348 183.413 256.879 185.336C251.311 186.597 241.837 187.082 237.294 185.894C238.033 184.63 238.897 183.402 239.88 182.221Z" fill="#8A8A8A" stroke="#263238" stroke-linecap="round" stroke-linejoin="round"/>
<path d="M254.199 155.788C254.199 155.788 249.938 174.189 247.204 180.354C244.47 186.518 245.328 186.518 240.725 186.756C236.121 186.993 61.4157 186.653 55.9549 186.062C50.4941 185.471 47.5995 182.621 46.0651 178.612C44.5307 174.603 42.9963 156.296 42.9963 156.296L246.862 155.83L254.199 155.788Z" fill="#999999" stroke="#263238" stroke-linecap="round" stroke-linejoin="round"/>
<path d="M43.0028 159.192C43.3913 159.848 44.0175 160.423 44.8206 160.861C45.6238 161.299 46.5764 161.585 47.5858 161.692C51.1906 162.157 143.542 162.833 146.483 162.833C149.425 162.833 224.751 162.833 236.872 162.148C248.993 161.464 255.157 160.351 254.199 155.788C253.241 151.225 253.569 154.857 253.569 154.857L41.0396 156.687L43.0028 159.192Z" fill="#263238"/>
<path d="M56.6383 135.18C56.6383 135.18 43.5189 141.345 39.7533 144.19C35.9877 147.035 38.0514 149.284 38.4132 151.421C38.7751 153.558 40.2894 158.293 44.7183 159.951C49.1473 161.608 104.245 160.882 136.313 161.613C168.381 162.344 237.314 161.478 245.87 160.049C254.427 158.619 256.424 151.276 256.933 147.128C257.442 142.979 251.325 137.173 247.914 136.465C244.504 135.758 216.134 135.651 184.582 136.126C153.03 136.601 138.571 138.51 102.583 138.035C66.5951 137.56 64.8262 134.114 56.6383 135.18Z" fill="#B2B2B2"/>
<mask id="mask0_6_1303" style="mask-type:luminance" maskUnits="userSpaceOnUse" x="37" y="134" width="220" height="28">
<path d="M56.6383 135.18C56.6383 135.18 43.5189 141.345 39.7533 144.19C35.9877 147.035 38.0514 149.284 38.4132 151.421C38.7751 153.558 40.2894 158.293 44.7183 159.951C49.1473 161.608 104.245 160.882 136.313 161.613C168.381 162.344 237.314 161.478 245.87 160.049C254.427 158.619 256.424 151.276 256.933 147.128C257.442 142.979 251.325 137.173 247.914 136.465C244.504 135.758 216.134 135.651 184.582 136.126C153.03 136.601 138.571 138.51 102.583 138.035C66.5951 137.56 64.8262 134.114 56.6383 135.18Z" fill="white"/>
</mask>
<g mask="url(#mask0_6_1303)">
<path d="M38.3931 151.421C38.7281 153.553 40.2692 158.293 44.6982 159.951C49.1271 161.608 104.224 160.882 136.292 161.613C168.36 162.344 237.314 161.478 245.87 160.048C254.427 158.619 259.512 152.939 260.022 148.79C260.081 148.162 259.981 147.532 259.727 146.928C258.521 147.761 256.209 146.858 253.469 146.588C247.391 145.978 183.45 148.743 135.596 148.743C83.6274 148.743 66.6955 148.743 40.9794 145.307C37.1535 144.795 39.7801 144.176 39.7801 144.176C36.0011 147.035 38.0514 149.283 38.3931 151.421Z" fill="#999999"/>
</g>
<path d="M56.6383 135.18C56.6383 135.18 43.5189 141.345 39.7533 144.19C35.9877 147.035 38.0514 149.284 38.4132 151.421C38.7751 153.558 40.2894 158.293 44.7183 159.951C49.1473 161.608 104.245 160.882 136.313 161.613C168.381 162.344 237.314 161.478 245.87 160.049C254.427 158.619 256.424 151.276 256.933 147.128C257.442 142.979 251.325 137.173 247.914 136.465C244.504 135.758 216.134 135.651 184.582 136.126C153.03 136.601 138.571 138.51 102.583 138.035C66.5951 137.56 64.8262 134.114 56.6383 135.18Z" stroke="#263238" stroke-linecap="round" stroke-linejoin="round"/>
<path d="M149.479 103.775L149.211 137.359C149.211 137.359 147.1 146.546 147.375 147.817C147.649 149.088 147.636 161.58 147.636 161.58" stroke="#263238" stroke-linecap="round" stroke-linejoin="round"/>
<path d="M235.15 112.333C237.207 112.113 239.312 112.368 241.14 113.059C243.82 114.205 248.182 117.953 248.182 117.953L252.826 108.999C252.826 108.999 250.728 106.294 250.728 105.358C250.728 104.422 250.581 103.496 250.581 103.067C250.581 102.639 251.921 102.234 251.921 102.653C252.015 103.214 252.165 103.769 252.37 104.315L253.911 105.572L254.809 100.372C254.809 100.372 255.553 99.7476 255.854 100.264C256.156 100.781 256.028 103.463 256.028 103.463H256.772L257.482 99.2494C257.482 99.2494 257.697 99.0492 258.414 99.1004C258.5 99.0983 258.585 99.1112 258.662 99.138C258.739 99.1647 258.805 99.2044 258.855 99.2535C258.904 99.3026 258.935 99.3594 258.944 99.4189C258.954 99.4784 258.942 99.5385 258.909 99.594L258.414 103.566L258.842 103.612L260.035 99.9478C260.035 99.9478 260.538 99.6033 260.893 99.7988C261.127 99.9748 261.254 100.207 261.248 100.446L260.484 104.259L262.179 102.08C262.179 102.08 262.889 101.885 262.889 102.281C262.374 103.596 261.736 104.887 260.98 106.145C260.839 106.294 258.126 109.763 258.126 109.763C258.126 109.763 255.914 118.94 254.916 120.937C253.918 122.935 251.774 124.704 248.705 124.807C245.636 124.909 242.138 122.479 242.138 122.479L235.15 112.333Z" fill="white" stroke="#263238" stroke-linecap="round" stroke-linejoin="round"/>
<path d="M255.573 108.52C255.573 108.52 256.095 106.904 256.732 106.392C257.311 106.007 257.994 105.706 258.742 105.507" stroke="#263238" stroke-linecap="round" stroke-linejoin="round"/>
<path d="M225.099 108.79C225.099 108.79 224.804 111.704 224.503 112.514C224.201 113.325 222.406 113.138 220.757 113.138C219.109 113.138 218.513 115.001 218.211 116.677C217.91 118.353 214.318 136.87 214.915 139.492C215.511 142.113 221.809 144.907 228.697 145.219C235.585 145.531 245.321 144.8 249.221 142.718C253.12 140.637 253.562 138.993 252.665 136.889C251.767 134.784 249.368 132.624 248.169 131.688C246.969 130.752 245.77 129.607 245.77 129.607C245.77 129.607 239.029 114.097 237.381 112.952C235.733 111.807 232.443 112.328 232.443 112.328L231.391 108.473L225.099 108.79Z" fill="#92E3A9" stroke="#263238" stroke-linecap="round" stroke-linejoin="round"/>
<path d="M218.841 137.699C218.841 137.699 225.924 126.865 244.008 130.25" stroke="#263238" stroke-linecap="round" stroke-linejoin="round"/>
<path d="M223.431 131.795C223.431 131.795 228.543 128.881 234.044 128.974" stroke="#263238" stroke-linecap="round" stroke-linejoin="round"/>
<path d="M233.763 112.221C233.323 112.233 232.886 112.271 232.456 112.333L231.404 108.478L225.112 108.79C225.112 108.79 224.818 111.704 224.516 112.515C224.369 112.929 223.846 113.083 223.176 113.139C223.679 114.07 225.521 116.924 229.762 117.096C233.521 117.273 233.85 113.953 233.763 112.221Z" fill="white" stroke="#263238" stroke-linecap="round" stroke-linejoin="round"/>
<path d="M224.812 111.16C225.945 111.337 227.101 111.434 228.262 111.448C229.569 111.469 230.871 111.328 232.108 111.034L231.438 108.464L225.147 108.776C225.147 108.776 224.986 110.066 224.812 111.16Z" fill="#263238" stroke="#263238" stroke-linecap="round" stroke-linejoin="round"/>
<path d="M240.992 91.3062C240.992 91.3062 245.937 88.8059 251.927 89.4438C257.918 90.0816 257.469 96.6281 255.224 98.3974C252.979 100.167 247.586 99.0213 247.586 98.1879C247.586 97.3544 248.483 94.5468 246.246 93.0662C245.651 92.6498 244.906 92.3526 244.089 92.2059C243.271 92.0592 242.412 92.0685 241.602 92.2328L240.992 91.3062Z" fill="#263238" stroke="#263238" stroke-linecap="round" stroke-linejoin="round"/>
<path d="M217.059 98.9049C216.899 99.8317 216.849 100.766 216.912 101.699C217.059 102.742 214.962 103.468 216.309 105.237C217.656 107.007 220.805 110.028 228.296 110.131C235.787 110.233 240.725 105.344 240.725 100.763C240.725 96.1811 232.47 92.6565 228.108 92.6565C223.746 92.6565 218.976 95.2592 218.058 96.3022C217.482 97.1157 217.142 98.0002 217.059 98.9049Z" fill="white" stroke="#263238" stroke-linecap="round" stroke-linejoin="round"/>
<path d="M225.716 102.779C225.765 102.96 225.733 103.148 225.624 103.316C225.514 103.485 225.332 103.626 225.103 103.72C224.874 103.814 224.609 103.857 224.344 103.842C224.079 103.828 223.827 103.757 223.622 103.639C223.416 103.521 223.269 103.362 223.198 103.184C223.128 103.006 223.138 102.817 223.228 102.643C223.318 102.469 223.483 102.318 223.7 102.212C223.917 102.105 224.177 102.048 224.443 102.048C224.75 102.029 225.056 102.096 225.294 102.232C225.532 102.369 225.684 102.565 225.716 102.779Z" stroke="#263238" stroke-linecap="round" stroke-linejoin="round"/>
<path d="M222.118 104.422C222.118 104.422 223.92 105.879 227.512 104.525" stroke="#263238" stroke-linecap="round" stroke-linejoin="round"/>
<path d="M221.22 101.717C221.716 101.717 222.118 101.25 222.118 100.674C222.118 100.098 221.716 99.6311 221.22 99.6311C220.724 99.6311 220.322 100.098 220.322 100.674C220.322 101.25 220.724 101.717 221.22 101.717Z" fill="#263238"/>
<path d="M228.563 100.777C228.563 101.354 228.155 101.82 227.659 101.82C227.163 101.82 226.761 101.354 226.761 100.777C226.761 100.199 227.163 99.7383 227.659 99.7383C228.155 99.7383 228.563 100.204 228.563 100.777Z" fill="#263238"/>
<path d="M219.739 98.9048C220.118 98.6298 220.593 98.4277 221.118 98.3183C221.643 98.209 222.2 98.1961 222.734 98.2809" stroke="#263238" stroke-linecap="round" stroke-linejoin="round"/>
<path d="M226.439 98.1738C226.439 98.1738 229.28 97.7594 230.178 99.5287" stroke="#263238" stroke-linecap="round" stroke-linejoin="round"/>
<path d="M226.312 93.2848C226.312 93.2848 230.507 99.7381 234.252 101.4C237.998 103.063 241.589 101.922 242.192 100.986C243.777 98.8256 244.099 96.3231 243.09 94.0018C241.589 90.4632 238.447 88.1724 233.502 88.3819C228.557 88.5914 222.868 91.399 222.868 91.399L226.312 93.2848Z" fill="#263238" stroke="#263238" stroke-linecap="round" stroke-linejoin="round"/>
<path d="M228.108 93.597C228.108 93.597 218.399 98.6954 216.576 99.7383C214.754 100.781 212.382 100.153 210.734 96.4046C209.085 92.6564 212.536 89.5369 217.179 89.5369C221.823 89.5369 227.062 91.6042 227.062 91.6042" fill="#263238"/>
<path d="M228.108 93.597C228.108 93.597 218.399 98.6954 216.576 99.7383C214.754 100.781 212.382 100.153 210.734 96.4046C209.085 92.6564 212.536 89.5369 217.179 89.5369C221.823 89.5369 227.062 91.6042 227.062 91.6042" stroke="#263238" stroke-linecap="round" stroke-linejoin="round"/>
<path d="M236.41 102.634C236.41 102.634 238.802 99.8407 241.053 100.032C243.304 100.222 242.098 104.092 240.899 105.028C239.7 105.963 237.455 104.925 237.455 104.925" fill="white"/>
<path d="M236.41 102.634C236.41 102.634 238.802 99.8407 241.053 100.032C243.304 100.222 242.098 104.092 240.899 105.028C239.7 105.963 237.455 104.925 237.455 104.925" stroke="#263238" stroke-linecap="round" stroke-linejoin="round"/>
<path d="M222.868 114.829C222.77 114.56 222.591 114.31 222.343 114.093C222.095 113.876 221.785 113.698 221.431 113.57C221.078 113.442 220.689 113.367 220.292 113.351C219.894 113.334 219.496 113.376 219.123 113.474C216.128 114.102 215.103 118.679 214.332 121.594C213.561 124.509 208.791 141.061 208.791 141.061C208.791 141.061 203.846 141.578 201.749 141.992C199.651 142.407 201.3 142.616 204.295 142.826C207.29 143.035 209.086 143.24 209.086 143.24C209.086 143.24 205.796 144.385 208.791 144.385C211.786 144.385 213.582 143.03 213.883 142.523C214.185 142.015 222.272 120.975 222.868 118.581C223.465 116.188 222.868 114.829 222.868 114.829Z" fill="white" stroke="#263238" stroke-linecap="round" stroke-linejoin="round"/>
<path d="M251.345 133.509C251.345 133.509 247.023 131.502 242.568 133.597C238.112 135.692 241.516 141.429 242.434 143.435C243.351 145.442 246.889 151.174 248.598 154.088C250.306 157.003 251.74 161.538 252.136 162.376C252.531 163.214 255.673 163.745 256.98 163.564C260.069 162.884 263.055 161.998 265.898 160.919C267.466 160.193 267.861 158.917 266.944 158.642C266.026 158.367 256.98 158.46 256.98 158.46C256.98 158.46 255.278 154.736 255.017 151.905C254.756 149.074 253.181 140.884 253.054 138.151C252.926 135.418 251.901 134.072 251.345 133.509Z" fill="white" stroke="#263238" stroke-linecap="round" stroke-linejoin="round"/>
<path d="M256.068 159.299C256.056 159.618 255.966 159.933 255.8 160.23C254.35 160.405 252.883 160.506 251.412 160.533C251.753 161.464 252.001 162.144 252.135 162.395C252.524 163.215 255.673 163.764 256.98 163.582C260.068 162.903 263.055 162.017 265.898 160.938C267.466 160.211 267.861 158.936 266.943 158.661C266.025 158.386 256.98 158.479 256.98 158.479C256.98 158.479 256.068 158.847 256.068 159.299Z" fill="#263238" stroke="#263238" stroke-linecap="round" stroke-linejoin="round"/>
<path d="M244.403 162.125C244.403 162.125 243.325 162.125 240.926 150.699C239.874 145.698 240.665 137.532 237.911 134.799C235.157 132.065 226.52 132.89 226.52 138.761C226.52 144.632 234.38 157.478 236.571 161.166C238.762 164.854 239.324 167.177 241.261 167.452C243.197 167.726 250.896 166.357 253.844 164.993C256.792 163.629 257.382 161.734 255.419 161.734C253.456 161.734 244.403 162.125 244.403 162.125Z" fill="white" stroke="#263238" stroke-linecap="round" stroke-linejoin="round"/>
<path d="M243.063 162.693C242.929 162.926 242.878 163.177 242.913 163.427C242.948 163.677 243.068 163.917 243.264 164.127C243.633 164.406 242.339 164.546 238.393 164.593C239.297 166.269 239.994 167.289 241.254 167.465C243.224 167.74 250.889 166.371 253.837 165.007C256.785 163.643 257.375 161.748 255.412 161.748C253.449 161.748 244.403 162.158 244.403 162.158C244.14 162.181 243.886 162.24 243.656 162.332C243.426 162.424 243.224 162.547 243.063 162.693Z" fill="#263238" stroke="#263238" stroke-linecap="round" stroke-linejoin="round"/>
<path d="M178.397 74.3766C178.27 72.26 177.003 70.254 174.846 68.7567C171.295 66.4286 163.409 65.8792 159.663 69.4411C155.918 73.003 155.918 75.8851 157.298 76.5696L158.678 77.254C158.678 77.254 156.903 79.5821 158.873 80.6809C160.842 81.7797 162.424 82.8739 162.819 81.64C163.214 80.4062 160.253 77.8034 164.789 75.7455C169.325 73.6875 178.397 74.3766 178.397 74.3766Z" fill="#263238" stroke="#263238" stroke-linecap="round" stroke-linejoin="round"/>
<path d="M176.226 71.4897C176.226 71.4897 182.143 68.0628 185.493 70.9403C188.843 73.8177 181.949 77.5193 180.964 77.9244C179.979 78.3295 176.032 72.7189 176.032 72.7189C176.032 72.7189 175.047 72.1741 176.226 71.4897Z" fill="#263238" stroke="#263238" stroke-linecap="round" stroke-linejoin="round"/>
<path d="M181.62 78.6183C181.62 78.6183 183.851 76.3368 185.031 78.2504C186.21 80.1641 183.691 82.8134 182.538 83.3721C181.386 83.9309 181.62 78.6183 181.62 78.6183Z" fill="white" stroke="#263238" stroke-linecap="round" stroke-linejoin="round"/>
<path d="M161.539 80.8951C161.539 80.8951 159.435 77.5241 157.995 78.9815C156.554 80.4388 158.129 84.2708 160.883 84.2708C161.24 83.8772 161.504 83.4465 161.666 82.995" fill="white"/>
<path d="M161.539 80.8951C161.539 80.8951 159.435 77.5241 157.995 78.9815C156.554 80.4388 158.129 84.2708 160.883 84.2708C161.24 83.8772 161.504 83.4465 161.666 82.995" stroke="#263238" stroke-linecap="round" stroke-linejoin="round"/>
<path d="M193.506 113.953C191.208 109.735 194.558 98.6859 189.325 96.9399C184.092 95.1938 176.775 94.6118 176.775 94.6118L170.705 94.7655L164.634 94.6118C164.634 94.6118 157.31 95.1938 152.077 96.9399C146.844 98.6859 150.195 109.735 147.896 113.953C145.598 118.172 143.709 123.689 144.546 127.181C145.384 130.673 148.312 131.977 150.617 132.414C152.198 132.712 163.689 132.601 170.718 132.503C177.727 132.601 189.218 132.712 190.819 132.414C193.117 131.977 196.045 130.668 196.883 127.181C197.721 123.694 195.811 118.144 193.506 113.953Z" fill="#92E3A9" stroke="#263238" stroke-linecap="round" stroke-linejoin="round"/>
<path d="M157.284 115.406C157.284 115.406 171.911 110.396 183.53 114.009" stroke="#263238" stroke-linecap="round" stroke-linejoin="round"/>
<path d="M166.706 110.535C166.706 110.535 173.714 109.837 178.525 111.648" stroke="#263238" stroke-linecap="round" stroke-linejoin="round"/>
<path d="M167.476 91.93C167.476 91.93 163.409 92.8613 162.752 94.1231C162.096 95.3849 160.782 98.8629 160.916 100.413C161.05 101.964 162.357 102.783 163.013 102.057C163.67 101.331 169.968 99.4124 170.759 99.1376C171.55 98.8629 176.401 99.8686 177.319 100.595C178.237 101.321 180.863 103.333 181.259 102.602C181.654 101.871 181.259 98.5882 179.919 95.6735C178.578 92.7588 177.426 92.2979 175.061 91.8416C172.696 91.3853 167.476 91.93 167.476 91.93Z" fill="white" stroke="#263238" stroke-linecap="round" stroke-linejoin="round"/>
<path d="M166.001 91.7483C166.001 91.7483 166.263 96.3112 167.341 98.6812C168.42 101.051 171.274 104.245 172.588 103.803C173.901 103.361 175.348 99.1468 175.998 97.4194C176.509 95.7033 176.86 93.9661 177.05 92.2186C177.05 92.2186 167.703 92.6609 166.001 91.7483Z" fill="white" stroke="#263238" stroke-linecap="round" stroke-linejoin="round"/>
<path d="M177.023 92.2046C177.023 92.2046 167.703 92.6702 166.001 91.739C166.001 91.739 166.075 92.9822 166.289 94.5094C169.411 95.2092 172.729 95.3784 175.965 95.0029C176.193 94.9703 176.4 94.9284 176.635 94.8912C176.856 93.499 177.023 92.2046 177.023 92.2046Z" fill="#263238" stroke="#263238" stroke-linecap="round" stroke-linejoin="round"/>
<path d="M161.372 76.3738C161.372 76.3738 159.141 88.6332 161.372 90.7471C163.603 92.8609 171.302 94.0063 175.965 93.28C180.629 92.5536 182.86 90.4863 183.068 86.375C183.275 82.2637 181.647 75.5264 179.617 74.5439C177.587 73.5615 172.521 72.2857 168.059 73.2728C163.596 74.2599 161.975 75.247 161.372 76.3738Z" fill="white" stroke="#263238" stroke-linecap="round" stroke-linejoin="round"/>
<path d="M168.065 72.5142C168.065 72.5142 166.725 76.0435 163.523 77.1702C160.32 78.297 161.117 75.3078 161.921 73.6409" fill="#263238"/>
<path d="M168.065 72.5142C168.065 72.5142 166.725 76.0435 163.523 77.1702C160.32 78.297 161.117 75.3078 161.921 73.6409" stroke="#263238" stroke-linecap="round" stroke-linejoin="round"/>
<path d="M166.202 80.7646C166.202 80.7646 168.487 79.3678 170.223 80.5784" stroke="#263238" stroke-linecap="round" stroke-linejoin="round"/>
<path d="M174.96 80.4806C174.96 80.4806 176.843 78.7019 178.867 80.5783" stroke="#263238" stroke-linecap="round" stroke-linejoin="round"/>
<path d="M173.613 78.1619L174.397 84.1822C174.397 84.1822 172.039 85.0016 170.987 83.4512" fill="white"/>
<path d="M173.613 78.1619L174.397 84.1822C174.397 84.1822 172.039 85.0016 170.987 83.4512" stroke="#263238" stroke-linecap="round" stroke-linejoin="round"/>
<path d="M165.867 78.1619C167.243 77.5167 168.918 77.2557 170.558 77.4309" stroke="#263238" stroke-linecap="round" stroke-linejoin="round"/>
<path d="M173.875 77.524C174.533 77.2222 175.299 77.0537 176.087 77.0372C176.875 77.0208 177.654 77.1571 178.337 77.4309" stroke="#263238" stroke-linecap="round" stroke-linejoin="round"/>
<path d="M171.777 84.0891C171.777 84.0891 166.343 84.8061 166.739 85.444C167.134 86.0819 168.802 86.8408 170.377 86.757C171.951 86.6732 173.091 85.3602 173.091 85.3602C173.091 85.3602 175.63 87.9676 179 85.7187C180.079 85.0017 174.397 84.1776 174.397 84.1776C174.397 84.1776 172.561 84.727 171.777 84.0891Z" fill="#263238"/>
<path d="M193.145 128.82C193.145 128.82 192.743 126.366 180.126 124.345C167.509 122.325 158.289 124.196 154.075 126.366C149.86 128.536 147.26 129.975 145.659 133.872C144.058 137.769 143.649 145.414 156.279 147.435C168.909 149.456 188.93 149.153 194.739 145.195C204.113 138.817 194.947 130.249 193.145 128.82Z" fill="#263238" stroke="#263238" stroke-linecap="round" stroke-linejoin="round"/>
<path d="M179.396 127.335C179.396 127.335 175.496 127.083 174.377 126.911C173.258 126.739 169.399 128.21 167.281 128.987C165.671 129.665 164.441 130.703 163.791 131.93C163.791 132.191 163.422 133.485 164.045 133.662C164.668 133.839 167.777 133.313 168.648 133.313C169.519 133.313 174.377 132.275 175.623 132.382C176.87 132.489 181.366 130.715 181.366 130.715L179.396 127.335Z" fill="white" stroke="#263238" stroke-linecap="round" stroke-linejoin="round"/>
<path d="M174.256 131.064C174.256 131.064 170.765 131.325 169.894 131.842C168.949 132.329 167.95 132.763 166.906 133.141" stroke="#263238" stroke-linecap="round" stroke-linejoin="round"/>
<path d="M172.762 129.784C171.252 130.083 169.791 130.488 168.4 130.994C167.095 131.691 165.886 132.47 164.789 133.322" stroke="#263238" stroke-linecap="round" stroke-linejoin="round"/>
<path d="M172.012 128.643C172.012 128.643 167.154 129.854 166.283 130.287C165.4 130.795 164.567 131.344 163.791 131.93" stroke="#263238" stroke-linecap="round" stroke-linejoin="round"/>
<path d="M189.172 96.3579C189.172 96.3579 195.242 97.0843 198.17 99.2633C201.098 101.442 204.656 112.491 206.331 116.71C208.006 120.928 208.844 127.26 208.006 128.569C207.169 129.877 203.423 130.715 200.308 130.715C197.192 130.715 180.823 130.962 180.823 130.962L178.525 127.47L194.947 122.157L190.82 105.516" fill="#92E3A9"/>
<path d="M189.172 96.3579C189.172 96.3579 195.242 97.0843 198.17 99.2633C201.098 101.442 204.656 112.491 206.331 116.71C208.006 120.928 208.844 127.26 208.006 128.569C207.169 129.877 203.423 130.715 200.308 130.715C197.192 130.715 180.823 130.962 180.823 130.962L178.525 127.47L194.947 122.157L190.82 105.516" stroke="#263238" stroke-linecap="round" stroke-linejoin="round"/>
<path d="M154.591 96.3579C154.591 96.3579 148.52 97.0843 145.592 99.2633C142.664 101.442 139.106 112.491 137.438 116.71C135.77 120.928 134.805 126.292 135.642 127.6C136.48 128.909 140.875 130.943 144.011 130.943C147.147 130.943 162.437 130.696 162.437 130.696L164.407 127.335L149.036 121.496L152.916 105.516" fill="#92E3A9"/>
<path d="M154.591 96.3579C154.591 96.3579 148.52 97.0843 145.592 99.2633C142.664 101.442 139.106 112.491 137.438 116.71C135.77 120.928 134.805 126.292 135.642 127.6C136.48 128.909 140.875 130.943 144.011 130.943C147.147 130.943 162.437 130.696 162.437 130.696L164.407 127.335L149.036 121.496L152.916 105.516" stroke="#263238" stroke-linecap="round" stroke-linejoin="round"/>
<path d="M164.407 127.335C164.407 127.335 168.3 127.083 169.419 126.911C170.538 126.739 174.404 128.21 176.521 128.987C178.13 129.665 179.359 130.703 180.005 131.93C180.005 132.191 180.381 133.485 179.757 133.662C179.134 133.839 176.019 133.313 175.148 133.313C174.277 133.313 169.419 132.275 168.173 132.382C166.926 132.489 162.437 130.715 162.437 130.715L164.407 127.335Z" fill="white" stroke="#263238" stroke-linecap="round" stroke-linejoin="round"/>
<path d="M169.546 131.064C169.546 131.064 173.03 131.325 173.901 131.842C174.848 132.328 175.847 132.762 176.89 133.141" stroke="#263238" stroke-linecap="round" stroke-linejoin="round"/>
<path d="M171.04 129.784C172.548 130.082 174.007 130.488 175.395 130.994C176.702 131.689 177.911 132.469 179.007 133.322" stroke="#263238" stroke-linecap="round" stroke-linejoin="round"/>
<path d="M171.784 128.643C171.784 128.643 176.642 129.854 177.513 130.287C178.396 130.795 179.229 131.344 180.005 131.93" stroke="#263238" stroke-linecap="round" stroke-linejoin="round"/>
<path d="M167.1 136.009C167.1 136.009 157.083 129.607 148.674 129.467C140.265 129.327 135.273 133.504 135.649 139.906C136.024 146.308 145.451 189.172 145.451 189.172L155.066 189.032L157.485 140.325" fill="#263238"/>
<path d="M167.1 136.009C167.1 136.009 157.083 129.607 148.674 129.467C140.265 129.327 135.273 133.504 135.649 139.906C136.024 146.308 145.451 189.172 145.451 189.172L155.066 189.032L157.485 140.325" stroke="#263238" stroke-linecap="round" stroke-linejoin="round"/>
<path d="M145.452 189.172C145.452 189.172 140.239 191.677 138.839 194.601C137.438 197.525 145.452 196.691 148.889 194.326C151.172 192.687 153.25 190.916 155.1 189.032L145.452 189.172Z" fill="white" stroke="#263238" stroke-linecap="round" stroke-linejoin="round"/>
<path d="M175.295 136.009C175.295 136.009 185.312 129.607 193.727 129.467C202.143 129.327 207.128 133.504 206.746 139.906C206.364 146.308 193.305 189.172 193.305 189.172L183.69 189.032L184.896 140.325" fill="#263238"/>
<path d="M175.295 136.009C175.295 136.009 185.312 129.607 193.727 129.467C202.143 129.327 207.128 133.504 206.746 139.906C206.364 146.308 193.305 189.172 193.305 189.172L183.69 189.032L184.896 140.325" stroke="#263238" stroke-linecap="round" stroke-linejoin="round"/>
<path d="M193.306 189.172C193.306 189.172 198.519 191.677 199.919 194.601C201.319 197.525 193.306 196.691 189.902 194.326C187.619 192.687 185.541 190.916 183.691 189.032L193.306 189.172Z" fill="white" stroke="#263238" stroke-linecap="round" stroke-linejoin="round"/>
<path d="M118.711 81.1137C118.711 81.1137 123.997 79.8892 124.808 77.7241C125.619 75.559 122.644 68.3002 113.692 65.7533C104.74 63.2065 90.0933 64.9991 85.0747 68.9614C80.0561 72.9237 85.3494 76.5927 85.4834 77.4401C85.6174 78.2875 81.5503 78.8369 80.8735 82.436C80.1968 86.0352 86.8436 89.6902 94.0264 90.817C101.209 91.9437 104.747 90.533 104.747 88.6472C104.747 86.7615 103.119 85.0667 106.241 83.6559C109.364 82.2451 112.881 79.6052 114.375 79.6983C115.87 79.7914 118.711 81.1137 118.711 81.1137Z" fill="#263238"/>
<mask id="mask1_6_1303" style="mask-type:luminance" maskUnits="userSpaceOnUse" x="80" y="64" width="45" height="28">
<path d="M118.711 81.1137C118.711 81.1137 123.997 79.8892 124.808 77.7241C125.619 75.559 122.644 68.3002 113.692 65.7533C104.74 63.2065 90.0933 64.9991 85.0747 68.9614C80.0561 72.9237 85.3494 76.5927 85.4834 77.4401C85.6174 78.2875 81.5503 78.8369 80.8735 82.436C80.1968 86.0352 86.8436 89.6902 94.0264 90.817C101.209 91.9437 104.747 90.533 104.747 88.6472C104.747 86.7615 103.119 85.0667 106.241 83.6559C109.364 82.2451 112.881 79.6052 114.375 79.6983C115.87 79.7914 118.711 81.1137 118.711 81.1137Z" fill="white"/>
</mask>
<g mask="url(#mask1_6_1303)">
<path d="M107.3 69.4409C103.714 73.4519 98.2838 76.5037 91.8892 78.1012C81.3897 80.6108 77.7849 78.7857 77.7849 78.7857" stroke="#636363" stroke-linecap="round" stroke-linejoin="round"/>
<path d="M102.375 67.8579C102.375 67.8579 92.539 76.9745 80.3979 76.7464" stroke="#636363" stroke-linecap="round" stroke-linejoin="round"/>
<path d="M111.233 69.4409C111.233 69.4409 94.4824 86.9943 74.4951 86.9943" stroke="#636363" stroke-linecap="round" stroke-linejoin="round"/>
<path d="M104.345 66.4612C104.345 66.4612 121.002 72.5374 124.808 77.7056" stroke="#636363" stroke-linecap="round" stroke-linejoin="round"/>
</g>
<path d="M118.711 81.1137C118.711 81.1137 123.997 79.8892 124.808 77.7241C125.619 75.559 122.644 68.3002 113.692 65.7533C104.74 63.2065 90.0933 64.9991 85.0747 68.9614C80.0561 72.9237 85.3494 76.5927 85.4834 77.4401C85.6174 78.2875 81.5503 78.8369 80.8735 82.436C80.1968 86.0352 86.8436 89.6902 94.0264 90.817C101.209 91.9437 104.747 90.533 104.747 88.6472C104.747 86.7615 103.119 85.0667 106.241 83.6559C109.364 82.2451 112.881 79.6052 114.375 79.6983C115.87 79.7914 118.711 81.1137 118.711 81.1137Z" stroke="#263238" stroke-linecap="round" stroke-linejoin="round"/>
<path d="M115.588 99.3005C115.588 99.3005 123.455 100.809 127.113 104.39C130.771 107.97 133.894 116.547 135.153 120.22C136.413 123.894 134.772 127.926 131.133 129.244C127.495 130.561 121.471 125.519 119.984 123.615C118.496 121.71 118.49 114.852 117.304 110.233C116.118 105.614 113.645 99.8686 113.645 99.8686C113.645 99.8686 112.473 98.9234 115.588 99.3005Z" fill="white" stroke="#263238" stroke-linecap="round" stroke-linejoin="round"/>
<path d="M99.8558 87.4133C99.8558 87.4133 100.673 93.0705 99.8558 94.295C99.0384 95.5196 96.0634 96.9303 91.0448 98.0618C86.0262 99.1932 82.6358 100.138 79.9222 103.342C77.2085 106.545 74.2402 122.809 70.8364 127.088C67.3656 131.455 66.5549 140.385 74.783 144.818C81.4834 148.445 105.015 148.007 113.417 147.146C121.82 146.285 129.297 147.113 131.602 143.063C133.907 139.012 129.15 132.163 126.845 130.091C124.54 128.019 119.903 125.97 119.903 125.97C119.903 125.97 122.798 122.478 123.019 119.564C123.428 114.284 115.561 99.3003 115.561 99.3003C115.561 99.3003 110.818 97.9035 109.732 96.0969C108.647 94.2903 109.062 91.7621 109.062 91.7621L99.8558 87.4133Z" fill="#92E3A9" stroke="#263238" stroke-linecap="round" stroke-linejoin="round"/>
<path d="M87.1118 131.46C87.1118 131.46 100.941 131.879 108.459 136.056" stroke="#263238" stroke-linecap="round" stroke-linejoin="round"/>
<path d="M96.064 122.767C96.064 122.767 104.198 123.615 111.79 121.636" stroke="#263238" stroke-linecap="round" stroke-linejoin="round"/>
<path d="M105.417 123.614C105.417 123.614 110.845 123.051 113.96 121.729" stroke="#263238" stroke-linecap="round" stroke-linejoin="round"/>
<path d="M83.5872 115.815C86.5689 114.591 90.2273 108.938 90.9107 104.413C91.4467 100.818 90.1871 99.0117 89.651 98.425C85.3896 99.4308 82.3744 100.483 79.9221 103.379C78.247 105.358 76.056 112.198 74.0793 118.227C76.7528 118.237 80.8869 116.9 83.5872 115.815Z" fill="white" stroke="#263238" stroke-linecap="round" stroke-linejoin="round"/>
<path d="M109.759 96.0969C108.674 94.309 109.089 91.7621 109.089 91.7621L99.8561 87.4133C99.8561 87.4133 100.674 93.0705 99.8561 94.295C99.2263 95.2262 97.2899 96.3064 94.1072 97.2656C94.67 98.993 96.3183 103.421 98.9114 105.223C102.161 107.486 108.399 107.956 110.57 104.943C112.741 101.931 111.655 97.7824 111.655 97.7824L111.709 97.6846C110.887 97.2707 110.218 96.7264 109.759 96.0969Z" fill="white" stroke="#263238" stroke-linecap="round" stroke-linejoin="round"/>
<path d="M109.082 91.7621L101.075 88L99.9832 88.4144C100.064 89.1268 100.164 90.1278 100.204 91.1242C101.98 92.521 104.553 94.2485 106.938 94.5651C107.682 94.6642 108.441 94.6971 109.196 94.6628C108.992 93.7025 108.954 92.7287 109.082 91.7621Z" fill="#263238"/>
<path d="M112.607 74.707C112.607 74.707 109.625 78.1944 104.875 79.9824C102.308 80.9901 99.5772 81.7811 96.7404 82.3383C96.7404 82.3383 96.8744 83.4698 96.1977 83.4698C95.5209 83.4698 94.0267 81.7749 93.082 81.6818C92.1372 81.5887 89.1489 84.3172 90.2276 85.4486C91.2364 86.4644 92.6533 87.2514 94.3015 87.7114C95.6415 88.0886 97.1491 86.864 97.1491 86.864C97.1491 86.864 107.588 95.7106 113.558 93.4617C119.528 91.2128 119.113 79.6099 119.113 79.6099C119.113 79.6099 117.76 77.063 112.607 74.707Z" fill="white" stroke="#263238" stroke-linecap="round" stroke-linejoin="round"/>
<path d="M108.606 82.059C108.606 82.655 108.211 83.1392 107.722 83.1392C107.233 83.1392 106.844 82.6736 106.844 82.059C106.844 81.4444 107.24 80.9741 107.722 80.9741C108.204 80.9741 108.606 81.4584 108.606 82.059Z" fill="#263238"/>
<path d="M117.016 81.4908C117.016 82.0915 116.621 82.5757 116.131 82.5757C115.642 82.5757 115.254 82.1101 115.254 81.4908C115.254 80.8716 115.642 80.4106 116.131 80.4106C116.621 80.4106 117.016 80.8949 117.016 81.4908Z" fill="#263238"/>
<path d="M113.827 80.4573L113.016 82.2452C113.016 82.2452 115.18 82.7108 115.18 83.5675C115.18 84.4243 113.17 84.7921 112.741 84.7921" stroke="#263238" stroke-linecap="round" stroke-linejoin="round"/>
<path d="M111.112 87.5254C111.551 87.6876 112.04 87.7725 112.536 87.7725C113.033 87.7725 113.522 87.6876 113.96 87.5254" stroke="#263238" stroke-linecap="round" stroke-linejoin="round"/>
<path d="M105.96 79.7962C105.96 79.7962 107.179 78.2876 109.484 78.6648" stroke="#263238" stroke-linecap="round" stroke-linejoin="round"/>
<path d="M115.046 78.9486C115.258 78.8703 115.491 78.8227 115.73 78.8088C115.97 78.7948 116.211 78.8148 116.439 78.8674C116.667 78.9201 116.877 79.0044 117.057 79.1152C117.237 79.226 117.382 79.361 117.485 79.512" stroke="#263238" stroke-linecap="round" stroke-linejoin="round"/>
<path d="M110.704 130.347C110.704 130.347 115.32 130.873 115.595 131.278C115.87 131.683 117.404 133.988 116.989 134.663C116.573 135.338 115.736 134.374 115.461 133.695C115.186 133.015 112.111 131.474 112.111 131.474" fill="white"/>
<path d="M110.704 130.347C110.704 130.347 115.32 130.873 115.595 131.278C115.87 131.683 117.404 133.988 116.989 134.663C116.573 135.338 115.736 134.374 115.461 133.695C115.186 133.015 112.111 131.474 112.111 131.474" stroke="#263238" stroke-linecap="round" stroke-linejoin="round"/>
<path d="M109.893 130.403C109.893 130.403 113.806 131.246 114.188 131.59C114.999 132.321 116.594 134.137 116.198 134.812C115.803 135.488 115.26 135.082 113.237 132.885C112.693 132.401 112.049 131.976 111.327 131.623" fill="white"/>
<path d="M109.893 130.403C109.893 130.403 113.806 131.246 114.188 131.59C114.999 132.321 116.594 134.137 116.198 134.812C115.803 135.488 115.26 135.082 113.237 132.885C112.693 132.401 112.049 131.976 111.327 131.623" stroke="#263238" stroke-linecap="round" stroke-linejoin="round"/>
<path d="M88.948 98.4019C88.948 98.4019 79.8087 99.6171 74.6561 102.322C69.5035 105.027 66.3007 119.429 65.758 122.911C65.2152 126.394 64.6457 129.677 67.1449 130.361C69.6442 131.046 88.2913 131.618 92.0436 131.618C95.7958 131.618 106.235 132.577 107.066 132.577C107.897 132.577 112.768 134.705 113.605 135.287C114.443 135.869 114.564 134.784 114.162 133.737C113.619 132.34 110.811 130.161 107.347 129.388C103.883 128.615 98.027 129.002 94.2681 127.554C90.5092 126.105 81.4771 122.8 80.0834 122.618C79.4883 122.522 78.8835 122.458 78.2743 122.427C78.2743 122.427 85.5107 111.215 86.2008 109.572" fill="white"/>
<path d="M88.948 98.4019C88.948 98.4019 79.8087 99.6171 74.6561 102.322C69.5035 105.027 66.3007 119.429 65.758 122.911C65.2152 126.394 64.6457 129.677 67.1449 130.361C69.6442 131.046 88.2913 131.618 92.0436 131.618C95.7958 131.618 106.235 132.577 107.066 132.577C107.897 132.577 112.768 134.705 113.605 135.287C114.443 135.869 114.564 134.784 114.162 133.737C113.619 132.34 110.811 130.161 107.347 129.388C103.883 128.615 98.027 129.002 94.2681 127.554C90.5092 126.105 81.4771 122.8 80.0834 122.618C79.4883 122.522 78.8835 122.458 78.2743 122.427C78.2743 122.427 85.5107 111.215 86.2008 109.572" stroke="#263238" stroke-linecap="round" stroke-linejoin="round"/>
<path d="M110.268 132.186C110.268 132.186 113.619 133.83 113.619 135.283" stroke="#263238" stroke-linecap="round" stroke-linejoin="round"/>
<path d="M130.624 122.8C127.638 122.281 124.479 122.585 121.807 123.647C117.472 125.44 115.026 127.135 112.426 127.605C109.826 128.075 105.511 127.796 102.255 128.736C99.9934 129.356 97.685 129.891 95.3402 130.338C93.712 130.715 93.846 131.562 95.0654 131.562C96.2849 131.562 97.9131 131.469 97.9131 131.469C97.9131 131.469 95.7489 133.825 95.7489 134.58C95.7489 135.334 98.9986 135.427 100.218 135.236C101.438 135.045 103.474 133.257 104.151 133.071C104.828 132.885 107.408 133.164 109.304 132.224C111.2 131.283 112.017 130.827 112.017 130.827C112.017 130.827 119.75 132.522 125.418 131.581C131.087 130.641 133.077 129.747 134.705 125.696" fill="white"/>
<path d="M130.624 122.8C127.638 122.281 124.479 122.585 121.807 123.647C117.472 125.44 115.026 127.135 112.426 127.605C109.826 128.075 105.511 127.796 102.255 128.736C99.9934 129.356 97.685 129.891 95.3402 130.338C93.712 130.715 93.846 131.562 95.0654 131.562C96.2849 131.562 97.9131 131.469 97.9131 131.469C97.9131 131.469 95.7489 133.825 95.7489 134.58C95.7489 135.334 98.9986 135.427 100.218 135.236C101.438 135.045 103.474 133.257 104.151 133.071C104.828 132.885 107.408 133.164 109.304 132.224C111.2 131.283 112.017 130.827 112.017 130.827C112.017 130.827 119.75 132.522 125.418 131.581C131.087 130.641 133.077 129.747 134.705 125.696" stroke="#263238" stroke-linecap="round" stroke-linejoin="round"/>
<path d="M97.9399 131.474C98.7112 130.84 99.6281 130.298 100.654 129.872" stroke="#263238" stroke-linecap="round" stroke-linejoin="round"/>
<path d="M96.7202 134.864C96.7202 134.864 99.1659 131.66 102.416 130.343" stroke="#263238" stroke-linecap="round" stroke-linejoin="round"/>
<path d="M98.6099 135.106C98.6099 135.106 99.5948 132.503 104.044 130.915" stroke="#263238" stroke-linecap="round" stroke-linejoin="round"/>
<path d="M100.244 135.241C100.551 134.398 101.164 133.625 102.026 132.996C102.887 132.366 103.967 131.901 105.162 131.646" stroke="#263238" stroke-linecap="round" stroke-linejoin="round"/>
<path d="M127.448 137.932C127.448 137.932 121.418 135.986 115.602 139.724C109.786 143.463 109.84 145.312 102.094 152.962C94.3485 160.612 83.1455 174.654 80.7803 175.702C78.415 176.75 70.8771 178.84 69.3896 181.983C67.9021 185.126 70.0597 186.024 73.2624 185.126C76.4652 184.227 81.8724 177.793 82.7368 177.346C83.6011 176.899 101.9 166.725 111.589 162.833C121.277 158.94 126.175 155.285 130.048 148.552C133.921 141.82 130.892 138.379 127.448 137.932Z" fill="white" stroke="#263238" stroke-linecap="round" stroke-linejoin="round"/>
<path d="M82.5689 177.448C81.5823 177.116 80.7542 176.594 80.1836 175.944C77.356 177.052 70.803 179.068 69.3692 181.997C67.8616 185.14 70.0392 186.038 73.242 185.14C76.3509 184.26 81.3628 178.375 82.5689 177.448Z" fill="#263238" stroke="#263238" stroke-linecap="round" stroke-linejoin="round"/>
<path d="M83.9224 180.819C83.9224 180.819 94.777 168.546 101.665 160.914C108.553 153.283 111.789 148.65 111.789 144.907C111.789 144.907 112.071 139.399 105.759 139.371C101.879 139.371 94.5626 141.019 89.1822 148.217C83.8018 155.415 79.9223 178.887 79.279 180.232C78.6358 181.578 78.609 189.959 80.3511 191.905C82.0932 193.851 85.0883 192.501 85.3027 188.311C85.4366 185.778 84.9703 183.247 83.9224 180.819Z" fill="white" stroke="#263238" stroke-linecap="round" stroke-linejoin="round"/>
<path d="M79.1248 180.717C78.6423 182.97 78.783 190.108 80.3509 191.891C82.0796 193.833 85.0881 192.487 85.3025 188.297C85.4335 185.77 84.9672 183.245 83.9222 180.824C83.9222 180.824 81.4632 182.886 79.1248 180.717Z" fill="#263238" stroke="#263238" stroke-linecap="round" stroke-linejoin="round"/>
</svg>
