<svg width="20" height="20" viewBox="0 0 20 20" fill="none" xmlns="http://www.w3.org/2000/svg">
<path d="M6.04175 5.83332H13.9584V4.16666C13.9584 2.49999 13.3334 1.66666 11.4584 1.66666H8.54175C6.66675 1.66666 6.04175 2.49999 6.04175 4.16666V5.83332Z" stroke="#292D32" stroke-width="1.5" stroke-miterlimit="10" stroke-linecap="round" stroke-linejoin="round"/>
<path d="M13.3334 12.5V15.8333C13.3334 17.5 12.5001 18.3333 10.8334 18.3333H9.16675C7.50008 18.3333 6.66675 17.5 6.66675 15.8333V12.5H13.3334Z" stroke="#292D32" stroke-width="1.5" stroke-miterlimit="10" stroke-linecap="round" stroke-linejoin="round"/>
<path d="M17.5 8.33334V12.5C17.5 14.1667 16.6667 15 15 15H13.3333V12.5H6.66667V15H5C3.33333 15 2.5 14.1667 2.5 12.5V8.33334C2.5 6.66668 3.33333 5.83334 5 5.83334H15C16.6667 5.83334 17.5 6.66668 17.5 8.33334Z" stroke="#292D32" stroke-width="1.5" stroke-miterlimit="10" stroke-linecap="round" stroke-linejoin="round"/>
<path d="M14.1666 12.5H13.1583H5.83325" stroke="#292D32" stroke-width="1.5" stroke-miterlimit="10" stroke-linecap="round" stroke-linejoin="round"/>
<path d="M5.83325 9.16666H8.33325" stroke="#292D32" stroke-width="1.5" stroke-miterlimit="10" stroke-linecap="round" stroke-linejoin="round"/>
</svg>
