<svg width="30" height="30" viewBox="0 0 30 30" fill="none" xmlns="http://www.w3.org/2000/svg">
<path d="M8.37501 22.5H5.18753C3.40003 22.5 2.5 21.6 2.5 19.8125V5.18753C2.5 3.40003 3.40003 2.5 5.18753 2.5H10.5625C12.35 2.5 13.25 3.40003 13.25 5.18753V7.5" stroke="#8485A4" stroke-width="1.5" stroke-miterlimit="10" stroke-linecap="round" stroke-linejoin="round"/>
<path d="M21.7124 10.525V24.475C21.7124 26.4875 20.7126 27.5 18.7001 27.5H11.4C9.38748 27.5 8.375 26.4875 8.375 24.475V10.525C8.375 8.51248 9.38748 7.5 11.4 7.5H18.7001C20.7126 7.5 21.7124 8.51248 21.7124 10.525Z" stroke="#8485A4" stroke-width="1.5" stroke-miterlimit="10" stroke-linecap="round" stroke-linejoin="round"/>
<path d="M16.7498 7.5V5.18753C16.7498 3.40003 17.6498 2.5 19.4373 2.5H24.8123C26.5998 2.5 27.4998 3.40003 27.4998 5.18753V19.8125C27.4998 21.6 26.5998 22.5 24.8123 22.5H21.7123" stroke="#8485A4" stroke-width="1.5" stroke-miterlimit="10" stroke-linecap="round" stroke-linejoin="round"/>
<path d="M12.5 13.75H17.5" stroke="#8485A4" stroke-width="1.5" stroke-miterlimit="10" stroke-linecap="round" stroke-linejoin="round"/>
<path d="M12.5 17.5H17.5" stroke="#8485A4" stroke-width="1.5" stroke-miterlimit="10" stroke-linecap="round" stroke-linejoin="round"/>
<path d="M15 27.5V23.75" stroke="#8485A4" stroke-width="1.5" stroke-miterlimit="10" stroke-linecap="round" stroke-linejoin="round"/>
</svg>
