<svg width="55" height="48" viewBox="0 0 55 48" fill="none" xmlns="http://www.w3.org/2000/svg">
<path d="M38.9584 45.5H16.0417C5.93546 45.5 2.86462 42.82 2.86462 34V30C2.86462 21.18 5.93546 18.5 16.0417 18.5H38.9584C49.0646 18.5 52.1355 21.18 52.1355 30V34C52.1355 42.82 49.0646 45.5 38.9584 45.5ZM16.0417 21.5C7.83754 21.5 6.30212 22.86 6.30212 30V34C6.30212 41.14 7.83754 42.5 16.0417 42.5H38.9584C47.1625 42.5 48.698 41.14 48.698 34V30C48.698 22.86 47.1625 21.5 38.9584 21.5H16.0417Z" fill="#292D32"/>
<path d="M13.75 21.5C12.8104 21.5 12.0312 20.82 12.0312 20V16C12.0312 10.2 13.6354 2.5 27.5 2.5C37.7667 2.5 42.9688 6.36 42.9688 14C42.9688 14.82 42.1896 15.5 41.25 15.5C40.3104 15.5 39.5313 14.82 39.5313 14C39.5313 10.04 38.1563 5.5 27.5 5.5C17.5083 5.5 15.4688 9.7 15.4688 16V20C15.4688 20.82 14.6896 21.5 13.75 21.5Z" fill="#292D32"/>
<path d="M27.5 38.5C23.398 38.5 20.0521 35.58 20.0521 32C20.0521 28.42 23.398 25.5 27.5 25.5C31.6021 25.5 34.948 28.42 34.948 32C34.948 35.58 31.6021 38.5 27.5 38.5ZM27.5 28.5C25.3 28.5 23.4896 30.08 23.4896 32C23.4896 33.92 25.3 35.5 27.5 35.5C29.7 35.5 31.5105 33.92 31.5105 32C31.5105 30.08 29.7 28.5 27.5 28.5Z" fill="#292D32"/>
</svg>
