<svg width="55" height="48" viewBox="0 0 55 48" fill="none" xmlns="http://www.w3.org/2000/svg">
<path d="M27.5 42.5H16.0417C7.67712 42.5 2.86462 38.3 2.86462 31V17C2.86462 9.7 7.67712 5.5 16.0417 5.5H38.9584C47.323 5.5 52.1355 9.7 52.1355 17V23C52.1355 23.82 51.3563 24.5 50.4167 24.5C49.4771 24.5 48.698 23.82 48.698 23V17C48.698 11.28 45.5125 8.5 38.9584 8.5H16.0417C9.48754 8.5 6.30212 11.28 6.30212 17V31C6.30212 36.72 9.48754 39.5 16.0417 39.5H27.5C28.4396 39.5 29.2188 40.18 29.2188 41C29.2188 41.82 28.4396 42.5 27.5 42.5Z" fill="#292D32"/>
<path d="M27.4972 25.74C25.5722 25.74 23.6243 25.22 22.1347 24.16L14.9618 19.1599C14.2285 18.6399 14.091 17.6999 14.6868 17.0599C15.2827 16.4199 16.3597 16.3199 17.0931 16.8199L24.266 21.82C26.0077 23.04 28.9639 23.04 30.7056 21.82L37.8785 16.8199C38.6118 16.2999 39.6889 16.3999 40.2847 17.0599C40.8806 17.6999 40.766 18.6599 40.0097 19.1599L32.8368 24.16C31.3702 25.22 29.4222 25.74 27.4972 25.74Z" fill="#292D32"/>
<path d="M41.7083 44.3C36.7125 44.3 32.6562 40.76 32.6562 36.4C32.6562 32.04 36.7125 28.5 41.7083 28.5C46.7042 28.5 50.7604 32.04 50.7604 36.4C50.7604 40.76 46.7042 44.3 41.7083 44.3ZM41.7083 31.5C38.6146 31.5 36.0938 33.7 36.0938 36.4C36.0938 39.1 38.6146 41.3 41.7083 41.3C44.8021 41.3 47.3229 39.1 47.3229 36.4C47.3229 33.7 44.8021 31.5 41.7083 31.5Z" fill="#292D32"/>
<path d="M50.4156 45.4998C49.9802 45.4998 49.5447 45.3598 49.201 45.0598L46.9093 43.0598C46.2447 42.4798 46.2447 41.5198 46.9093 40.9398C47.5739 40.3598 48.6739 40.3598 49.3385 40.9398L51.6302 42.9398C52.2947 43.5198 52.2947 44.4798 51.6302 45.0598C51.2864 45.3598 50.851 45.4998 50.4156 45.4998Z" fill="#292D32"/>
</svg>
