<svg width="55" height="48" viewBox="0 0 55 48" fill="none" xmlns="http://www.w3.org/2000/svg">
<path d="M38.9582 45.5H16.0416C5.93534 45.5 2.8645 42.82 2.8645 34V30C2.8645 21.18 5.93534 18.5 16.0416 18.5H38.9582C49.0645 18.5 52.1353 21.18 52.1353 30V34C52.1353 42.82 49.0645 45.5 38.9582 45.5ZM16.0416 21.5C7.83742 21.5 6.302 22.86 6.302 30V34C6.302 41.14 7.83742 42.5 16.0416 42.5H38.9582C47.1624 42.5 48.6978 41.14 48.6978 34V30C48.6978 22.86 47.1624 21.5 38.9582 21.5H16.0416Z" fill="#292D32"/>
<path d="M13.75 21.5C12.8104 21.5 12.0312 20.82 12.0312 20V16C12.0312 10.2 13.6354 2.5 27.5 2.5C37.7667 2.5 42.9688 6.36 42.9688 14C42.9688 14.82 42.1896 15.5 41.25 15.5C40.3104 15.5 39.5313 14.82 39.5313 14C39.5313 10.04 38.1563 5.5 27.5 5.5C17.5083 5.5 15.4688 9.7 15.4688 16V20C15.4688 20.82 14.6896 21.5 13.75 21.5Z" fill="#292D32"/>
<path d="M27.4999 38.5C23.3978 38.5 20.052 35.58 20.052 32C20.052 28.42 23.3978 25.5 27.4999 25.5C31.602 25.5 34.9478 28.42 34.9478 32C34.9478 35.58 31.602 38.5 27.4999 38.5ZM27.4999 28.5C25.2999 28.5 23.4895 30.08 23.4895 32C23.4895 33.92 25.2999 35.5 27.4999 35.5C29.6999 35.5 31.5103 33.92 31.5103 32C31.5103 30.08 29.6999 28.5 27.4999 28.5Z" fill="#292D32"/>
</svg>
