<svg width="20" height="20" viewBox="0 0 20 20" fill="none" xmlns="http://www.w3.org/2000/svg">
<path d="M18.0501 8.70001L17.2335 12.1833C16.5335 15.1917 15.1501 16.4083 12.5501 16.1583C12.1335 16.125 11.6835 16.05 11.2001 15.9333L9.80014 15.6C6.32511 14.775 5.25011 13.0583 6.06678 9.57501L6.88344 6.08335C7.05011 5.37502 7.25011 4.75835 7.50011 4.25002C8.47514 2.23335 10.1335 1.69168 12.9168 2.35002L14.3085 2.67502C17.8001 3.49168 18.8668 5.21668 18.0501 8.70001Z" stroke="#007AFF" stroke-width="1.5" stroke-linecap="round" stroke-linejoin="round"/>
<path d="M12.5499 16.1583C12.0333 16.5083 11.3833 16.8 10.5916 17.0583L9.27494 17.4917C5.96659 18.5583 4.22492 17.6667 3.14992 14.3583L2.08325 11.0667C1.01658 7.7583 1.89992 6.0083 5.20825 4.94164L6.52492 4.5083C6.86658 4.39997 7.19158 4.3083 7.49992 4.24997C7.24992 4.7583 7.04992 5.37497 6.88325 6.0833L6.06658 9.57499C5.24992 13.0583 6.32493 14.775 9.79994 15.6L11.1999 15.9333C11.6833 16.05 12.1333 16.125 12.5499 16.1583Z" stroke="#007AFF" stroke-width="1.5" stroke-linecap="round" stroke-linejoin="round"/>
<path d="M10.5333 7.10837L14.575 8.13337" stroke="#2A57FD" stroke-width="1.5" stroke-linecap="round" stroke-linejoin="round"/>
<path d="M9.71667 10.3333L12.1333 10.95" stroke="#2A57FD" stroke-width="1.5" stroke-linecap="round" stroke-linejoin="round"/>
</svg>
