<svg width="55" height="48" viewBox="0 0 55 48" fill="none" xmlns="http://www.w3.org/2000/svg">
<path d="M27.5001 25.5C20.2355 25.5 14.323 20.34 14.323 14C14.323 7.66 20.2355 2.5 27.5001 2.5C34.7647 2.5 40.6772 7.66 40.6772 14C40.6772 20.34 34.7647 25.5 27.5001 25.5ZM27.5001 5.5C22.1376 5.5 17.7605 9.32 17.7605 14C17.7605 18.68 22.1376 22.5 27.5001 22.5C32.8626 22.5 37.2397 18.68 37.2397 14C37.2397 9.32 32.8626 5.5 27.5001 5.5Z" fill="#292D32"/>
<path d="M47.1856 45.5C46.246 45.5 45.4669 44.82 45.4669 44C45.4669 37.1 37.4004 31.5 27.5004 31.5C17.6003 31.5 9.53369 37.1 9.53369 44C9.53369 44.82 8.75452 45.5 7.81494 45.5C6.87536 45.5 6.09619 44.82 6.09619 44C6.09619 35.46 15.6983 28.5 27.5004 28.5C39.3025 28.5 48.9044 35.46 48.9044 44C48.9044 44.82 48.1252 45.5 47.1856 45.5Z" fill="#292D32"/>
</svg>
