<svg width="30" height="30" viewBox="0 0 30 30" fill="none" xmlns="http://www.w3.org/2000/svg">
<path d="M11.4507 14.525C11.4132 14.525 11.3882 14.525 11.3507 14.525C11.2882 14.5125 11.2007 14.5125 11.1257 14.525C7.50068 14.4125 4.76318 11.5625 4.76318 8.05C4.76318 4.475 7.67568 1.5625 11.2507 1.5625C14.8256 1.5625 17.7381 4.475 17.7381 8.05C17.7256 11.5625 14.9756 14.4125 11.4882 14.525C11.4757 14.525 11.4632 14.525 11.4507 14.525ZM11.2507 3.4375C8.71318 3.4375 6.63818 5.5125 6.63818 8.05C6.63818 10.55 8.58818 12.5625 11.0757 12.65C11.1507 12.6375 11.3132 12.6375 11.4757 12.65C13.9256 12.5375 15.8506 10.525 15.8631 8.05C15.8631 5.5125 13.7881 3.4375 11.2507 3.4375Z" fill="white"/>
<path d="M20.6754 14.6875C20.6379 14.6875 20.6004 14.6875 20.5629 14.675C20.0504 14.725 19.5254 14.3625 19.4754 13.85C19.4254 13.3375 19.7379 12.875 20.2504 12.8125C20.4004 12.8 20.5629 12.8 20.7004 12.8C22.5254 12.7 23.9504 11.2 23.9504 9.3625C23.9504 7.4625 22.4129 5.925 20.5129 5.925C20.0004 5.9375 19.5754 5.5125 19.5754 5C19.5754 4.4875 20.0004 4.0625 20.5129 4.0625C23.4379 4.0625 25.8254 6.45 25.8254 9.375C25.8254 12.25 23.5754 14.575 20.7129 14.6875C20.7004 14.6875 20.6879 14.6875 20.6754 14.6875Z" fill="white"/>
<path d="M11.462 28.1875C9.01201 28.1875 6.54951 27.5625 4.68701 26.3125C2.94951 25.1625 1.99951 23.5875 1.99951 21.875C1.99951 20.1625 2.94951 18.575 4.68701 17.4125C8.43701 14.925 14.512 14.925 18.237 17.4125C19.962 18.5625 20.9245 20.1375 20.9245 21.85C20.9245 23.5625 19.9745 25.15 18.237 26.3125C16.362 27.5625 13.912 28.1875 11.462 28.1875ZM5.72451 18.9875C4.52451 19.7875 3.87451 20.8125 3.87451 21.8875C3.87451 22.95 4.53701 23.975 5.72451 24.7625C8.83701 26.85 14.087 26.85 17.1995 24.7625C18.3995 23.9625 19.0495 22.9375 19.0495 21.8625C19.0495 20.8 18.387 19.775 17.1995 18.9875C14.087 16.9125 8.83701 16.9125 5.72451 18.9875Z" fill="white"/>
<path d="M22.9252 25.9375C22.4877 25.9375 22.1002 25.6375 22.0127 25.1875C21.9127 24.675 22.2377 24.1875 22.7377 24.075C23.5252 23.9125 24.2502 23.6 24.8127 23.1625C25.5252 22.625 25.9127 21.95 25.9127 21.2375C25.9127 20.525 25.5252 19.85 24.8252 19.325C24.2752 18.9 23.5877 18.6 22.7752 18.4125C22.2752 18.3 21.9502 17.8 22.0627 17.2875C22.1752 16.7875 22.6752 16.4625 23.1877 16.575C24.2627 16.8125 25.2002 17.2375 25.9627 17.825C27.1252 18.7 27.7877 19.9375 27.7877 21.2375C27.7877 22.5375 27.1127 23.775 25.9502 24.6625C25.1752 25.2625 24.2002 25.7 23.1252 25.9125C23.0502 25.9375 22.9877 25.9375 22.9252 25.9375Z" fill="white"/>
</svg>
