<svg width="30" height="30" viewBox="0 0 30 30" fill="none" xmlns="http://www.w3.org/2000/svg">
<path d="M22.5004 9.88752C22.4629 9.88752 22.4379 9.88752 22.4004 9.88752H22.3379C19.9754 9.81252 18.2129 7.98751 18.2129 5.73751C18.2129 3.43751 20.0879 1.57501 22.3754 1.57501C24.6629 1.57501 26.5379 3.45001 26.5379 5.73751C26.5254 8.00001 24.7629 9.82501 22.5129 9.90001C22.5129 9.88751 22.5129 9.88752 22.5004 9.88752ZM22.3754 3.43752C21.1129 3.43752 20.0879 4.46252 20.0879 5.72502C20.0879 6.96252 21.0504 7.96252 22.2879 8.01252C22.3004 8.00002 22.4004 8.00002 22.5129 8.01252C23.7254 7.95002 24.6629 6.95002 24.6754 5.72502C24.6754 4.46252 23.6504 3.43752 22.3754 3.43752Z" fill="#8485A4"/>
<path d="M22.5131 19.1001C22.0256 19.1001 21.5381 19.0626 21.0506 18.9751C20.5381 18.8876 20.2006 18.4001 20.2881 17.8876C20.3756 17.3751 20.8631 17.0376 21.3756 17.1251C22.9131 17.3876 24.5381 17.1003 25.6256 16.3753C26.2131 15.9878 26.5256 15.5001 26.5256 15.0126C26.5256 14.5251 26.2006 14.0501 25.6256 13.6626C24.5381 12.9376 22.8881 12.6501 21.3381 12.9251C20.8256 13.0251 20.3381 12.6751 20.2506 12.1627C20.1631 11.6502 20.5006 11.1627 21.0131 11.0752C23.0506 10.7127 25.1631 11.1002 26.6631 12.1002C27.7631 12.8376 28.4006 13.8876 28.4006 15.0126C28.4006 16.1251 27.7756 17.1878 26.6631 17.9378C25.5256 18.6878 24.0506 19.1001 22.5131 19.1001Z" fill="#8485A4"/>
<path d="M7.46309 9.8875C7.45059 9.8875 7.43809 9.8875 7.43809 9.8875C5.18809 9.8125 3.42559 7.9875 3.41309 5.7375C3.41309 3.4375 5.28809 1.5625 7.57559 1.5625C9.86309 1.5625 11.7381 3.4375 11.7381 5.725C11.7381 7.9875 9.97559 9.8125 7.72559 9.8875L7.46309 8.95L7.55059 9.8875C7.52559 9.8875 7.48809 9.8875 7.46309 9.8875ZM7.58809 8.0125C7.66309 8.0125 7.72559 8.0125 7.80059 8.025C8.91309 7.975 9.88809 6.975 9.88809 5.7375C9.88809 4.475 8.86309 3.44999 7.60059 3.44999C6.33809 3.44999 5.31309 4.475 5.31309 5.7375C5.31309 6.9625 6.26309 7.95 7.47559 8.025C7.48809 8.0125 7.53809 8.0125 7.58809 8.0125Z" fill="#8485A4"/>
<path d="M7.45 19.1001C5.9125 19.1001 4.4375 18.6878 3.3 17.9378C2.2 17.2003 1.5625 16.1376 1.5625 15.0126C1.5625 13.9001 2.2 12.8376 3.3 12.1002C4.8 11.1002 6.9125 10.7127 8.95 11.0752C9.4625 11.1627 9.8 11.6502 9.7125 12.1627C9.625 12.6751 9.1375 13.0251 8.625 12.9251C7.075 12.6501 5.4375 12.9376 4.3375 13.6626C3.75 14.0501 3.4375 14.5251 3.4375 15.0126C3.4375 15.5001 3.7625 15.9878 4.3375 16.3753C5.425 17.1003 7.05 17.3876 8.5875 17.1251C9.1 17.0376 9.5875 17.3876 9.675 17.8876C9.7625 18.4001 9.425 18.8876 8.9125 18.9751C8.425 19.0626 7.9375 19.1001 7.45 19.1001Z" fill="#8485A4"/>
<path d="M15.0004 19.225C14.9629 19.225 14.9379 19.225 14.9004 19.225H14.8379C12.4754 19.15 10.7129 17.325 10.7129 15.075C10.7129 12.775 12.5879 10.9125 14.8754 10.9125C17.1629 10.9125 19.0379 12.7875 19.0379 15.075C19.0254 17.3375 17.2629 19.1625 15.0129 19.2375C15.0129 19.225 15.0129 19.225 15.0004 19.225ZM14.8754 12.775C13.6129 12.775 12.5879 13.8 12.5879 15.0625C12.5879 16.3 13.5504 17.3 14.7879 17.35C14.8004 17.3375 14.9004 17.3375 15.0129 17.35C16.2254 17.2875 17.1629 16.2875 17.1754 15.0625C17.1754 13.8125 16.1504 12.775 14.8754 12.775Z" fill="#8485A4"/>
<path d="M14.9991 28.45C13.4991 28.45 11.9991 28.0625 10.8366 27.275C9.73662 26.5375 9.09912 25.4875 9.09912 24.3625C9.09912 23.25 9.72412 22.175 10.8366 21.4375C13.1741 19.8875 16.8366 19.8875 19.1616 21.4375C20.2616 22.175 20.8991 23.225 20.8991 24.35C20.8991 25.4625 20.2741 26.5375 19.1616 27.275C17.9991 28.05 16.4991 28.45 14.9991 28.45ZM11.8741 23.0125C11.2866 23.4 10.9741 23.8875 10.9741 24.375C10.9741 24.8625 11.2991 25.3375 11.8741 25.725C13.5616 26.8625 16.4241 26.8625 18.1116 25.725C18.6991 25.3375 19.0116 24.85 19.0116 24.3625C19.0116 23.875 18.6866 23.4 18.1116 23.0125C16.4366 21.875 13.5741 21.8875 11.8741 23.0125Z" fill="#8485A4"/>
</svg>
