<svg width="30" height="30" viewBox="0 0 30 30" fill="none" xmlns="http://www.w3.org/2000/svg">
<path d="M11.4507 14.525C11.4132 14.525 11.3882 14.525 11.3507 14.525C11.2882 14.5125 11.2007 14.5125 11.1257 14.525C7.50068 14.4125 4.76318 11.5625 4.76318 8.05C4.76318 4.475 7.67568 1.5625 11.2507 1.5625C14.8256 1.5625 17.7381 4.475 17.7381 8.05C17.7256 11.5625 14.9756 14.4125 11.4882 14.525C11.4757 14.525 11.4632 14.525 11.4507 14.525ZM11.2507 3.4375C8.71318 3.4375 6.63818 5.5125 6.63818 8.05C6.63818 10.55 8.58818 12.5625 11.0757 12.65C11.1507 12.6375 11.3132 12.6375 11.4757 12.65C13.9256 12.5375 15.8506 10.525 15.8631 8.05C15.8631 5.5125 13.7881 3.4375 11.2507 3.4375Z" fill="#8485A4"/>
<path d="M20.6755 14.6875C20.638 14.6875 20.6005 14.6875 20.563 14.675C20.0505 14.725 19.5255 14.3625 19.4755 13.85C19.4255 13.3375 19.738 12.875 20.2505 12.8125C20.4005 12.8 20.563 12.8 20.7005 12.8C22.5255 12.7 23.9505 11.2 23.9505 9.3625C23.9505 7.4625 22.413 5.925 20.513 5.925C20.0005 5.9375 19.5755 5.5125 19.5755 5C19.5755 4.4875 20.0005 4.0625 20.513 4.0625C23.438 4.0625 25.8255 6.45 25.8255 9.375C25.8255 12.25 23.5755 14.575 20.713 14.6875C20.7005 14.6875 20.688 14.6875 20.6755 14.6875Z" fill="#8485A4"/>
<path d="M11.462 28.1875C9.01201 28.1875 6.54951 27.5625 4.68701 26.3125C2.94951 25.1625 1.99951 23.5875 1.99951 21.875C1.99951 20.1625 2.94951 18.575 4.68701 17.4125C8.43701 14.925 14.512 14.925 18.237 17.4125C19.962 18.5625 20.9245 20.1375 20.9245 21.85C20.9245 23.5625 19.9745 25.15 18.237 26.3125C16.362 27.5625 13.912 28.1875 11.462 28.1875ZM5.72451 18.9875C4.52451 19.7875 3.87451 20.8125 3.87451 21.8875C3.87451 22.95 4.53701 23.975 5.72451 24.7625C8.83701 26.85 14.087 26.85 17.1995 24.7625C18.3995 23.9625 19.0495 22.9375 19.0495 21.8625C19.0495 20.8 18.387 19.775 17.1995 18.9875C14.087 16.9125 8.83701 16.9125 5.72451 18.9875Z" fill="#8485A4"/>
<path d="M22.9253 25.9375C22.4878 25.9375 22.1003 25.6375 22.0128 25.1875C21.9128 24.675 22.2378 24.1875 22.7378 24.075C23.5253 23.9125 24.2503 23.6 24.8128 23.1625C25.5253 22.625 25.9128 21.95 25.9128 21.2375C25.9128 20.525 25.5253 19.85 24.8253 19.325C24.2753 18.9 23.5878 18.6 22.7753 18.4125C22.2753 18.3 21.9503 17.8 22.0628 17.2875C22.1753 16.7875 22.6753 16.4625 23.1878 16.575C24.2628 16.8125 25.2003 17.2375 25.9628 17.825C27.1253 18.7 27.7878 19.9375 27.7878 21.2375C27.7878 22.5375 27.1128 23.775 25.9503 24.6625C25.1753 25.2625 24.2003 25.7 23.1253 25.9125C23.0503 25.9375 22.9878 25.9375 22.9253 25.9375Z" fill="#8485A4"/>
</svg>
