<svg width="337" height="293" viewBox="0 0 337 293" fill="none" xmlns="http://www.w3.org/2000/svg">
<path d="M260.345 175.098V175.047C253.516 172.779 243.037 173.549 241.481 174.478C239.826 175.586 238.404 177.008 237.296 178.663C233.618 183.882 230.981 189.761 229.53 195.979L155.253 202.883C152.517 196.975 148.391 191.677 144.248 188.48C143.064 187.489 141.7 186.736 140.231 186.262C139.584 186.185 138.929 186.207 138.289 186.329C135.594 178.521 131.778 170.988 127.008 170.511C116.965 169.507 99.4396 172.871 94.6608 182.613C89.882 192.355 88.3839 216.676 88.3839 216.676L85.0362 220.023C82.5946 215.266 79.1986 211.064 75.0602 207.679C73.8804 206.682 72.5152 205.928 71.043 205.461C70.2061 205.227 66.8584 205.745 63.3518 206.892C63.2095 206.758 63.0756 206.624 62.9249 206.499C59.5773 203.695 52.7146 202.163 48.8815 209.311C45.0484 216.458 49.6515 229.991 51.9446 233.054C53.0583 234.619 54.4548 235.961 56.0622 237.013C58.7655 243.708 63.5945 252.244 71.0263 252.638C73.5718 252.775 76.1171 252.363 78.4896 251.43C80.862 250.497 83.0062 249.065 84.7768 247.231C89.5974 242.21 90.1163 235.155 88.3002 228.25L89.0785 227.112C89.0785 227.112 90.811 229.581 97.4477 228.585C99.3716 228.387 101.196 227.63 102.695 226.409C105.808 234.351 110.838 242.31 118.831 243.499C122.261 244.024 125.764 243.803 129.102 242.853C132.439 241.903 135.533 240.245 138.172 237.992C139.706 236.667 141.044 235.131 142.147 233.431C146.623 233.184 150.838 231.252 153.948 228.024C156.73 225.057 158.321 221.169 158.417 217.102L168.301 215.947C174.506 218.715 181.275 219.982 188.061 219.647C194.558 219.229 200.709 216.567 205.46 212.114L227.981 210.189C228.358 218.918 231.496 226.928 238.861 231.338C241.681 233.021 244.832 234.073 248.097 234.421C251.362 234.769 254.664 234.406 257.776 233.355C268.162 229.874 270.622 214.441 271.292 205.059C272.33 189.995 267.526 177.232 260.345 175.098Z" fill="#263238" stroke="#263238" stroke-width="0.75" stroke-linecap="round" stroke-linejoin="round"/>
<path d="M122.84 238.653C121.976 239.757 120.875 240.652 119.617 241.272" stroke="white" stroke-width="0.5" stroke-linecap="round" stroke-linejoin="round"/>
<path d="M126.899 218.818C126.899 218.818 127.895 229.698 124.187 236.603" stroke="white" stroke-width="0.5" stroke-linecap="round" stroke-linejoin="round"/>
<path d="M129.836 230.836C128.89 235.021 127.007 239.08 123.358 240.879" stroke="white" stroke-width="0.5" stroke-linecap="round" stroke-linejoin="round"/>
<path d="M134.381 217.99C134.381 217.99 136.055 236.075 127.108 240.444" stroke="white" stroke-width="0.5" stroke-linecap="round" stroke-linejoin="round"/>
<path d="M138.13 217.571C138.13 217.571 139.804 235.665 130.849 240.025" stroke="white" stroke-width="0.5" stroke-linecap="round" stroke-linejoin="round"/>
<path d="M251.038 230.25C250.076 231.465 248.881 232.475 247.523 233.221" stroke="white" stroke-width="0.5" stroke-linecap="round" stroke-linejoin="round"/>
<path d="M257.767 207.662C257.767 207.662 257.231 220.04 252.637 227.915" stroke="white" stroke-width="0.5" stroke-linecap="round" stroke-linejoin="round"/>
<path d="M258.964 221.371C257.458 226.133 255.047 230.752 251.239 232.761" stroke="white" stroke-width="0.5" stroke-linecap="round" stroke-linejoin="round"/>
<path d="M265.199 206.741C265.199 206.741 264.303 227.363 254.955 232.301" stroke="white" stroke-width="0.5" stroke-linecap="round" stroke-linejoin="round"/>
<path d="M268.932 206.289C268.932 206.289 268.036 226.903 258.688 231.849" stroke="white" stroke-width="0.5" stroke-linecap="round" stroke-linejoin="round"/>
<path d="M73.3863 249.843C72.6741 250.934 71.7349 251.859 70.6328 252.554" stroke="white" stroke-width="0.5" stroke-linecap="round" stroke-linejoin="round"/>
<path d="M74.7085 232.242C74.7085 232.242 77.0686 241.448 74.4072 247.884" stroke="white" stroke-width="0.5" stroke-linecap="round" stroke-linejoin="round"/>
<path d="M79.0856 242.126C78.7089 245.85 77.4117 249.6 74.1729 251.659" stroke="white" stroke-width="0.5" stroke-linecap="round" stroke-linejoin="round"/>
<path d="M81.7722 230.451C81.7722 230.451 85.7057 245.725 77.7048 250.755" stroke="white" stroke-width="0.5" stroke-linecap="round" stroke-linejoin="round"/>
<path d="M85.304 229.547C85.304 229.547 89.2459 244.821 81.2366 249.859" stroke="white" stroke-width="0.5" stroke-linecap="round" stroke-linejoin="round"/>
<path d="M114.152 212.616C116.144 224.007 114.897 233.749 111.382 234.376C107.867 235.004 103.39 226.25 101.398 214.859C99.4059 203.469 100.653 193.727 104.176 193.1C107.7 192.472 112.161 201.218 114.152 212.616Z" fill="#92E3A9" stroke="#263238" stroke-linecap="round" stroke-linejoin="round"/>
<path d="M112.378 212.859C112.931 217.228 112.42 220.885 111.223 221.036C110.026 221.187 108.62 217.772 108.068 213.403C107.516 209.034 108.068 205.369 109.223 205.218C110.378 205.068 111.826 208.491 112.378 212.859Z" fill="#92E3A9" stroke="#263238" stroke-linecap="round" stroke-linejoin="round"/>
<path d="M103.984 202.414C104.103 200.948 104.335 199.493 104.679 198.062" stroke="#263238" stroke-width="0.75" stroke-linecap="round" stroke-linejoin="round"/>
<path d="M109.533 230.267C107.217 225.63 105.56 220.692 104.612 215.596C103.981 211.991 103.726 208.331 103.85 204.674" stroke="#263238" stroke-width="0.75" stroke-linecap="round" stroke-linejoin="round"/>
<path d="M64.8983 246.468C67.4284 245.767 67.639 238.558 65.3689 230.367C63.0988 222.175 59.2075 216.103 56.6774 216.804C54.1474 217.506 53.9367 224.714 56.2069 232.906C58.477 241.097 62.3683 247.169 64.8983 246.468Z" fill="#92E3A9" stroke="#263238" stroke-linecap="round" stroke-linejoin="round"/>
<path d="M64.5401 230.694C65.3352 233.807 65.2933 236.502 64.4397 236.72C63.586 236.937 62.2637 234.585 61.4686 231.48C60.6736 228.375 60.7154 225.664 61.5691 225.455C62.4227 225.245 63.745 227.58 64.5401 230.694Z" stroke="#263238" stroke-width="0.75" stroke-linecap="round" stroke-linejoin="round"/>
<path d="M57.5268 223.89C57.4801 222.817 57.5165 221.743 57.6356 220.676" stroke="#263238" stroke-width="0.75" stroke-linecap="round" stroke-linejoin="round"/>
<path d="M64.0463 243.549C61.9536 240.401 60.3113 236.975 59.1671 233.372C58.3851 230.821 57.869 228.196 57.6272 225.539" stroke="#263238" stroke-width="0.75" stroke-linecap="round" stroke-linejoin="round"/>
<path d="M244.301 90.5691C235.48 72.3662 231.672 70.7844 225.805 70.4832C219.939 70.1819 206.088 68.4578 190.655 70.9267C190.655 70.9267 147.604 70.1735 114.295 90.3515C79.5209 111.417 62.5984 129.921 60.23 139.512C57.8615 149.103 49.7769 174.093 45.9438 188.421C42.1107 202.749 39.4996 215.37 44.3872 226.97C47.3415 233.983 50.4883 236.092 54.5306 236.058C53.9121 234.949 53.367 233.8 52.8986 232.619C48.8814 222.668 49.3668 208.432 53.9531 207.511C58.5394 206.591 61.2761 216.123 64.0463 226.518C64.5962 228.809 65.341 231.049 66.2725 233.213C73.1268 230.627 84.1072 224.844 98.703 218.835C97.3173 209.706 97.2863 200.422 98.6109 191.284C100.77 176.997 109.901 173.842 113.876 182.538C117.165 189.702 118.387 205.737 118.714 211.144C124.572 209.127 129.476 207.796 132.498 207.612C132.498 207.612 182.445 196.33 219.261 195.426C256.077 194.522 274.497 193.644 274.497 193.644C274.497 193.644 253.122 108.739 244.301 90.5691Z" fill="white"/>
<mask id="mask0_6_4852" style="mask-type:luminance" maskUnits="userSpaceOnUse" x="41" y="69" width="234" height="168">
<path d="M244.301 90.5691C235.48 72.3662 231.672 70.7844 225.805 70.4832C219.939 70.1819 206.088 68.4578 190.655 70.9267C190.655 70.9267 147.604 70.1735 114.295 90.3515C79.5209 111.417 62.5984 129.921 60.23 139.512C57.8615 149.103 49.7769 174.093 45.9438 188.421C42.1107 202.749 39.4996 215.37 44.3872 226.97C47.3415 233.983 50.4883 236.092 54.5306 236.058C53.9121 234.949 53.367 233.8 52.8986 232.619C48.8814 222.668 49.3668 208.432 53.9531 207.511C58.5394 206.591 61.2761 216.123 64.0463 226.518C64.5962 228.809 65.341 231.049 66.2725 233.213C73.1268 230.627 84.1072 224.844 98.703 218.835C97.3173 209.706 97.2863 200.422 98.6109 191.284C100.77 176.997 109.901 173.842 113.876 182.538C117.165 189.702 118.387 205.737 118.714 211.144C124.572 209.127 129.476 207.796 132.498 207.612C132.498 207.612 182.445 196.33 219.261 195.426C256.077 194.522 274.497 193.644 274.497 193.644C274.497 193.644 253.122 108.739 244.301 90.5691Z" fill="white"/>
</mask>
<g mask="url(#mask0_6_4852)">
<path d="M126.598 178.395C126.598 178.395 121.534 185.325 115.375 186.806C117.55 194.79 118.446 206.607 118.722 211.077C123.953 209.277 128.397 208.013 131.443 207.645C131.887 205.034 132.155 203.369 132.155 203.369L126.598 178.395Z" fill="#92E3A9"/>
<path opacity="0.2" d="M64.2639 227.271C66.5906 227.505 68.1389 228.509 72.8674 227.329C81.2366 225.246 75.2192 209.093 89.1036 202.498C91.7989 201.139 94.7319 200.315 97.7406 200.071C97.8654 197.115 98.1448 194.168 98.5775 191.242C98.9461 188.367 99.7948 185.575 101.088 182.981C97.297 181.818 96.6107 180.705 90.1497 183.776C76.257 190.371 78.3409 207.386 70.0136 209.47C63.3685 211.144 63.0002 208.474 57.9536 209.712C60.3137 213.06 62.1382 219.58 63.9794 226.451C64.1217 226.76 64.1886 226.986 64.2639 227.271Z" fill="#92E3A9"/>
<g style="mix-blend-mode:multiply">
<path opacity="0.2" d="M50.5972 212.968C46.7055 215.646 44.3873 219.663 43.0649 223.053C43.4236 224.39 43.8653 225.704 44.3873 226.986C47.3416 234 50.4884 236.109 54.5307 236.075C53.9122 234.965 53.3671 233.816 52.8987 232.636C50.3461 226.3 49.6598 218.241 50.5972 212.968Z" fill="#92E3A9"/>
</g>
<g style="mix-blend-mode:multiply" opacity="0.2">
<path d="M225.805 70.4832L224.291 70.3911C163.254 86.008 138.423 159.573 129.878 195.025C130.338 198.548 130.841 202.004 131.385 205.369C132.422 205.168 131.703 207.612 132.498 207.57C132.498 207.57 182.445 196.288 219.261 195.384C256.077 194.481 274.497 193.602 274.497 193.602C274.497 193.602 253.122 108.739 244.301 90.5691C235.48 72.3997 231.672 70.751 225.805 70.4832Z" fill="#92E3A9"/>
</g>
</g>
<path d="M244.301 90.5691C235.48 72.3662 231.672 70.7844 225.805 70.4832C219.939 70.1819 206.088 68.4578 190.655 70.9267C190.655 70.9267 147.604 70.1735 114.295 90.3515C79.5209 111.417 62.5984 129.921 60.23 139.512C57.8615 149.103 49.7769 174.093 45.9438 188.421C42.1107 202.749 39.4996 215.37 44.3872 226.97C47.3415 233.983 50.4883 236.092 54.5306 236.058C53.9121 234.949 53.367 233.8 52.8986 232.619C48.8814 222.668 49.3668 208.432 53.9531 207.511C58.5394 206.591 61.2761 216.123 64.0463 226.518C64.5962 228.809 65.341 231.049 66.2725 233.213C73.1268 230.627 84.1072 224.844 98.703 218.835C97.3173 209.706 97.2863 200.422 98.6109 191.284C100.77 176.997 109.901 173.842 113.876 182.538C117.165 189.702 118.387 205.737 118.714 211.144C124.572 209.127 129.476 207.796 132.498 207.612C132.498 207.612 182.445 196.33 219.261 195.426C256.077 194.522 274.497 193.644 274.497 193.644C274.497 193.644 253.122 108.739 244.301 90.5691Z" stroke="#263238" stroke-linecap="round" stroke-linejoin="round"/>
<path opacity="0.2" d="M61.6025 182.429C62.1771 182.907 62.8763 183.21 63.6178 183.304C64.3593 183.397 65.112 183.277 65.7871 182.956C68.4234 181.902 68.6912 177.935 68.6912 177.935L72.6415 177.675L73.4365 165.281L64.7326 168.703C64.7326 168.703 62.3976 180.847 61.6025 182.429Z" fill="#92E3A9"/>
<path d="M50.187 218.676C47.688 220.004 45.325 221.574 43.1318 223.363C43.4788 224.589 43.898 225.793 44.3872 226.97C47.3415 233.983 50.4883 236.092 54.5306 236.059C53.9122 234.949 53.367 233.8 52.8986 232.619C51.1829 228.166 50.265 223.447 50.187 218.676Z" fill="#263238" stroke="#263238" stroke-width="0.75" stroke-linecap="round" stroke-linejoin="round"/>
<path d="M63.519 211.763C63.2925 211.762 63.0705 211.7 62.8761 211.583C62.6818 211.467 62.5223 211.301 62.4143 211.102C62.2619 210.812 62.2292 210.475 62.3231 210.162C62.417 209.849 62.6301 209.585 62.9164 209.428C63.1173 209.319 79.4037 199.226 92.8947 192.053C93.0404 191.976 93.1998 191.928 93.364 191.912C93.5282 191.896 93.6939 191.913 93.8517 191.961C94.0094 192.009 94.1561 192.088 94.2835 192.193C94.4108 192.298 94.5162 192.427 94.5937 192.572C94.6711 192.718 94.7192 192.877 94.735 193.042C94.7509 193.206 94.7343 193.372 94.6861 193.529C94.6379 193.687 94.5591 193.834 94.4542 193.961C94.3493 194.088 94.2204 194.194 94.0748 194.271C80.5921 201.435 64.3141 211.52 64.1132 211.629C63.93 211.724 63.7253 211.77 63.519 211.763Z" fill="#263238" stroke="#263238" stroke-miterlimit="10"/>
<path d="M84.8101 127.87L84.2326 142.24C84.1071 144.199 85.2453 145.144 86.7434 144.299L109.884 129.235C110.735 128.641 111.421 127.842 111.878 126.911C112.334 125.98 112.547 124.948 112.495 123.912L112.353 107.885C112.186 106.429 111.198 105.834 109.984 106.462C105.633 108.713 97.2299 116.329 87.1869 123.418C86.5064 123.957 85.9442 124.631 85.5353 125.397C85.1264 126.163 84.8795 127.005 84.8101 127.87Z" fill="#92E3A9" stroke="#263238" stroke-linecap="round" stroke-linejoin="round"/>
<path d="M100.444 123.82L111.751 126.582" stroke="#263238" stroke-linecap="round" stroke-linejoin="round"/>
<path d="M84.9775 144.366L91.9574 128.95" stroke="#263238" stroke-linecap="round" stroke-linejoin="round"/>
<path d="M84.9441 127.394L95.2047 128.674C96.2676 128.833 97.5899 127.954 98.5523 126.431L111.943 107.257" stroke="#263238" stroke-linecap="round" stroke-linejoin="round"/>
<path d="M142.231 101.173L144.608 137.16C144.669 138.199 144.942 139.214 145.409 140.144C145.876 141.074 146.528 141.899 147.324 142.569C148.121 143.239 149.045 143.739 150.042 144.039C151.038 144.34 152.085 144.434 153.119 144.316L233.061 133.938C234.163 133.811 235.223 133.447 236.17 132.87C237.117 132.293 237.927 131.517 238.544 130.596C239.162 129.675 239.572 128.632 239.747 127.537C239.921 126.442 239.856 125.322 239.556 124.255L229.463 88.569C228.985 86.8731 227.936 85.3944 226.493 84.3833C225.05 83.3721 223.302 82.8906 221.545 83.0202C208.59 83.9743 177.515 86.7613 148.181 93.2976C146.42 93.6977 144.857 94.7075 143.768 96.1486C142.679 97.5897 142.135 99.3693 142.231 101.173Z" fill="#92E3A9" stroke="#263238" stroke-linecap="round" stroke-linejoin="round"/>
<path d="M201.652 112.329L238.15 129.62" stroke="#263238" stroke-linecap="round" stroke-linejoin="round"/>
<path d="M147.637 142.734L178.461 115.149" stroke="#263238" stroke-linecap="round" stroke-linejoin="round"/>
<path d="M142.499 100.227L186.73 118.413C188.391 119.092 190.213 119.273 191.974 118.936C193.736 118.599 195.363 117.757 196.656 116.513L228.182 86.7444" stroke="#263238" stroke-linecap="round" stroke-linejoin="round"/>
<path d="M230.832 139.032C238.346 138.847 244.289 132.711 244.107 125.327C243.926 117.943 237.688 112.107 230.174 112.292C222.661 112.477 216.717 118.613 216.899 125.997C217.081 133.381 223.319 139.217 230.832 139.032Z" fill="#263238" stroke="#263238" stroke-width="0.75" stroke-linecap="round" stroke-linejoin="round"/>
<path d="M229.036 132.047H228.994C228.73 132.047 228.469 131.986 228.234 131.866C227.998 131.747 227.794 131.574 227.638 131.36L222.29 123.979C222.029 123.619 221.922 123.171 221.992 122.732C222.062 122.293 222.303 121.9 222.663 121.64C223.022 121.379 223.471 121.272 223.909 121.341C224.348 121.411 224.741 121.652 225.002 122.012L228.994 127.519L238.535 114.338C238.796 113.978 239.189 113.737 239.627 113.667C240.066 113.597 240.514 113.704 240.874 113.965C241.234 114.226 241.475 114.619 241.545 115.058C241.615 115.496 241.507 115.945 241.246 116.304L230.367 131.369C230.212 131.577 230.012 131.747 229.781 131.864C229.55 131.982 229.295 132.044 229.036 132.047Z" fill="white" stroke="#263238" stroke-linecap="round" stroke-linejoin="round"/>
<path d="M178.486 168.118C178.486 168.118 206.941 162.661 226.441 163.046L227.613 167.733C227.613 167.733 186.671 169.674 178.871 173.591L178.486 168.118Z" fill="#263238" stroke="#263238" stroke-width="0.75" stroke-linecap="round" stroke-linejoin="round"/>
<path d="M178.871 173.574L179.708 178.261C179.795 178.783 180.082 179.251 180.509 179.564C180.936 179.877 181.469 180.01 181.993 179.935C189.132 178.914 214.189 175.474 227.186 175.792C227.506 175.802 227.824 175.736 228.114 175.6C228.404 175.463 228.658 175.261 228.854 175.008C229.051 174.755 229.185 174.459 229.245 174.145C229.306 173.83 229.292 173.506 229.203 173.198L227.647 167.75" stroke="#263238" stroke-linecap="round" stroke-linejoin="round"/>
<path d="M75.0351 165.297L74.8761 145.964L75.8385 126.088C75.8457 125.898 75.7954 125.71 75.6942 125.549C75.5929 125.388 75.4454 125.261 75.2709 125.185C75.0965 125.109 74.9031 125.087 74.7162 125.123C74.5293 125.159 74.3576 125.25 74.2233 125.385C70.6246 129.067 64.4649 134.641 62.6404 139.211C60.2719 145.128 57.4683 174.252 57.4683 174.252L75.0351 165.297Z" fill="#263238" stroke="#263238" stroke-width="0.75" stroke-linecap="round" stroke-linejoin="round"/>
<path d="M52.7479 161.414H49.9442C48.516 161.414 47.3582 162.572 47.3582 164V178.445C47.3582 179.874 48.516 181.031 49.9442 181.031H52.7479C54.1761 181.031 55.334 179.874 55.334 178.445V164C55.334 162.572 54.1761 161.414 52.7479 161.414Z" fill="#263238" stroke="#263238" stroke-width="0.75" stroke-linecap="round" stroke-linejoin="round"/>
<path d="M54.5139 147.923C55.8411 148.178 57.1373 148.573 58.3805 149.103C59.4113 149.61 60.3481 150.29 61.1507 151.112L65.3352 145.58C65.3352 145.58 59.2006 143.01 58.0373 141.445L56.8824 139.872L54.5139 147.923Z" fill="white"/>
<mask id="mask1_6_4852" style="mask-type:luminance" maskUnits="userSpaceOnUse" x="54" y="139" width="12" height="13">
<path d="M54.5139 147.923C55.8411 148.178 57.1373 148.573 58.3805 149.103C59.4113 149.61 60.3481 150.29 61.1507 151.112L65.3352 145.58C65.3352 145.58 59.2006 143.01 58.0373 141.445L56.8824 139.872L54.5139 147.923Z" fill="white"/>
</mask>
<g mask="url(#mask1_6_4852)">
<g style="mix-blend-mode:multiply" opacity="0.5">
<path d="M58.029 141.445L56.9493 139.947L56.8238 140.031L54.5139 147.898C54.5139 147.898 54.9575 147.982 55.5852 148.132L61.5691 143.797C60.2613 143.225 59.0633 142.429 58.029 141.445Z" fill="#92E3A9"/>
</g>
</g>
<path d="M54.5139 147.923C55.8411 148.178 57.1373 148.573 58.3805 149.103C59.4113 149.61 60.3481 150.29 61.1507 151.112L65.3352 145.58C65.3352 145.58 59.2006 143.01 58.0373 141.445L56.8824 139.872L54.5139 147.923Z" stroke="#263238" stroke-width="0.75" stroke-linecap="round" stroke-linejoin="round"/>
<path d="M63.3516 143.228L58.238 149.747L58.9327 151.965L66.7244 143.872L63.3516 143.228Z" fill="#92E3A9" stroke="#263238" stroke-linecap="round" stroke-linejoin="round"/>
<path d="M55.1665 124.807C51.7101 122.129 42.7048 123.836 40.939 130.18C39.851 134.089 40.4535 139.947 40.4535 139.947L50.7141 137.771L51.551 139.035C53.2249 141.546 56.8487 139.872 57.7861 139.035C58.2966 138.591 58.2631 137.286 58.1292 136.206L58.5393 136.114C58.5393 136.114 58.6146 127.494 55.1665 124.807Z" fill="#263238" stroke="#263238" stroke-width="0.75" stroke-linecap="round" stroke-linejoin="round"/>
<path d="M51.3336 137.001C46.83 136.499 42.2714 136.932 37.9429 138.273C31.2476 140.516 30.2182 142.458 35.0137 142.341C39.8092 142.223 51.3336 137.001 51.3336 137.001Z" fill="#263238" stroke="#263238" stroke-width="0.75" stroke-linecap="round" stroke-linejoin="round"/>
<path d="M43.0648 134.566C43.8459 134.566 44.4792 133.7 44.4792 132.632C44.4792 131.565 43.8459 130.699 43.0648 130.699C42.2836 130.699 41.6504 131.565 41.6504 132.632C41.6504 133.7 42.2836 134.566 43.0648 134.566Z" fill="#92E3A9"/>
<path d="M74.876 145.965C74.876 145.965 65.7118 143.638 62.8914 145.781C60.071 147.923 59.3513 151.463 60.2551 155.757C61.159 160.05 63.3601 171.34 63.3601 171.34L75.0351 165.297L74.876 145.965Z" fill="#263238" stroke="#263238" stroke-width="0.75" stroke-linecap="round" stroke-linejoin="round"/>
<path d="M60.3305 169.54C60.3305 169.54 59.8367 173.876 59.2592 174.487C58.6818 175.097 43.4499 162.301 42.5209 161.096C41.592 159.891 42.228 155.589 42.5209 154.242C42.8139 152.894 42.3201 152.158 40.8471 153.087C39.3741 154.016 39.7675 157.882 39.7675 157.882C39.7675 157.882 35.2732 156.803 34.3777 156.677C33.4822 156.551 32.7039 157.665 32.8378 158.552C32.9717 159.439 34.1518 159.514 34.1518 159.514C33.8499 160.799 33.9343 162.144 34.3945 163.381C35.1812 165.004 36.0683 166.025 37.7422 166.427C39.4691 166.696 41.2176 166.803 42.9645 166.745C42.9645 166.745 50.7478 174.16 53.0075 176.93C55.2672 179.701 60.0292 183.467 62.3977 182.789C64.7661 182.111 67.0258 170.285 67.0258 170.285L60.3305 169.54Z" fill="white"/>
<mask id="mask2_6_4852" style="mask-type:luminance" maskUnits="userSpaceOnUse" x="32" y="152" width="36" height="31">
<path d="M60.3305 169.54C60.3305 169.54 59.8367 173.876 59.2592 174.487C58.6818 175.097 43.4499 162.301 42.5209 161.096C41.592 159.891 42.228 155.589 42.5209 154.242C42.8139 152.894 42.3201 152.158 40.8471 153.087C39.3741 154.016 39.7675 157.882 39.7675 157.882C39.7675 157.882 35.2732 156.803 34.3777 156.677C33.4822 156.551 32.7039 157.665 32.8378 158.552C32.9717 159.439 34.1518 159.514 34.1518 159.514C33.8499 160.799 33.9343 162.144 34.3945 163.381C35.1812 165.004 36.0683 166.025 37.7422 166.427C39.4691 166.696 41.2176 166.803 42.9645 166.745C42.9645 166.745 50.7478 174.16 53.0075 176.93C55.2672 179.701 60.0292 183.467 62.3977 182.789C64.7661 182.111 67.0258 170.285 67.0258 170.285L60.3305 169.54Z" fill="white"/>
</mask>
<g mask="url(#mask2_6_4852)">
<g style="mix-blend-mode:multiply" opacity="0.5">
<path d="M59.2591 174.486L63.7115 175.968C63.8527 176.902 63.6553 177.855 63.155 178.657C62.6547 179.458 61.8843 180.054 60.9832 180.336C59.0164 180.989 55.4846 178.755 52.9739 176.872L53.0492 176.964C55.3507 179.742 60.0709 183.5 62.4394 182.822C64.8079 182.144 67.0675 170.319 67.0675 170.319L60.3304 169.482C60.3304 169.482 59.8366 173.875 59.2591 174.486Z" fill="#92E3A9"/>
</g>
</g>
<path d="M60.3305 169.54C60.3305 169.54 59.8367 173.876 59.2592 174.487C58.6818 175.097 43.4499 162.301 42.5209 161.096C41.592 159.891 42.228 155.589 42.5209 154.242C42.8139 152.894 42.3201 152.158 40.8471 153.087C39.3741 154.016 39.7675 157.882 39.7675 157.882C39.7675 157.882 35.2732 156.803 34.3777 156.677C33.4822 156.551 32.7039 157.665 32.8378 158.552C32.9717 159.439 34.1518 159.514 34.1518 159.514C33.8499 160.799 33.9343 162.144 34.3945 163.381C35.1812 165.004 36.0683 166.025 37.7422 166.427C39.4691 166.696 41.2176 166.803 42.9645 166.745C42.9645 166.745 50.7478 174.16 53.0075 176.93C55.2672 179.701 60.0292 183.467 62.3977 182.789C64.7661 182.111 67.0258 170.285 67.0258 170.285L60.3305 169.54Z" stroke="#263238" stroke-width="0.75" stroke-linecap="round" stroke-linejoin="round"/>
<path d="M45.1069 163.448L42.9644 166.779L44.0607 167.524L46.2534 164.385L45.1069 163.448Z" fill="#263238" stroke="#263238" stroke-miterlimit="10"/>
<path d="M44.3704 166.586C44.8326 166.586 45.2073 166.211 45.2073 165.749C45.2073 165.287 44.8326 164.912 44.3704 164.912C43.9081 164.912 43.5334 165.287 43.5334 165.749C43.5334 166.211 43.9081 166.586 44.3704 166.586Z" fill="white" stroke="#263238" stroke-width="0.75" stroke-linecap="round" stroke-linejoin="round"/>
<path d="M42.3201 141.018C42.3201 141.018 42.8306 142.282 43.6842 144.5C44.5379 146.718 49.1242 151.396 51.3671 151.664C53.6101 151.932 56.2966 143.78 56.7234 142.098C56.8657 141.546 57.0079 140.659 57.0079 140.659C57.0079 140.659 59.8283 139.328 59.1755 137.721C58.5227 136.114 57.2004 135.378 56.5727 135.871C55.945 136.365 55.8362 138.449 54.8989 138.466C53.9616 138.483 53.451 138.19 52.6225 137.085C51.7939 135.98 43.2072 138.273 42.3201 141.018Z" fill="white"/>
<mask id="mask3_6_4852" style="mask-type:luminance" maskUnits="userSpaceOnUse" x="42" y="135" width="18" height="17">
<path d="M42.3201 141.018C42.3201 141.018 42.8306 142.282 43.6842 144.5C44.5379 146.718 49.1242 151.396 51.3671 151.664C53.6101 151.932 56.2966 143.78 56.7234 142.098C56.8657 141.546 57.0079 140.659 57.0079 140.659C57.0079 140.659 59.8283 139.328 59.1755 137.721C58.5227 136.114 57.2004 135.378 56.5727 135.871C55.945 136.365 55.8362 138.449 54.8989 138.466C53.9616 138.483 53.451 138.19 52.6225 137.085C51.7939 135.98 43.2072 138.273 42.3201 141.018Z" fill="white"/>
</mask>
<g mask="url(#mask3_6_4852)">
<path opacity="0.5" d="M52.6058 137.085C51.7688 135.989 43.2072 138.282 42.3201 141.019L42.8055 142.257C46.0782 140.284 49.6347 138.824 53.3506 137.93C53.073 137.676 52.8233 137.393 52.6058 137.085Z" fill="#92E3A9"/>
<g style="mix-blend-mode:multiply">
<path opacity="0.5" d="M59.0667 137.495C58.3804 136.056 57.1669 135.403 56.5559 135.872C56.173 136.371 55.8889 136.939 55.719 137.545C56.8307 137.421 57.9518 137.404 59.0667 137.495Z" fill="#92E3A9"/>
</g>
</g>
<path d="M42.3201 141.018C42.3201 141.018 42.8306 142.282 43.6842 144.5C44.5379 146.718 49.1242 151.396 51.3671 151.664C53.6101 151.932 56.2966 143.78 56.7234 142.098C56.8657 141.546 57.0079 140.659 57.0079 140.659C57.0079 140.659 59.8283 139.328 59.1755 137.721C58.5227 136.114 57.2004 135.378 56.5727 135.871C55.945 136.365 55.8362 138.449 54.8989 138.466C53.9616 138.483 53.451 138.19 52.6225 137.085C51.7939 135.98 43.2072 138.273 42.3201 141.018Z" stroke="#263238" stroke-width="0.75" stroke-linecap="round" stroke-linejoin="round"/>
<path d="M45.3581 141.621C45.5087 142.131 45.4585 142.6 45.2576 142.659C45.0568 142.717 44.7639 142.349 44.6132 141.822C44.4626 141.295 44.5128 140.843 44.7137 140.784C44.9145 140.725 45.2074 141.127 45.3581 141.621Z" fill="#263238" stroke="#263238" stroke-miterlimit="10"/>
<path d="M43.8013 140.198C44.973 139.864 45.4751 140.742 45.6174 141.554L45.835 142.517L46.5631 146.241L47.6678 145.772" stroke="#263238" stroke-width="0.5" stroke-linecap="round" stroke-linejoin="round"/>
<path d="M48.5718 140.483C48.8263 140.203 49.1431 139.988 49.4965 139.854C49.8499 139.721 50.2298 139.672 50.6055 139.713" stroke="#263238" stroke-width="0.5" stroke-linecap="round" stroke-linejoin="round"/>
<path d="M49.5425 138.165C49.0663 138.264 48.6294 138.5 48.2847 138.843C47.94 139.186 47.7024 139.622 47.6008 140.098" stroke="#263238" stroke-width="0.5" stroke-linecap="round" stroke-linejoin="round"/>
<path d="M48.6638 146.977C48.6638 146.977 51.0909 146.492 51.2834 144.751" stroke="#263238" stroke-width="0.5" stroke-linecap="round" stroke-linejoin="round"/>
<path d="M69.2685 175.817L57.0161 172.403C57.0161 172.403 58.0957 151.48 59.9872 147.94C62.9331 142.441 69.687 144.918 70.9591 151.831C72.1475 158.359 69.2685 175.817 69.2685 175.817Z" fill="#92E3A9" stroke="#263238" stroke-linecap="round" stroke-linejoin="round"/>
<path d="M57.3091 170.076C57.3091 170.076 64.0044 171.616 68.0802 172.955" stroke="#263238" stroke-width="0.5" stroke-linecap="round" stroke-linejoin="round"/>
<path d="M67.9128 144.282C67.9128 144.282 71.8966 144.592 74.4994 146.734" stroke="#92E3A9" stroke-width="0.5" stroke-linecap="round" stroke-linejoin="round"/>
<path d="M138.113 197.803C138.113 197.803 120.27 204.097 118.638 205.812C117.006 207.528 117.174 214.223 121.024 217.479C124.873 220.735 152.316 213.353 171.933 211.202C191.55 209.051 234.618 205.888 252.193 205.034C269.768 204.18 277.761 206.499 279.301 201.017C280.841 195.535 280.648 189.677 277.301 188.488C273.953 187.3 212.959 177.533 138.113 197.803Z" fill="#263238" stroke="#263238" stroke-width="0.75" stroke-linecap="round" stroke-linejoin="round"/>
<path d="M117.366 209.47C117.366 209.47 118.203 216.726 122.664 217.839C127.125 218.952 180.135 208.909 211.377 207.796C242.619 206.683 269.961 205.846 269.961 205.846" stroke="white" stroke-width="0.5" stroke-linecap="round" stroke-linejoin="round"/>
<path d="M143.26 213.152C163.982 208.131 206.606 201.033 278.33 203.05" stroke="white" stroke-width="0.5" stroke-linecap="round" stroke-linejoin="round"/>
<path d="M126.271 217.571C126.271 217.571 131.033 216.416 138.272 214.441" stroke="white" stroke-width="0.5" stroke-linecap="round" stroke-linejoin="round"/>
<path d="M130.64 218.4C130.865 221.511 130.781 224.637 130.389 227.731" stroke="white" stroke-width="0.5" stroke-linecap="round" stroke-linejoin="round"/>
<path d="M129.878 84.5684C129.878 84.5684 125.886 89.2467 125.576 93.4397" stroke="#263238" stroke-width="0.75" stroke-linecap="round" stroke-linejoin="round"/>
<path d="M125.158 96.8208C125.158 96.8208 122.153 144.617 130.104 195.485" stroke="#263238" stroke-width="0.75" stroke-linecap="round" stroke-linejoin="round"/>
<path d="M126.104 152.049C126.104 152.049 119.618 154.308 119.534 157.238C119.316 165.113 120.145 181.918 121.861 183.55C123.576 185.182 128.907 180.864 128.907 180.864C128.907 180.864 136.44 181.517 137.276 179.826C138.113 178.135 134.975 154.342 134.506 152.266C134.038 150.191 126.104 152.049 126.104 152.049Z" fill="#92E3A9" stroke="#263238" stroke-linecap="round" stroke-linejoin="round"/>
<path d="M261.583 163.381C263.272 164.205 265.106 164.689 266.981 164.803C264.906 157.003 262.554 148.316 260.127 139.646C257.934 139.495 255.106 139.495 255.164 140.483C255.206 142.173 259.466 162.159 261.583 163.381Z" fill="#92E3A9" stroke="#263238" stroke-linecap="round" stroke-linejoin="round"/>
<path d="M125.175 154.51C125.175 154.51 125.459 169.574 126.572 175.432" stroke="#263238" stroke-width="0.75" stroke-linecap="round" stroke-linejoin="round"/>
<path d="M203.409 157.991C203.409 157.991 240.753 151.974 284.264 159.665" stroke="#263238" stroke-linecap="round" stroke-linejoin="round"/>
<path d="M317.096 181.584C319.665 182.354 322.193 183.166 324.628 184.036" stroke="#263238" stroke-linecap="round" stroke-linejoin="round"/>
<path d="M250.051 170.218C250.051 170.218 279.661 172.018 308.016 179.106" stroke="#263238" stroke-linecap="round" stroke-linejoin="round"/>
<path d="M159.932 239.172C184.312 235.446 209.082 235.004 233.58 237.858" stroke="#263238" stroke-linecap="round" stroke-linejoin="round"/>
<path d="M156.869 235.23C156.869 235.23 174.394 233.037 180.093 232.602" stroke="#263238" stroke-linecap="round" stroke-linejoin="round"/>
<path d="M274.238 72.6843C276.748 73.0442 279.259 73.5212 281.535 74.0652" stroke="#263238" stroke-linecap="round" stroke-linejoin="round"/>
<path d="M238.158 71.8557C248.47 71.1273 258.823 71.1972 269.124 72.0649" stroke="#263238" stroke-linecap="round" stroke-linejoin="round"/>
<path d="M103.13 173.24C103.13 173.24 128.137 161.397 164.317 158.108" stroke="#263238" stroke-linecap="round" stroke-linejoin="round"/>
<path d="M145.244 151.522C145.244 151.522 160.384 147.58 183.416 146.258" stroke="#263238" stroke-linecap="round" stroke-linejoin="round"/>
<path d="M102.72 235.138C105.759 240.581 110.664 244.743 116.529 246.855" stroke="#263238" stroke-linecap="round" stroke-linejoin="round"/>
<path d="M101.883 238.904C101.883 238.904 105.649 244.762 110.671 247.273" stroke="#263238" stroke-linecap="round" stroke-linejoin="round"/>
<path d="M225.328 217.981C225.328 217.981 227.839 229.698 237.882 234.72" stroke="#263238" stroke-linecap="round" stroke-linejoin="round"/>
<path d="M226.584 228.443C228.574 231.357 231.323 233.673 234.534 235.138" stroke="#263238" stroke-linecap="round" stroke-linejoin="round"/>
<path d="M61.0083 251.006C61.0083 251.006 63.519 255.19 72.3067 255.19" stroke="#263238" stroke-linecap="round" stroke-linejoin="round"/>
<path d="M59.3345 253.517C62.536 256.179 66.4822 257.787 70.6328 258.12" stroke="#263238" stroke-linecap="round" stroke-linejoin="round"/>
<path d="M172.469 243.189C150.242 244.398 128.178 247.699 106.57 253.048L107.089 253.826C107.089 253.826 125.501 249.918 159.53 258.287C193.559 266.656 195.802 273.351 233.179 273.351C270.555 273.351 306.827 264.43 306.827 264.43L302.291 261.919C268.731 247.716 222.734 240.377 172.469 243.189Z" fill="#92E3A9"/>
<path opacity="0.5" d="M172.469 243.189C150.242 244.398 128.178 247.699 106.57 253.048L107.089 253.826C107.089 253.826 125.501 249.918 159.53 258.287C193.559 266.656 195.802 273.351 233.179 273.351C270.555 273.351 306.827 264.43 306.827 264.43L302.291 261.919C268.731 247.716 222.734 240.377 172.469 243.189Z" fill="white"/>
<path d="M90.5852 262.337C90.5852 262.337 134.523 255.642 172.603 281.168" stroke="#263238" stroke-linecap="round" stroke-linejoin="round"/>
<path d="M136.615 271.962C136.615 271.962 154.609 277.402 165.489 289.119" stroke="#263238" stroke-linecap="round" stroke-linejoin="round"/>
<path d="M242.904 250.621C242.904 250.621 268.43 253.131 291.445 266.94" stroke="#263238" stroke-linecap="round" stroke-linejoin="round"/>
<path d="M322.494 272.246C327.091 275.059 331.467 278.218 335.584 281.695" stroke="#263238" stroke-linecap="round" stroke-linejoin="round"/>
<path d="M23.0544 291.989C53.56 266.045 108.679 246.796 172.469 243.189C230.693 239.883 283.21 250.311 317.255 269.133" stroke="#263238" stroke-linecap="round" stroke-linejoin="round"/>
<path d="M209.009 250.202C209.009 250.202 235.371 251.458 252.947 257.316" stroke="#263238" stroke-linecap="round" stroke-linejoin="round"/>
<path d="M89.4802 51.5186C89.4802 51.5186 88.6433 39.944 71.6958 39.5256C54.7482 39.1071 59.2843 51.1085 54.7399 54.0042C50.1954 56.8999 48.9484 52.3304 44.3956 55.2428C39.8428 58.1553 41.8848 63.93 38.194 64.7586C34.5032 65.5871 29.5069 61.0343 24.9624 63.9217C20.418 66.809 20.4096 69.2946 18.3424 69.2946C16.2752 69.2946 12.1409 67.6208 9.66359 69.2946C7.18632 70.9685 4.28223 72.9938 4.28223 72.9938H108.897C108.897 72.9938 110.135 69.2695 105.549 66.7923C100.963 64.315 98.929 66.3738 97.2803 64.2815C95.6315 62.1892 101.883 56.8999 89.4802 51.5186Z" fill="#92E3A9"/>
<path d="M151.638 7.2206C151.638 7.2206 151.136 0.257463 140.942 0.00638885C130.748 -0.244686 133.477 6.97789 130.74 8.71867C128.003 10.4595 127.259 7.72274 124.522 9.46353C121.785 11.2043 123.032 14.6859 120.789 15.1797C118.546 15.6734 115.567 12.9451 112.83 14.6859C110.093 16.4267 110.093 17.9164 108.846 17.9164C107.599 17.9164 105.114 16.9288 103.624 17.9164C102.134 18.9039 100.394 20.1593 100.394 20.1593H163.33C163.33 20.1593 164.074 17.9164 161.338 16.4267C158.601 14.937 157.362 16.1756 156.366 14.937C155.371 13.6983 159.103 10.4595 151.638 7.2206Z" fill="#92E3A9"/>
<path opacity="0.7" d="M89.4802 51.5186C89.4802 51.5186 88.6433 39.944 71.6958 39.5256C54.7482 39.1071 59.2843 51.1085 54.7399 54.0042C50.1954 56.8999 48.9484 52.3304 44.3956 55.2428C39.8428 58.1553 41.8848 63.93 38.194 64.7586C34.5032 65.5871 29.5069 61.0343 24.9624 63.9217C20.418 66.809 20.4096 69.2946 18.3424 69.2946C16.2752 69.2946 12.1409 67.6208 9.66359 69.2946C7.18632 70.9685 4.28223 72.9938 4.28223 72.9938H108.897C108.897 72.9938 110.135 69.2695 105.549 66.7923C100.963 64.315 98.929 66.3738 97.2803 64.2815C95.6315 62.1892 101.883 56.8999 89.4802 51.5186Z" fill="white"/>
<path opacity="0.8" d="M151.638 7.2206C151.638 7.2206 151.136 0.257463 140.942 0.00638885C130.748 -0.244686 133.477 6.97789 130.74 8.71867C128.003 10.4595 127.259 7.72274 124.522 9.46353C121.785 11.2043 123.032 14.6859 120.789 15.1797C118.546 15.6734 115.567 12.9451 112.83 14.6859C110.093 16.4267 110.093 17.9164 108.846 17.9164C107.599 17.9164 105.114 16.9288 103.624 17.9164C102.134 18.9039 100.394 20.1593 100.394 20.1593H163.33C163.33 20.1593 164.074 17.9164 161.338 16.4267C158.601 14.937 157.362 16.1756 156.366 14.937C155.371 13.6983 159.103 10.4595 151.638 7.2206Z" fill="white"/>
</svg>
