<svg width="356" height="267" viewBox="0 0 356 267" fill="none" xmlns="http://www.w3.org/2000/svg">
<g opacity="0.3">
<path d="M76.3809 91.9285H18.2402L18.8288 83.7065H76.9695L76.3809 91.9285Z" stroke="black" stroke-linecap="round" stroke-linejoin="round"/>
<path d="M76.3809 103.441H18.2402L18.8288 95.2195H76.9695L76.3809 103.441Z" stroke="black" stroke-linecap="round" stroke-linejoin="round"/>
<path d="M76.3809 114.954H18.2402L18.8288 106.732H76.9695L76.3809 114.954Z" stroke="black" stroke-linecap="round" stroke-linejoin="round"/>
<path d="M76.3809 126.467H18.2402L18.8288 118.245H76.9695L76.3809 126.467Z" stroke="black" stroke-linecap="round" stroke-linejoin="round"/>
<path d="M76.3809 137.986H18.2402L18.8288 129.758H76.9695L76.3809 137.986Z" stroke="black" stroke-linecap="round" stroke-linejoin="round"/>
<path d="M76.3809 149.499H18.2402L18.8288 141.271H76.9695L76.3809 149.499Z" stroke="black" stroke-linecap="round" stroke-linejoin="round"/>
<path d="M76.3809 161.012H18.2402L18.8288 152.784H76.9695L76.3809 161.012Z" stroke="black" stroke-linecap="round" stroke-linejoin="round"/>
<path d="M76.3809 172.525H18.2402L18.8288 164.297H76.9695L76.3809 172.525Z" stroke="black" stroke-linecap="round" stroke-linejoin="round"/>
<path d="M76.3809 184.038H18.2402L18.8288 175.81H76.9695L76.3809 184.038Z" stroke="black" stroke-linecap="round" stroke-linejoin="round"/>
<path d="M76.3809 195.55H18.2402L18.8288 187.323H76.9695L76.3809 195.55Z" stroke="black" stroke-linecap="round" stroke-linejoin="round"/>
<path d="M76.3809 207.063H18.2402L18.8288 198.842H76.9695L76.3809 207.063Z" stroke="black" stroke-linecap="round" stroke-linejoin="round"/>
<path d="M137.859 91.9285H79.7188L80.3074 83.7065H138.448L137.859 91.9285Z" stroke="black" stroke-linecap="round" stroke-linejoin="round"/>
<path d="M137.859 103.441H79.7188L80.3074 95.2195H138.448L137.859 103.441Z" stroke="black" stroke-linecap="round" stroke-linejoin="round"/>
<path d="M137.859 114.954H79.7188L80.3074 106.732H138.448L137.859 114.954Z" stroke="black" stroke-linecap="round" stroke-linejoin="round"/>
<path d="M137.859 126.467H79.7188L80.3074 118.245H138.448L137.859 126.467Z" stroke="black" stroke-linecap="round" stroke-linejoin="round"/>
<path d="M137.859 137.986H79.7188L80.3074 129.758H138.448L137.859 137.986Z" stroke="black" stroke-linecap="round" stroke-linejoin="round"/>
<path d="M137.859 149.499H79.7188L80.3074 141.271H138.448L137.859 149.499Z" stroke="black" stroke-linecap="round" stroke-linejoin="round"/>
<path d="M137.859 161.012H79.7188L80.3074 152.784H138.448L137.859 161.012Z" stroke="black" stroke-linecap="round" stroke-linejoin="round"/>
<path d="M137.859 172.525H79.7188L80.3074 164.297H138.448L137.859 172.525Z" stroke="black" stroke-linecap="round" stroke-linejoin="round"/>
<path d="M137.859 184.038H79.7188L80.3074 175.81H138.448L137.859 184.038Z" stroke="black" stroke-linecap="round" stroke-linejoin="round"/>
<path d="M137.859 195.55H79.7188L80.3074 187.323H138.448L137.859 195.55Z" stroke="black" stroke-linecap="round" stroke-linejoin="round"/>
<path d="M137.859 207.063H79.7188L80.3074 198.842H138.448L137.859 207.063Z" stroke="black" stroke-linecap="round" stroke-linejoin="round"/>
</g>
<g opacity="0.3">
<path d="M316.634 100.44H241.586V142.037H316.634V100.44Z" stroke="black" stroke-linecap="round" stroke-linejoin="round"/>
<path d="M312.552 103.878H245.652V138.604H312.552V103.878Z" stroke="black" stroke-linecap="round" stroke-linejoin="round"/>
<path d="M267.47 109.348H290.743" stroke="black" stroke-linecap="round" stroke-linejoin="round"/>
<path d="M252.398 114.387H305.815" stroke="black" stroke-linecap="round" stroke-linejoin="round"/>
<path d="M264.302 124.458H293.911" stroke="black" stroke-linecap="round" stroke-linejoin="round"/>
<path d="M252.925 134.536H264.565" stroke="black" stroke-linecap="round" stroke-linejoin="round"/>
<path d="M293.647 134.536H305.28" stroke="black" stroke-linecap="round" stroke-linejoin="round"/>
</g>
<g opacity="0.3">
<path d="M337.011 150.809H281.774V181.427H337.011V150.809Z" stroke="black" stroke-linecap="round" stroke-linejoin="round"/>
<path d="M334.013 153.34H284.771V178.902H334.013V153.34Z" stroke="black" stroke-linecap="round" stroke-linejoin="round"/>
<path d="M300.834 157.369H317.958" stroke="black" stroke-linecap="round" stroke-linejoin="round"/>
<path d="M289.736 161.074H329.056" stroke="black" stroke-linecap="round" stroke-linejoin="round"/>
<path d="M298.496 168.49H320.297" stroke="black" stroke-linecap="round" stroke-linejoin="round"/>
<path d="M290.124 175.906H298.689" stroke="black" stroke-linecap="round" stroke-linejoin="round"/>
<path d="M320.096 175.906H328.662" stroke="black" stroke-linecap="round" stroke-linejoin="round"/>
</g>
<path d="M273.023 172.349L192.84 170.306C189.536 170.223 186.231 170.223 182.927 170.306L108.228 172.349L111.542 95.5087C111.666 92.5998 111.666 89.687 111.542 86.7705L108.228 14.2656H273.023V172.349Z" fill="#263238" stroke="#263238" stroke-linecap="round" stroke-linejoin="round"/>
<path d="M275.671 11.5535H110.876V169.636H275.671V11.5535Z" fill="white" stroke="#263238" stroke-linecap="round" stroke-linejoin="round"/>
<path d="M264.712 54.6375H121.828V160.609H264.712V54.6375Z" fill="white" stroke="#263238" stroke-linecap="round" stroke-linejoin="round"/>
<path d="M123.167 38.8009V19.4235H130.912C132.259 19.3801 133.597 19.6036 134.785 20.0704C135.777 20.5028 136.548 21.1629 136.977 21.9485C137.474 22.8983 137.711 23.9106 137.674 24.9275C137.736 25.9815 137.432 27.0298 136.791 27.9745C136.249 28.7259 135.383 29.3245 134.328 29.6768C133.147 30.0472 131.871 30.2272 130.587 30.2045H127.977V38.8009H123.167ZM128 27.7022H129.828C130.53 27.7256 131.229 27.6305 131.873 27.4241C132.115 27.3353 132.329 27.2108 132.502 27.0585C132.675 26.9062 132.804 26.7293 132.88 26.539C133.088 26.0063 133.182 25.453 133.158 24.8991C133.174 24.3278 133.104 23.7569 132.949 23.1969C132.895 22.998 132.786 22.8094 132.629 22.6425C132.472 22.4756 132.27 22.3341 132.035 22.2266C131.348 21.986 130.588 21.8785 129.828 21.9145H128V27.7022Z" fill="#92E3A9"/>
<path d="M129.046 48.1462L134.367 37.8646L129.209 28.7859H133.716L137.139 34.7892L140.144 28.7859H144.326L139.207 38.5342L144.691 48.1462H140.214L136.458 41.6379L133.189 48.1406L129.046 48.1462Z" fill="#92E3A9"/>
<path d="M203.156 25.3984H264.24" stroke="#263238" stroke-linecap="round" stroke-linejoin="round"/>
<path d="M203.156 35.0559H264.24" stroke="#263238" stroke-linecap="round" stroke-linejoin="round"/>
<path d="M216.346 30.874H264.24" stroke="#263238" stroke-linecap="round" stroke-linejoin="round"/>
<path d="M216.346 39.5669H264.24" stroke="#263238" stroke-linecap="round" stroke-linejoin="round"/>
<path d="M126.691 66.2866H174.593" stroke="#263238" stroke-linecap="round" stroke-linejoin="round"/>
<path d="M126.691 75.4504H174.593" stroke="#263238" stroke-linecap="round" stroke-linejoin="round"/>
<path d="M126.691 71.0247H199.206" stroke="#263238" stroke-linecap="round" stroke-linejoin="round"/>
<path d="M126.691 86.6174H174.593" stroke="#263238" stroke-linecap="round" stroke-linejoin="round"/>
<path d="M126.691 95.781H174.593" stroke="#263238" stroke-linecap="round" stroke-linejoin="round"/>
<path d="M126.691 91.3552H199.206" stroke="#263238" stroke-linecap="round" stroke-linejoin="round"/>
<path d="M125.669 154.895H171.077" stroke="#263238" stroke-linecap="round" stroke-linejoin="round"/>
<path d="M211.776 154.895H257.184" stroke="#263238" stroke-linecap="round" stroke-linejoin="round"/>
<path d="M132.074 118.37C129.359 119.632 127.215 121.456 125.914 123.61C124.613 125.765 124.212 128.153 124.764 130.474C125.315 132.795 126.793 134.945 129.011 136.65C131.229 138.356 134.087 139.542 137.225 140.058C140.362 140.574 143.638 140.397 146.639 139.55C149.639 138.702 152.229 137.222 154.082 135.296C155.934 133.37 156.966 131.085 157.046 128.73C157.127 126.375 156.253 124.055 154.534 122.064C153.392 120.74 151.904 119.594 150.156 118.692C148.409 117.789 146.436 117.148 144.35 116.805C142.263 116.462 140.106 116.424 137.999 116.692C135.893 116.961 133.879 117.531 132.074 118.37ZM147.68 136.397C145.534 137.393 143.032 137.901 140.492 137.856C137.952 137.811 135.487 137.215 133.409 136.144C131.331 135.072 129.733 133.574 128.817 131.837C127.902 130.101 127.71 128.204 128.265 126.387C128.821 124.571 130.099 122.916 131.938 121.631C133.777 120.347 136.095 119.491 138.598 119.171C141.102 118.852 143.678 119.083 146.002 119.837C148.325 120.59 150.292 121.831 151.653 123.403C152.557 124.447 153.172 125.612 153.461 126.83C153.751 128.048 153.71 129.296 153.341 130.503C152.972 131.71 152.282 132.851 151.311 133.863C150.34 134.874 149.106 135.735 147.68 136.397Z" fill="#92E3A9"/>
<path d="M146.837 124.565L132.988 130.995L134.401 132.629L148.251 126.2L146.837 124.565Z" fill="#92E3A9"/>
<path d="M132.941 151.15C132.941 151.15 133.166 154.929 139.912 148.188C146.658 141.447 145.751 141.946 143.955 145.725C142.578 148.341 140.756 150.82 138.533 153.102C138.533 153.102 146.619 143.728 146.619 146.355C146.619 148.982 138.982 160.172 140.555 159.185C142.127 158.197 147.068 153.266 147.068 153.266C147.068 153.266 146.394 156.552 148.183 155.071C149.972 153.59 152.001 150.634 151.777 152.279C151.552 153.925 148.632 155.894 151.552 153.925C154.472 151.956 156.718 149.482 156.044 151.292C155.371 153.102 153.574 153.76 155.37 153.102C157.167 152.444 167.267 140.108 164.122 141.589C160.978 143.07 155.146 155.894 157.841 154.906C160.536 153.919 163.673 148.988 163.448 151.456C163.224 153.925 164.122 153.925 164.997 153.102" stroke="#263238" stroke-linecap="round" stroke-linejoin="round"/>
<path d="M354.584 255.129H1" stroke="#263238" stroke-linecap="round" stroke-linejoin="round"/>
<path d="M354.584 260.554H1" stroke="#263238" stroke-linecap="round" stroke-linejoin="round"/>
<path d="M335.213 195.295H260.243C259.06 195.294 257.917 195.606 257.022 196.173C256.127 196.74 255.541 197.524 255.372 198.382L244.157 254.556H333.308L340.116 199.21C340.175 198.713 340.092 198.211 339.873 197.738C339.653 197.265 339.302 196.831 338.84 196.463C338.379 196.094 337.819 195.8 337.194 195.599C336.57 195.398 335.895 195.295 335.213 195.295Z" fill="#263238" stroke="#263238" stroke-linecap="round" stroke-linejoin="round"/>
<path d="M233.694 186.126C233.694 186.126 213.41 193.502 206.448 195.539C199.485 197.576 197.774 198.49 197.154 199.738C196.534 200.986 169.443 232.177 166.353 235.015C163.263 237.852 156.594 243.974 157.524 248.167C158.453 252.361 165.888 255.998 173.013 255.884C180.139 255.771 184.631 254.749 185.405 253.274C186.18 251.799 205.844 226.038 205.844 226.038L212.04 254.732H291.153C291.153 254.732 297.349 215.49 297.349 209.702C297.349 203.914 298.898 197.111 295.645 195.636C292.392 194.16 278.924 190.762 269.011 188.378C259.097 185.995 256.007 185.541 253.691 185.541C251.376 185.541 233.694 186.126 233.694 186.126Z" fill="white" stroke="#263238" stroke-linecap="round" stroke-linejoin="round"/>
<path d="M231.549 186.33C231.549 186.33 228.916 189.962 228.761 192.912C228.606 195.863 227.986 201.304 225.663 204.595C223.339 207.886 221.636 209.702 222.875 209.356C224.114 209.01 231.231 203.233 232.006 201.979C232.78 200.725 234.02 203.114 234.02 203.114C234.02 203.114 231.696 207.988 231.386 208.669C231.077 209.35 241.137 218.764 241.137 218.764C241.137 218.764 249.811 213.776 251.825 212.641C253.839 211.506 253.219 210.599 253.374 209.123C253.529 207.648 254.148 205.497 255.225 204.249C256.302 203.001 259.415 207.892 261.576 210.162C263.737 212.431 265.913 213.226 265.603 211.523C265.293 209.821 264.209 206.53 263.435 200.743C262.66 194.955 262.815 188.038 260.801 185.882C258.788 183.726 248.224 183.3 241.292 182.937C239.398 182.782 237.482 183.018 235.761 183.617C234.04 184.217 232.581 185.156 231.549 186.33Z" fill="white" stroke="#263238" stroke-linecap="round" stroke-linejoin="round"/>
<path d="M200.275 205.65L205.852 226.055L198.649 212.488" stroke="#263238" stroke-linecap="round" stroke-linejoin="round"/>
<path d="M232.323 191.8C232.323 191.8 234.492 200.646 236.505 207.449C237.613 211.322 239.167 215.118 241.152 218.798C241.152 218.798 251.376 206.207 254.319 199.63C255.99 196.002 257.285 192.286 258.191 188.514H232.323V191.8Z" stroke="#263238" stroke-linecap="round" stroke-linejoin="round"/>
<path d="M243.623 194.841L238.055 199.948L241.927 205.395L238.117 212.153C238.957 214.401 239.971 216.612 241.153 218.775C241.153 218.775 244.344 214.849 247.666 210.264L244.87 205.537L248.278 199.863L243.623 194.841Z" fill="#92E3A9" stroke="#263238" stroke-linecap="round" stroke-linejoin="round"/>
<path d="M232.323 188.509V191.8C232.323 191.8 233.818 197.905 235.475 203.869L243.313 197.809L251.577 204.516C252.611 202.924 253.523 201.291 254.311 199.625C255.982 195.996 257.277 192.28 258.183 188.509H232.323Z" fill="white" stroke="#263238" stroke-linecap="round" stroke-linejoin="round"/>
<path d="M164.827 238.374C164.827 238.374 179.287 234.504 187.086 243.917" stroke="#263238" stroke-linecap="round" stroke-linejoin="round"/>
<path d="M187.341 241.012C187.341 241.012 179.263 242.351 174.949 247.395C170.635 252.44 179.41 253.002 181.834 253.002C184.259 253.002 186.551 251.81 186.683 251.191C186.814 250.573 189.99 244.592 189.866 243.197C189.851 242.675 189.593 242.174 189.133 241.776C188.673 241.378 188.04 241.108 187.341 241.012Z" fill="white" stroke="#263238" stroke-linecap="round" stroke-linejoin="round"/>
<path d="M183.624 243.1C183.624 243.1 179.155 245.937 179.457 247.072C179.759 248.207 186.389 252.576 187.667 251.946C187.897 251.86 188.102 251.742 188.27 251.598C188.438 251.454 188.566 251.287 188.646 251.107C188.726 250.926 188.756 250.736 188.736 250.547C188.715 250.358 188.644 250.174 188.526 250.006C188.162 249.58 183.624 243.1 183.624 243.1Z" fill="white" stroke="#263238" stroke-linecap="round" stroke-linejoin="round"/>
<path d="M179.48 247.044C179.48 247.044 176.855 249.092 177.714 250.028C178.574 250.965 184.576 253.353 186.133 252.633C187.69 251.912 186.683 251.175 186.683 251.175L179.48 247.044Z" fill="white" stroke="#263238" stroke-linecap="round" stroke-linejoin="round"/>
<path d="M194.861 242.992L189.486 242.312L190.749 247.98L196.24 248.105L194.861 242.992Z" fill="white" stroke="#263238" stroke-linecap="round" stroke-linejoin="round"/>
<path d="M185.188 234.078L191.485 250.244L194.544 252.281V249.404L187.883 233.517C187.829 233.384 187.739 233.262 187.618 233.156C187.497 233.05 187.348 232.963 187.18 232.9C187.012 232.838 186.829 232.801 186.641 232.792C186.453 232.782 186.264 232.801 186.086 232.847C185.752 232.931 185.474 233.105 185.308 233.334C185.141 233.562 185.098 233.828 185.188 234.078Z" fill="#263238" stroke="#263238" stroke-linecap="round" stroke-linejoin="round"/>
<path d="M187.341 241.012C187.341 241.012 183.624 242.606 183.995 243.815C184.367 245.024 188.379 250.675 189.827 250.749C191.276 250.823 192.151 250.182 191.942 248.956C191.732 247.73 190.393 243.282 189.486 242.311C188.58 241.341 188.48 240.955 187.341 241.012Z" fill="white" stroke="#263238" stroke-linecap="round" stroke-linejoin="round"/>
<path d="M194.861 242.992C194.861 242.992 198.819 243.355 199.508 244.241C200.198 245.126 197.433 248.655 196.55 249.461C195.667 250.267 194.087 250.232 194.041 248.19C194.115 246.443 194.389 244.705 194.861 242.992Z" fill="white" stroke="#263238" stroke-linecap="round" stroke-linejoin="round"/>
<path d="M173.455 249.818H216.88C218.093 249.82 219.256 250.174 220.114 250.802C220.972 251.431 221.455 252.283 221.457 253.172C221.457 253.924 221.049 254.646 220.323 255.178C219.597 255.71 218.612 256.009 217.585 256.009H174.059C173.114 256.009 172.208 255.734 171.54 255.244C170.871 254.755 170.496 254.091 170.496 253.399V251.98C170.496 251.696 170.573 251.414 170.721 251.152C170.87 250.889 171.088 250.65 171.363 250.45C171.638 250.249 171.964 250.09 172.323 249.981C172.682 249.873 173.066 249.818 173.455 249.818Z" fill="white" stroke="#263238" stroke-linecap="round" stroke-linejoin="round"/>
<path d="M250.733 242.504C250.733 242.504 239.433 241.596 236.645 240.916C233.857 240.235 229.365 239.667 227.816 240.575C226.267 241.483 218.685 247.952 218.522 248.74C218.36 249.529 216.818 252.145 217.593 252.826C218.242 253.3 219.04 253.651 219.916 253.847C219.916 253.847 229.985 255.89 231.061 256.003C232.138 256.117 242.516 255.776 242.516 255.776L247.937 254.301L255.519 254.187C255.519 254.187 255.674 256.003 255.829 251.577C255.984 247.151 250.733 242.504 250.733 242.504Z" fill="white" stroke="#263238" stroke-linecap="round" stroke-linejoin="round"/>
<path d="M219.939 253.853C219.939 253.853 220.094 251.243 220.869 250.108C221.643 248.973 230.465 243.191 230.465 243.191" stroke="#263238" stroke-linecap="round" stroke-linejoin="round"/>
<path d="M222.852 254.522C222.852 254.522 224.401 251.685 225.02 251.458C225.64 251.231 232.912 247.827 232.912 247.827" stroke="#263238" stroke-linecap="round" stroke-linejoin="round"/>
<path d="M228.141 255.317C228.141 255.317 228.451 254.182 229.225 253.955C230 253.728 236.506 251.572 236.506 251.572" stroke="#263238" stroke-linecap="round" stroke-linejoin="round"/>
<path d="M235.112 255.884L238.055 255.317L237.745 254.295L234.647 254.863" stroke="#263238" stroke-linecap="round" stroke-linejoin="round"/>
<path d="M286.197 205.974C286.197 205.974 277.995 218.565 278.452 222.996C278.909 227.428 280.938 234.787 280.938 234.787C280.938 234.787 267.934 238.527 263.442 239.894C258.95 241.262 250.733 242.504 250.733 242.504L254.907 254.528L254.296 255.776H299.34C299.34 255.776 302.747 255.322 303.367 254.755C303.987 254.187 304.606 253.96 304.916 252.145C305.226 250.329 307.239 234.453 306.775 230.015C306.31 225.578 299.959 202.569 299.185 200.186C298.41 197.803 297.024 196.214 295.63 195.647C294.236 195.079 288.195 194.631 288.195 194.631" fill="white"/>
<path d="M286.197 205.974C286.197 205.974 277.995 218.565 278.452 222.996C278.909 227.428 280.938 234.787 280.938 234.787C280.938 234.787 267.934 238.527 263.442 239.894C258.95 241.262 250.733 242.504 250.733 242.504L254.907 254.528L254.296 255.776H299.34C299.34 255.776 302.747 255.322 303.367 254.755C303.987 254.187 304.606 253.96 304.916 252.145C305.226 250.329 307.239 234.453 306.775 230.015C306.31 225.578 299.959 202.569 299.185 200.186C298.41 197.803 297.024 196.214 295.63 195.647C294.236 195.079 288.195 194.631 288.195 194.631" stroke="#263238" stroke-linecap="round" stroke-linejoin="round"/>
<path d="M282.022 235.014C282.022 235.014 293.941 235.468 299.835 238.186" stroke="#263238" stroke-linecap="round" stroke-linejoin="round"/>
<path d="M284.183 233.88C284.183 233.88 292.548 233.539 297.04 234.561" stroke="#263238" stroke-linecap="round" stroke-linejoin="round"/>
<path d="M281.867 205.622C281.867 205.622 277.685 212.772 277.53 215.495C277.375 218.219 277.065 219.808 277.065 219.808" stroke="#263238" stroke-linecap="round" stroke-linejoin="round"/>
<path d="M262.823 186.693C262.823 186.693 272.264 196.544 264.674 224.012" stroke="#263238" stroke-width="2" stroke-linecap="round" stroke-linejoin="round"/>
<path d="M269.165 224.807C269.165 224.133 268.893 223.475 268.382 222.915C267.872 222.355 267.146 221.919 266.297 221.661C265.448 221.404 264.513 221.336 263.612 221.468C262.711 221.599 261.883 221.923 261.233 222.399C260.583 222.875 260.14 223.482 259.961 224.142C259.782 224.803 259.874 225.487 260.225 226.109C260.577 226.732 261.173 227.263 261.937 227.637C262.701 228.011 263.599 228.211 264.518 228.211C265.751 228.211 266.933 227.852 267.804 227.214C268.676 226.576 269.165 225.71 269.165 224.807Z" fill="white" stroke="#263238" stroke-linecap="round" stroke-linejoin="round"/>
<path d="M230.596 187.714C230.596 187.714 225.802 189.984 225.028 199.171" stroke="#263238" stroke-width="2" stroke-linecap="round" stroke-linejoin="round"/>
<path d="M231.688 213.089C230.519 219.286 228.923 225.941 228.59 227.4C227.816 230.52 222.758 231.61 219.505 230.589" stroke="#263238" stroke-width="2" stroke-linecap="round" stroke-linejoin="round"/>
<path d="M219.56 213.498C218.499 210.025 217.848 207.012 218.081 205.633C219.165 199.284 225.051 199.17 225.051 199.17C225.051 199.17 232.021 199.851 232.478 205.299C232.526 207.907 232.267 210.513 231.704 213.089" stroke="#263238" stroke-width="2" stroke-linecap="round" stroke-linejoin="round"/>
<path d="M232.633 230.135C232.633 230.135 229.381 231.497 227.212 230.589C225.748 229.976 221.791 220.738 219.56 213.498" stroke="#263238" stroke-width="2" stroke-linecap="round" stroke-linejoin="round"/>
<path d="M233.766 228.905L232.486 229.309C231.87 229.504 231.585 230.028 231.851 230.48L231.866 230.506C232.132 230.958 232.848 231.166 233.464 230.971L234.744 230.567C235.361 230.372 235.646 229.848 235.38 229.396L235.364 229.37C235.099 228.918 234.383 228.71 233.766 228.905Z" stroke="#263238" stroke-linecap="round" stroke-linejoin="round"/>
<path d="M219.907 229.52L218.712 228.994C218.136 228.741 217.389 228.877 217.043 229.299L217.023 229.323C216.678 229.745 216.864 230.292 217.44 230.546L218.635 231.072C219.21 231.325 219.957 231.188 220.303 230.767L220.323 230.742C220.669 230.321 220.483 229.773 219.907 229.52Z" stroke="#263238" stroke-linecap="round" stroke-linejoin="round"/>
<path d="M225.051 160.268C225.051 160.268 222.572 164.575 223.037 167.299C223.502 170.022 228.458 172.973 228.458 172.973C228.458 172.973 230.162 160.836 230.162 160.382C230.162 159.928 227.057 158.907 225.051 160.268Z" fill="#263238" stroke="#263238" stroke-linecap="round" stroke-linejoin="round"/>
<path d="M223.27 175.696L226.561 174.011" stroke="#263238" stroke-width="2" stroke-linecap="round" stroke-linejoin="round"/>
<path d="M226.902 161.063C226.902 161.063 226.282 173.086 226.592 175.35C226.902 177.614 228.141 184.877 229.225 187.147C230.31 189.417 233.872 196.674 236.66 197.468C239.449 198.263 245.017 198.83 246.876 197.922C248.735 197.014 255.542 193.615 257.401 190.324C258.503 188.405 259.233 186.383 259.57 184.315C261.115 183.711 262.45 182.854 263.471 181.811C264.492 180.768 265.171 179.567 265.456 178.301C266.385 173.988 263.907 172.746 263.907 172.746L264.062 165.256C264.062 165.256 262.358 160.041 257.866 157.204C253.374 154.367 248.115 154.14 242.694 156.296C237.272 158.452 226.902 161.063 226.902 161.063Z" fill="white" stroke="#263238" stroke-linecap="round" stroke-linejoin="round"/>
<path d="M256.007 160.382C256.007 160.382 256.162 157.431 252.297 158.452C248.433 159.474 247.496 161.403 241.764 163.105C236.033 164.808 228.451 162.878 225.825 161.744C223.2 160.609 221.333 159.02 224.896 156.069C228.459 153.119 236.815 150.174 245.807 150.174C254.799 150.174 261.754 155.615 264.697 157.885C267.64 160.155 268.105 162.992 267.02 165.029C265.936 167.066 263.922 172.746 263.922 172.746C263.922 172.746 262.683 172.632 262.218 173.988C261.754 175.345 261.909 176.826 259.895 176.939C257.881 177.052 258.036 173.086 258.036 173.086C258.036 173.086 253.087 171.951 252.468 169.341C251.848 166.731 256.007 162.878 256.007 160.382Z" fill="#263238" stroke="#263238" stroke-linecap="round" stroke-linejoin="round"/>
<path d="M237.567 177.546L223.247 175.697L224.075 180.4C224.126 180.693 224.304 180.966 224.583 181.178C224.862 181.391 225.227 181.532 225.624 181.581L234.329 182.585C234.808 182.642 235.298 182.56 235.695 182.356C236.093 182.153 236.367 181.844 236.459 181.496L237.567 177.546Z" stroke="#263238" stroke-width="2" stroke-linecap="round" stroke-linejoin="round"/>
<path d="M240.177 177.745L256.782 177.393L255.155 181.796C255.015 182.093 254.748 182.348 254.393 182.524C254.039 182.7 253.616 182.787 253.188 182.772L243.12 182.874C242.598 182.901 242.081 182.788 241.662 182.558C241.244 182.328 240.953 181.995 240.843 181.62L240.177 177.745Z" stroke="#263238" stroke-width="2" stroke-linecap="round" stroke-linejoin="round"/>
<path d="M237.59 177.546L240.177 177.745" stroke="#263238" stroke-width="2" stroke-linecap="round" stroke-linejoin="round"/>
<path d="M256.782 177.393L262.203 173.989" stroke="#263238" stroke-width="2" stroke-linecap="round" stroke-linejoin="round"/>
<path d="M242.384 176.372C242.384 176.372 247.031 173.767 251.368 175.35" stroke="#263238" stroke-width="2" stroke-linecap="round" stroke-linejoin="round"/>
<path d="M235.421 175.804C235.421 175.804 231.858 172.967 227.831 174.896" stroke="#263238" stroke-width="2" stroke-linecap="round" stroke-linejoin="round"/>
<path d="M236.351 185.672C236.351 185.672 235.576 188.055 236.351 188.509C237.669 189.042 239.191 189.241 240.68 189.076" stroke="#263238" stroke-linecap="round" stroke-linejoin="round"/>
<path d="M234.027 190.302C234.027 190.302 237.125 192.004 240.068 192.118C243.011 192.231 246.411 190.642 246.411 190.642" stroke="#263238" stroke-linecap="round" stroke-linejoin="round"/>
<path d="M245.482 178.755C245.482 178.755 247.341 180.344 250.439 178.641" stroke="#263238" stroke-linecap="round" stroke-linejoin="round"/>
<path d="M230.232 178.057C230.232 178.057 231.781 179.816 235.158 178.437" stroke="#263238" stroke-linecap="round" stroke-linejoin="round"/>
<path d="M134.173 160.37C134.173 160.37 135.156 171.18 134.413 172.082L132.236 174.783C132.236 174.783 133.22 182.534 131.253 183.43C129.729 184.028 128.056 184.397 126.335 184.514C126.335 184.514 124.368 190.279 123.624 191C122.881 191.72 118.458 194.064 116.987 194.404C115.515 194.745 110.837 194.972 99.7699 190.081C88.7025 185.189 84.5203 183.595 84.7682 180.894C85.016 178.193 85.5426 175.129 85.5426 175.129C85.5426 175.129 86.7741 162.152 88.9891 158.192C91.2041 154.231 119.241 152.063 125.39 153.147C131.539 154.231 134.173 160.37 134.173 160.37Z" fill="white" stroke="#263238" stroke-linecap="round" stroke-linejoin="round"/>
<path d="M105.641 178.204L107.368 179.107C107.368 179.107 105.888 183.43 106.593 185.416" stroke="#263238" stroke-linecap="round" stroke-linejoin="round"/>
<path d="M130.23 174.584C129.982 175.413 129.386 176.014 128.906 175.935C128.426 175.855 128.232 175.129 128.488 174.301C128.743 173.472 129.332 172.871 129.812 172.95C130.292 173.03 130.486 173.762 130.23 174.584Z" fill="#263238"/>
<path d="M127.721 171.276C127.721 171.276 130.401 169.313 132.639 171.168" stroke="#263238" stroke-linecap="round" stroke-linejoin="round"/>
<path d="M124.336 158.929C124.336 158.929 127.527 163.253 127.287 164.155C127.047 165.057 116.956 167.219 116.956 167.219C116.956 167.219 115.972 171.543 114.493 172.082L113.021 172.621C111.841 171.447 110.851 170.177 110.07 168.836C108.351 166.135 105.888 165.432 103.185 168.116C100.482 170.8 102.69 177.126 104.169 177.665L105.64 178.204C105.64 178.204 104.409 179.107 99.7388 179.651C95.0687 180.196 91.6222 180.911 88.1835 180.19C84.7448 179.47 79.819 172.621 78.1152 163.792C76.4113 154.963 81.8017 147.399 88.958 145.067C96.1142 142.735 112.324 144.886 113.548 145.425C114.772 145.964 123.144 143.087 128.062 144.886C132.98 146.684 132.709 148.67 133.963 149.93C135.218 151.19 141.584 149.572 142.08 154.078C142.576 158.583 140.113 161.284 136.914 161.641C133.715 161.999 124.336 158.929 124.336 158.929Z" fill="#263238" stroke="#263238" stroke-linecap="round" stroke-linejoin="round"/>
<path d="M66.1029 187.215C66.1029 187.215 42.5353 196.424 38.0433 198.245C33.5513 200.067 32.8775 201.701 32.6219 203.352C32.3663 205.003 32.6219 260.576 32.6219 260.576H159.924C159.924 260.576 140.616 218.105 139.981 213.362C139.346 208.618 137.967 200.203 136.171 199.216C134.374 198.228 109.002 190.007 109.002 190.007C109.002 190.007 102.937 185.24 88.5785 185.24C74.2195 185.24 66.1029 187.215 66.1029 187.215Z" fill="#92E3A9" stroke="#263238" stroke-linecap="round" stroke-linejoin="round"/>
<path d="M80.6943 221.05C81.3604 221.243 82.0342 221.419 82.708 221.584" stroke="#263238" stroke-linecap="round" stroke-linejoin="round"/>
<path d="M55.5625 205.798C55.5625 205.798 64.8563 215.296 77.5501 219.983" stroke="#263238" stroke-linecap="round" stroke-linejoin="round"/>
<path d="M63.6323 216.812C63.6323 216.812 68.7904 220.596 79.5635 222.735" stroke="#263238" stroke-linecap="round" stroke-linejoin="round"/>
<path d="M127.59 203.182C124.004 206.167 118.954 210.939 117.281 215.331" stroke="#263238" stroke-linecap="round" stroke-linejoin="round"/>
<path d="M131.415 200.203C131.415 200.203 130.703 200.708 129.587 201.577" stroke="#263238" stroke-linecap="round" stroke-linejoin="round"/>
<path d="M118.621 210.071C118.621 210.071 115.252 214.837 114.586 217.799" stroke="#263238" stroke-linecap="round" stroke-linejoin="round"/>
<path d="M64.7554 188.032C64.7554 188.032 77.7745 187.703 90.1198 187.867C102.465 188.032 110.551 190.829 110.551 190.829C110.551 190.829 103.139 184.253 99.7776 182.772C96.4163 181.291 86.0847 178.8 77.5576 180.797C72.3046 182.09 67.7963 184.638 64.7554 188.032Z" fill="#92E3A9" stroke="#263238" stroke-linecap="round" stroke-linejoin="round"/>
<path d="M27.735 260.514L15.8699 227.184C15.7547 226.779 15.7642 226.361 15.8977 225.959C16.0311 225.557 16.2851 225.183 16.6412 224.862C16.9973 224.541 17.4466 224.283 17.9562 224.105C18.4659 223.928 19.0232 223.836 19.5874 223.836H113.989C114.857 223.837 115.698 224.054 116.374 224.452C117.05 224.851 117.52 225.406 117.707 226.026L128.186 260.548" fill="#263238"/>
<path d="M27.735 260.514L15.8699 227.184C15.7547 226.779 15.7642 226.361 15.8977 225.959C16.0311 225.557 16.2851 225.183 16.6412 224.862C16.9973 224.541 17.4466 224.283 17.9562 224.105C18.4659 223.928 19.0232 223.836 19.5874 223.836H113.989C114.857 223.837 115.698 224.054 116.374 224.452C117.05 224.851 117.52 225.406 117.707 226.026L128.186 260.548" stroke="#263238" stroke-linecap="round" stroke-linejoin="round"/>
</svg>
