<svg width="354" height="261" viewBox="0 0 354 261" fill="none" xmlns="http://www.w3.org/2000/svg">
<path d="M73.475 167.553L66.7176 168.443L65.3903 163.114L57.3619 164.174L58.6892 169.503L51.9399 170.393L53.4443 176.443L60.1936 175.553L61.5209 180.882L69.5493 179.828L68.2219 174.493L74.9793 173.602L73.475 167.553Z" stroke="#92E3A9" stroke-linecap="round" stroke-linejoin="round"/>
<path d="M140.936 85.9163L134.46 84.2531L136.938 79.1464L129.247 77.167L126.77 82.2737L120.294 80.6105L117.486 86.4082L123.954 88.0714L121.476 93.1839L129.167 95.1575L131.653 90.0508L138.12 91.714L140.936 85.9163Z" stroke="#92E3A9" stroke-linecap="round" stroke-linejoin="round"/>
<path d="M304.271 146.95L298.205 149.287L294.722 144.497L287.506 147.272L290.989 152.063L284.924 154.4L288.874 159.834L294.939 157.498L298.422 162.282L305.638 159.506L302.155 154.716L308.221 152.379L304.271 146.95Z" stroke="#92E3A9" stroke-linecap="round" stroke-linejoin="round"/>
<path d="M45.2552 154.856C47.9742 154.856 50.1784 153.252 50.1784 151.272C50.1784 149.293 47.9742 147.688 45.2552 147.688C42.5362 147.688 40.332 149.293 40.332 151.272C40.332 153.252 42.5362 154.856 45.2552 154.856Z" stroke="#92E3A9" stroke-linecap="round" stroke-linejoin="round"/>
<path d="M121.943 103.356C121.943 103.544 121.867 103.727 121.724 103.883C121.58 104.039 121.377 104.161 121.139 104.233C120.901 104.304 120.639 104.323 120.386 104.287C120.133 104.25 119.901 104.16 119.719 104.027C119.536 103.894 119.412 103.725 119.362 103.541C119.312 103.357 119.337 103.166 119.436 102.993C119.535 102.82 119.702 102.672 119.916 102.567C120.13 102.463 120.382 102.407 120.64 102.407C120.986 102.407 121.317 102.507 121.562 102.685C121.806 102.863 121.943 103.105 121.943 103.356Z" stroke="#92E3A9" stroke-linecap="round" stroke-linejoin="round"/>
<path d="M62.3098 87.0815C62.3098 87.744 62.0399 88.3917 61.5343 88.9425C61.0287 89.4934 60.3101 89.9228 59.4693 90.1763C58.6285 90.4298 57.7033 90.4962 56.8107 90.3669C55.9181 90.2377 55.0982 89.9186 54.4547 89.4501C53.8111 88.9817 53.3729 88.3848 53.1954 87.735C53.0178 87.0852 53.1089 86.4117 53.4572 85.7996C53.8055 85.1875 54.3952 84.6643 55.1519 84.2962C55.9086 83.9281 56.7983 83.7317 57.7084 83.7317C58.9281 83.7332 60.0972 84.0867 60.9597 84.7145C61.8222 85.3424 62.3077 86.1935 62.3098 87.0815Z" stroke="#92E3A9" stroke-linecap="round" stroke-linejoin="round"/>
<path d="M265.054 132.456C265.054 132.831 264.901 133.198 264.615 133.51C264.328 133.822 263.921 134.065 263.445 134.209C262.969 134.353 262.445 134.39 261.939 134.317C261.434 134.244 260.969 134.063 260.605 133.798C260.24 133.532 259.992 133.194 259.891 132.826C259.791 132.458 259.842 132.077 260.04 131.73C260.237 131.383 260.571 131.087 261 130.878C261.428 130.67 261.932 130.559 262.448 130.559C263.139 130.559 263.802 130.759 264.291 131.114C264.78 131.47 265.054 131.953 265.054 132.456Z" stroke="#92E3A9" stroke-linecap="round" stroke-linejoin="round"/>
<path d="M238.708 74.6252C241.929 74.6252 244.54 72.7242 244.54 70.3794C244.54 68.0345 241.929 66.1335 238.708 66.1335C235.487 66.1335 232.876 68.0345 232.876 70.3794C232.876 72.7242 235.487 74.6252 238.708 74.6252Z" stroke="#92E3A9" stroke-linecap="round" stroke-linejoin="round"/>
<path d="M202.798 108.545C203.103 108.879 212.33 110.22 217.117 115.286C219.902 118.196 222.238 121.32 224.083 124.603C224.083 124.603 232.088 128.07 236.19 130.928C240.293 133.786 245.184 137.58 248.957 139.572C252.73 141.563 260.493 145.34 262.447 149.761C262.447 149.761 250.807 172.97 247.517 178.1C244.227 183.23 236.11 194.117 236.11 194.117L221.63 238.9H137.638L134.774 223.539C134.774 223.539 109.032 219.861 98.2761 212.998C98.2761 212.998 97.2625 196.014 101.759 180.864C106.256 165.714 121.549 134.213 131.91 124.591C131.91 124.591 148.457 118.829 163.058 116.978C163.058 116.978 172.534 111.526 178.737 110.946C184.939 110.366 202.798 108.545 202.798 108.545Z" fill="white"/>
<path d="M135.908 230.461C143.365 231.498 149.865 232.394 157.459 232.329C165.053 232.265 172.808 231.023 179.018 227.855C180.218 227.128 181.578 226.554 183.04 226.157C186.338 225.483 189.604 227.07 192.879 227.808C197.029 228.745 201.583 228.3 205.653 227.176C209.724 226.051 213.384 224.3 217.012 222.555C216.476 227.943 216.301 233.34 216.489 238.748L221.662 238.9L234.911 196.459C234.911 196.459 212.25 215.621 201.205 221.343L180.015 217.372C180.015 217.372 178.02 218.579 173.821 219.188C173.821 219.188 171.899 224.57 161.087 224.581C150.275 224.593 134.773 223.539 134.773 223.539L135.908 230.461Z" fill="#92E3A9"/>
<path opacity="0.5" d="M135.908 230.461C143.365 231.498 149.865 232.394 157.459 232.329C165.053 232.265 172.808 231.023 179.018 227.855C180.218 227.128 181.578 226.554 183.04 226.157C186.338 225.483 189.604 227.07 192.879 227.808C197.029 228.745 201.583 228.3 205.653 227.176C209.724 226.051 213.384 224.3 217.012 222.555C216.476 227.943 216.301 233.34 216.489 238.748L221.662 238.9L234.911 196.459C234.911 196.459 212.25 215.621 201.205 221.343L180.015 217.372C180.015 217.372 178.02 218.579 173.821 219.188C173.821 219.188 171.899 224.57 161.087 224.581C150.275 224.593 134.773 223.539 134.773 223.539L135.908 230.461Z" fill="white"/>
<path d="M114.196 151.272C114.196 151.272 104.358 186.041 104.856 197.982C104.856 197.982 118.226 195.253 127.558 197.982C127.558 197.982 111.678 196.694 104.84 201.994C98.0026 207.294 119.047 221.22 161.152 218.391C161.152 218.391 169.55 220.306 173.814 219.182C173.814 219.182 172.671 224.722 161.079 224.576C149.535 224.242 115.765 224.037 98.268 213.004C98.2761 213.009 96.0719 181.046 114.196 151.272Z" fill="#92E3A9"/>
<path opacity="0.6" d="M114.196 151.272C114.196 151.272 104.358 186.041 104.856 197.982C104.856 197.982 118.226 195.253 127.558 197.982C127.558 197.982 111.678 196.694 104.84 201.994C98.0026 207.294 119.047 221.22 161.152 218.391C161.152 218.391 169.55 220.306 173.814 219.182C173.814 219.182 172.671 224.722 161.079 224.576C149.535 224.242 115.765 224.037 98.268 213.004C98.2761 213.009 96.0719 181.046 114.196 151.272Z" fill="white"/>
<path d="M134.315 157.937C134.315 157.937 137.219 173.333 141.909 176.554C146.599 179.775 168.456 178.721 177.111 182.193C177.111 182.193 185.26 171.916 199.998 165.486L180.015 188.389L162.744 185.42L141.66 183.078L139.89 186.041H136.72C136.72 186.041 136.366 169.608 134.315 157.937Z" fill="#92E3A9"/>
<path opacity="0.5" d="M134.315 157.937C134.315 157.937 137.219 173.333 141.909 176.554C146.599 179.775 168.456 178.721 177.111 182.193C177.111 182.193 185.26 171.916 199.998 165.486L180.015 188.389L162.744 185.42L141.66 183.078L139.89 186.041H136.72C136.72 186.041 136.366 169.608 134.315 157.937Z" fill="white"/>
<path d="M216.924 126.576C225.957 130.447 226.971 134.81 228.829 137.926C224.131 138.605 219.272 139.331 215.395 141.375C210.568 143.929 207.954 148.157 205.927 152.262C204.009 156.147 202.398 160.108 201.1 164.127C205.467 158.385 211.673 153.495 219.192 149.873C223.528 147.788 228.886 146.107 233.833 147.284C229.682 148.567 224.984 150.3 224.107 153.521C223.935 154.056 223.965 154.615 224.196 155.138C224.936 156.654 227.526 157.064 229.489 157.802C233.318 159.237 235.313 162.487 235.482 165.638C235.651 168.789 234.324 171.834 233.012 174.815C231.859 177.427 230.706 180.038 229.553 182.65C228.081 185.988 226.585 189.373 223.922 192.302C221.259 195.23 217.261 197.683 212.507 198.257C210.519 198.536 208.462 198.367 206.611 197.771C205.207 197.216 203.902 196.537 202.725 195.751C197.021 192.398 190.167 190.243 182.904 189.52C192.251 194.017 196.676 202.187 200.553 209.841C198.773 207.572 196.207 205.682 193.112 204.36C192.319 203.957 191.376 203.741 190.409 203.739C187.867 203.885 187.062 206.245 185.534 207.721C183.7 209.478 180.345 210.105 177.337 209.824C174.328 209.542 171.561 208.518 168.858 207.481L134.661 194.644L132.248 199.915C132.248 199.915 159.486 215.727 201.221 221.319C201.221 221.319 228.331 205.724 237.936 191.897C247.541 178.071 262.463 149.732 262.463 149.732C262.463 149.732 257.001 142.201 247.637 138.271C247.637 138.271 240.647 135.865 239.174 132.89C237.702 129.915 224.566 124.779 224.566 124.779C224.566 124.779 226.271 127.953 216.924 126.576Z" fill="#92E3A9"/>
<path opacity="0.6" d="M216.924 126.576C225.957 130.447 226.971 134.81 228.829 137.926C224.131 138.605 219.272 139.331 215.395 141.375C210.568 143.929 207.954 148.157 205.927 152.262C204.009 156.147 202.398 160.108 201.1 164.127C205.467 158.385 211.673 153.495 219.192 149.873C223.528 147.788 228.886 146.107 233.833 147.284C229.682 148.567 224.984 150.3 224.107 153.521C223.935 154.056 223.965 154.615 224.196 155.138C224.936 156.654 227.526 157.064 229.489 157.802C233.318 159.237 235.313 162.487 235.482 165.638C235.651 168.789 234.324 171.834 233.012 174.815C231.859 177.427 230.706 180.038 229.553 182.65C228.081 185.988 226.585 189.373 223.922 192.302C221.259 195.23 217.261 197.683 212.507 198.257C210.519 198.536 208.462 198.367 206.611 197.771C205.207 197.216 203.902 196.537 202.725 195.751C197.021 192.398 190.167 190.243 182.904 189.52C192.251 194.017 196.676 202.187 200.553 209.841C198.773 207.572 196.207 205.682 193.112 204.36C192.319 203.957 191.376 203.741 190.409 203.739C187.867 203.885 187.062 206.245 185.534 207.721C183.7 209.478 180.345 210.105 177.337 209.824C174.328 209.542 171.561 208.518 168.858 207.481L134.661 194.644L132.248 199.915C132.248 199.915 159.486 215.727 201.221 221.319C201.221 221.319 228.331 205.724 237.936 191.897C247.541 178.071 262.463 149.732 262.463 149.732C262.463 149.732 257.001 142.201 247.637 138.271C247.637 138.271 240.647 135.865 239.174 132.89C237.702 129.915 224.566 124.779 224.566 124.779C224.566 124.779 226.271 127.953 216.924 126.576Z" fill="white"/>
<path d="M214.052 72.6691C214.052 72.6691 215.878 57.1676 206.699 55.6859C197.52 54.2043 192.364 48.0728 192.364 48.0728L159.8 54.6904L154.748 68.9445L157.966 76.1595C157.966 76.1595 158.642 82.8532 158.77 86.162C158.899 89.4708 158.77 92.0183 162.213 96.0357C165.656 100.053 168.858 104.041 176.299 107.514V116.644C176.299 116.644 171.698 126.418 174.24 132.415C174.24 132.415 175.76 133.586 179.959 131.829C184.159 130.072 202.122 121.335 208.388 112.211L210.335 89.014C210.335 89.014 215.508 89.5997 217.736 86.1679C221.01 82.8122 220.882 78.9002 219.61 75.7144C218.339 72.5286 212.869 74.59 212.869 74.59L214.052 72.6691Z" fill="#999999"/>
<path d="M176.653 95.3974C177.574 94.6674 178.709 94.0979 179.973 93.7309C181.238 93.3638 182.6 93.2089 183.958 93.2774C183.958 93.2774 187.875 88.7739 192.002 89.5996C192.002 89.5996 193.273 94.3725 188.326 96.2524C181.89 98.6944 176.653 95.3974 176.653 95.3974Z" fill="#737373"/>
<path d="M164.554 52.717C164.554 52.717 156.759 60.1721 157.209 67.9434C157.66 75.7147 159.212 81.2254 158.762 87.2223C158.311 93.2191 166.999 103.263 175.905 107.309C182.557 110.337 190.899 109.822 197.375 106.724C204.615 103.21 208.597 96.8968 210.053 90.8356C210.198 90.25 210.311 89.6643 210.391 89.0319" stroke="#263238" stroke-linecap="round" stroke-linejoin="round"/>
<path d="M175.905 107.315C175.905 107.315 177.168 115.713 175.905 118.588C174.513 121.745 172.832 129.095 174.296 132.415C175.76 135.736 203.152 121.78 208.445 112.205C208.445 112.205 209.177 93.5996 211.003 88.9497" stroke="#263238" stroke-linecap="round" stroke-linejoin="round"/>
<path d="M175.149 95.1925C175.149 95.1925 187.61 97.7575 192.71 88.3933" stroke="#263238" stroke-linecap="round" stroke-linejoin="round"/>
<path d="M176.155 109.335C176.155 109.335 178.809 115.326 184.537 115.684C190.265 116.041 204.592 107.684 209.475 97.8394V92.9143C209.475 92.9143 205.453 105.798 193.676 108.141C181.899 110.483 176.388 107.502 176.388 107.502L176.155 109.335Z" fill="#263238"/>
<path d="M191.994 89.5997C186.459 89.3186 183.949 93.2775 183.949 93.2775C182.585 93.1563 181.201 93.287 179.925 93.6575C178.648 94.028 177.52 94.6263 176.645 95.3975C178.009 96.2879 179.685 96.8852 181.487 97.123C183.29 97.3609 185.147 97.2298 186.853 96.7444C193.144 95.1515 191.994 89.5997 191.994 89.5997Z" stroke="#263238" stroke-linecap="round" stroke-linejoin="round"/>
<path d="M178.117 71.9373C178.186 73.7952 178.073 75.6544 177.779 77.5007C177.482 79.1581 176.428 80.7451 175.551 82.3029C174.746 83.7201 173.403 85.8986 174.521 87.392C175.792 89.0845 180.016 87.392 180.016 87.392" stroke="#263238" stroke-linecap="round" stroke-linejoin="round"/>
<path d="M182.614 87.0406C184.038 87.1811 186.057 87.0406 186.459 85.2427" stroke="#263238" stroke-linecap="round" stroke-linejoin="round"/>
<path d="M187.215 69.7001C188.592 68.7442 190.421 68.2109 192.324 68.2109C194.226 68.2109 196.055 68.7442 197.432 69.7001" stroke="#263238" stroke-width="2" stroke-linecap="round" stroke-linejoin="round"/>
<path d="M170.982 71.1642C170.982 71.1642 167.209 67.6504 162.27 71.1642" stroke="#263238" stroke-width="2" stroke-linecap="round" stroke-linejoin="round"/>
<path d="M207.431 80.0481C207.431 80.0481 211.735 72.5228 217.35 74.1391C221.219 75.2577 221.453 80.1184 219.401 83.5092C217.35 86.9 216.32 90.3552 209.482 88.4226" stroke="#263238" stroke-linecap="round" stroke-linejoin="round"/>
<path d="M208.196 78.8946C208.196 78.8946 204.061 77.8287 203.297 72.9387C202.532 68.0487 206.651 63.1529 205.123 59.6391C203.594 56.1253 191.552 57.8822 188.808 51.7566C188.808 51.7566 179.767 56.6641 162.262 55.61C162.262 55.61 158.569 60.1896 157.926 62.9889C157.064 67.3658 157.086 71.8108 157.99 76.1831C157.99 76.3354 158.063 76.4818 158.103 76.634C159.358 81.4011 153.107 70.1453 153.276 65.3373C153.445 60.5293 149.463 54.4212 154.652 49.8708C159.84 45.3205 178.866 42.6559 182.614 40.5183C186.363 38.3808 193.651 44.0731 202.074 46.1697C210.496 48.2662 217.479 50.7668 216.417 59.4634C215.355 68.16 216.473 69.3254 216.522 73.905C216.522 73.9167 212.628 72.8509 208.196 78.8946Z" fill="#263238"/>
<path d="M192.34 76.0367C192.34 77.208 191.72 78.1801 190.948 78.1801C190.176 78.1801 189.564 77.2197 189.564 76.0367C189.564 74.8537 190.184 73.8992 190.948 73.8992C191.712 73.8992 192.34 74.8655 192.34 76.0367Z" fill="#263238"/>
<path d="M170.982 76.0367C170.982 77.208 170.362 78.1801 169.598 78.1801C168.834 78.1801 168.214 77.2197 168.214 76.0367C168.214 74.8537 168.834 73.8992 169.598 73.8992C170.362 73.8992 170.982 74.8655 170.982 76.0367Z" fill="#263238"/>
<path d="M187.215 78.8945C187.215 78.8945 190.087 81.1141 193.723 81.4303" stroke="#263238" stroke-linecap="round" stroke-linejoin="round"/>
<path d="M167.651 81.4303C167.651 81.4303 172.904 81.1609 174.087 78.8945" stroke="#263238" stroke-linecap="round" stroke-linejoin="round"/>
<path d="M179.863 133.838C183.772 132.029 188.945 132.708 193.225 133.99C195.574 134.699 197.81 135.589 200.151 136.333C201.308 136.705 202.502 137.015 203.723 137.258C206.659 137.815 205.605 135.162 205.436 133.973C205.195 132.269 205.026 130.559 204.744 128.866C204.629 128.516 204.686 128.147 204.905 127.824C205.194 127.563 205.597 127.383 206.048 127.314C211.204 126.143 216.763 126.658 222.136 126.729C222.624 126.771 223.118 126.703 223.552 126.535C224.357 126.155 224.268 125.294 224.051 124.614C222.193 118.828 215.636 113.072 208.509 110.179" stroke="#263238" stroke-linecap="round" stroke-linejoin="round"/>
<path d="M176.355 111.116C172.808 112.193 169.164 113.312 166.107 114.963C164.998 115.552 163.976 116.223 163.058 116.966C162.318 117.478 161.853 118.166 161.747 118.905C161.766 119.248 161.892 119.584 162.113 119.888C162.334 120.192 162.646 120.457 163.026 120.661C163.566 120.985 164.16 121.257 164.795 121.47C166.276 121.979 168.013 122.477 168.641 123.56C168.793 123.787 168.849 124.042 168.802 124.292C168.722 124.512 168.567 124.714 168.351 124.878C167.128 125.961 164.972 126.799 165.133 128.199C165.238 129.282 166.742 129.955 168.078 130.436C169.413 130.916 170.974 131.414 171.432 132.45" stroke="#263238" stroke-linecap="round" stroke-linejoin="round"/>
<path d="M155.352 56.2014C155.874 53.8589 159.237 52.3479 162.471 51.9673C165.705 51.5866 169.027 51.9673 172.285 51.7623C175.01 51.5663 177.645 50.9468 180.013 49.9455C182.38 48.9443 184.425 47.5848 186.009 45.9587" stroke="white" stroke-linecap="round" stroke-linejoin="round"/>
<path d="M159.011 49.6188C164.852 47.1065 173.057 49.7184 178.752 47.0362C180.364 46.182 181.767 45.1367 182.903 43.9441" stroke="white" stroke-linecap="round" stroke-linejoin="round"/>
<path d="M233.511 145.727C212.596 148.766 204.793 159.969 204.793 159.969L180.016 188.378" stroke="#263238" stroke-linecap="round" stroke-linejoin="round"/>
<path d="M215.83 142.658C217.565 141.487 219.531 140.512 221.662 139.765" stroke="#263238" stroke-linecap="round" stroke-linejoin="round"/>
<path d="M201.205 164.104C201.205 164.104 203.843 153.843 211.421 146.283" stroke="#263238" stroke-linecap="round" stroke-linejoin="round"/>
<path d="M136.72 185.994C136.72 185.994 135.634 154.564 131.894 149.761" stroke="#263238" stroke-linecap="round" stroke-linejoin="round"/>
<path d="M224.083 124.603C224.083 124.603 236.15 129.873 241.508 134.828C246.865 139.782 259.527 143.074 262.423 149.761C262.423 149.761 245.747 188.015 228.274 201.841C210.802 215.668 201.181 221.343 201.181 221.343C201.181 221.343 159.148 216.025 131.886 199.358L141.636 183.049C141.636 183.049 169.124 185.578 179.992 188.389C190.86 191.2 201.181 208.225 201.181 208.225" stroke="#263238" stroke-linecap="round" stroke-linejoin="round"/>
<path d="M180.016 188.389C180.016 188.389 199.258 191.113 205.509 197.49" stroke="#263238" stroke-linecap="round" stroke-linejoin="round"/>
<path d="M235.385 194.948L221.662 238.9H137.637L134.773 223.539" stroke="#263238" stroke-linecap="round" stroke-linejoin="round"/>
<path d="M173.822 219.187C169.18 226.11 163.058 224.581 163.058 224.581C115.716 225.887 98.2761 213.009 98.2761 213.009C98.2761 213.009 95.8627 194.896 105.17 170.451C114.478 146.007 131.91 124.603 131.91 124.603C139.641 120.86 156.888 117.938 161.755 117.165L163.058 116.966" stroke="#263238" stroke-linecap="round" stroke-linejoin="round"/>
<path d="M163.082 224.581C163.082 224.581 160.58 224.282 161.216 212.207" stroke="#263238" stroke-linecap="round" stroke-linejoin="round"/>
<path d="M133.189 200.131C133.189 200.131 121.364 197.098 106.715 204.477" stroke="#263238" stroke-linecap="round" stroke-linejoin="round"/>
<path d="M109.37 197.49C109.37 197.49 124.863 194.134 131.894 199.51" stroke="#263238" stroke-linecap="round" stroke-linejoin="round"/>
<path d="M130.22 199.206L132.232 199.938L139.89 186.012C139.89 186.012 131.958 185.069 119.393 196.459C123.316 196.493 127.118 197.457 130.22 199.206Z" fill="#999999" stroke="#263238" stroke-miterlimit="10"/>
<path d="M161.192 212.207V218.397C161.192 218.397 172.028 220.739 180.048 217.372L161.192 212.207Z" fill="#999999" stroke="#263238" stroke-miterlimit="10"/>
<path d="M219.925 126.664C219.932 126.779 219.916 126.893 219.876 127.004C219.538 127.97 211.277 150.675 184.835 160.777C184.605 160.867 184.347 160.913 184.086 160.912C183.727 160.912 183.378 160.824 183.095 160.662C182.812 160.501 182.611 160.275 182.525 160.021C182.439 159.767 182.473 159.499 182.62 159.26C182.767 159.022 183.02 158.826 183.338 158.704C207.472 149.492 215.975 128.497 216.715 126.565L219.925 126.664Z" fill="#263238"/>
<path d="M163.025 120.644C158.845 127.594 156.59 135.077 156.389 142.663C156.389 143.278 156.389 143.905 156.389 144.543C156.389 144.701 156.389 144.86 156.389 145.018C156.149 145.024 155.91 145.041 155.673 145.07C154.802 145.17 153.958 145.368 153.171 145.656C153.171 144.795 153.171 143.958 153.171 143.132C153.517 129.99 158.907 121.048 161.778 117.183L163.082 116.984C162.342 117.496 161.877 118.183 161.77 118.922C161.794 119.258 161.919 119.587 162.136 119.884C162.353 120.182 162.656 120.441 163.025 120.644Z" fill="#263238"/>
<path d="M194.705 155.495C196.587 157.398 195.043 160.56 191.246 162.557C187.449 164.554 182.847 164.625 180.957 162.721C179.066 160.818 180.611 157.656 184.408 155.659C188.205 153.662 192.846 153.591 194.705 155.495Z" fill="white" stroke="#263238" stroke-linecap="round" stroke-linejoin="round"/>
<path d="M190.023 154.364C191.358 155.711 190.264 157.948 187.609 159.36C184.955 160.771 181.664 160.824 180.369 159.477C179.074 158.13 180.128 155.893 182.783 154.482C185.437 153.07 188.687 153.023 190.023 154.364Z" fill="white" stroke="#263238" stroke-linecap="round" stroke-linejoin="round"/>
<path d="M168.761 178.135C168.419 178.301 168.002 178.365 167.596 178.314C167.191 178.263 166.828 178.101 166.582 177.861C166.335 177.621 166.225 177.321 166.273 177.023C166.321 176.726 166.523 176.453 166.839 176.261C166.976 176.179 172.373 172.835 170.008 161.573C169.807 160.619 169.55 159.6 169.204 158.528C168.182 155.114 166.606 150.792 163.38 147.618C162.612 146.781 161.561 146.102 160.328 145.646C159.096 145.191 157.722 144.974 156.341 145.018C156.101 145.024 155.862 145.041 155.625 145.07C154.754 145.17 153.91 145.368 153.123 145.656C150.72 146.56 148.896 148.11 148.039 149.978L147.749 150.564C145.925 154.155 144.434 157.831 143.285 161.568C141.998 166.165 141.563 170.984 143.848 174.352C144.46 175.276 145.332 176.096 146.407 176.759C147.483 177.421 148.738 177.912 150.09 178.199C150.453 178.286 150.762 178.465 150.961 178.702C151.16 178.94 151.237 179.221 151.177 179.496C151.117 179.771 150.924 180.021 150.634 180.202C150.343 180.383 149.974 180.483 149.592 180.483C149.422 180.483 149.254 180.463 149.093 180.425C147.333 180.04 145.703 179.394 144.304 178.527C142.906 177.66 141.77 176.591 140.968 175.388C138.394 171.599 138.732 166.44 140.035 161.568C141.19 157.561 142.755 153.622 144.717 149.785L145.006 149.199C145.639 147.805 146.698 146.534 148.104 145.482C149.51 144.43 151.226 143.625 153.123 143.126C153.779 142.961 154.455 142.839 155.142 142.763C155.552 142.722 155.947 142.693 156.365 142.675C158.248 142.638 160.114 142.944 161.792 143.567C163.47 144.19 164.906 145.11 165.97 146.242C169.558 149.755 171.263 154.399 172.349 158.042C172.727 159.295 173.017 160.472 173.234 161.585C175.776 174.211 169.075 177.971 168.761 178.135Z" fill="#263238" stroke="#263238" stroke-miterlimit="10"/>
<path d="M148.465 180.278C148.465 180.278 154.297 182.035 155.778 180.278C157.258 178.522 156.059 177.696 154.04 177.555C152.027 177.48 150.011 177.48 147.999 177.555L148.465 180.278Z" fill="#263238" stroke="#263238" stroke-miterlimit="10"/>
<path d="M151.144 179.693C151.039 179.928 150.834 180.132 150.56 180.277C150.285 180.423 149.955 180.501 149.615 180.501C149.446 180.501 149.278 180.481 149.117 180.442C147.357 180.058 145.727 179.412 144.328 178.545C142.93 177.678 141.794 176.609 140.992 175.406C138.418 171.617 138.755 166.458 140.059 161.585H143.276C141.989 166.182 141.555 171.002 143.84 174.369C144.452 175.293 145.324 176.113 146.399 176.776C147.475 177.439 148.729 177.93 150.082 178.217C150.286 178.262 150.475 178.337 150.638 178.436C150.802 178.535 150.937 178.656 151.036 178.794C151.135 178.931 151.195 179.081 151.214 179.235C151.232 179.39 151.209 179.545 151.144 179.693Z" fill="white" stroke="#263238" stroke-linecap="round" stroke-linejoin="round"/>
<path d="M163.388 176.864C163.145 177.074 162.966 177.318 162.862 177.582C162.759 177.845 162.732 178.122 162.785 178.393C162.945 178.794 163.294 179.141 163.77 179.375C164.247 179.608 164.82 179.712 165.391 179.67C166.534 179.559 167.578 179.141 168.319 178.498C169.124 177.842 171.915 173.55 169.333 174.288C167.458 174.803 164.643 175.676 163.388 176.864Z" fill="#263238" stroke="#263238" stroke-miterlimit="10"/>
<path d="M168.761 178.135C168.419 178.301 168.002 178.365 167.596 178.314C167.191 178.263 166.828 178.101 166.582 177.861C166.335 177.621 166.225 177.321 166.273 177.024C166.32 176.726 166.523 176.453 166.839 176.261C166.976 176.179 172.373 172.835 170.008 161.573H173.226C175.776 174.211 169.075 177.971 168.761 178.135Z" fill="white" stroke="#263238" stroke-linecap="round" stroke-linejoin="round"/>
<path opacity="0.2" d="M183.193 74.6253C183.193 74.6253 193.321 70.7953 202.629 74.6253C202.629 74.6253 202.782 80.2766 199.266 82.6016C198.019 83.4273 192.308 83.5679 190.144 83.4273C181.359 82.8475 183.193 74.6253 183.193 74.6253Z" fill="white"/>
<path opacity="0.2" d="M176.838 74.6253C176.838 74.6253 166.71 70.7953 157.411 74.6253C157.411 74.6253 157.258 80.2766 160.765 82.6016C162.012 83.4273 167.732 83.5679 169.888 83.4273C178.672 82.8475 176.838 74.6253 176.838 74.6253Z" fill="white"/>
<path d="M183.193 74.6253C183.193 74.6253 193.321 70.7953 202.629 74.6253C202.629 74.6253 202.782 80.2766 199.266 82.6016C198.019 83.4273 192.308 83.5679 190.144 83.4273C181.359 82.8475 183.193 74.6253 183.193 74.6253Z" stroke="#263238" stroke-miterlimit="10"/>
<path d="M176.838 74.6253C176.838 74.6253 166.71 70.7953 157.411 74.6253C157.411 74.6253 157.258 80.2766 160.765 82.6016C162.012 83.4273 167.732 83.5679 169.888 83.4273C178.672 82.8475 176.838 74.6253 176.838 74.6253Z" stroke="#263238" stroke-miterlimit="10"/>
<path d="M176.838 74.6254C176.838 74.6254 179.107 73.4132 183.193 74.6254" stroke="#263238" stroke-miterlimit="10"/>
<path d="M202.629 74.6252L206.86 76.0542" stroke="#263238" stroke-miterlimit="10"/>
<path d="M40.6616 254.489L70.4342 234.016H306.732L324.623 254.489H40.6616Z" fill="white" stroke="#263238" stroke-linecap="round" stroke-linejoin="round"/>
<path d="M324.623 254.489H40.6616V260H324.623V254.489Z" fill="#263238" stroke="#263238" stroke-linecap="round" stroke-linejoin="round"/>
<path d="M70.4341 249.429V245.184H117.092V249.429H108.09H70.4341Z" fill="white" stroke="#263238" stroke-miterlimit="10"/>
<path d="M70.4341 245.184L97.9944 231.726L134.774 232.358L117.092 245.184H70.4341Z" fill="white" stroke="#263238" stroke-linecap="round" stroke-linejoin="round"/>
<path d="M117.092 249.429L134.774 236.534V232.358L117.092 245.184V249.429Z" fill="white" stroke="#263238" stroke-linecap="round" stroke-linejoin="round"/>
<path d="M115.829 244.112C115.829 244.112 112.104 244.651 112.104 246.999C112.104 249.348 115.322 250.039 115.322 250.039" stroke="#263238" stroke-width="2" stroke-linecap="round" stroke-linejoin="round"/>
<path d="M112.105 244.112C112.105 244.112 108.38 244.651 108.38 246.999C108.38 249.348 111.598 250.039 111.598 250.039" stroke="#263238" stroke-width="2" stroke-linecap="round" stroke-linejoin="round"/>
<path d="M108.38 244.112C108.38 244.112 104.655 244.651 104.655 246.999C104.655 249.348 107.873 250.039 107.873 250.039" stroke="#263238" stroke-width="2" stroke-linecap="round" stroke-linejoin="round"/>
<path d="M104.655 244.112C104.655 244.112 100.931 244.651 100.931 246.999C100.931 249.348 104.148 250.039 104.148 250.039" stroke="#263238" stroke-width="2" stroke-linecap="round" stroke-linejoin="round"/>
<path d="M100.931 244.112C100.931 244.112 97.2065 244.651 97.2065 246.999C97.2065 249.348 100.424 250.039 100.424 250.039" stroke="#263238" stroke-width="2" stroke-linecap="round" stroke-linejoin="round"/>
<path d="M97.206 244.112C97.206 244.112 93.4814 244.651 93.4814 246.999C93.4814 249.348 96.6992 250.039 96.6992 250.039" stroke="#263238" stroke-width="2" stroke-linecap="round" stroke-linejoin="round"/>
<path d="M93.4819 244.112C93.4819 244.112 89.7573 244.651 89.7573 246.999C89.7573 249.348 92.9751 250.039 92.9751 250.039" stroke="#263238" stroke-width="2" stroke-linecap="round" stroke-linejoin="round"/>
<path d="M89.7573 244.112C89.7573 244.112 86.0327 244.651 86.0327 246.999C86.0327 249.348 89.2505 250.039 89.2505 250.039" stroke="#263238" stroke-width="2" stroke-linecap="round" stroke-linejoin="round"/>
<path d="M85.5737 244.112C85.5737 244.112 81.8491 244.651 81.8491 246.999C81.8491 249.348 85.0669 250.039 85.0669 250.039" stroke="#263238" stroke-width="2" stroke-linecap="round" stroke-linejoin="round"/>
<path d="M81.3823 244.112C81.3823 244.112 77.6577 244.651 77.6577 246.999C77.6577 249.348 80.8755 250.039 80.8755 250.039" stroke="#263238" stroke-width="2" stroke-linecap="round" stroke-linejoin="round"/>
<path d="M76.7251 244.112C76.7251 244.112 73.0005 244.651 73.0005 246.999C73.0005 249.348 76.2183 250.039 76.2183 250.039" stroke="#263238" stroke-width="2" stroke-linecap="round" stroke-linejoin="round"/>
<path d="M100.335 235.023C97.7658 236.055 95.7293 237.669 94.5352 239.62C97.9219 238.841 100.601 237.085 103.167 235.328L100.383 240.352C101.665 240.277 102.904 239.982 103.999 239.493C105.095 239.003 106.017 238.333 106.69 237.536C106.47 237.605 106.272 237.707 106.11 237.836C105.947 237.965 105.824 238.117 105.748 238.283C105.672 238.449 105.645 238.624 105.669 238.798C105.693 238.972 105.767 239.141 105.886 239.292C108.219 239.046 109.707 237.407 110.881 235.919C111.097 236.747 111.181 237.59 111.131 238.432C113.082 238.635 115.072 238.451 116.891 237.899" stroke="#263238" stroke-width="0.75" stroke-linecap="round" stroke-linejoin="round"/>
<path d="M305.155 213.507H224.059V245.922H305.155V213.507Z" fill="white" stroke="#263238" stroke-linecap="round" stroke-linejoin="round"/>
<path d="M223.746 245.916L210.706 236.891V204.477L223.746 213.507V245.916Z" fill="white" stroke="#263238" stroke-linecap="round" stroke-linejoin="round"/>
<path d="M305.155 213.507L292.115 204.477H211.027L224.059 213.507H305.155Z" fill="white" stroke="#263238" stroke-linecap="round" stroke-linejoin="round"/>
<path d="M275.335 225.665H268.167V220.207H258.063V225.665H250.244V233.02H258.063V238.472H268.167V233.02H275.335V225.665Z" fill="#92E3A9" stroke="#263238" stroke-miterlimit="10"/>
<path d="M263.904 213.507L250.864 204.477" stroke="#263238" stroke-linecap="round" stroke-linejoin="round"/>
<path d="M92.4893 75.7406C101.948 68.8544 101.948 57.6896 92.4893 50.8034C83.03 43.9171 67.6936 43.9171 58.2344 50.8034C48.7752 57.6896 48.7752 68.8544 58.2344 75.7406C67.6936 82.6268 83.03 82.6268 92.4893 75.7406Z" fill="white" stroke="#263238" stroke-linecap="round" stroke-linejoin="round"/>
<path d="M95.5086 60.57C95.5083 61.7504 94.9999 62.901 94.0548 63.8601C93.1096 64.8192 91.7753 65.5385 90.2394 65.9168L79.4197 68.5697L66.2509 71.8082C64.3109 72.2725 62.1976 72.1598 60.3713 71.4946C58.5451 70.8295 57.154 69.6658 56.5012 68.2572C55.8485 66.8485 55.987 65.3092 56.8865 63.9746C57.786 62.64 59.3737 61.6183 61.3035 61.1322L73.2656 58.2041L85.2841 55.276C86.4468 54.9913 87.6857 54.9116 88.899 55.0437C90.1122 55.1757 91.2651 55.5156 92.2626 56.0353C93.2601 56.5551 94.0739 57.2399 94.6368 58.0334C95.1997 58.8268 95.4957 59.7063 95.5005 60.5993L95.5086 60.57Z" fill="white"/>
<path d="M95.509 60.5703C95.5088 61.7506 95.0004 62.9013 94.0552 63.8603C93.1101 64.8194 91.7758 65.5387 90.2399 65.9171L79.4201 68.57C79.1316 64.6895 76.9492 61.0115 73.2661 58.1985L85.2845 55.2703C86.4472 54.9856 87.6862 54.906 88.8995 55.038C90.1127 55.1701 91.2655 55.5099 92.2631 56.0297C93.2606 56.5495 94.0743 57.2343 94.6373 58.0278C95.2002 58.8212 95.4962 59.7007 95.501 60.5937L95.509 60.5703Z" fill="#92E3A9"/>
<path d="M95.5086 60.57C95.5083 61.7504 94.9999 62.901 94.0548 63.8601C93.1096 64.8192 91.7753 65.5385 90.2394 65.9168L79.4197 68.5697L66.2509 71.8082C64.3109 72.2725 62.1976 72.1598 60.3713 71.4946C58.5451 70.8295 57.154 69.6658 56.5012 68.2572C55.8485 66.8485 55.987 65.3092 56.8865 63.9746C57.786 62.64 59.3737 61.6183 61.3035 61.1322L73.2656 58.2041L85.2841 55.276C86.4468 54.9913 87.6857 54.9116 88.899 55.0437C90.1122 55.1757 91.2651 55.5156 92.2626 56.0353C93.2601 56.5551 94.0739 57.2399 94.6368 58.0334C95.1997 58.8268 95.4957 59.7063 95.5005 60.5993L95.5086 60.57Z" stroke="#263238" stroke-linecap="round" stroke-linejoin="round"/>
<path d="M79.4201 68.57C79.1739 64.6823 76.9854 60.994 73.2661 58.1985" stroke="#263238" stroke-linecap="round" stroke-linejoin="round"/>
<path d="M92.9189 58.4678C93.4269 59.0906 93.6834 59.8051 93.659 60.5292" stroke="white" stroke-linecap="round" stroke-linejoin="round"/>
<path d="M76.3228 59.0534L85.9761 56.7109C86.8419 56.4947 87.7628 56.421 88.6725 56.4949C89.5822 56.5688 90.4581 56.7886 91.2372 57.1384" stroke="white" stroke-linecap="round" stroke-linejoin="round"/>
<path d="M239.941 39.3504C252.261 35.5546 258.021 25.2072 252.807 16.2388C247.593 7.27044 233.379 3.07721 221.06 6.87299C208.74 10.6688 202.98 21.0162 208.194 29.9846C213.408 38.953 227.622 43.1462 239.941 39.3504Z" fill="white" stroke="#263238" stroke-linecap="round" stroke-linejoin="round"/>
<path d="M238.853 30.4921L217.728 25.3444C215.971 24.9146 214.521 23.9945 213.696 22.7866C212.871 21.5786 212.738 20.1816 213.328 18.9025C213.918 17.6238 215.182 16.5681 216.841 15.9674C218.501 15.3667 220.42 15.2702 222.177 15.6991L243.301 20.841C245.057 21.2722 246.505 22.1924 247.33 23.3999C248.155 24.6074 248.289 26.0038 247.702 27.2829C247.111 28.5618 245.848 29.6178 244.189 30.2195C242.53 30.8211 240.611 30.9192 238.853 30.4921Z" fill="#92E3A9"/>
<path d="M223.375 24.9347L226.915 18.7798" stroke="#263238" stroke-linecap="round" stroke-linejoin="round"/>
<path d="M235.016 27.7514L238.539 21.614" stroke="#263238" stroke-linecap="round" stroke-linejoin="round"/>
<path d="M226.296 25.2978C226.691 25.2978 227.012 25.0644 227.012 24.7766C227.012 24.4887 226.691 24.2554 226.296 24.2554C225.901 24.2554 225.58 24.4887 225.58 24.7766C225.58 25.0644 225.901 25.2978 226.296 25.2978Z" fill="#263238"/>
<path d="M233.335 26.3108C233.335 26.4138 233.293 26.5146 233.214 26.6003C233.135 26.686 233.024 26.7528 232.893 26.7923C232.762 26.8317 232.618 26.8421 232.479 26.822C232.34 26.8018 232.213 26.7522 232.113 26.6793C232.012 26.6064 231.944 26.5136 231.917 26.4124C231.889 26.3113 231.903 26.2065 231.957 26.1113C232.012 26.0161 232.103 25.9347 232.221 25.8774C232.339 25.8201 232.477 25.7896 232.619 25.7896C232.809 25.7896 232.991 25.8445 233.125 25.9422C233.259 26.04 233.335 26.1725 233.335 26.3108Z" fill="#263238"/>
<path d="M229.071 20.6596C229.466 20.6596 229.787 20.4263 229.787 20.1384C229.787 19.8505 229.466 19.6172 229.071 19.6172C228.676 19.6172 228.355 19.8505 228.355 20.1384C228.355 20.4263 228.676 20.6596 229.071 20.6596Z" fill="#263238"/>
<path d="M236.005 21.6257C236.005 21.7288 235.963 21.8296 235.884 21.9153C235.806 22.001 235.694 22.0678 235.563 22.1072C235.432 22.1467 235.288 22.157 235.15 22.1369C235.011 22.1168 234.883 22.0671 234.783 21.9943C234.683 21.9214 234.615 21.8285 234.587 21.7274C234.559 21.6263 234.574 21.5215 234.628 21.4262C234.682 21.331 234.774 21.2496 234.891 21.1923C235.009 21.1351 235.148 21.1045 235.289 21.1045C235.479 21.1045 235.661 21.1594 235.795 21.2571C235.93 21.3549 236.005 21.4875 236.005 21.6257Z" fill="#263238"/>
<path d="M238.853 30.4921L217.728 25.3444C215.971 24.9146 214.521 23.9945 213.696 22.7866C212.871 21.5786 212.738 20.1816 213.328 18.9025C213.918 17.6238 215.182 16.5681 216.841 15.9674C218.501 15.3667 220.42 15.2702 222.177 15.6991L243.301 20.841C245.057 21.2722 246.505 22.1924 247.33 23.3999C248.155 24.6074 248.289 26.0038 247.702 27.2829C247.111 28.5618 245.848 29.6178 244.189 30.2195C242.53 30.8211 240.611 30.9192 238.853 30.4921Z" stroke="#263238" stroke-linecap="round" stroke-linejoin="round"/>
<path d="M139.062 39.7861C152.439 39.7861 163.284 31.8914 163.284 22.1528C163.284 12.4142 152.439 4.51953 139.062 4.51953C125.684 4.51953 114.84 12.4142 114.84 22.1528C114.84 31.8914 125.684 39.7861 139.062 39.7861Z" fill="white" stroke="#263238" stroke-linecap="round" stroke-linejoin="round"/>
<path d="M152.938 22.6037V29.8304C152.938 31.6634 151.33 33.1509 149.359 33.1509H128.765C126.786 33.1509 125.185 31.6634 125.185 29.8304V22.6037C125.185 20.7707 126.794 19.2832 128.765 19.2832H132.152V15.0901H145.827V19.2832H149.335C151.33 19.2832 152.938 20.7707 152.938 22.6037Z" fill="white" stroke="#263238" stroke-linecap="round" stroke-linejoin="round"/>
<path d="M152.93 23.4355H125.185V27.9156H152.93V23.4355Z" fill="#92E3A9" stroke="#263238" stroke-miterlimit="10"/>
<path d="M134.042 10.1826H144.21C145.358 10.1826 146.459 10.5146 147.271 11.1054C148.082 11.6963 148.538 12.4977 148.538 13.3333V16.607H129.706V13.3333C129.706 12.9191 129.818 12.5089 130.036 12.1262C130.254 11.7436 130.574 11.396 130.977 11.1034C131.379 10.8107 131.857 10.5788 132.383 10.4208C132.909 10.2628 133.473 10.1819 134.042 10.1826Z" fill="#92E3A9" stroke="#263238" stroke-miterlimit="10"/>
<path d="M132.996 10.3818V16.6071" stroke="#263238" stroke-linecap="round" stroke-linejoin="round"/>
<path d="M137.445 10.1826V16.607" stroke="#263238" stroke-linecap="round" stroke-linejoin="round"/>
<path d="M141.894 10.1826V16.607" stroke="#263238" stroke-linecap="round" stroke-linejoin="round"/>
<path d="M146.342 10.5459V16.6072" stroke="#263238" stroke-linecap="round" stroke-linejoin="round"/>
<path d="M77.0054 118.55C79.1695 108.94 70.2222 99.8722 57.0211 98.2967C43.8199 96.7213 31.3639 103.235 29.1998 112.845C27.0356 122.455 35.9829 131.523 49.1841 133.099C62.3852 134.674 74.8412 128.161 77.0054 118.55Z" fill="white" stroke="#263238" stroke-linecap="round" stroke-linejoin="round"/>
<path d="M65.3898 120.247C68.028 116.185 64.4005 110.908 57.2876 108.459C50.1746 106.01 42.2697 107.317 39.6314 111.379C36.9932 115.44 40.6207 120.717 47.7336 123.166C54.8466 125.615 62.7515 124.308 65.3898 120.247Z" fill="#92E3A9" stroke="#263238" stroke-linecap="round" stroke-linejoin="round"/>
<path d="M66.2688 118.865C68.7437 115.056 64.9838 109.982 57.8708 107.533C50.7579 105.084 42.9854 106.188 40.5105 109.998C38.0356 113.807 41.7955 118.881 48.9085 121.33C56.0214 123.779 63.7939 122.675 66.2688 118.865Z" fill="#92E3A9" stroke="#263238" stroke-linecap="round" stroke-linejoin="round"/>
<path d="M57.4986 109.218L48.7061 118.219" stroke="#263238" stroke-linecap="round" stroke-linejoin="round"/>
<path d="M52.2056 107.76C53.3839 107.876 54.5448 108.072 55.6727 108.346" stroke="white" stroke-linecap="round" stroke-linejoin="round"/>
<path d="M44.3941 116.234C44.3941 116.234 39.9052 112.656 44.2895 109.207C45.3012 108.456 46.6188 107.963 48.0462 107.801" stroke="white" stroke-linecap="round" stroke-linejoin="round"/>
<path d="M332.146 118.561C334.311 108.95 325.363 99.8825 312.162 98.307C298.961 96.7315 286.505 103.245 284.341 112.855C282.177 122.466 291.124 131.534 304.325 133.109C317.526 134.684 329.982 128.171 332.146 118.561Z" fill="white" stroke="#263238" stroke-linecap="round" stroke-linejoin="round"/>
<path d="M322.145 117.475C321.96 117.669 321.775 117.868 321.582 118.061C317.954 121.721 312.363 125.135 308.22 125.809V125.762C304.198 125.106 298.784 121.856 295.156 118.307C294.955 118.114 294.762 117.915 294.577 117.721C291.085 114.079 289.613 110.255 293.499 108.673C301.398 105.464 308.22 112.345 308.22 112.345C308.22 112.345 315.058 105.517 322.942 108.72C326.722 110.255 325.427 113.921 322.145 117.475Z" fill="#92E3A9" stroke="#263238" stroke-miterlimit="10"/>
<path d="M322.146 117.476C321.96 117.669 321.775 117.868 321.582 118.061H319.587L317.303 120.257L315.75 113.745L313.337 118.173H307.633L304.713 121.716L302.461 114.542L299.557 118.284H295.156C294.955 118.091 294.762 117.891 294.577 117.698H299.09L302.783 112.937L305.051 120.17L307.199 117.563H312.83L316.048 111.567L317.769 118.805L319.177 117.452L322.146 117.476Z" fill="white"/>
<path d="M284.924 81.1022C298.301 81.1022 309.145 73.2075 309.145 63.469C309.145 53.7304 298.301 45.8357 284.924 45.8357C271.546 45.8357 260.702 53.7304 260.702 63.469C260.702 73.2075 271.546 81.1022 284.924 81.1022Z" fill="white" stroke="#263238" stroke-linecap="round" stroke-linejoin="round"/>
<path d="M283.106 55.317C283.339 55.6977 281.883 56.541 279.888 57.2028C277.893 57.8645 276.027 58.0929 275.793 57.7064C275.56 57.3199 277.008 56.4824 279.011 55.8207C281.014 55.1589 282.864 54.9539 283.106 55.317Z" fill="white" stroke="#263238" stroke-linecap="round" stroke-linejoin="round"/>
<path d="M294.006 71.6737L286.758 74.227L280.258 64.4822L275.769 57.7474L283.017 55.1882L287.393 61.759L294.006 71.6737Z" fill="white" stroke="#263238" stroke-linecap="round" stroke-linejoin="round"/>
<path d="M277.112 59.7563L280.258 58.6963Z" fill="#92E3A9"/>
<path d="M277.112 59.7563L280.258 58.6963" stroke="#263238" stroke-linecap="round" stroke-linejoin="round"/>
<path d="M278.48 61.8759L281.625 60.8159Z" fill="#92E3A9"/>
<path d="M278.48 61.8759L281.625 60.8159" stroke="#263238" stroke-linecap="round" stroke-linejoin="round"/>
<path d="M289.533 73.2492L293.274 76.8215L291.408 72.5874L289.533 73.2492Z" fill="white" stroke="#263238" stroke-linecap="round" stroke-linejoin="round"/>
<path d="M294.006 71.6735C292.309 72.9102 290.144 73.7503 287.787 74.0863L286.758 74.2268L280.258 64.482L287.393 61.7588L294.006 71.6735Z" fill="#92E3A9" stroke="#263238" stroke-miterlimit="10"/>
<path d="M281.625 66.3327L284.586 65.3372" stroke="#263238" stroke-linecap="round" stroke-linejoin="round"/>
<path d="M283.25 68.5991L286.155 67.6328Z" fill="#92E3A9"/>
<path d="M283.25 68.5991L286.155 67.6328" stroke="#263238" stroke-linecap="round" stroke-linejoin="round"/>
<path d="M278.279 56.8572L275.986 53.1034L277.788 52.3596L280.258 56.1603L278.279 56.8572Z" fill="white" stroke="#263238" stroke-linecap="round" stroke-linejoin="round"/>
<path d="M282.213 51.9029L281.666 51.0244L272.013 54.1692L272.56 55.0477C272.785 55.4225 275.126 55.0125 277.797 54.1458C280.467 53.2791 282.438 52.2718 282.213 51.9029Z" fill="white" stroke="#263238" stroke-linecap="round" stroke-linejoin="round"/>
<path d="M281.666 51.0243C281.441 50.6554 279.092 51.0595 276.429 51.9262C273.766 52.7929 271.787 53.8002 272.013 54.1691C272.238 54.5381 274.587 54.134 277.25 53.2614C279.912 52.3888 281.891 51.3933 281.666 51.0243Z" fill="white" stroke="#263238" stroke-linecap="round" stroke-linejoin="round"/>
</svg>
