<svg width="336" height="308" viewBox="0 0 336 308" fill="none" xmlns="http://www.w3.org/2000/svg">
<path d="M169.561 206.72C161.311 187.991 162.531 157.317 166.355 154.763C170.562 151.961 177.223 166.34 183.891 162.134C190.56 157.927 195.114 148.804 189.503 134.424C183.891 120.045 176.528 129.515 171.264 133.006C166 136.496 161.794 133.36 162.851 120.733C163.624 111.418 167.256 94.3005 169.115 85.9722C169.952 86.334 170.789 86.6816 171.612 87.0859C155.132 79.3676 136.893 76.9131 129.182 79.3676C121.471 81.8222 122.869 82.5245 126.721 91.6403C134.772 110.659 104.289 117.179 95.5069 102.53C90.2502 93.7614 97.9827 88.8381 95.8758 82.5245C93.7689 76.2108 54.8439 83.5744 49.9349 86.3836C49.9349 86.3836 59.3983 114.76 58.0008 124.961C56.6033 135.162 51.6871 139.695 44.3235 132.325C36.9599 124.954 27.4894 131.615 27.1347 143.902C26.78 156.189 28.8869 165.993 37.3075 163.191C45.7281 160.389 52.3894 150.216 55.1915 163.191C57.9937 176.166 53.0633 192.986 50.2825 204.925C50.2825 204.925 72.3804 214.395 82.5461 213.693C92.7119 212.991 99.0327 212.643 95.8758 206.329C92.719 200.016 87.4552 195.809 91.3143 188.793C95.1735 181.777 110.603 182.479 118.669 184.232C126.735 185.984 130.246 191.95 127.792 198.611C125.337 205.272 121.123 211.941 128.842 213.338C136.113 214.665 154.607 211.622 172.825 205.691C171.746 206.039 170.626 206.379 169.561 206.72Z" stroke="#263238" stroke-miterlimit="10"/>
<path d="M176.173 204.57C175.095 204.939 174.009 205.28 172.931 205.656C174.009 205.301 175.095 204.939 176.173 204.57Z" stroke="#263238" stroke-miterlimit="10"/>
<path d="M304.185 129.161C297.524 129.161 297.169 134.424 290.153 133.375C283.137 132.325 282.442 116.186 289.805 87.7812C289.805 87.7812 281.74 93.7402 263.501 94.0949C245.262 94.4496 237.898 92.3356 242.46 85.6743C247.021 79.013 250.526 73.7492 246.667 68.4926C242.807 63.2359 224.221 63.9311 218.291 68.4926C212.36 73.054 216.538 78.3107 220.745 84.2697C224.952 90.2287 220.036 93.7402 213.027 94.0949C206.018 94.4496 188.127 94.8043 171.64 87.0789C170.817 86.6887 169.98 86.3269 169.143 85.9652C167.284 94.3148 163.652 111.433 162.879 120.726C161.822 133.353 166.029 136.51 171.293 132.999C176.556 129.487 183.92 120.024 189.531 134.417C195.143 148.811 190.581 157.913 183.92 162.127C177.259 166.341 170.562 151.961 166.369 154.763C162.546 157.317 161.325 187.991 169.576 206.72C171.782 206.01 173.988 205.301 176.187 204.592C195.476 197.923 214.765 194.766 218.276 199.328C221.788 203.889 220.405 203.187 215.822 210.203C211.239 217.219 211.608 223.178 219.326 226.682C227.045 230.187 245.979 229.52 247.702 221.426C249.426 213.331 239.636 208.798 244.198 201.08C248.759 193.362 289.096 204.57 289.096 204.57C289.096 204.57 279.98 173.704 283.485 163.531C286.989 153.358 289.805 155.841 295.417 159.672C301.028 163.503 308.392 163.184 311.201 151.961C314.01 140.738 310.846 129.161 304.185 129.161Z" stroke="#263238" stroke-miterlimit="10"/>
<path d="M283.331 54.7768C292.26 50.5621 296.081 39.9075 291.866 30.9791C287.652 22.0508 276.997 18.2296 268.069 22.4443C259.14 26.659 255.319 37.3136 259.534 46.2419C263.748 55.1703 274.403 58.9915 283.331 54.7768Z" fill="#92E3A9" stroke="#263238" stroke-miterlimit="10"/>
<path d="M277.204 53.2609C285.28 52.4321 291.154 45.2137 290.325 37.1382C289.496 29.0626 282.278 23.188 274.203 24.0169C266.127 24.8457 260.252 32.0641 261.081 40.1396C261.91 48.2151 269.129 54.0897 277.204 53.2609Z" fill="white" stroke="#263238" stroke-miterlimit="10"/>
<path d="M280.3 48.3039C285.639 45.7643 287.908 39.3775 285.369 34.0386C282.829 28.6997 276.442 26.4305 271.103 28.9702C265.765 31.5098 263.495 37.8966 266.035 43.2355C268.575 48.5744 274.961 50.8436 280.3 48.3039Z" fill="#92E3A9" stroke="#263238" stroke-miterlimit="10"/>
<path d="M282.456 38.6268C282.456 37.2897 282.059 35.9826 281.316 34.8708C280.574 33.7591 279.518 32.8925 278.282 32.3808C277.047 31.8691 275.688 31.7353 274.376 31.9961C273.065 32.257 271.86 32.9009 270.915 33.8463C269.969 34.7918 269.325 35.9965 269.064 37.3079C268.804 38.6193 268.937 39.9787 269.449 41.214C269.961 42.4493 270.827 43.5052 271.939 44.2481C273.051 44.9909 274.358 45.3874 275.695 45.3874C276.583 45.3884 277.463 45.2141 278.283 44.8747C279.104 44.5353 279.85 44.0373 280.478 43.4094C281.106 42.7814 281.604 42.0358 281.943 41.2151C282.283 40.3944 282.457 39.5149 282.456 38.6268Z" fill="white" stroke="#263238" stroke-miterlimit="10"/>
<path d="M278.831 38.6268C278.832 38.0063 278.649 37.3994 278.306 36.8828C277.962 36.3663 277.473 35.9633 276.9 35.7249C276.327 35.4864 275.696 35.4233 275.088 35.5435C274.479 35.6637 273.92 35.9618 273.48 36.4C273.041 36.8382 272.742 37.3969 272.62 38.0054C272.499 38.6138 272.56 39.2446 272.798 39.818C273.035 40.3913 273.437 40.8815 273.952 41.2263C274.468 41.5712 275.075 41.7553 275.695 41.7553C276.525 41.7553 277.322 41.4259 277.91 40.8394C278.498 40.2529 278.829 39.4572 278.831 38.6268Z" fill="#92E3A9" stroke="#263238" stroke-miterlimit="10"/>
<path d="M276.993 33.7249L275.702 38.6268L280.327 39.6413L276.993 33.7249Z" fill="#263238" stroke="#263238" stroke-miterlimit="10"/>
<path d="M278.966 36.4561L299.304 25.3752" stroke="#263238" stroke-width="2" stroke-miterlimit="10"/>
<path d="M292.778 29.0214L293.083 23.708L302.639 18.2456V24.311L292.778 29.0214Z" fill="#263238" stroke="#263238" stroke-miterlimit="10"/>
<path d="M306.739 27.1982L302.553 24.1123L292.735 29.2697L297.467 32.008L306.739 27.1982Z" fill="#263238" stroke="#263238" stroke-miterlimit="10"/>
<path d="M181.983 39.7119H174.875V56.6383H181.983V39.7119Z" fill="#92E3A9" stroke="#263238" stroke-miterlimit="10"/>
<path d="M192.461 34.583H185.353V56.6383H192.461V34.583Z" fill="#92E3A9" stroke="#263238" stroke-miterlimit="10"/>
<path d="M202.939 39.7119H195.831V56.6383H202.939V39.7119Z" fill="#92E3A9" stroke="#263238" stroke-miterlimit="10"/>
<path d="M213.424 33.4692H206.316V56.6383H213.424V33.4692Z" fill="#92E3A9" stroke="#263238" stroke-miterlimit="10"/>
<path d="M223.902 24.9919H216.793V56.6384H223.902V24.9919Z" fill="#92E3A9" stroke="#263238" stroke-miterlimit="10"/>
<path d="M214.467 11.5842L217.24 12.7689L198.377 30.8729L189.368 25.9567L175.095 34.6327V37.2504L189.425 28.5389L198.746 33.6253L218.787 14.3863L219.858 17.2027L223.824 8.00171L214.467 11.5842Z" fill="#263238" stroke="#263238" stroke-linecap="round" stroke-linejoin="round"/>
<path d="M131.708 55.9279C141.32 53.6717 147.283 44.0506 145.027 34.4387C142.771 24.8268 133.15 18.8638 123.538 21.1201C113.926 23.3763 107.963 32.9973 110.219 42.6092C112.475 52.2212 122.096 58.1841 131.708 55.9279Z" fill="white" stroke="#263238" stroke-miterlimit="10"/>
<path d="M131.157 54.0213C139.713 52.068 145.065 43.5485 143.112 34.9925C141.159 26.4365 132.639 21.0839 124.083 23.0372C115.527 24.9905 110.175 33.51 112.128 42.066C114.081 50.622 122.601 55.9746 131.157 54.0213Z" fill="#92E3A9" stroke="#263238" stroke-miterlimit="10"/>
<path d="M129.808 52.782C137.632 51.5693 142.992 44.243 141.78 36.4183C140.567 28.5936 133.241 23.2335 125.416 24.4463C117.591 25.659 112.231 32.9853 113.444 40.81C114.657 48.6347 121.983 53.9947 129.808 52.782Z" fill="white" stroke="#263238" stroke-miterlimit="10"/>
<path d="M127.401 50.8922V48.615C126.694 48.6375 125.99 48.505 125.34 48.2269C124.689 47.9487 124.107 47.5315 123.634 47.0047C122.797 45.9926 122.348 44.4815 122.287 42.4716L125.741 41.8828C125.753 42.5733 125.838 43.2607 125.997 43.9329C126.09 44.3997 126.314 44.8303 126.642 45.1744C126.786 45.3103 126.955 45.4161 127.141 45.4855C127.326 45.555 127.523 45.5867 127.721 45.5788C127.922 45.6019 128.125 45.5683 128.308 45.4818C128.491 45.3953 128.647 45.2593 128.756 45.0893C128.951 44.7458 129.049 44.356 129.04 43.9613C129.073 43.2096 128.872 42.4662 128.466 41.8331C128.015 41.1985 127.483 40.626 126.884 40.1305L124.805 38.3499C124.352 37.9294 123.928 37.4791 123.535 37.0021C123.153 36.5323 122.851 36.0026 122.641 35.4343C122.407 34.7645 122.294 34.0582 122.308 33.3487C122.275 32.6993 122.374 32.0501 122.6 31.4403C122.825 30.8305 123.173 30.273 123.62 29.8016C124.582 28.9213 125.829 28.4175 127.132 28.3828V26.1411H128.309V28.3261C129.07 28.3378 129.814 28.5428 130.473 28.922C131.003 29.2584 131.438 29.7249 131.736 30.2769C132.034 30.8211 132.249 31.407 132.374 32.015C132.501 32.6181 132.581 33.2299 132.616 33.8452L129.118 34.356C129.11 33.8185 129.06 33.2825 128.969 32.7527C128.919 32.3567 128.768 31.9804 128.529 31.6603C128.407 31.5256 128.255 31.4223 128.084 31.3593C127.914 31.2963 127.731 31.2755 127.55 31.2985C127.346 31.2953 127.143 31.3429 126.961 31.437C126.779 31.5311 126.623 31.6687 126.508 31.8376C126.273 32.1748 126.149 32.5763 126.153 32.9869C126.121 33.6337 126.311 34.272 126.692 34.7958C127.065 35.2703 127.475 35.7139 127.919 36.1224L129.948 37.8817C130.487 38.3728 130.987 38.9041 131.445 39.4708C131.902 40.0476 132.273 40.6881 132.545 41.372C132.835 42.1326 132.977 42.9416 132.963 43.7556C132.974 44.5739 132.792 45.3832 132.431 46.1179C132.081 46.8098 131.552 47.3952 130.899 47.8134C130.195 48.2633 129.391 48.5314 128.558 48.5937V50.8922H127.401Z" fill="#263238"/>
<path d="M69.6847 24.687H36.4917V55.8936H69.6847V24.687Z" fill="white" stroke="#263238" stroke-miterlimit="10"/>
<path d="M69.6847 24.687H36.4917V32.7104H69.6847V24.687Z" fill="#92E3A9" stroke="#263238" stroke-linecap="round" stroke-linejoin="round"/>
<path d="M43.1602 37.1655H39.1875V41.1382H43.1602V37.1655Z" fill="#92E3A9" stroke="#263238" stroke-linecap="round" stroke-linejoin="round"/>
<path d="M49.1191 37.1655H45.1465V41.1382H49.1191V37.1655Z" fill="#92E3A9" stroke="#263238" stroke-linecap="round" stroke-linejoin="round"/>
<path d="M55.0708 37.1655H51.0981V41.1382H55.0708V37.1655Z" fill="#92E3A9" stroke="#263238" stroke-linecap="round" stroke-linejoin="round"/>
<path d="M61.0298 37.1655H57.0571V41.1382H61.0298V37.1655Z" fill="#92E3A9" stroke="#263238" stroke-linecap="round" stroke-linejoin="round"/>
<path d="M66.9888 37.1655H63.0161V41.1382H66.9888V37.1655Z" fill="#92E3A9" stroke="#263238" stroke-linecap="round" stroke-linejoin="round"/>
<path d="M43.1602 43.4082H39.1875V47.3809H43.1602V43.4082Z" fill="#92E3A9" stroke="#263238" stroke-linecap="round" stroke-linejoin="round"/>
<path d="M49.1191 43.4082H45.1465V47.3809H49.1191V43.4082Z" fill="#92E3A9" stroke="#263238" stroke-linecap="round" stroke-linejoin="round"/>
<path d="M55.0708 43.4082H51.0981V47.3809H55.0708V43.4082Z" fill="#92E3A9" stroke="#263238" stroke-linecap="round" stroke-linejoin="round"/>
<path d="M61.0298 43.4082H57.0571V47.3809H61.0298V43.4082Z" fill="#92E3A9" stroke="#263238" stroke-linecap="round" stroke-linejoin="round"/>
<path d="M66.9888 43.4082H63.0161V47.3809H66.9888V43.4082Z" fill="#92E3A9" stroke="#263238" stroke-linecap="round" stroke-linejoin="round"/>
<path d="M43.1602 49.6509H39.1875V53.6235H43.1602V49.6509Z" fill="#92E3A9" stroke="#263238" stroke-linecap="round" stroke-linejoin="round"/>
<path d="M49.1191 49.6509H45.1465V53.6235H49.1191V49.6509Z" fill="#92E3A9" stroke="#263238" stroke-linecap="round" stroke-linejoin="round"/>
<path d="M55.0708 49.6509H51.0981V53.6235H55.0708V49.6509Z" fill="#92E3A9" stroke="#263238" stroke-linecap="round" stroke-linejoin="round"/>
<path d="M61.0298 49.6509H57.0571V53.6235H61.0298V49.6509Z" fill="#92E3A9" stroke="#263238" stroke-linecap="round" stroke-linejoin="round"/>
<path d="M66.9888 49.6509H63.0161V53.6235H66.9888V49.6509Z" fill="#92E3A9" stroke="#263238" stroke-linecap="round" stroke-linejoin="round"/>
<path d="M43.8694 19.5793H41.0317V27.2409H43.8694V19.5793Z" fill="#263238"/>
<path d="M50.9636 19.5793H48.126V27.2409H50.9636V19.5793Z" fill="#263238"/>
<path d="M58.0505 19.5793H55.2129V27.2409H58.0505V19.5793Z" fill="#263238"/>
<path d="M65.1443 19.5793H62.3066V27.2409H65.1443V19.5793Z" fill="#263238"/>
<path d="M7.62606 257.797C9.16547 258.471 12.9324 258.386 12.9324 258.386C12.9324 258.386 12.1237 255.924 12.0527 255.775C11.2227 254.044 8.61213 251.192 6.48393 251.476C6.13201 251.534 5.79621 251.665 5.49837 251.861C5.20053 252.057 4.94733 252.314 4.75527 252.615C4.5632 252.915 4.43657 253.253 4.38362 253.605C4.33067 253.958 4.35258 254.318 4.44794 254.661C4.80264 256.13 6.31367 257.229 7.62606 257.797Z" fill="#92E3A9"/>
<path d="M8.9241 268.715C10.5203 268.942 13.8899 267.97 14.1524 267.892C14.7036 269.815 15.3838 271.699 16.1884 273.531C16.6495 274.603 17.1532 275.66 17.6639 276.731C17.3589 276.277 17.0822 275.88 17.0326 275.83C15.784 274.376 12.5066 272.283 10.5344 273.155C10.2099 273.303 9.9201 273.517 9.68401 273.784C9.44792 274.051 9.27085 274.365 9.16438 274.705C9.05791 275.045 9.02445 275.404 9.06617 275.758C9.10789 276.112 9.22386 276.453 9.4065 276.759C10.1159 278.086 11.8823 278.746 13.3011 278.951C14.7199 279.157 17.6214 278.391 18.3804 278.171C18.5791 278.575 18.7777 278.987 18.9834 279.391C19.9553 281.328 20.9343 283.257 21.821 285.18C22.1403 285.854 22.4311 286.535 22.722 287.216C22.4453 286.811 22.2183 286.506 22.1758 286.435C20.9201 285.017 17.6427 282.924 15.6705 283.761C15.3477 283.911 15.06 284.128 14.826 284.396C14.592 284.664 14.4168 284.979 14.3119 285.319C14.2069 285.659 14.1745 286.018 14.2167 286.371C14.2588 286.725 14.3747 287.066 14.5568 287.372C15.2662 288.698 17.0397 289.351 18.4514 289.557C19.8631 289.763 22.495 289.067 23.4172 288.847C23.6939 289.557 23.9705 290.266 24.2117 290.976C24.3607 291.451 24.5452 291.905 24.6658 292.394C24.7864 292.884 24.9353 293.345 25.063 293.813C25.2829 294.728 25.517 295.672 25.7086 296.573C25.8505 297.197 25.9711 297.8 26.0917 298.396C25.7795 297.722 25.1481 296.41 25.0843 296.303C24.0628 294.679 21.14 292.146 19.0615 292.671C18.7243 292.77 18.4111 292.937 18.1416 293.162C17.8721 293.388 17.6521 293.666 17.4956 293.981C17.339 294.295 17.2492 294.639 17.2318 294.99C17.2143 295.34 17.2697 295.691 17.3944 296.02C17.9122 297.438 19.5226 298.361 20.9414 298.779C22.4453 299.233 25.7795 298.815 26.1981 298.779C26.3967 299.779 26.5811 300.751 26.7443 301.666C27.099 303.702 27.3686 305.518 27.5743 307.058H28.9931C28.7448 305.462 28.4256 303.568 28 301.439C27.8013 300.425 27.5672 299.347 27.2905 298.24C28.2962 297.838 29.2769 297.376 30.2275 296.857C31.327 298.048 34.1363 299.439 34.4839 299.616C34.1008 300.56 33.7177 301.475 33.3418 302.326C32.5614 304.121 31.8236 305.71 31.171 307.058H32.6962C33.2566 305.809 33.8738 304.39 34.5123 302.801C34.9095 301.844 35.3068 300.815 35.7112 299.758C36.1155 299.843 39.4142 300.51 40.9536 300.162C42.3725 299.85 44.0395 299.063 44.6709 297.68C44.8277 297.359 44.9152 297.008 44.9278 296.651C44.9403 296.294 44.8777 295.939 44.7439 295.608C44.6101 295.276 44.4081 294.977 44.1511 294.729C43.8941 294.481 43.5878 294.29 43.2521 294.168C41.2161 293.459 38.116 295.8 36.9739 297.339C36.91 297.431 36.2645 298.495 35.9098 299.176C36.073 298.744 36.2361 298.325 36.3922 297.878C36.7185 296.991 37.0165 296.098 37.3428 295.14L37.7684 293.721C37.9174 293.246 38.0167 292.735 38.1515 292.231C38.4282 291.075 38.6481 289.883 38.8609 288.684C39.6413 288.968 42.4079 289.933 43.8267 289.826C45.2455 289.72 47.0474 289.202 47.8703 287.932C48.0761 287.641 48.2181 287.309 48.2868 286.959C48.3555 286.609 48.3495 286.248 48.2691 285.901C48.1888 285.553 48.0359 285.226 47.8204 284.942C47.605 284.658 47.3319 284.422 47.019 284.251C45.1107 283.272 41.6914 285.081 40.3365 286.435C40.2513 286.521 39.3859 287.599 38.9177 288.202C39.0312 287.492 39.1518 286.783 39.244 286.017C39.5065 283.889 39.7051 281.725 39.9534 279.568C40.0172 278.909 40.0882 278.249 40.1591 277.589C40.4358 277.696 43.7061 278.909 45.3094 278.802C46.7282 278.696 48.523 278.178 49.353 276.908C49.5577 276.616 49.6987 276.285 49.7668 275.935C49.8349 275.585 49.8286 275.225 49.7483 274.877C49.668 274.53 49.5155 274.204 49.3008 273.919C49.086 273.635 48.8137 273.399 48.5017 273.226C46.5934 272.24 43.1741 274.049 41.812 275.404C41.7127 275.504 40.4713 277.064 40.1733 277.476C40.3223 276.021 40.4925 274.581 40.7125 273.163C41.0042 271.247 41.4165 269.351 41.9468 267.487C42.0745 267.537 45.4938 268.821 47.1255 268.707C48.5443 268.608 50.3461 268.083 51.169 266.813C51.3738 266.522 51.5148 266.19 51.5829 265.84C51.651 265.49 51.6447 265.13 51.5644 264.783C51.4841 264.435 51.3316 264.109 51.1168 263.824C50.902 263.54 50.6298 263.304 50.3178 263.132C48.4095 262.146 44.9901 263.962 43.6352 265.309C43.5288 265.416 42.2164 267.09 41.9681 267.438C41.9681 267.331 42.0248 267.218 42.0532 267.111C42.6408 265.26 43.3934 263.465 44.302 261.748C44.7844 260.791 45.3094 259.904 45.8343 259.06C46.4444 259.365 49.2395 260.72 50.7363 260.783C52.2332 260.847 53.9996 260.514 54.9927 259.365C55.229 259.097 55.4061 258.783 55.5124 258.442C55.6188 258.102 55.6519 257.743 55.6097 257.388C55.5675 257.034 55.4509 256.692 55.2676 256.386C55.0842 256.08 54.8383 255.816 54.5458 255.612C52.7581 254.42 49.1614 255.853 47.6646 257.031C47.5795 257.095 46.8275 257.847 46.2884 258.4C46.5296 258.024 46.7708 257.627 46.9978 257.265C47.8916 255.917 48.7996 254.732 49.6084 253.718C50.0766 253.129 50.5093 252.611 50.9208 252.122C51.6727 252.122 54.709 252.015 56.0356 251.412C57.3621 250.809 58.8164 249.674 59.1285 248.192C59.2145 247.845 59.2264 247.484 59.1635 247.133C59.1005 246.781 58.9642 246.447 58.7634 246.152C58.5626 245.857 58.3017 245.607 57.998 245.419C57.6942 245.232 57.3542 245.11 57.0003 245.063C54.8721 244.836 52.3325 247.759 51.5521 249.511C51.4883 249.66 50.7079 252.15 50.7434 252.15H50.7363C50.332 252.611 49.8992 253.108 49.4452 253.661C48.6081 254.683 47.6788 255.853 46.7495 257.208C45.7143 258.637 44.7667 260.127 43.9119 261.67C42.9562 263.388 42.1561 265.187 41.5212 267.047V267.118C41.5212 266.487 41.5212 264.728 41.5212 264.593C41.2729 262.692 39.6767 259.166 37.5698 258.776C37.2173 258.721 36.8572 258.74 36.5128 258.834C36.1685 258.927 35.8477 259.092 35.5712 259.317C35.2948 259.543 35.069 259.824 34.9086 260.143C34.7481 260.461 34.6566 260.81 34.64 261.167C34.5194 262.678 35.6118 264.189 36.6759 265.139C37.8819 266.217 41.2232 267.267 41.4928 267.338C40.8902 269.248 40.4162 271.196 40.074 273.17C39.8683 274.319 39.698 275.482 39.5419 276.646C39.5419 276.107 39.5419 275.617 39.5419 275.553C39.2936 273.652 37.6975 270.126 35.5906 269.736C35.2387 269.681 34.8791 269.7 34.5352 269.793C34.1913 269.886 33.8708 270.05 33.5945 270.275C33.3182 270.5 33.0923 270.78 32.9314 271.098C32.7706 271.416 32.6783 271.764 32.6607 272.12C32.5401 273.631 33.6326 275.142 34.6967 276.099C35.7608 277.057 38.6126 278.008 39.3646 278.228L39.1943 279.576C38.9389 281.704 38.6906 283.875 38.3856 285.96C38.2792 286.67 38.1444 287.422 38.0096 288.152C38.0096 287.67 38.0096 287.258 38.0096 287.202C37.7613 285.3 36.1723 281.768 34.0583 281.377C33.7059 281.323 33.3462 281.344 33.0023 281.438C32.6585 281.531 32.3381 281.696 32.0619 281.922C31.7858 282.147 31.56 282.428 31.3992 282.746C31.2384 283.064 31.1461 283.412 31.1284 283.768C31.0078 285.279 32.1003 286.79 33.1715 287.741C34.2427 288.691 36.8036 289.564 37.6975 289.869C37.5414 290.578 37.3853 291.345 37.2009 292.061C37.0661 292.536 36.9668 293.012 36.8036 293.48C36.6405 293.948 36.4986 294.43 36.3496 294.899C36.0233 295.785 35.697 296.701 35.3636 297.559L34.6542 299.29C34.7677 298.58 34.9663 297.112 34.9663 296.984C34.9403 295.3 34.4863 293.649 33.6468 292.189C33.6609 292.002 33.6609 291.815 33.6468 291.628C33.598 291.277 33.4764 290.94 33.2899 290.639C33.1033 290.337 32.8559 290.078 32.5634 289.878C32.2709 289.677 31.9399 289.54 31.5914 289.475C31.2429 289.41 30.8846 289.419 30.5396 289.5C28.4682 290.053 27.1487 293.693 27.0493 295.608C27.0493 295.722 27.1203 296.956 27.177 297.736C27.0777 297.282 26.9784 296.849 26.8649 296.381C26.645 295.466 26.4038 294.558 26.1555 293.579C26.0136 293.111 25.8646 292.636 25.7228 292.16C25.5809 291.685 25.3893 291.196 25.2191 290.706C24.8147 289.585 24.3394 288.471 23.8428 287.358C24.6445 287.166 27.4892 286.443 28.6242 285.563C29.7593 284.683 30.9653 283.264 30.9582 281.753C30.9672 281.397 30.9012 281.042 30.7646 280.713C30.6279 280.383 30.4235 280.086 30.1647 279.841C29.9058 279.595 29.5984 279.407 29.2621 279.288C28.9259 279.169 28.5684 279.122 28.2128 279.15C26.0846 279.384 24.2259 282.782 23.8428 284.662C23.8428 284.775 23.6939 286.152 23.6371 286.911C23.3321 286.244 23.027 285.577 22.7007 284.91C21.743 282.995 20.7215 281.079 19.707 279.164L18.7848 277.405C19.0757 277.334 22.4666 276.546 23.7506 275.567C24.8928 274.695 26.0917 273.269 26.0846 271.758C26.0936 271.401 26.0276 271.047 25.891 270.717C25.7543 270.388 25.5499 270.091 25.2911 269.845C25.0322 269.6 24.7248 269.412 24.3885 269.293C24.0523 269.174 23.6948 269.126 23.3392 269.154C21.211 269.389 19.3523 272.787 18.9692 274.666C18.9692 274.808 18.7564 276.795 18.7422 277.298C18.0328 276 17.4086 274.709 16.8127 273.404C15.9841 271.649 15.2731 269.84 14.6845 267.991C14.8192 267.991 18.3663 267.154 19.6503 266.154C20.7853 265.281 21.9913 263.855 21.9771 262.344C21.9872 261.988 21.9222 261.634 21.7863 261.304C21.6504 260.975 21.4467 260.677 21.1884 260.432C20.9301 260.186 20.6231 259.998 20.2872 259.879C19.9513 259.76 19.5941 259.713 19.2388 259.741C17.1106 259.975 15.252 263.373 14.8618 265.246C14.8618 265.395 14.6419 267.53 14.6348 267.92L14.5213 267.594C13.9939 265.725 13.6308 263.815 13.4359 261.883C13.3153 260.819 13.2656 259.79 13.2302 258.797C13.9396 258.712 16.9971 258.301 18.274 257.527C19.551 256.754 20.8492 255.498 21.0052 253.98C21.0542 253.627 21.0282 253.267 20.929 252.925C20.8298 252.582 20.6595 252.265 20.4293 251.992C20.1991 251.72 19.9141 251.499 19.5928 251.344C19.2716 251.189 18.9214 251.104 18.5649 251.093C16.4367 251.093 14.2092 254.264 13.5991 256.059C13.5991 256.158 13.3508 257.201 13.2089 257.967C13.2089 257.513 13.2089 257.052 13.2089 256.619C13.2089 254.995 13.3153 253.505 13.4146 252.193C13.4785 251.483 13.5494 250.774 13.6274 250.142C14.2446 249.717 16.7275 247.965 17.4937 246.709C18.2598 245.453 18.8486 243.722 18.2882 242.318C18.1677 241.983 17.9783 241.678 17.7321 241.422C17.4859 241.166 17.1886 240.964 16.8594 240.83C16.5302 240.696 16.1765 240.633 15.8214 240.645C15.4662 240.657 15.1175 240.743 14.798 240.899C12.8897 241.885 12.386 245.723 12.6698 247.61C12.6698 247.773 13.4217 250.284 13.4501 250.263H13.4927C13.4075 250.866 13.3224 251.519 13.2515 252.228C13.1167 253.548 12.9819 255.03 12.9464 256.662C12.8863 258.417 12.9266 260.175 13.067 261.926C13.2226 263.885 13.5502 265.827 14.046 267.729V267.799C13.7055 267.267 12.7123 265.82 12.6272 265.714C11.3715 264.295 8.0941 262.202 6.12196 263.039C5.81941 263.192 5.55049 263.404 5.33107 263.662C5.11164 263.921 4.94615 264.22 4.84434 264.544C4.74252 264.867 4.70645 265.207 4.73825 265.545C4.77005 265.882 4.86907 266.21 5.02948 266.508C5.76017 267.849 7.5053 268.502 8.9241 268.715Z" fill="#92E3A9"/>
<path d="M45.728 258.627C45.728 258.627 46.4374 256.123 46.4374 255.96C46.707 254.066 46.0969 250.242 44.1674 249.305C43.8422 249.158 43.4897 249.082 43.1329 249.08C42.776 249.079 42.423 249.153 42.0968 249.298C41.7706 249.442 41.4787 249.654 41.2401 249.92C41.0016 250.185 40.8218 250.498 40.7126 250.838C40.1947 252.257 40.8474 254.009 41.6277 255.208C42.5357 256.619 45.721 258.627 45.728 258.627Z" fill="#92E3A9"/>
<path d="M269.474 257.797C271.013 258.471 274.78 258.386 274.78 258.386C274.78 258.386 273.971 255.924 273.9 255.775C273.07 254.044 270.46 251.192 268.332 251.476C267.98 251.534 267.644 251.665 267.346 251.861C267.048 252.057 266.795 252.314 266.603 252.615C266.411 252.915 266.284 253.253 266.231 253.605C266.178 253.958 266.2 254.318 266.296 254.661C266.65 256.13 268.161 257.229 269.474 257.797Z" fill="#92E3A9"/>
<path d="M270.772 268.715C272.368 268.942 275.738 267.97 276 267.892C276.555 269.814 277.235 271.698 278.036 273.532C278.497 274.603 279.001 275.66 279.512 276.731C279.207 276.277 278.93 275.88 278.88 275.83C277.632 274.376 274.354 272.283 272.382 273.156C272.058 273.303 271.768 273.517 271.532 273.784C271.296 274.051 271.119 274.365 271.012 274.705C270.906 275.045 270.872 275.404 270.914 275.758C270.956 276.112 271.072 276.453 271.254 276.759C271.964 278.086 273.73 278.746 275.149 278.951C276.568 279.157 279.469 278.391 280.228 278.171C280.427 278.575 280.625 278.987 280.831 279.391C281.803 281.328 282.782 283.257 283.669 285.18C283.988 285.854 284.279 286.535 284.57 287.216C284.293 286.812 284.066 286.507 284.024 286.436C282.768 285.017 279.498 282.924 277.518 283.761C277.194 283.91 276.905 284.125 276.67 284.393C276.434 284.661 276.258 284.975 276.151 285.316C276.045 285.656 276.011 286.015 276.052 286.369C276.094 286.723 276.209 287.065 276.39 287.372C277.1 288.699 278.873 289.351 280.285 289.557C281.697 289.763 284.329 289.067 285.251 288.848C285.527 289.557 285.811 290.266 286.045 290.976C286.194 291.451 286.379 291.905 286.499 292.395C286.62 292.884 286.769 293.345 286.897 293.813C287.116 294.729 287.351 295.672 287.542 296.573C287.684 297.197 287.805 297.8 287.925 298.396C287.613 297.722 286.982 296.41 286.918 296.303C285.896 294.679 282.974 292.146 280.895 292.671C280.552 292.77 280.234 292.939 279.961 293.168C279.688 293.397 279.466 293.681 279.31 294.001C279.153 294.322 279.066 294.671 279.053 295.027C279.04 295.384 279.102 295.739 279.235 296.069C279.753 297.488 281.363 298.41 282.782 298.829C284.286 299.283 287.62 298.864 288.039 298.829C288.237 299.829 288.422 300.801 288.585 301.716C288.94 303.752 289.209 305.568 289.415 307.108H290.834C290.585 305.511 290.266 303.617 289.841 301.489C289.642 300.475 289.408 299.396 289.131 298.29C290.137 297.887 291.118 297.426 292.068 296.906C293.168 298.098 295.977 299.489 296.325 299.666C295.941 300.609 295.558 301.525 295.182 302.376C294.402 304.171 293.664 305.76 293.012 307.108H294.537C295.097 305.859 295.714 304.44 296.353 302.851C296.75 301.894 297.147 300.865 297.552 299.808C297.956 299.893 301.255 300.56 302.794 300.212C304.213 299.9 305.88 299.113 306.512 297.729C306.668 297.408 306.756 297.058 306.768 296.701C306.781 296.344 306.718 295.989 306.585 295.657C306.451 295.326 306.249 295.027 305.992 294.779C305.735 294.531 305.428 294.34 305.093 294.218C303.057 293.508 299.957 295.849 298.815 297.389C298.751 297.481 298.105 298.545 297.75 299.226C297.914 298.793 298.077 298.375 298.24 297.928C298.559 297.041 298.857 296.147 299.183 295.19L299.609 293.771C299.758 293.296 299.857 292.785 299.992 292.281C300.269 291.125 300.489 289.933 300.702 288.734C301.482 289.018 304.249 289.983 305.667 289.876C307.086 289.77 308.888 289.252 309.711 287.982C309.917 287.691 310.059 287.359 310.127 287.009C310.196 286.659 310.19 286.298 310.11 285.951C310.029 285.603 309.877 285.276 309.661 284.992C309.446 284.707 309.173 284.472 308.86 284.3C306.951 283.321 303.532 285.13 302.177 286.485C302.092 286.57 301.227 287.649 300.758 288.252C300.872 287.542 300.992 286.833 301.085 286.067C301.347 283.939 301.546 281.775 301.759 279.618C301.822 278.959 301.893 278.299 301.964 277.639C302.241 277.745 305.511 278.959 307.115 278.852C308.533 278.746 310.328 278.228 311.158 276.958C311.363 276.666 311.504 276.335 311.572 275.985C311.64 275.635 311.634 275.275 311.554 274.927C311.473 274.58 311.321 274.253 311.106 273.969C310.891 273.685 310.619 273.449 310.307 273.276C308.399 272.29 304.979 274.099 303.617 275.454C303.518 275.553 302.276 277.114 301.978 277.526C302.127 276.071 302.298 274.631 302.518 273.212C302.809 271.297 303.222 269.401 303.752 267.537C303.88 267.587 307.299 268.871 308.931 268.757C310.349 268.658 312.151 268.133 312.974 266.863C313.179 266.571 313.32 266.24 313.388 265.89C313.456 265.54 313.45 265.18 313.37 264.832C313.289 264.485 313.137 264.159 312.922 263.874C312.707 263.59 312.435 263.354 312.123 263.181C310.215 262.195 306.795 264.011 305.44 265.359C305.334 265.466 304.022 267.14 303.773 267.487C303.773 267.381 303.83 267.268 303.858 267.161C304.446 265.31 305.199 263.515 306.107 261.798C306.59 260.84 307.115 259.954 307.64 259.109C308.25 259.414 311.045 260.769 312.541 260.833C314.038 260.897 315.805 260.564 316.798 259.414C317.034 259.147 317.211 258.833 317.318 258.492C317.424 258.152 317.457 257.792 317.415 257.438C317.373 257.084 317.256 256.742 317.073 256.436C316.889 256.13 316.643 255.866 316.351 255.662C314.563 254.47 310.967 255.903 309.47 257.081C309.392 257.144 308.633 257.896 308.094 258.45C308.335 258.074 308.576 257.676 308.803 257.315C309.704 255.967 310.605 254.782 311.414 253.768C311.882 253.179 312.314 252.661 312.726 252.171C313.478 252.171 316.514 252.065 317.841 251.462C319.167 250.859 320.622 249.724 320.934 248.241C321.02 247.895 321.032 247.534 320.969 247.183C320.906 246.831 320.769 246.497 320.569 246.202C320.368 245.906 320.107 245.657 319.803 245.469C319.499 245.282 319.159 245.16 318.806 245.113C316.677 244.886 314.131 247.809 313.35 249.561C313.286 249.71 312.506 252.2 312.541 252.2H312.591C312.187 252.661 311.754 253.158 311.3 253.711C310.463 254.732 309.534 255.903 308.604 257.258C307.581 258.687 306.646 260.178 305.802 261.72C304.846 263.438 304.046 265.237 303.411 267.097C303.415 267.121 303.415 267.145 303.411 267.168C303.411 266.537 303.411 264.778 303.411 264.643C303.163 262.742 301.567 259.216 299.46 258.826C299.108 258.77 298.748 258.79 298.403 258.883C298.059 258.977 297.738 259.141 297.462 259.367C297.185 259.593 296.959 259.874 296.799 260.192C296.638 260.511 296.547 260.86 296.53 261.216C296.41 262.727 297.502 264.238 298.566 265.189C299.772 266.267 303.114 267.317 303.383 267.388C302.781 269.298 302.307 271.246 301.964 273.219C301.759 274.369 301.588 275.532 301.432 276.695C301.432 276.156 301.432 275.667 301.432 275.603C301.184 273.702 299.588 270.176 297.481 269.786C297.129 269.731 296.769 269.75 296.426 269.843C296.082 269.936 295.761 270.1 295.485 270.325C295.209 270.55 294.983 270.83 294.822 271.148C294.661 271.466 294.569 271.814 294.551 272.17C294.43 273.681 295.523 275.192 296.587 276.149C297.651 277.107 300.503 278.058 301.255 278.277C301.205 278.724 301.141 279.171 301.085 279.625C300.829 281.754 300.581 283.924 300.276 286.01C300.17 286.719 300.035 287.471 299.9 288.202C299.9 287.72 299.9 287.308 299.9 287.251C299.652 285.35 298.063 281.817 295.949 281.427C295.596 281.373 295.237 281.394 294.893 281.487C294.549 281.581 294.228 281.746 293.952 281.971C293.676 282.197 293.45 282.477 293.289 282.796C293.129 283.114 293.036 283.462 293.019 283.818C292.898 285.329 293.991 286.84 295.062 287.791C296.133 288.741 298.701 289.614 299.588 289.919C299.432 290.628 299.276 291.394 299.091 292.111C298.956 292.586 298.857 293.061 298.694 293.53C298.531 293.998 298.389 294.48 298.24 294.948C297.914 295.835 297.587 296.75 297.254 297.609L296.544 299.34C296.658 298.63 296.857 297.162 296.857 297.034C296.834 295.349 296.38 293.698 295.537 292.239C295.539 292.051 295.528 291.864 295.502 291.678C295.453 291.327 295.331 290.99 295.145 290.688C294.958 290.387 294.711 290.128 294.418 289.927C294.126 289.727 293.795 289.59 293.446 289.525C293.098 289.46 292.739 289.469 292.394 289.55C290.323 290.103 289.004 293.742 288.904 295.658C288.904 295.771 288.975 297.006 289.032 297.786C288.933 297.332 288.833 296.899 288.72 296.431C288.5 295.516 288.259 294.608 288.01 293.629C287.868 293.161 287.719 292.685 287.578 292.21C287.436 291.735 287.244 291.245 287.074 290.756C286.67 289.635 286.194 288.521 285.698 287.407C286.499 287.216 289.344 286.492 290.479 285.613C291.614 284.733 292.82 283.314 292.813 281.803C292.822 281.447 292.756 281.092 292.619 280.763C292.483 280.433 292.278 280.136 292.02 279.891C291.761 279.645 291.453 279.457 291.117 279.338C290.781 279.219 290.423 279.172 290.068 279.2C287.939 279.434 286.081 282.832 285.698 284.712C285.698 284.825 285.549 286.201 285.492 286.961C285.187 286.294 284.882 285.627 284.556 284.96C283.598 283.045 282.576 281.129 281.562 279.214L280.64 277.455C280.93 277.384 284.321 276.596 285.605 275.617C286.748 274.745 287.946 273.319 287.939 271.808C287.948 271.451 287.882 271.097 287.746 270.767C287.609 270.438 287.405 270.141 287.146 269.895C286.887 269.65 286.58 269.461 286.243 269.342C285.907 269.223 285.55 269.176 285.194 269.204C283.066 269.438 281.207 272.836 280.824 274.716C280.824 274.858 280.611 276.844 280.597 277.348C279.923 276.05 279.263 274.759 278.667 273.454C277.851 271.698 277.152 269.889 276.575 268.041C276.71 268.041 280.257 267.204 281.541 266.203C282.676 265.331 283.882 263.905 283.867 262.394C283.877 262.038 283.812 261.683 283.677 261.354C283.541 261.024 283.337 260.727 283.079 260.482C282.82 260.236 282.513 260.048 282.177 259.929C281.842 259.809 281.484 259.762 281.129 259.79C279.001 260.025 277.142 263.423 276.752 265.295C276.752 265.444 276.532 267.58 276.525 267.97L276.412 267.644C275.884 265.775 275.521 263.864 275.326 261.933C275.213 260.869 275.156 259.84 275.12 258.847C275.83 258.762 278.887 258.35 280.164 257.577C281.441 256.804 282.739 255.548 282.896 254.03C282.945 253.677 282.919 253.317 282.819 252.975C282.72 252.632 282.55 252.314 282.32 252.042C282.089 251.77 281.804 251.549 281.483 251.394C281.162 251.239 280.812 251.153 280.455 251.143C278.327 251.143 276.099 254.314 275.489 256.109C275.489 256.208 275.241 257.251 275.099 258.017C275.099 257.563 275.099 257.102 275.099 256.669C275.099 255.045 275.206 253.555 275.305 252.242C275.369 251.533 275.44 250.824 275.518 250.192C276.135 249.767 278.618 248.014 279.384 246.759C280.15 245.503 280.739 243.772 280.179 242.367C280.058 242.033 279.869 241.728 279.622 241.472C279.376 241.215 279.079 241.014 278.75 240.88C278.42 240.746 278.067 240.683 277.712 240.695C277.357 240.707 277.008 240.793 276.688 240.949C274.78 241.935 274.276 245.773 274.596 247.66C274.596 247.823 275.305 250.334 275.376 250.313H275.411C275.326 250.916 275.241 251.568 275.17 252.278C275.035 253.597 274.901 255.08 274.865 256.712C274.805 258.467 274.845 260.225 274.986 261.975C275.141 263.935 275.469 265.876 275.965 267.778V267.849C275.624 267.317 274.631 265.87 274.546 265.764C273.29 264.345 270.013 262.252 268.041 263.089C267.716 263.237 267.426 263.452 267.19 263.72C266.954 263.988 266.777 264.302 266.67 264.643C266.564 264.983 266.53 265.343 266.572 265.697C266.614 266.052 266.73 266.393 266.913 266.7C267.608 267.849 269.353 268.502 270.772 268.715Z" fill="#92E3A9"/>
<path d="M307.576 258.627C307.576 258.627 308.285 256.123 308.285 255.96C308.555 254.066 307.945 250.242 306.015 249.305C305.69 249.158 305.337 249.082 304.981 249.08C304.624 249.079 304.271 249.153 303.944 249.298C303.618 249.442 303.326 249.654 303.088 249.92C302.849 250.185 302.669 250.498 302.56 250.838C302.042 252.257 302.695 254.009 303.475 255.208C304.383 256.619 307.54 258.627 307.576 258.627Z" fill="#92E3A9"/>
<path d="M239.672 110.135C239.672 110.135 239.892 102.125 244.51 99.8553C249.128 97.5852 249.391 105.084 249.391 105.084C249.391 105.084 259.954 98.3727 262.245 103.459C264.537 108.545 261.337 111.007 261.337 111.007C261.337 111.007 270.715 110.681 271.368 115.824C272.021 120.967 267.176 123.486 267.176 123.486C267.176 123.486 272.971 128.217 270.935 130.402C268.899 132.587 264.444 132.743 264.444 132.743C264.444 132.743 266.97 137.815 262.564 139.617C258.159 141.419 253.122 138.064 253.122 138.064C253.122 138.064 253.903 140.391 250.597 139.802C247.291 139.213 243.95 137.674 241.899 132.821C239.849 127.969 237.203 114.228 239.672 110.135Z" fill="#263238" stroke="#263238" stroke-linecap="round" stroke-linejoin="round"/>
<path d="M190.907 264.82C190.907 264.82 188.275 274.865 188.318 275.979C188.361 277.093 187.445 279.618 188.219 280.334C189.666 281.515 191.2 282.584 192.809 283.534C193.464 283.525 194.104 283.331 194.653 282.973C194.831 282.814 194.973 282.619 195.072 282.402C195.171 282.185 195.224 281.949 195.228 281.711C195.228 281.335 194.171 279.76 194.029 279.391C193.887 279.022 195.965 274.219 196.753 271.829C197.343 269.694 197.765 267.517 198.016 265.316L190.907 264.82Z" fill="#BDBDBD" stroke="#263238" stroke-miterlimit="10"/>
<path d="M193.767 271.814C193.767 271.814 192.27 275.361 192.17 275.972C192.071 276.582 190.042 278.284 190.312 279.646C190.581 281.008 193.575 280.647 195.051 276.617" fill="#BDBDBD"/>
<path d="M193.767 271.814C193.767 271.814 192.27 275.361 192.17 275.972C192.071 276.582 190.042 278.284 190.312 279.646C190.581 281.008 193.575 280.647 195.051 276.617" stroke="#263238" stroke-miterlimit="10"/>
<path d="M200.47 210.253C200.47 210.253 199.215 230.74 198.739 232.549C198.264 234.358 192.56 250.88 191.305 255.96C190.535 259.105 189.987 262.3 189.666 265.522L197.32 267.133L201.619 248.248C201.619 248.248 207.238 231.038 206.096 222.972C205.51 218.272 203.554 213.848 200.47 210.253Z" fill="#92E3A9" stroke="#263238" stroke-miterlimit="10"/>
<path d="M240.346 307.036C240.438 302.581 240.622 296.573 241.055 293.132C241.764 287.187 244.304 283.513 246.915 276.106C249.525 268.7 249.752 258.967 249.752 258.967L203.003 260.599C203.003 260.599 197.583 280.696 194.298 295.48C193.406 299.273 192.886 303.143 192.745 307.036" fill="#92E3A9"/>
<path d="M240.346 307.036C240.438 302.581 240.622 296.573 241.055 293.132C241.764 287.187 244.304 283.513 246.915 276.106C249.525 268.7 249.752 258.967 249.752 258.967L203.003 260.599C203.003 260.599 197.583 280.696 194.298 295.48C193.406 299.273 192.886 303.143 192.745 307.036" stroke="#263238" stroke-miterlimit="10"/>
<path d="M209.125 268.133L248.022 269.225L248.844 266.217L209.125 268.133Z" fill="#263238" stroke="#263238" stroke-linecap="round" stroke-linejoin="round"/>
<path d="M207.16 306.327C207.16 306.327 206.394 282.002 206.373 268.8Z" fill="white"/>
<path d="M207.16 306.327C207.16 306.327 206.394 282.002 206.373 268.8" stroke="#263238" stroke-miterlimit="10"/>
<path d="M236.976 158.793L242.651 162.609C242.651 162.609 249.369 168.611 251.022 173.577C252.675 178.542 251.476 208.032 249.809 217.56C248.142 227.087 252.306 238.955 253.789 245.652C255.271 252.349 255.917 264.806 255.917 264.806C255.917 264.806 256.967 266.267 238.749 266.898C220.532 267.53 207.827 268.48 206.337 268.778C205.436 268.963 204.523 269.079 203.606 269.126L202.896 262.656L201.13 267.984L197.349 267.118C197.349 267.118 199.697 255.541 200.286 251.029C200.874 246.517 204.592 231.166 204.641 225.391C204.691 219.617 199.867 210.324 198.924 204.606C197.98 198.888 199.881 189.084 204.599 181.678C209.316 174.272 212.48 171.406 221.702 163.844C230.925 156.281 236.976 158.793 236.976 158.793Z" fill="#92E3A9" stroke="#263238" stroke-miterlimit="10"/>
<path d="M222.192 245.233L241.225 247.39L240.154 242.41L228.279 241.388" stroke="#263238" stroke-miterlimit="10"/>
<path d="M215.538 241.112L214.573 244.375L219.348 244.914" stroke="#263238" stroke-miterlimit="10"/>
<path d="M222.682 208.5C221.787 207.672 220.966 206.768 220.227 205.798" stroke="#263238" stroke-miterlimit="10"/>
<path d="M229.301 214.09C229.301 214.09 227.293 212.572 225.094 210.685" stroke="#263238" stroke-miterlimit="10"/>
<path d="M236.976 158.792C236.976 158.792 230.925 156.274 221.702 163.843C212.48 171.413 209.323 174.286 204.585 181.678C201.754 186.248 199.872 191.341 199.051 196.653C199.165 197.207 199.285 197.767 199.42 198.342C202.059 209.493 204.996 214.885 204.996 214.885C204.996 214.885 210.104 189.474 218.993 179.174C227.881 168.873 242.644 162.609 242.644 162.609L236.976 158.792Z" fill="#92E3A9" stroke="#263238" stroke-miterlimit="10"/>
<path d="M214.793 109.226C214.793 109.226 208.132 115.448 207.635 120.35C207.138 125.252 206.621 129.48 205.791 131.062C204.961 132.644 200.775 133.68 202.194 136.07C203.613 138.461 204.939 138.411 204.939 138.411C204.939 138.411 207.067 148.988 208.685 150.471C210.302 151.954 216.027 151.102 216.027 151.102L217.801 163.928C217.801 163.928 205.89 174.491 203.57 189.212C201.25 203.932 203.904 212.331 203.904 212.331C203.904 212.331 205.457 189.141 210.82 180.458C216.183 171.774 228.64 163.552 230.478 162.07C232.315 160.587 236.976 158.778 236.976 158.778C236.976 158.778 234.763 153.812 234.465 151.571C234.167 149.329 234.266 146.03 234.685 145.129C235.103 144.228 242.545 141.526 245.326 132.998C248.106 124.471 244.013 114.405 239.65 110.12C235.288 105.835 220.369 103.707 214.793 109.226Z" fill="#BDBDBD" stroke="#263238" stroke-miterlimit="10"/>
<path d="M245.354 133.013C248.192 124.5 244.042 114.419 239.679 110.135C235.316 105.85 220.376 103.707 214.8 109.226C214.8 109.226 214.445 109.56 213.892 110.135C216.011 109.605 218.219 109.532 220.369 109.922C224.831 110.631 224.732 114.178 223.519 117.576C222.306 120.974 223.221 121.577 225.498 123.251C227.775 124.926 225.441 128.139 227.044 129.416C228.648 130.693 229.953 123.741 233.429 128.749C236.905 133.758 234.571 136.028 232.4 137.432C231.185 138.244 229.865 138.888 228.477 139.348C228.477 139.348 231.762 143.2 235.004 144.789C236.558 143.633 242.829 140.674 245.354 133.013Z" fill="#263238" stroke="#263238" stroke-linecap="round" stroke-linejoin="round"/>
<path d="M208.55 140.284C208.55 140.284 213.197 139.901 215.346 137.83" stroke="#263238" stroke-miterlimit="10"/>
<path d="M211.502 129.31C211.537 130.409 211.118 131.317 210.572 131.339C210.026 131.36 209.544 130.48 209.501 129.381C209.458 128.281 209.884 127.373 210.43 127.352C210.977 127.33 211.459 128.21 211.502 129.31Z" fill="#263238"/>
<path d="M209.501 124.819C209.501 124.819 210.998 122.804 213.14 125.181" stroke="#263238" stroke-miterlimit="10"/>
<path d="M216.027 151.117L221.568 149.031L217.709 155.962L216.027 151.117Z" fill="#263238" stroke="#263238" stroke-miterlimit="10"/>
<path d="M200.073 252.937L192.809 283.534L199.328 285.052L202.918 262.677L200.073 252.937Z" fill="white" stroke="#263238" stroke-miterlimit="10"/>
<path d="M206.493 179.684C205.098 182.72 204.115 185.929 203.57 189.226C201.251 203.939 203.904 212.345 203.904 212.345C203.904 212.345 205.443 189.467 210.714 180.656C209.275 180.494 207.858 180.168 206.493 179.684Z" fill="white" stroke="#263238" stroke-miterlimit="10"/>
<path d="M228.939 189.233L228.442 215.197L183.005 222.688L183.998 234.926C183.998 234.926 209.217 235.422 220.951 234.422C232.684 233.422 242.942 232.677 244.418 231.428C245.893 230.18 250.171 206.046 251.916 189.07C253.661 172.094 250.171 166.369 243.184 167.348" fill="#92E3A9"/>
<path d="M228.939 189.233L228.442 215.197L183.005 222.688L183.998 234.926C183.998 234.926 209.217 235.422 220.951 234.422C232.684 233.422 242.942 232.677 244.418 231.428C245.893 230.18 250.171 206.046 251.916 189.07C253.661 172.094 250.171 166.369 243.184 167.348" stroke="#263238" stroke-miterlimit="10"/>
<path d="M155.82 221.589L152.181 232.627L155.728 234.557C155.728 234.557 160.233 238.047 162.702 239.934C165.17 241.821 167.064 241.821 168.377 241.239C169.689 240.658 175.641 232.23 176.365 230.634C177.088 229.038 173.605 224.249 170.122 222.206C166.639 220.163 163.737 220.177 161.694 220.787C159.76 221.208 157.796 221.476 155.82 221.589Z" fill="white" stroke="#263238" stroke-miterlimit="10"/>
<path d="M183.004 222.689L177.258 222.192C175.456 221.722 173.62 221.387 171.768 221.192C170.271 221.192 168.27 222.689 167.27 223.44C166.27 224.192 155.288 236.174 155.288 236.174C155.288 236.174 156.288 238.168 157.785 237.671C159.282 237.175 162.042 235.919 162.042 235.919C162.042 235.919 159.048 238.92 160.545 240.416C162.042 241.913 164.539 241.913 164.539 241.913L166.291 240.913C167.027 241.494 167.875 241.919 168.781 242.162C170.029 242.41 172.03 241.913 173.747 240.913C175.463 239.913 179.926 234.706 179.926 234.706L183.756 233.223L183.004 222.689Z" fill="#BDBDBD" stroke="#263238" stroke-miterlimit="10"/>
<path d="M157.8 222.064C157.8 222.064 165.064 217.85 168.256 219.014C171.449 220.177 175.67 227.292 174.506 228.314C173.343 229.335 171.456 228.889 170.441 227.874C169.593 227.104 168.668 226.422 167.682 225.838C165.769 226.913 163.625 227.511 161.432 227.583" fill="white"/>
<path d="M157.8 222.064C157.8 222.064 165.064 217.85 168.256 219.014C171.449 220.177 175.67 227.292 174.506 228.314C173.343 229.335 171.456 228.889 170.441 227.874C169.593 227.104 168.668 226.422 167.682 225.838C165.769 226.913 163.625 227.511 161.432 227.583" stroke="#263238" stroke-miterlimit="10"/>
<path d="M179.465 238.558L177.159 237.323C176.974 237.225 176.809 237.091 176.675 236.929C176.542 236.766 176.441 236.58 176.38 236.378C176.319 236.177 176.298 235.966 176.318 235.757C176.339 235.548 176.4 235.345 176.5 235.16C176.599 234.974 176.733 234.811 176.896 234.678C177.058 234.545 177.245 234.445 177.446 234.384C177.647 234.324 177.858 234.303 178.067 234.324C178.276 234.345 178.478 234.407 178.663 234.507L180.969 235.734C181.342 235.934 181.622 236.274 181.745 236.68C181.869 237.085 181.827 237.523 181.628 237.898C181.428 238.272 181.088 238.551 180.683 238.674C180.277 238.798 179.839 238.756 179.465 238.558Z" fill="white" stroke="#263238" stroke-miterlimit="10"/>
<path d="M177.429 241.027L175.123 239.792C174.759 239.592 174.486 239.258 174.363 238.861C174.24 238.464 174.276 238.035 174.464 237.664C174.665 237.301 174.999 237.03 175.396 236.908C175.793 236.786 176.222 236.823 176.592 237.011L178.897 238.239C179.263 238.437 179.537 238.771 179.66 239.169C179.783 239.566 179.746 239.996 179.557 240.367C179.358 240.733 179.025 241.006 178.627 241.129C178.23 241.253 177.8 241.216 177.429 241.027Z" fill="white" stroke="#263238" stroke-miterlimit="10"/>
<path d="M175.102 243.204L172.796 241.97C172.611 241.872 172.446 241.737 172.313 241.575C172.179 241.413 172.079 241.226 172.018 241.024C171.958 240.823 171.938 240.612 171.959 240.403C171.981 240.194 172.043 239.991 172.144 239.806C172.243 239.621 172.377 239.457 172.54 239.324C172.702 239.191 172.889 239.092 173.09 239.031C173.291 238.971 173.502 238.95 173.711 238.971C173.92 238.992 174.123 239.054 174.307 239.154L176.613 240.388C176.798 240.487 176.962 240.622 177.095 240.784C177.228 240.946 177.328 241.133 177.388 241.334C177.449 241.535 177.469 241.746 177.448 241.955C177.427 242.164 177.365 242.367 177.266 242.552C177.167 242.737 177.032 242.901 176.87 243.034C176.707 243.167 176.52 243.266 176.319 243.327C176.118 243.388 175.907 243.408 175.698 243.387C175.49 243.366 175.287 243.304 175.102 243.204Z" fill="white" stroke="#263238" stroke-miterlimit="10"/>
<path d="M170.207 243.311L169.604 242.992C169.418 242.893 169.254 242.759 169.12 242.597C168.986 242.435 168.886 242.248 168.825 242.047C168.763 241.846 168.742 241.635 168.763 241.425C168.784 241.216 168.845 241.013 168.944 240.828C169.145 240.454 169.485 240.175 169.89 240.051C170.295 239.928 170.733 239.97 171.108 240.168L171.711 240.494C171.897 240.593 172.061 240.727 172.195 240.889C172.329 241.051 172.429 241.238 172.49 241.439C172.552 241.64 172.573 241.851 172.552 242.061C172.532 242.27 172.47 242.473 172.371 242.658C172.272 242.843 172.137 243.007 171.975 243.14C171.812 243.273 171.625 243.373 171.424 243.433C171.223 243.494 171.012 243.514 170.803 243.493C170.595 243.472 170.392 243.41 170.207 243.311Z" fill="white" stroke="#263238" stroke-miterlimit="10"/>
<path d="M155.82 221.589L125.33 208.699L126.458 228.896L151.635 234.663L155.82 221.589Z" fill="#263238" stroke="#263238" stroke-linecap="round" stroke-linejoin="round"/>
<path d="M151.635 234.663L155.82 221.589L151.557 219.702L151.472 220.135L147.57 233.677L151.635 234.663Z" fill="white" stroke="#263238" stroke-miterlimit="10"/>
<path d="M108.198 140.802L116.002 144.427C116.002 144.427 119.279 153.713 118.187 153.983C117.094 154.252 108.901 147.704 108.901 147.704L108.198 140.802Z" fill="white" stroke="#263238" stroke-linecap="round" stroke-linejoin="round"/>
<path d="M112.731 138.943L113.277 135.815C113.277 135.815 120.513 136.312 123.408 136.29C126.302 136.269 128.827 135.9 128.806 132.828C128.785 129.757 127.096 119.279 127.096 119.279C127.096 119.279 130.346 118.534 131.601 117.08C132.857 115.625 131.041 113.831 129.402 111.667C127.763 109.503 126.295 107.169 126.103 104.637C125.912 102.104 121.513 93.8183 121.513 93.8183C121.513 93.8183 122.223 92.5484 119.861 89.8527C117.498 87.157 105.382 86.6888 97.6279 90.5621C89.8741 94.4354 88.1077 100.026 88.1431 106.169C88.1786 112.312 91.6902 120.974 91.6902 120.974C91.6902 120.974 89.3988 130.388 89.2214 130.906C89.0441 131.424 86.9868 135.46 86.9868 135.46C86.9868 135.46 96.6843 142.221 100.224 145.257C103.764 148.293 111.759 153.486 111.809 150.677C111.858 147.868 112.178 141.526 112.178 141.526L112.731 138.943Z" fill="white" stroke="#263238" stroke-linecap="round" stroke-linejoin="round"/>
<path d="M123.422 109.602C123.464 110.652 123.223 111.511 122.876 111.525C122.528 111.539 122.202 110.709 122.166 109.659C122.131 108.609 122.358 107.751 122.712 107.737C123.067 107.723 123.372 108.553 123.422 109.602Z" fill="#263238"/>
<path d="M118.335 106.134C118.335 106.134 119.946 103.409 124.117 105.013" stroke="#263238" stroke-width="2" stroke-linecap="round" stroke-linejoin="round"/>
<path d="M128.806 132.828C128.806 129.75 127.096 119.279 127.096 119.279C127.096 119.279 125.103 118.208 121.308 119.13C117.512 120.052 116.477 126.224 115.753 126.933C115.029 127.643 110.312 123.386 108.482 120.471C106.651 117.555 105.36 112.568 105.162 109.652C104.963 106.736 111.823 105.268 112.894 102.558C113.965 99.8482 108.907 96.9609 110.674 95.1519C112.44 93.343 116.094 94.0382 117.903 94.3858C119.136 94.5525 120.391 94.3553 121.513 93.8183C121.513 93.8183 122.223 92.5484 119.861 89.8527C117.498 87.157 105.382 86.6888 97.6278 90.5621C89.874 94.4354 88.1076 100.026 88.1431 106.169C88.1786 111.135 90.477 117.775 91.3425 120.116C92.075 120.433 92.8643 120.597 93.6623 120.598C94.3717 120.414 94.9108 118.243 95.2584 116.065C95.606 113.887 100.834 111.333 100.834 111.333C100.834 111.333 101.778 117.839 101.785 119.101C101.792 120.364 101.076 126.699 104.566 129.742C107.299 132.008 110.212 134.046 113.277 135.836C113.277 135.836 120.513 136.333 123.408 136.312C126.302 136.29 128.827 135.9 128.806 132.828Z" fill="#263238" stroke="#263238" stroke-linecap="round" stroke-linejoin="round"/>
<path d="M101.948 115.817C101.948 115.817 100.444 107.148 97.9188 107.524C95.3933 107.9 93.9603 111.163 95.2514 115.327C96.5426 119.491 99.0751 119.101 100.515 118.732" fill="white"/>
<path d="M101.948 115.817C101.948 115.817 100.444 107.148 97.9188 107.524C95.3933 107.9 93.9603 111.163 95.2514 115.327C96.5426 119.491 99.0751 119.101 100.515 118.732" stroke="#263238" stroke-linecap="round" stroke-linejoin="round"/>
<path d="M119.705 122.393C119.705 122.393 121.159 124.195 124.954 124.174" stroke="white" stroke-linecap="round" stroke-linejoin="round"/>
<path d="M79.1126 307.036H117.42C117.548 305.022 119.038 297.275 119.038 292.196C119.038 286.329 123.074 248.482 123.074 248.482L73.2529 247.83L74.8846 270.992L79.1126 307.036Z" fill="#263238" stroke="#263238" stroke-linecap="round" stroke-linejoin="round"/>
<path d="M84.0784 136.78C84.0784 136.78 75.3457 147.981 72.8841 154.259C70.4224 160.538 68.5141 161.63 69.0604 169.547C69.6066 177.464 73.4374 209.139 73.4374 209.139L65.79 250.376C74.8161 253.61 84.3301 255.271 93.9179 255.286C109.752 255.286 116.619 253.923 117.676 253.377C118.733 252.831 128.317 250.376 128.317 250.376C128.317 250.376 128.317 203.684 125.309 187.573C122.301 171.462 118.484 159.197 117.122 156.168C115.76 153.139 111.383 143.335 111.383 143.335L84.0784 136.78Z" fill="#263238" stroke="#263238" stroke-linecap="round" stroke-linejoin="round"/>
<path d="M117.144 156.168C115.775 153.167 111.405 143.335 111.405 143.335L84.0786 136.78C84.0786 136.78 82.2341 139.149 79.9995 142.32C85.9514 145.775 100.686 154.316 101.558 154.529C102.651 154.806 108.113 154.259 108.113 154.259L105.673 157.26C105.673 157.26 112.228 162.453 114.413 164.631C115.562 165.78 118.896 168.816 121.805 171.441C119.825 163.595 117.995 158.055 117.144 156.168Z" fill="#263238" stroke="#263238" stroke-linecap="round" stroke-linejoin="round"/>
<path d="M104.58 149.343L113.866 156.714L121.506 170.37L116.597 150.436L106.495 144.704L104.58 149.343Z" fill="white" stroke="#263238" stroke-linecap="round" stroke-linejoin="round"/>
<path d="M86.0149 131.594L114.604 144.477V154.579L81.9146 137.872L86.0149 131.594Z" fill="white" stroke="#263238" stroke-linecap="round" stroke-linejoin="round"/>
<path d="M123.819 234.933H74.4165V274.907H123.819V234.933Z" fill="#92E3A9" stroke="#263238" stroke-miterlimit="10"/>
<path d="M102.147 253.987C102.147 253.987 105.822 258.776 107.262 259.258C108.474 259.756 109.477 260.659 110.099 261.812C110.738 262.77 111.518 269.956 112.015 270.438C112.511 270.921 112.497 272.035 110.738 271.233C108.978 270.431 107.9 267.686 107.9 267.686L108.539 274.071C108.539 274.071 109.957 274.39 108.858 275.191C107.758 275.993 106.779 277.107 105.822 276.61C104.969 276.103 104.169 275.514 103.431 274.851C102.29 275.234 101.075 275.343 99.8839 275.17C98.1316 274.851 98.4651 275.489 96.8547 274.368C95.2444 273.248 95.2515 274.532 94.4569 272.453C93.2193 268.734 92.2054 264.943 91.4207 261.103C91.1015 259.024 90.7822 256.137 90.7822 256.137L102.147 253.987Z" fill="white" stroke="#263238" stroke-linecap="round" stroke-linejoin="round"/>
<path d="M102.792 250.951L103.906 255.903L90.1721 257.818L89.5337 252.866L102.792 250.951Z" fill="white" stroke="#263238" stroke-linecap="round" stroke-linejoin="round"/>
<path d="M85.1924 146.619C85.1924 146.619 75.6367 149.62 75.3671 153.99C75.0976 158.36 71.9265 211.359 73.2957 214.906C74.6648 218.453 88.0938 254.399 88.0938 254.399L103.658 252.49C103.658 252.49 95.6844 210.806 95.429 209.983C95.1737 209.16 100.778 162.723 100.778 162.723" fill="#263238"/>
<path d="M85.1924 146.619C85.1924 146.619 75.6367 149.62 75.3671 153.99C75.0976 158.36 71.9265 211.359 73.2957 214.906C74.6648 218.453 88.0938 254.399 88.0938 254.399L103.658 252.49C103.658 252.49 95.6844 210.806 95.429 209.983C95.1737 209.16 100.778 162.723 100.778 162.723" stroke="#263238" stroke-linecap="round" stroke-linejoin="round"/>
<path d="M98.9263 176.059L95.4077 209.983L98.7632 231.059" stroke="#878787" stroke-linecap="round" stroke-linejoin="round"/>
<path d="M99.4652 170.866L99.2808 172.668" stroke="#878787" stroke-linecap="round" stroke-linejoin="round"/>
<path d="M74.2672 165.617L73.2173 197.469" stroke="#878787" stroke-linecap="round" stroke-linejoin="round"/>
<path d="M109.965 225.498L120.464 225.115L121.407 228.896L104.013 230.009" stroke="#878787" stroke-linecap="round" stroke-linejoin="round"/>
<path d="M101.218 225.81L106.808 225.611" stroke="#878787" stroke-linecap="round" stroke-linejoin="round"/>
<path d="M82.3193 143.221L101.58 154.529L108.135 154.26L105.673 157.26L118.364 167.369" stroke="#878787" stroke-linecap="round" stroke-linejoin="round"/>
<path d="M0 307.036H323.835" stroke="#263238" stroke-miterlimit="10"/>
<path d="M91.52 14.6843V62.6329" stroke="#263238" stroke-miterlimit="10"/>
<path d="M165.17 14.6843V62.6329" stroke="#263238" stroke-miterlimit="10"/>
<path d="M238.82 14.6843V62.6329" stroke="#263238" stroke-miterlimit="10"/>
</svg>
