<svg width="270" height="255" viewBox="0 0 270 255" fill="none" xmlns="http://www.w3.org/2000/svg">
<path d="M182.448 50.0679H9.10449V237.979H182.448V50.0679Z" fill="white" stroke="#263238" stroke-linecap="round" stroke-linejoin="round"/>
<path d="M89.3582 69.8552H78.4729V83.4535H89.3582V69.8552Z" fill="white" stroke="#263238" stroke-linecap="round" stroke-linejoin="round"/>
<path d="M85.5358 69.8552H78.4729V83.4535H85.5358V69.8552Z" fill="white" stroke="#263238" stroke-linecap="round" stroke-linejoin="round"/>
<path d="M84.6574 75.6313H79.2661V82.0144H84.6574V75.6313Z" fill="#92E3A9" stroke="#263238" stroke-linecap="round" stroke-linejoin="round"/>
<path d="M80.1617 69.8552H69.2764V83.4535H80.1617V69.8552Z" fill="white" stroke="#263238" stroke-linecap="round" stroke-linejoin="round"/>
<path d="M76.3393 69.8552H69.2764V83.4535H76.3393V69.8552Z" fill="white" stroke="#263238" stroke-linecap="round" stroke-linejoin="round"/>
<path d="M75.4609 75.6313H70.0696V82.0144H75.4609V75.6313Z" fill="#92E3A9" stroke="#263238" stroke-linecap="round" stroke-linejoin="round"/>
<path d="M71.4385 63.4409H60.5532V83.4535H71.4385V63.4409Z" fill="#92E3A9" stroke="#263238" stroke-linecap="round" stroke-linejoin="round"/>
<path d="M67.6161 63.4409H60.5532V83.4535H67.6161V63.4409Z" fill="white" stroke="#263238" stroke-linecap="round" stroke-linejoin="round"/>
<path d="M66.7378 71.9453H61.3464V81.3384H66.7378V71.9453Z" fill="#92E3A9" stroke="#263238" stroke-linecap="round" stroke-linejoin="round"/>
<path d="M62.2423 63.4409H51.3569V83.4535H62.2423V63.4409Z" fill="#92E3A9" stroke="#263238" stroke-linecap="round" stroke-linejoin="round"/>
<path d="M58.4198 63.4409H51.3569V83.4535H58.4198V63.4409Z" fill="#92E3A9" stroke="#263238" stroke-linecap="round" stroke-linejoin="round"/>
<path d="M57.541 71.9453H52.1497V81.3384H57.541V71.9453Z" fill="white" stroke="#263238" stroke-linecap="round" stroke-linejoin="round"/>
<path d="M54.1522 69.8552H43.2668V83.4535H54.1522V69.8552Z" fill="white" stroke="#263238" stroke-linecap="round" stroke-linejoin="round"/>
<path d="M50.3298 69.8552H43.2668V83.4535H50.3298V69.8552Z" fill="white" stroke="#263238" stroke-linecap="round" stroke-linejoin="round"/>
<path d="M49.4511 75.6313H44.0598V82.0144H49.4511V75.6313Z" fill="#92E3A9" stroke="#263238" stroke-linecap="round" stroke-linejoin="round"/>
<path d="M44.9556 69.8552H34.0703V83.4535H44.9556V69.8552Z" fill="white" stroke="#263238" stroke-linecap="round" stroke-linejoin="round"/>
<path d="M41.1332 69.8552H34.0703V83.4535H41.1332V69.8552Z" fill="white" stroke="#263238" stroke-linecap="round" stroke-linejoin="round"/>
<path d="M40.2548 75.6313H34.8635V82.0144H40.2548V75.6313Z" fill="#92E3A9" stroke="#263238" stroke-linecap="round" stroke-linejoin="round"/>
<path d="M36.2325 63.4409H25.3472V83.4535H36.2325V63.4409Z" fill="white" stroke="#263238" stroke-linecap="round" stroke-linejoin="round"/>
<path d="M32.4101 63.4409H25.3472V83.4535H32.4101V63.4409Z" fill="white" stroke="#263238" stroke-linecap="round" stroke-linejoin="round"/>
<path d="M31.5317 71.9453H26.1404V81.3384H31.5317V71.9453Z" fill="#92E3A9" stroke="#263238" stroke-linecap="round" stroke-linejoin="round"/>
<path d="M27.036 63.4409H16.1506V83.4535H27.036V63.4409Z" fill="white" stroke="#263238" stroke-linecap="round" stroke-linejoin="round"/>
<path d="M23.2135 63.4409H16.1506V83.4535H23.2135V63.4409Z" fill="white" stroke="#263238" stroke-linecap="round" stroke-linejoin="round"/>
<path d="M22.3349 71.9453H16.9436V81.3384H22.3349V71.9453Z" fill="#92E3A9" stroke="#263238" stroke-linecap="round" stroke-linejoin="round"/>
<path d="M174.039 69.8552H163.154V83.4535H174.039V69.8552Z" fill="white" stroke="#263238" stroke-linecap="round" stroke-linejoin="round"/>
<path d="M170.217 69.8552H163.154V83.4535H170.217V69.8552Z" fill="white" stroke="#263238" stroke-linecap="round" stroke-linejoin="round"/>
<path d="M169.338 75.6313H163.947V82.0144H169.338V75.6313Z" fill="#92E3A9" stroke="#263238" stroke-linecap="round" stroke-linejoin="round"/>
<path d="M164.843 69.8552H153.957V83.4535H164.843V69.8552Z" fill="white" stroke="#263238" stroke-linecap="round" stroke-linejoin="round"/>
<path d="M161.02 69.8552H153.957V83.4535H161.02V69.8552Z" fill="white" stroke="#263238" stroke-linecap="round" stroke-linejoin="round"/>
<path d="M160.142 75.6313H154.75V82.0144H160.142V75.6313Z" fill="#92E3A9" stroke="#263238" stroke-linecap="round" stroke-linejoin="round"/>
<path d="M156.119 63.4409H145.234V83.4535H156.119V63.4409Z" fill="#92E3A9" stroke="#263238" stroke-linecap="round" stroke-linejoin="round"/>
<path d="M152.297 63.4409H145.234V83.4535H152.297V63.4409Z" fill="white" stroke="#263238" stroke-linecap="round" stroke-linejoin="round"/>
<path d="M151.418 71.9453H146.027V81.3384H151.418V71.9453Z" fill="#92E3A9" stroke="#263238" stroke-linecap="round" stroke-linejoin="round"/>
<path d="M146.923 63.4409H136.038V83.4535H146.923V63.4409Z" fill="#92E3A9" stroke="#263238" stroke-linecap="round" stroke-linejoin="round"/>
<path d="M143.101 63.4409H136.038V83.4535H143.101V63.4409Z" fill="#92E3A9" stroke="#263238" stroke-linecap="round" stroke-linejoin="round"/>
<path d="M142.222 71.9453H136.831V81.3384H142.222V71.9453Z" fill="white" stroke="#263238" stroke-linecap="round" stroke-linejoin="round"/>
<path d="M138.839 69.8552H127.953V83.4535H138.839V69.8552Z" fill="white" stroke="#263238" stroke-linecap="round" stroke-linejoin="round"/>
<path d="M135.016 69.8552H127.953V83.4535H135.016V69.8552Z" fill="white" stroke="#263238" stroke-linecap="round" stroke-linejoin="round"/>
<path d="M134.132 75.6313H128.741V82.0144H134.132V75.6313Z" fill="#92E3A9" stroke="#263238" stroke-linecap="round" stroke-linejoin="round"/>
<path d="M129.637 69.8552H118.751V83.4535H129.637V69.8552Z" fill="white" stroke="#263238" stroke-linecap="round" stroke-linejoin="round"/>
<path d="M125.814 69.8552H118.751V83.4535H125.814V69.8552Z" fill="white" stroke="#263238" stroke-linecap="round" stroke-linejoin="round"/>
<path d="M124.936 75.6313H119.544V82.0144H124.936V75.6313Z" fill="#92E3A9" stroke="#263238" stroke-linecap="round" stroke-linejoin="round"/>
<path d="M120.919 63.4409H110.034V83.4535H120.919V63.4409Z" fill="white" stroke="#263238" stroke-linecap="round" stroke-linejoin="round"/>
<path d="M117.097 63.4409H110.034V83.4535H117.097V63.4409Z" fill="white" stroke="#263238" stroke-linecap="round" stroke-linejoin="round"/>
<path d="M116.212 71.9453H110.821V81.3384H116.212V71.9453Z" fill="#92E3A9" stroke="#263238" stroke-linecap="round" stroke-linejoin="round"/>
<path d="M111.717 63.4409H100.831V83.4535H111.717V63.4409Z" fill="white" stroke="#263238" stroke-linecap="round" stroke-linejoin="round"/>
<path d="M107.894 63.4409H100.831V83.4535H107.894V63.4409Z" fill="white" stroke="#263238" stroke-linecap="round" stroke-linejoin="round"/>
<path d="M107.016 71.9453H101.625V81.3384H107.016V71.9453Z" fill="#92E3A9" stroke="#263238" stroke-linecap="round" stroke-linejoin="round"/>
<path d="M89.3582 175.369H78.4729V188.967H89.3582V175.369Z" fill="white" stroke="#263238" stroke-linecap="round" stroke-linejoin="round"/>
<path d="M85.5358 175.369H78.4729V188.967H85.5358V175.369Z" fill="white" stroke="#263238" stroke-linecap="round" stroke-linejoin="round"/>
<path d="M84.6574 181.145H79.2661V187.528H84.6574V181.145Z" fill="#92E3A9" stroke="#263238" stroke-linecap="round" stroke-linejoin="round"/>
<path d="M80.1617 175.369H69.2764V188.967H80.1617V175.369Z" fill="white" stroke="#263238" stroke-linecap="round" stroke-linejoin="round"/>
<path d="M76.3393 175.369H69.2764V188.967H76.3393V175.369Z" fill="white" stroke="#263238" stroke-linecap="round" stroke-linejoin="round"/>
<path d="M75.4609 181.145H70.0696V187.528H75.4609V181.145Z" fill="#92E3A9" stroke="#263238" stroke-linecap="round" stroke-linejoin="round"/>
<path d="M71.4385 168.955H60.5532V188.967H71.4385V168.955Z" fill="#92E3A9" stroke="#263238" stroke-linecap="round" stroke-linejoin="round"/>
<path d="M67.6161 168.955H60.5532V188.967H67.6161V168.955Z" fill="white" stroke="#263238" stroke-linecap="round" stroke-linejoin="round"/>
<path d="M66.7378 177.453H61.3464V186.846H66.7378V177.453Z" fill="#92E3A9" stroke="#263238" stroke-linecap="round" stroke-linejoin="round"/>
<path d="M62.2423 168.955H51.3569V188.967H62.2423V168.955Z" fill="#92E3A9" stroke="#263238" stroke-linecap="round" stroke-linejoin="round"/>
<path d="M58.4198 168.955H51.3569V188.967H58.4198V168.955Z" fill="#92E3A9" stroke="#263238" stroke-linecap="round" stroke-linejoin="round"/>
<path d="M57.541 177.453H52.1497V186.846H57.541V177.453Z" fill="white" stroke="#263238" stroke-linecap="round" stroke-linejoin="round"/>
<path d="M54.1522 175.369H43.2668V188.967H54.1522V175.369Z" fill="white" stroke="#263238" stroke-linecap="round" stroke-linejoin="round"/>
<path d="M50.3298 175.369H43.2668V188.967H50.3298V175.369Z" fill="white" stroke="#263238" stroke-linecap="round" stroke-linejoin="round"/>
<path d="M49.4511 181.145H44.0598V187.528H49.4511V181.145Z" fill="#92E3A9" stroke="#263238" stroke-linecap="round" stroke-linejoin="round"/>
<path d="M44.9556 175.369H34.0703V188.967H44.9556V175.369Z" fill="white" stroke="#263238" stroke-linecap="round" stroke-linejoin="round"/>
<path d="M41.1332 175.369H34.0703V188.967H41.1332V175.369Z" fill="white" stroke="#263238" stroke-linecap="round" stroke-linejoin="round"/>
<path d="M40.2548 181.145H34.8635V187.528H40.2548V181.145Z" fill="#92E3A9" stroke="#263238" stroke-linecap="round" stroke-linejoin="round"/>
<path d="M36.2325 168.955H25.3472V188.967H36.2325V168.955Z" fill="white" stroke="#263238" stroke-linecap="round" stroke-linejoin="round"/>
<path d="M32.4101 168.955H25.3472V188.967H32.4101V168.955Z" fill="white" stroke="#263238" stroke-linecap="round" stroke-linejoin="round"/>
<path d="M31.5317 177.453H26.1404V186.846H31.5317V177.453Z" fill="#92E3A9" stroke="#263238" stroke-linecap="round" stroke-linejoin="round"/>
<path d="M27.036 168.955H16.1506V188.967H27.036V168.955Z" fill="white" stroke="#263238" stroke-linecap="round" stroke-linejoin="round"/>
<path d="M23.2135 168.955H16.1506V188.967H23.2135V168.955Z" fill="white" stroke="#263238" stroke-linecap="round" stroke-linejoin="round"/>
<path d="M22.3349 177.453H16.9436V186.846H22.3349V177.453Z" fill="#92E3A9" stroke="#263238" stroke-linecap="round" stroke-linejoin="round"/>
<path d="M174.039 175.369H163.154V188.967H174.039V175.369Z" fill="white" stroke="#263238" stroke-linecap="round" stroke-linejoin="round"/>
<path d="M170.217 175.369H163.154V188.967H170.217V175.369Z" fill="white" stroke="#263238" stroke-linecap="round" stroke-linejoin="round"/>
<path d="M169.338 181.145H163.947V187.528H169.338V181.145Z" fill="#92E3A9" stroke="#263238" stroke-linecap="round" stroke-linejoin="round"/>
<path d="M164.843 175.369H153.957V188.967H164.843V175.369Z" fill="white" stroke="#263238" stroke-linecap="round" stroke-linejoin="round"/>
<path d="M161.02 175.369H153.957V188.967H161.02V175.369Z" fill="white" stroke="#263238" stroke-linecap="round" stroke-linejoin="round"/>
<path d="M160.142 181.145H154.75V187.528H160.142V181.145Z" fill="#92E3A9" stroke="#263238" stroke-linecap="round" stroke-linejoin="round"/>
<path d="M156.119 168.955H145.234V188.967H156.119V168.955Z" fill="#92E3A9" stroke="#263238" stroke-linecap="round" stroke-linejoin="round"/>
<path d="M152.297 168.955H145.234V188.967H152.297V168.955Z" fill="white" stroke="#263238" stroke-linecap="round" stroke-linejoin="round"/>
<path d="M151.418 177.453H146.027V186.846H151.418V177.453Z" fill="#92E3A9" stroke="#263238" stroke-linecap="round" stroke-linejoin="round"/>
<path d="M146.923 168.955H136.038V188.967H146.923V168.955Z" fill="#92E3A9" stroke="#263238" stroke-linecap="round" stroke-linejoin="round"/>
<path d="M143.101 168.955H136.038V188.967H143.101V168.955Z" fill="#92E3A9" stroke="#263238" stroke-linecap="round" stroke-linejoin="round"/>
<path d="M142.222 177.453H136.831V186.846H142.222V177.453Z" fill="white" stroke="#263238" stroke-linecap="round" stroke-linejoin="round"/>
<path d="M138.839 175.369H127.953V188.967H138.839V175.369Z" fill="white" stroke="#263238" stroke-linecap="round" stroke-linejoin="round"/>
<path d="M135.016 175.369H127.953V188.967H135.016V175.369Z" fill="white" stroke="#263238" stroke-linecap="round" stroke-linejoin="round"/>
<path d="M134.132 181.145H128.741V187.528H134.132V181.145Z" fill="#92E3A9" stroke="#263238" stroke-linecap="round" stroke-linejoin="round"/>
<path d="M129.637 175.369H118.751V188.967H129.637V175.369Z" fill="white" stroke="#263238" stroke-linecap="round" stroke-linejoin="round"/>
<path d="M125.814 175.369H118.751V188.967H125.814V175.369Z" fill="white" stroke="#263238" stroke-linecap="round" stroke-linejoin="round"/>
<path d="M124.936 181.145H119.544V187.528H124.936V181.145Z" fill="#92E3A9" stroke="#263238" stroke-linecap="round" stroke-linejoin="round"/>
<path d="M120.919 168.955H110.034V188.967H120.919V168.955Z" fill="white" stroke="#263238" stroke-linecap="round" stroke-linejoin="round"/>
<path d="M117.097 168.955H110.034V188.967H117.097V168.955Z" fill="white" stroke="#263238" stroke-linecap="round" stroke-linejoin="round"/>
<path d="M116.212 177.453H110.821V186.846H116.212V177.453Z" fill="#92E3A9" stroke="#263238" stroke-linecap="round" stroke-linejoin="round"/>
<path d="M111.717 168.955H100.831V188.967H111.717V168.955Z" fill="white" stroke="#263238" stroke-linecap="round" stroke-linejoin="round"/>
<path d="M107.894 168.955H100.831V188.967H107.894V168.955Z" fill="white" stroke="#263238" stroke-linecap="round" stroke-linejoin="round"/>
<path d="M107.016 177.453H101.625V186.846H107.016V177.453Z" fill="#92E3A9" stroke="#263238" stroke-linecap="round" stroke-linejoin="round"/>
<path d="M16.2192 103.397H19.8647C20.6848 103.397 21.4713 103.755 22.0512 104.391C22.6311 105.027 22.9569 105.89 22.9569 106.789V118.354H13.1384V106.789C13.1384 105.892 13.4626 105.031 14.0401 104.395C14.6175 103.76 15.4011 103.401 16.2192 103.397Z" fill="#92E3A9" stroke="#263238" stroke-linecap="round" stroke-linejoin="round"/>
<path d="M20.2754 99.2236H16.2305V103.398H20.2754V99.2236Z" fill="#263238" stroke="#263238" stroke-linecap="round" stroke-linejoin="round"/>
<path d="M20.2752 107.922H13.9312V114.881H20.2752V107.922Z" fill="white" stroke="#263238" stroke-linecap="round" stroke-linejoin="round"/>
<path d="M27.806 103.397H31.4516C32.2717 103.397 33.0582 103.755 33.6381 104.391C34.218 105.027 34.5438 105.89 34.5438 106.789V118.354H24.7139V106.789C24.7139 106.344 24.7938 105.903 24.9492 105.491C25.1046 105.08 25.3324 104.706 25.6195 104.391C25.9067 104.076 26.2476 103.826 26.6227 103.656C26.9979 103.485 27.4 103.397 27.806 103.397Z" fill="#92E3A9" stroke="#263238" stroke-linecap="round" stroke-linejoin="round"/>
<path d="M31.8511 99.2236H27.8062V103.398H31.8511V99.2236Z" fill="#263238" stroke="#263238" stroke-linecap="round" stroke-linejoin="round"/>
<path d="M31.8512 107.922H25.5071V114.881H31.8512V107.922Z" fill="white" stroke="#263238" stroke-linecap="round" stroke-linejoin="round"/>
<path d="M39.3817 95.3938H43.033C43.8521 95.3955 44.6371 95.7535 45.2158 96.3894C45.7944 97.0253 46.1194 97.8871 46.1194 98.7856V118.354H36.2896V98.7856C36.2896 97.886 36.6153 97.0233 37.1952 96.3872C37.7751 95.7511 38.5616 95.3938 39.3817 95.3938Z" fill="#92E3A9" stroke="#263238" stroke-linecap="round" stroke-linejoin="round"/>
<path d="M43.4265 91.2197H39.3816V95.3937H43.4265V91.2197Z" fill="#263238" stroke="#263238" stroke-linecap="round" stroke-linejoin="round"/>
<path d="M43.4268 99.9182H37.0828V114.874H43.4268V99.9182Z" fill="white" stroke="#263238" stroke-linecap="round" stroke-linejoin="round"/>
<path d="M50.9574 103.397H54.603C55.423 103.397 56.2096 103.755 56.7894 104.391C57.3693 105.027 57.6951 105.89 57.6951 106.789V118.354H47.8652V106.789C47.8652 105.89 48.191 105.027 48.7709 104.391C49.3508 103.755 50.1373 103.397 50.9574 103.397Z" fill="#92E3A9" stroke="#263238" stroke-linecap="round" stroke-linejoin="round"/>
<path d="M55.0024 99.2236H50.9575V103.398H55.0024V99.2236Z" fill="#263238" stroke="#263238" stroke-linecap="round" stroke-linejoin="round"/>
<path d="M55.0023 107.922H48.6582V114.881H55.0023V107.922Z" fill="white" stroke="#263238" stroke-linecap="round" stroke-linejoin="round"/>
<path d="M62.5331 103.397H66.1786C66.9987 103.397 67.7852 103.755 68.3651 104.391C68.945 105.027 69.2708 105.89 69.2708 106.789V118.354H59.4409V106.789C59.4409 105.89 59.7667 105.027 60.3466 104.391C60.9265 103.755 61.713 103.397 62.5331 103.397Z" fill="#92E3A9" stroke="#263238" stroke-linecap="round" stroke-linejoin="round"/>
<path d="M66.5779 99.2236H62.533V103.398H66.5779V99.2236Z" fill="#263238" stroke="#263238" stroke-linecap="round" stroke-linejoin="round"/>
<path d="M66.578 107.922H60.2339V114.881H66.578V107.922Z" fill="white" stroke="#263238" stroke-linecap="round" stroke-linejoin="round"/>
<path d="M74.1145 99.2236H77.76C78.5801 99.2236 79.3666 99.581 79.9465 100.217C80.5264 100.853 80.8522 101.716 80.8522 102.615V118.36H71.0166V102.615C71.0166 102.169 71.0968 101.728 71.2525 101.316C71.4083 100.904 71.6366 100.53 71.9243 100.215C72.212 99.8998 72.5536 99.6501 72.9294 99.48C73.3052 99.3099 73.7079 99.2228 74.1145 99.2236Z" fill="#92E3A9" stroke="#263238" stroke-linecap="round" stroke-linejoin="round"/>
<path d="M78.1592 95.0496H74.1143V99.2236H78.1592V95.0496Z" fill="#263238" stroke="#263238" stroke-linecap="round" stroke-linejoin="round"/>
<path d="M78.1536 103.742H71.8096V114.874H78.1536V103.742Z" fill="white" stroke="#263238" stroke-linecap="round" stroke-linejoin="round"/>
<path d="M104.905 103.398H108.55C109.371 103.398 110.157 103.755 110.737 104.391C111.317 105.027 111.643 105.89 111.643 106.789V118.354H101.796V106.789C101.796 106.342 101.876 105.9 102.033 105.487C102.189 105.074 102.418 104.699 102.707 104.384C102.996 104.069 103.339 103.82 103.716 103.65C104.093 103.481 104.497 103.395 104.905 103.398Z" fill="#92E3A9" stroke="#263238" stroke-linecap="round" stroke-linejoin="round"/>
<path d="M108.95 99.2236H104.905V103.398H108.95V99.2236Z" fill="#263238" stroke="#263238" stroke-linecap="round" stroke-linejoin="round"/>
<path d="M108.95 107.922H102.606V114.881H108.95V107.922Z" fill="white" stroke="#263238" stroke-linecap="round" stroke-linejoin="round"/>
<path d="M116.481 103.397H120.126C120.946 103.397 121.733 103.755 122.313 104.391C122.893 105.027 123.218 105.89 123.218 106.789V118.354H113.388V106.789C113.388 105.89 113.714 105.027 114.294 104.391C114.874 103.755 115.66 103.397 116.481 103.397Z" fill="#92E3A9" stroke="#263238" stroke-linecap="round" stroke-linejoin="round"/>
<path d="M120.525 99.2236H116.48V103.398H120.525V99.2236Z" fill="#263238" stroke="#263238" stroke-linecap="round" stroke-linejoin="round"/>
<path d="M120.525 107.922H114.181V114.881H120.525V107.922Z" fill="white" stroke="#263238" stroke-linecap="round" stroke-linejoin="round"/>
<path d="M128.039 95.3938H131.684C132.504 95.3938 133.291 95.7511 133.871 96.3872C134.451 97.0233 134.777 97.886 134.777 98.7856V118.354H124.969V98.7856C124.969 97.8903 125.292 97.0314 125.867 96.396C126.442 95.7607 127.223 95.4004 128.039 95.3938Z" fill="#92E3A9" stroke="#263238" stroke-linecap="round" stroke-linejoin="round"/>
<path d="M132.107 91.2197H128.062V95.3937H132.107V91.2197Z" fill="#263238" stroke="#263238" stroke-linecap="round" stroke-linejoin="round"/>
<path d="M132.107 99.9182H125.763V114.874H132.107V99.9182Z" fill="white" stroke="#263238" stroke-linecap="round" stroke-linejoin="round"/>
<path d="M139.638 103.397H143.283C143.689 103.397 144.091 103.485 144.466 103.656C144.842 103.826 145.182 104.076 145.47 104.391C145.757 104.706 145.985 105.08 146.14 105.491C146.295 105.903 146.375 106.344 146.375 106.789V118.354H136.545V106.789C136.545 105.89 136.871 105.027 137.451 104.391C138.031 103.755 138.817 103.397 139.638 103.397Z" fill="#92E3A9" stroke="#263238" stroke-linecap="round" stroke-linejoin="round"/>
<path d="M143.682 99.2236H139.637V103.398H143.682V99.2236Z" fill="#263238" stroke="#263238" stroke-linecap="round" stroke-linejoin="round"/>
<path d="M143.682 107.922H137.338V114.881H143.682V107.922Z" fill="white" stroke="#263238" stroke-linecap="round" stroke-linejoin="round"/>
<path d="M151.213 103.397H154.853C155.259 103.397 155.661 103.485 156.036 103.656C156.411 103.826 156.752 104.076 157.039 104.391C157.326 104.706 157.554 105.08 157.71 105.491C157.865 105.903 157.945 106.344 157.945 106.789V118.354H148.121V106.789C148.121 105.89 148.447 105.027 149.027 104.391C149.606 103.755 150.393 103.397 151.213 103.397Z" fill="#92E3A9" stroke="#263238" stroke-linecap="round" stroke-linejoin="round"/>
<path d="M155.258 99.2236H151.213V103.398H155.258V99.2236Z" fill="#263238" stroke="#263238" stroke-linecap="round" stroke-linejoin="round"/>
<path d="M155.258 107.922H148.914V114.881H155.258V107.922Z" fill="white" stroke="#263238" stroke-linecap="round" stroke-linejoin="round"/>
<path d="M162.789 99.2236H166.434C167.254 99.2236 168.041 99.581 168.621 100.217C169.201 100.853 169.526 101.716 169.526 102.615V118.36H159.697V102.615C159.697 101.716 160.022 100.853 160.602 100.217C161.182 99.581 161.969 99.2236 162.789 99.2236Z" fill="#92E3A9" stroke="#263238" stroke-linecap="round" stroke-linejoin="round"/>
<path d="M166.834 95.0496H162.789V99.2236H166.834V95.0496Z" fill="#263238" stroke="#263238" stroke-linecap="round" stroke-linejoin="round"/>
<path d="M166.834 103.742H160.49V114.874H166.834V103.742Z" fill="white" stroke="#263238" stroke-linecap="round" stroke-linejoin="round"/>
<path d="M16.2192 209.812H19.8647C20.6848 209.812 21.4713 210.17 22.0512 210.806C22.6311 211.442 22.9569 212.304 22.9569 213.204V224.769H13.1384V213.204C13.1384 212.307 13.4626 211.446 14.0401 210.81C14.6175 210.174 15.4011 209.816 16.2192 209.812Z" fill="#92E3A9" stroke="#263238" stroke-linecap="round" stroke-linejoin="round"/>
<path d="M20.2754 205.638H16.2305V209.812H20.2754V205.638Z" fill="#263238" stroke="#263238" stroke-linecap="round" stroke-linejoin="round"/>
<path d="M20.2752 214.331H13.9312V221.289H20.2752V214.331Z" fill="white" stroke="#263238" stroke-linecap="round" stroke-linejoin="round"/>
<path d="M27.806 209.812H31.4516C32.2717 209.812 33.0582 210.17 33.6381 210.806C34.218 211.442 34.5438 212.304 34.5438 213.204V224.769H24.7139V213.204C24.7139 212.759 24.7938 212.318 24.9492 211.906C25.1046 211.495 25.3324 211.121 25.6195 210.806C25.9067 210.491 26.2476 210.241 26.6227 210.07C26.9979 209.9 27.4 209.812 27.806 209.812Z" fill="#92E3A9" stroke="#263238" stroke-linecap="round" stroke-linejoin="round"/>
<path d="M31.8511 205.638H27.8062V209.812H31.8511V205.638Z" fill="#263238" stroke="#263238" stroke-linecap="round" stroke-linejoin="round"/>
<path d="M31.8512 214.331H25.5071V221.289H31.8512V214.331Z" fill="white" stroke="#263238" stroke-linecap="round" stroke-linejoin="round"/>
<path d="M39.3817 201.809H43.033C43.8531 201.809 44.6396 202.166 45.2195 202.802C45.7994 203.438 46.1251 204.301 46.1251 205.2V224.769H36.2896V205.2C36.2896 204.301 36.6153 203.438 37.1952 202.802C37.7751 202.166 38.5616 201.809 39.3817 201.809Z" fill="#92E3A9" stroke="#263238" stroke-linecap="round" stroke-linejoin="round"/>
<path d="M43.4265 197.635H39.3816V201.809H43.4265V197.635Z" fill="#263238" stroke="#263238" stroke-linecap="round" stroke-linejoin="round"/>
<path d="M43.4268 206.333H37.0828V221.289H43.4268V206.333Z" fill="white" stroke="#263238" stroke-linecap="round" stroke-linejoin="round"/>
<path d="M50.9574 209.812H54.603C55.423 209.812 56.2096 210.17 56.7894 210.806C57.3693 211.442 57.6951 212.304 57.6951 213.204V224.769H47.8652V213.204C47.8652 212.304 48.191 211.442 48.7709 210.806C49.3508 210.17 50.1373 209.812 50.9574 209.812Z" fill="#92E3A9" stroke="#263238" stroke-linecap="round" stroke-linejoin="round"/>
<path d="M55.0024 205.638H50.9575V209.812H55.0024V205.638Z" fill="#263238" stroke="#263238" stroke-linecap="round" stroke-linejoin="round"/>
<path d="M55.0023 214.331H48.6582V221.289H55.0023V214.331Z" fill="white" stroke="#263238" stroke-linecap="round" stroke-linejoin="round"/>
<path d="M62.5331 209.812H66.1786C66.9987 209.812 67.7852 210.17 68.3651 210.806C68.945 211.442 69.2708 212.304 69.2708 213.204V224.769H59.4409V213.204C59.4409 212.304 59.7667 211.442 60.3466 210.806C60.9265 210.17 61.713 209.812 62.5331 209.812Z" fill="#92E3A9" stroke="#263238" stroke-linecap="round" stroke-linejoin="round"/>
<path d="M66.5779 205.638H62.533V209.812H66.5779V205.638Z" fill="#263238" stroke="#263238" stroke-linecap="round" stroke-linejoin="round"/>
<path d="M66.578 214.331H60.2339V221.289H66.578V214.331Z" fill="white" stroke="#263238" stroke-linecap="round" stroke-linejoin="round"/>
<path d="M74.1145 205.638H77.76C78.5801 205.638 79.3666 205.996 79.9465 206.632C80.5264 207.268 80.8522 208.131 80.8522 209.03V224.775H71.0166V209.03C71.0166 208.584 71.0968 208.143 71.2525 207.731C71.4083 207.319 71.6366 206.945 71.9243 206.63C72.212 206.315 72.5536 206.065 72.9294 205.895C73.3052 205.725 73.7079 205.638 74.1145 205.638Z" fill="#92E3A9" stroke="#263238" stroke-linecap="round" stroke-linejoin="round"/>
<path d="M78.1592 201.464H74.1143V205.638H78.1592V201.464Z" fill="#263238" stroke="#263238" stroke-linecap="round" stroke-linejoin="round"/>
<path d="M78.1536 210.156H71.8096V221.289H78.1536V210.156Z" fill="white" stroke="#263238" stroke-linecap="round" stroke-linejoin="round"/>
<path d="M104.905 209.812H108.55C109.371 209.812 110.157 210.17 110.737 210.806C111.317 211.442 111.643 212.305 111.643 213.204V224.769H101.796V213.204C101.796 212.757 101.876 212.314 102.033 211.902C102.189 211.489 102.418 211.114 102.707 210.799C102.996 210.484 103.339 210.234 103.716 210.065C104.093 209.896 104.497 209.81 104.905 209.812Z" fill="#92E3A9" stroke="#263238" stroke-linecap="round" stroke-linejoin="round"/>
<path d="M108.95 205.638H104.905V209.812H108.95V205.638Z" fill="#263238" stroke="#263238" stroke-linecap="round" stroke-linejoin="round"/>
<path d="M108.95 214.331H102.606V221.289H108.95V214.331Z" fill="white" stroke="#263238" stroke-linecap="round" stroke-linejoin="round"/>
<path d="M116.481 209.812H120.126C120.946 209.812 121.733 210.17 122.313 210.806C122.893 211.442 123.218 212.304 123.218 213.204V224.769H113.388V213.204C113.388 212.304 113.714 211.442 114.294 210.806C114.874 210.17 115.66 209.812 116.481 209.812Z" fill="#92E3A9" stroke="#263238" stroke-linecap="round" stroke-linejoin="round"/>
<path d="M120.525 205.638H116.48V209.812H120.525V205.638Z" fill="#263238" stroke="#263238" stroke-linecap="round" stroke-linejoin="round"/>
<path d="M120.525 214.331H114.181V221.289H120.525V214.331Z" fill="white" stroke="#263238" stroke-linecap="round" stroke-linejoin="round"/>
<path d="M128.039 201.809H131.684C132.504 201.809 133.291 202.166 133.871 202.802C134.451 203.438 134.777 204.301 134.777 205.2V224.769H124.969V205.2C124.969 204.305 125.292 203.446 125.867 202.811C126.442 202.175 127.223 201.815 128.039 201.809Z" fill="#92E3A9" stroke="#263238" stroke-linecap="round" stroke-linejoin="round"/>
<path d="M132.107 197.635H128.062V201.809H132.107V197.635Z" fill="#263238" stroke="#263238" stroke-linecap="round" stroke-linejoin="round"/>
<path d="M132.107 206.333H125.763V221.289H132.107V206.333Z" fill="white" stroke="#263238" stroke-linecap="round" stroke-linejoin="round"/>
<path d="M139.638 209.812H143.283C143.689 209.812 144.091 209.9 144.466 210.07C144.842 210.241 145.182 210.491 145.47 210.806C145.757 211.121 145.985 211.495 146.14 211.906C146.295 212.318 146.375 212.759 146.375 213.204V224.769H136.545V213.204C136.545 212.304 136.871 211.442 137.451 210.806C138.031 210.17 138.817 209.812 139.638 209.812Z" fill="#92E3A9" stroke="#263238" stroke-linecap="round" stroke-linejoin="round"/>
<path d="M143.682 205.638H139.637V209.812H143.682V205.638Z" fill="#263238" stroke="#263238" stroke-linecap="round" stroke-linejoin="round"/>
<path d="M143.682 214.331H137.338V221.289H143.682V214.331Z" fill="white" stroke="#263238" stroke-linecap="round" stroke-linejoin="round"/>
<path d="M151.213 209.812H154.853C155.259 209.812 155.661 209.9 156.036 210.07C156.411 210.241 156.752 210.491 157.039 210.806C157.326 211.121 157.554 211.495 157.71 211.906C157.865 212.318 157.945 212.759 157.945 213.204V224.769H148.121V213.204C148.121 212.304 148.447 211.442 149.027 210.806C149.606 210.17 150.393 209.812 151.213 209.812Z" fill="#92E3A9" stroke="#263238" stroke-linecap="round" stroke-linejoin="round"/>
<path d="M155.258 205.638H151.213V209.812H155.258V205.638Z" fill="#263238" stroke="#263238" stroke-linecap="round" stroke-linejoin="round"/>
<path d="M155.258 214.331H148.914V221.289H155.258V214.331Z" fill="white" stroke="#263238" stroke-linecap="round" stroke-linejoin="round"/>
<path d="M162.789 205.638H166.434C167.254 205.638 168.041 205.996 168.621 206.632C169.201 207.268 169.526 208.131 169.526 209.03V224.775H159.697V209.03C159.697 208.131 160.022 207.268 160.602 206.632C161.182 205.996 161.969 205.638 162.789 205.638Z" fill="#92E3A9" stroke="#263238" stroke-linecap="round" stroke-linejoin="round"/>
<path d="M166.834 201.464H162.789V205.638H166.834V201.464Z" fill="#263238" stroke="#263238" stroke-linecap="round" stroke-linejoin="round"/>
<path d="M166.834 210.156H160.49V221.289H166.834V210.156Z" fill="white" stroke="#263238" stroke-linecap="round" stroke-linejoin="round"/>
<path d="M23.0138 132.209H13.9712L16.2304 153.498H20.7546L23.0138 132.209Z" fill="white" stroke="#263238" stroke-linecap="round" stroke-linejoin="round"/>
<path d="M15.8711 150.112L16.2305 153.498H20.7547L21.1141 150.112H15.8711Z" fill="#263238" stroke="#263238" stroke-linecap="round" stroke-linejoin="round"/>
<path d="M20.144 136.32H16.3958V146.483H20.144V136.32Z" fill="#92E3A9" stroke="#263238" stroke-linecap="round" stroke-linejoin="round"/>
<path d="M34.0473 132.209H24.999L27.2639 153.498H31.7824L34.0473 132.209Z" fill="white" stroke="#263238" stroke-linecap="round" stroke-linejoin="round"/>
<path d="M26.9048 150.112L27.2642 153.498H31.7826L32.1421 150.112H26.9048Z" fill="#263238" stroke="#263238" stroke-linecap="round" stroke-linejoin="round"/>
<path d="M31.1779 136.32H27.4297V146.483H31.1779V136.32Z" fill="#92E3A9" stroke="#263238" stroke-linecap="round" stroke-linejoin="round"/>
<path d="M45.0754 132.209H36.0271L38.292 153.498H42.8105L45.0754 132.209Z" fill="white" stroke="#263238" stroke-linecap="round" stroke-linejoin="round"/>
<path d="M37.9326 150.112L38.292 153.498H42.8105L43.1756 150.112H37.9326Z" fill="#263238" stroke="#263238" stroke-linecap="round" stroke-linejoin="round"/>
<path d="M42.2058 136.32H38.4575V146.483H42.2058V136.32Z" fill="#92E3A9" stroke="#263238" stroke-linecap="round" stroke-linejoin="round"/>
<path d="M56.1036 132.209H47.061L49.3203 153.498H53.8444L56.1036 132.209Z" fill="white" stroke="#263238" stroke-linecap="round" stroke-linejoin="round"/>
<path d="M48.9607 150.112L49.3201 153.498H53.8443L54.2037 150.112H48.9607Z" fill="#263238" stroke="#263238" stroke-linecap="round" stroke-linejoin="round"/>
<path d="M53.2338 136.32H49.4856V146.483H53.2338V136.32Z" fill="#92E3A9" stroke="#263238" stroke-linecap="round" stroke-linejoin="round"/>
<path d="M68.3296 142.127H58.7678V145.757H68.3296V142.127Z" fill="#263238" stroke="#263238" stroke-linecap="round" stroke-linejoin="round"/>
<path d="M69.7842 145.757H57.3186V153.742H69.7842V145.757Z" fill="#92E3A9" stroke="#263238" stroke-linecap="round" stroke-linejoin="round"/>
<path d="M68.0272 147.453H59.0645V152.052H68.0272V147.453Z" fill="white" stroke="#263238" stroke-linecap="round" stroke-linejoin="round"/>
<path d="M82.4494 142.127H72.8877V145.757H82.4494V142.127Z" fill="#263238" stroke="#263238" stroke-linecap="round" stroke-linejoin="round"/>
<path d="M83.8985 145.757H71.4329V153.742H83.8985V145.757Z" fill="#92E3A9" stroke="#263238" stroke-linecap="round" stroke-linejoin="round"/>
<path d="M82.147 147.453H73.1843V152.052H82.147V147.453Z" fill="white" stroke="#263238" stroke-linecap="round" stroke-linejoin="round"/>
<path d="M111.249 132.209H102.206L104.466 153.498H108.99L111.249 132.209Z" fill="white" stroke="#263238" stroke-linecap="round" stroke-linejoin="round"/>
<path d="M104.106 150.112L104.465 153.498H108.99L109.349 150.112H104.106Z" fill="#263238" stroke="#263238" stroke-linecap="round" stroke-linejoin="round"/>
<path d="M108.379 136.32H104.631V146.483H108.379V136.32Z" fill="#92E3A9" stroke="#263238" stroke-linecap="round" stroke-linejoin="round"/>
<path d="M122.283 132.209H113.234L115.499 153.498H120.018L122.283 132.209Z" fill="white" stroke="#263238" stroke-linecap="round" stroke-linejoin="round"/>
<path d="M115.14 150.112L115.499 153.498H120.018L120.377 150.112H115.14Z" fill="#263238" stroke="#263238" stroke-linecap="round" stroke-linejoin="round"/>
<path d="M119.413 136.32H115.665V146.483H119.413V136.32Z" fill="#92E3A9" stroke="#263238" stroke-linecap="round" stroke-linejoin="round"/>
<path d="M133.311 132.209H124.268L126.527 153.498H131.051L133.311 132.209Z" fill="white" stroke="#263238" stroke-linecap="round" stroke-linejoin="round"/>
<path d="M126.168 150.112L126.527 153.498H131.051L131.411 150.112H126.168Z" fill="#263238" stroke="#263238" stroke-linecap="round" stroke-linejoin="round"/>
<path d="M130.441 136.32H126.693V146.483H130.441V136.32Z" fill="#92E3A9" stroke="#263238" stroke-linecap="round" stroke-linejoin="round"/>
<path d="M144.338 132.209H135.296L137.555 153.498H142.079L144.338 132.209Z" fill="white" stroke="#263238" stroke-linecap="round" stroke-linejoin="round"/>
<path d="M137.196 150.112L137.555 153.498H142.079L142.439 150.112H137.196Z" fill="#263238" stroke="#263238" stroke-linecap="round" stroke-linejoin="round"/>
<path d="M141.469 136.32H137.72V146.483H141.469V136.32Z" fill="#92E3A9" stroke="#263238" stroke-linecap="round" stroke-linejoin="round"/>
<path d="M156.564 142.127H147.003V145.757H156.564V142.127Z" fill="#263238" stroke="#263238" stroke-linecap="round" stroke-linejoin="round"/>
<path d="M158.019 145.757H145.554V153.742H158.019V145.757Z" fill="#92E3A9" stroke="#263238" stroke-linecap="round" stroke-linejoin="round"/>
<path d="M156.268 147.453H147.305V152.052H156.268V147.453Z" fill="white" stroke="#263238" stroke-linecap="round" stroke-linejoin="round"/>
<path d="M170.685 142.127H161.123V145.757H170.685V142.127Z" fill="#263238" stroke="#263238" stroke-linecap="round" stroke-linejoin="round"/>
<path d="M172.134 145.757H159.668V153.742H172.134V145.757Z" fill="#92E3A9" stroke="#263238" stroke-linecap="round" stroke-linejoin="round"/>
<path d="M170.382 147.453H161.42V152.052H170.382V147.453Z" fill="white" stroke="#263238" stroke-linecap="round" stroke-linejoin="round"/>
<path d="M182.289 87.246V82.7153L10.0975 82.7153V87.246L182.289 87.246Z" fill="white" stroke="#263238" stroke-linecap="round" stroke-linejoin="round"/>
<path d="M182.294 122.571V118.041L10.1031 118.041V122.571L182.294 122.571Z" fill="white" stroke="#263238" stroke-linecap="round" stroke-linejoin="round"/>
<path d="M182.289 157.903V153.373H10.0975V157.903H182.289Z" fill="white" stroke="#263238" stroke-linecap="round" stroke-linejoin="round"/>
<path d="M182.289 193.235V188.705H10.0975V193.235H182.289Z" fill="white" stroke="#263238" stroke-linecap="round" stroke-linejoin="round"/>
<path d="M182.294 228.185V223.655H10.1031V228.185H182.294Z" fill="white" stroke="#263238" stroke-linecap="round" stroke-linejoin="round"/>
<path d="M10.9247 55.9941H6.79419V238.98H10.9247V55.9941Z" fill="white" stroke="#263238" stroke-linecap="round" stroke-linejoin="round"/>
<path d="M97.6422 55.9941H93.5117V238.98H97.6422V55.9941Z" fill="white" stroke="#263238" stroke-linecap="round" stroke-linejoin="round"/>
<path d="M184.36 55.9941H180.229V238.98H184.36V55.9941Z" fill="white" stroke="#263238" stroke-linecap="round" stroke-linejoin="round"/>
<path d="M186.008 36.9702H2.66357V56.4447H186.008V36.9702Z" fill="#92E3A9" stroke="#263238" stroke-linecap="round" stroke-linejoin="round"/>
<path d="M132.329 36.9702H56.3489V56.4447H132.329V36.9702Z" fill="white" stroke="#263238" stroke-linecap="round" stroke-linejoin="round"/>
<path d="M34.732 44.4295H30.8925V40.2117H26.9331V44.4295H23.0879V48.7724H26.9331V52.984H30.8925V48.7724H34.732V44.4295Z" fill="white"/>
<path d="M164.455 44.4295H160.615V40.2117H156.656V44.4295H152.811V48.7724H156.656V52.984H160.615V48.7724H164.455V44.4295Z" fill="white"/>
<path d="M68.2383 39.9617C70.2008 39.9617 71.0395 41.2132 71.0395 43.3096V44.968C71.0395 47.1394 70.1153 48.2721 68.1299 48.2721H66.9033V53.6789H65.5112V39.9617H68.2383ZM68.1356 46.8891C69.1739 46.8891 69.6703 46.3635 69.6703 45.0493V43.2283C69.6703 41.9767 69.2595 41.3509 68.244 41.3509H66.909V46.8891H68.1356Z" fill="#92E3A9"/>
<path d="M73.5781 47.4711V53.6413H72.186V39.9617H73.5781V46.1257H76.6474V39.9617H78.0395V53.6664H76.6474V47.4711H73.5781Z" fill="#92E3A9"/>
<path d="M80.8749 50.9067L80.3957 53.6664H79.1121L81.5025 39.9617H83.5392L85.9297 53.6664H84.5376L84.0584 50.9067H80.8749ZM81.0575 49.5925H83.8416L82.4267 41.6826L81.0575 49.5925Z" fill="#92E3A9"/>
<path d="M89.7806 39.9617C91.7488 39.9617 92.5647 41.0568 92.5647 43.0906V44.2108C92.5647 45.7189 92.0854 46.6576 91.0129 47.0268C92.1539 47.4023 92.5875 48.416 92.5875 49.8866V52.0206C92.5466 52.5829 92.6308 53.1476 92.8328 53.6664H91.4236C91.2297 53.1388 91.1515 52.5686 91.1954 52.0018V49.8491C91.1954 48.3034 90.5336 47.809 89.3755 47.809H88.3885V53.6664H87.0022V39.9617H89.7806ZM89.4269 46.4198C90.5337 46.4198 91.1954 46.0318 91.1954 44.5424V43.2283C91.1954 41.9767 90.7847 41.3509 89.7463 41.3509H88.3885V46.4198H89.4269Z" fill="#92E3A9"/>
<path d="M98.6351 53.6476H97.3001L95.2291 42.7402V53.6664H94.0139V39.9617H95.9594L98.0132 50.9067L99.9929 39.9617H101.938V53.6664H100.62V42.6463L98.6351 53.6476Z" fill="#92E3A9"/>
<path d="M104.779 50.9067L104.294 53.6664H103.01L105.401 39.9617H107.421L109.811 53.6664H108.419L107.934 50.9067H104.779ZM104.956 49.5925H107.74L106.359 41.6826L104.956 49.5925Z" fill="#92E3A9"/>
<path d="M116.412 43.2718V44.5234H115.094V43.2092C115.094 41.9577 114.649 41.2317 113.628 41.2317C112.607 41.2317 112.167 41.9764 112.167 43.2092V50.4558C112.167 51.7074 112.63 52.4271 113.628 52.4271C114.626 52.4271 115.094 51.6886 115.094 50.4558V48.6723H116.412V50.3745C116.412 52.4521 115.522 53.8226 113.594 53.8226C111.665 53.8226 110.792 52.4521 110.792 50.3745V43.2718C110.792 41.1942 111.682 39.8237 113.594 39.8237C115.505 39.8237 116.412 41.213 116.412 43.2718Z" fill="#92E3A9"/>
<path d="M119.698 48.7227L117.057 39.9617H118.506L120.451 46.6951L122.414 39.9617H123.732L121.073 48.7227V53.6413H119.698V48.7227Z" fill="#92E3A9"/>
<path d="M255.422 53.9353H194.965V152.86H255.422V53.9353Z" stroke="#263238" stroke-linecap="round" stroke-linejoin="round"/>
<path d="M233.783 79.0858L213.136 93.0972C212.085 93.8113 210.915 94.2912 209.695 94.5094C208.474 94.7276 207.227 94.6799 206.023 94.369C204.819 94.0581 203.683 93.4901 202.679 92.6974C201.676 91.9047 200.825 90.9029 200.174 89.7492C198.861 87.4206 198.445 84.6152 199.017 81.9501C199.59 79.2851 201.104 76.9785 203.226 75.5376L223.885 61.52C226.008 60.0794 228.567 59.6229 230.997 60.2507C233.428 60.8785 235.532 62.5393 236.847 64.868C237.497 66.022 237.934 67.3053 238.132 68.6446C238.33 69.9839 238.286 71.3529 238.001 72.6734C237.717 73.9938 237.198 75.2398 236.474 76.3401C235.75 77.4404 234.836 78.3734 233.783 79.0858Z" stroke="#263238" stroke-linecap="round" stroke-linejoin="round"/>
<path d="M223.885 61.5197L213.353 68.6725L223.263 86.232L233.795 79.0855C234.846 78.3718 235.759 77.4379 236.482 76.3371C237.204 75.2363 237.722 73.9902 238.005 72.67C238.289 71.3497 238.332 69.9812 238.134 68.6425C237.935 67.3037 237.498 66.0211 236.847 64.8677C236.196 63.7143 235.345 62.7128 234.341 61.9203C233.338 61.1279 232.202 60.56 230.998 60.2491C229.794 59.9382 228.547 59.8904 227.326 60.1084C226.106 60.3264 224.936 60.806 223.885 61.5197Z" stroke="#263238" stroke-linecap="round" stroke-linejoin="round"/>
<path d="M239.768 122.421L216.833 113.66C215.665 113.216 214.588 112.524 213.665 111.622C212.741 110.721 211.988 109.629 211.449 108.409C210.91 107.188 210.596 105.863 210.524 104.51C210.452 103.156 210.625 101.8 211.031 100.519C211.436 99.2378 212.068 98.0567 212.889 97.0434C213.711 96.03 214.706 95.2042 215.819 94.6131C216.932 94.022 218.14 93.6773 219.374 93.5987C220.608 93.52 221.844 93.709 223.012 94.1547L245.946 102.916C248.304 103.815 250.24 105.704 251.328 108.169C252.416 110.633 252.568 113.471 251.748 116.057C250.929 118.644 249.206 120.767 246.96 121.961C244.713 123.154 242.126 123.32 239.768 122.421Z" stroke="#263238" stroke-linecap="round" stroke-linejoin="round"/>
<path d="M245.946 102.909L234.245 98.4475L228.066 117.96L239.768 122.421C242.126 123.32 244.714 123.154 246.962 121.96C249.209 120.766 250.932 118.641 251.751 116.054C252.57 113.467 252.419 110.628 251.331 108.163C250.242 105.698 248.305 103.808 245.946 102.909Z" stroke="#263238" stroke-linecap="round" stroke-linejoin="round"/>
<path d="M243.094 131.12H246.009" stroke="#263238" stroke-linecap="round" stroke-linejoin="round"/>
<path d="M203.888 131.12H239.876" stroke="#263238" stroke-linecap="round" stroke-linejoin="round"/>
<path d="M203.888 138.185H246.009" stroke="#263238" stroke-linecap="round" stroke-linejoin="round"/>
<path d="M211.088 145.256H246.009" stroke="#263238" stroke-linecap="round" stroke-linejoin="round"/>
<path d="M203.888 145.256H206.861" stroke="#263238" stroke-linecap="round" stroke-linejoin="round"/>
<path d="M229.807 121.883H232.631" stroke="#263238" stroke-linecap="round" stroke-linejoin="round"/>
<path d="M202.399 97.9656V121.883H226.184" stroke="#263238" stroke-linecap="round" stroke-linejoin="round"/>
<path d="M242.289 62.3271H239.568" stroke="#263238" stroke-linecap="round" stroke-linejoin="round"/>
<path d="M248.981 100.682V62.3271H245.507" stroke="#263238" stroke-linecap="round" stroke-linejoin="round"/>
<path d="M217.763 62.0894H201.903V73.5037" stroke="#263238" stroke-linecap="round" stroke-linejoin="round"/>
<path d="M159.075 138.761C156.85 141.451 148.629 141.833 141.417 141.802C134.206 141.771 125.044 137.302 121.98 132.503C118.916 127.703 125.101 117.909 126.185 115.638C127.269 113.366 127.702 102.208 133.915 98.9356C140.128 95.6627 153.21 97.3648 157.46 100.813C161.71 104.261 170.667 110.287 172.128 116.251C173.588 122.215 168.494 122.284 168.06 122.571C167.627 122.859 166.919 123.141 165.824 125.419C165.491 126.084 165.01 126.647 164.425 127.053C163.84 127.459 163.171 127.695 162.481 127.74L159.075 138.761Z" fill="#263238" stroke="#263238" stroke-linecap="round" stroke-linejoin="round"/>
<path d="M165.79 114.43C169.92 115.625 172.636 117.083 170.576 118.673" stroke="#545454" stroke-linecap="round" stroke-linejoin="round"/>
<path d="M149.148 111.301C149.148 111.301 157.295 112.284 163.713 113.854" stroke="#545454" stroke-linecap="round" stroke-linejoin="round"/>
<path d="M145.634 109.837C145.634 109.837 156.091 106.013 166.018 110.719" stroke="#545454" stroke-linecap="round" stroke-linejoin="round"/>
<path d="M157.791 104.586C158.308 104.73 158.815 104.912 159.309 105.131" stroke="#545454" stroke-linecap="round" stroke-linejoin="round"/>
<path d="M141.88 108.66C141.88 108.66 148.195 103.911 154.904 104.149" stroke="#545454" stroke-linecap="round" stroke-linejoin="round"/>
<path d="M125.7 131.602C124.949 131.896 124.17 132.093 123.378 132.19" stroke="#545454" stroke-linecap="round" stroke-linejoin="round"/>
<path d="M144.584 114.837C144.584 114.837 137.076 123.072 132.249 127.484C130.851 128.78 129.308 129.876 127.657 130.744" stroke="#545454" stroke-linecap="round" stroke-linejoin="round"/>
<path d="M139.734 113.072C139.734 113.072 131.958 122.778 124.987 125.694" stroke="#545454" stroke-linecap="round" stroke-linejoin="round"/>
<path d="M211.333 226.145C211.333 226.145 214.021 228.805 214.374 229.562C214.728 230.319 216.046 233.548 215.561 233.63C215.076 233.711 213.906 231.652 213.558 230.789C213.21 229.925 211.847 227.66 211.847 227.66L211.333 226.145Z" fill="white" stroke="#263238" stroke-linecap="round" stroke-linejoin="round"/>
<path d="M209.65 224.274C209.65 224.274 211.505 226.152 211.858 226.909C212.212 227.666 213.866 234.5 213.866 234.5C213.866 234.5 213.068 235.2 212.509 234.862C211.95 234.525 209.993 227.772 209.993 227.772L209.65 224.274Z" fill="white" stroke="#263238" stroke-linecap="round" stroke-linejoin="round"/>
<path d="M205.434 221.327C205.434 221.327 208.823 223.285 209.65 224.274C210.478 225.263 211.79 233.454 212.052 234.205C212.315 234.956 210.746 235.513 210.375 235.182C210.004 234.85 208.481 227.697 208.481 227.697L205.423 222.278L205.434 221.327Z" fill="white" stroke="#263238" stroke-linecap="round" stroke-linejoin="round"/>
<path d="M197.39 220.419L203.803 220.557C204.349 220.57 204.885 220.721 205.369 220.999C205.853 221.277 206.272 221.674 206.593 222.159L209.285 226.264L209.747 234.431C209.751 234.533 209.736 234.634 209.703 234.73C209.669 234.825 209.618 234.912 209.553 234.984C209.488 235.057 209.41 235.114 209.323 235.153C209.237 235.191 209.144 235.209 209.051 235.207C208.908 235.197 208.77 235.139 208.658 235.041C208.545 234.942 208.464 234.808 208.424 234.656L206.558 227.272L204.111 226.02C204.111 226.02 200.363 228.273 200.442 228.698C200.522 229.124 202.622 231.971 203.078 232.622C203.535 233.273 204.647 234.387 204.333 235.006C204.02 235.626 202.12 235.006 201.481 234.549C200.842 234.093 197.356 229.287 196.05 228.292C194.743 227.297 193.34 226.258 193.34 226.258L197.39 220.419Z" fill="white" stroke="#263238" stroke-linecap="round" stroke-linejoin="round"/>
<path d="M196.243 222.309L195.37 227.597L193.91 226.314L196.243 222.309Z" fill="#263238" stroke="#263238" stroke-linecap="round" stroke-linejoin="round"/>
<path d="M168.545 153.911C168.545 153.911 174.313 155.6 175.123 159.73C175.933 163.861 179.499 204.543 179.499 204.543L198.611 218.166L192.826 227.96L174.678 224.049L164.05 152.603L168.545 153.911Z" fill="white" stroke="#263238" stroke-linecap="round" stroke-linejoin="round"/>
<path d="M179.499 204.543C179.499 204.543 176.972 206.008 176.076 207.322" stroke="#263238" stroke-linecap="round" stroke-linejoin="round"/>
<path d="M171.683 163.41L176.783 238.592L112.367 235.714C112.367 235.714 114.181 158.041 114.957 156.377C115.733 154.712 121.986 153.917 127.149 152.14C132.312 150.363 141.52 146.971 141.52 146.971L153.638 147.534C157.027 147.697 171.033 154.875 171.01 155.494" fill="white"/>
<path d="M171.683 163.41L176.783 238.592L112.367 235.714C112.367 235.714 114.181 158.041 114.957 156.377C115.733 154.712 121.986 153.917 127.149 152.14C132.312 150.363 141.52 146.971 141.52 146.971L153.638 147.534C157.027 147.697 171.033 154.875 171.01 155.494" stroke="#263238" stroke-linecap="round" stroke-linejoin="round"/>
<path d="M172.271 178.248H165.875V180.963H172.271V178.248Z" fill="#263238" stroke="#263238" stroke-linecap="round" stroke-linejoin="round"/>
<path d="M134.725 150.019L135.33 177.822L142.61 179.718L138.508 186.815L148.737 218.023" fill="white"/>
<path d="M134.725 150.019L135.33 177.822L142.61 179.718L138.508 186.815L148.737 218.023" stroke="#263238" stroke-linecap="round" stroke-linejoin="round"/>
<path d="M156.433 148.41C156.433 148.41 163.182 163.779 165.105 168.836C167.028 173.892 167.815 175.481 167.815 175.481L163 179.136L167.923 183.404L163.319 210.488" fill="white"/>
<path d="M156.433 148.41C156.433 148.41 163.182 163.779 165.105 168.836C167.028 173.892 167.815 175.481 167.815 175.481L163 179.136L167.923 183.404L163.319 210.488" stroke="#263238" stroke-linecap="round" stroke-linejoin="round"/>
<path d="M137.167 148.848C137.167 148.848 146.923 177.578 147.693 186.765C148.463 195.951 150.346 237.941 150.346 237.941L162.897 238.567C162.897 238.567 162.429 196.639 160.501 181.045C158.573 165.45 155.828 152.428 155.326 150.857C154.885 149.669 154.31 148.546 153.615 147.515L145.867 146.264L137.167 148.848Z" fill="#92E3A9" stroke="#263238" stroke-linecap="round" stroke-linejoin="round"/>
<path d="M161.106 195.832L156.319 206.671" stroke="#263238" stroke-linecap="round" stroke-linejoin="round"/>
<path d="M159.309 195.832L152.428 211.596" stroke="#263238" stroke-linecap="round" stroke-linejoin="round"/>
<path d="M141.218 136.051C141.218 136.051 141.258 145.832 141.075 146.908C140.893 147.985 138.034 147.597 137.977 148.992C137.92 150.388 142.256 163.567 146.478 167.647C150.7 171.727 152 171.164 153.256 167.966C154.511 164.768 154.882 158.485 154.967 156.47C155.001 155.575 155.173 153.341 154.967 152.252C154.67 150.719 154.294 148.529 153.113 147.64L152.662 147.302L152.851 142.503C152.851 142.503 145.656 141.852 141.218 136.051Z" fill="white" stroke="#263238" stroke-linecap="round" stroke-linejoin="round"/>
<path d="M152.656 147.302L152.845 142.503C152.845 142.503 145.656 141.877 141.218 136.051V136.113L141.514 137.615C141.514 137.615 144.31 146.633 153.107 147.628L152.656 147.302Z" fill="#263238" stroke="#263238" stroke-linecap="round" stroke-linejoin="round"/>
<path d="M148.098 112.327C148.098 112.327 140.111 109.624 139.763 108.366C139.415 107.108 139.797 104.023 138.782 104.611C137.766 105.2 137.903 108.911 139.272 110.062C140.642 111.213 148.218 112.815 148.737 114.08C149.256 115.344 148.509 116.238 145.959 119.843C143.409 123.448 132.312 128.823 132.261 130.075C132.209 131.326 133.476 135.081 135.45 135.344C136.699 135.464 137.95 135.143 139.021 134.43C140.409 137.324 142.457 139.773 144.966 141.539C148.96 144.211 154.722 145.256 158.219 142.634C160.13 141.195 163.502 134.192 163.759 131.257C164.015 128.322 162.589 124.999 162.618 123.748C162.646 122.496 162.726 120.963 162.726 120.963C162.726 120.963 152.782 114.906 151.419 113.598C150.47 112.785 149.302 112.338 148.098 112.327Z" fill="white" stroke="#263238" stroke-linecap="round" stroke-linejoin="round"/>
<path d="M146.386 120.938C146.386 120.938 149.239 118.936 152.092 120.506" stroke="#263238" stroke-linecap="round" stroke-linejoin="round"/>
<path d="M157.597 120.65C157.597 120.65 159.417 119.649 161.129 121.939" stroke="#263238" stroke-linecap="round" stroke-linejoin="round"/>
<path d="M156.04 126.051C156.04 126.051 155.817 128.21 156.359 128.704C156.901 129.198 158.025 129.555 157.426 130.463C156.827 131.37 154.978 131.433 154.174 130.306" stroke="#263238" stroke-linecap="round" stroke-linejoin="round"/>
<path d="M158.424 133.767C158.424 133.767 156.091 135.519 152.337 133.942" stroke="#263238" stroke-linecap="round" stroke-linejoin="round"/>
<path d="M150.009 125.657C149.975 126.514 149.502 127.19 148.96 127.159C148.418 127.127 147.996 126.42 148.03 125.563C148.064 124.706 148.532 124.036 149.08 124.061C149.627 124.086 150.044 124.806 150.009 125.657Z" fill="#263238"/>
<path d="M160.033 126.132C159.999 126.989 159.525 127.665 158.983 127.634C158.441 127.603 158.019 126.896 158.053 126.038C158.088 125.181 158.561 124.511 159.103 124.536C159.645 124.561 160.067 125.281 160.033 126.132Z" fill="#263238"/>
<path d="M152.709 122.177L145.812 121.849C144.987 121.81 144.29 122.512 144.254 123.416L144.139 126.336C144.103 127.241 144.743 128.006 145.568 128.045L152.464 128.373C153.289 128.412 153.987 127.71 154.022 126.806L154.138 123.886C154.173 122.981 153.534 122.216 152.709 122.177Z" stroke="#263238" stroke-linecap="round" stroke-linejoin="round"/>
<path d="M163.016 122.672L157.533 122.411C156.708 122.372 156.011 123.074 155.975 123.978L155.86 126.898C155.824 127.803 156.463 128.568 157.288 128.607L162.771 128.867C163.596 128.907 164.294 128.205 164.329 127.3L164.445 124.381C164.48 123.476 163.841 122.711 163.016 122.672Z" stroke="#263238" stroke-linecap="round" stroke-linejoin="round"/>
<path d="M154.18 123.016L155.874 123.097" stroke="#263238" stroke-linecap="round" stroke-linejoin="round"/>
<path d="M144.219 124.562L140.265 124.374" stroke="#263238" stroke-linecap="round" stroke-linejoin="round"/>
<path d="M147.488 216.74C147.488 216.74 151.635 216.54 153.107 215.82C154.579 215.1 164.951 212.065 165.482 212.259C167.252 213.06 168.968 213.999 170.616 215.069C171.455 215.745 173.258 221.133 173.942 223.267C174.026 223.503 174.023 223.765 173.933 223.999C173.844 224.232 173.675 224.419 173.463 224.518C173.264 224.619 173.039 224.637 172.829 224.569C172.619 224.502 172.439 224.352 172.322 224.149L170.827 221.521L171.906 226.439C171.965 226.697 171.933 226.97 171.815 227.203C171.697 227.435 171.503 227.61 171.272 227.691C171.089 227.757 170.892 227.76 170.706 227.701C170.521 227.642 170.356 227.523 170.234 227.359L166.72 222.597L165.008 220.72L168.602 228.041C168.667 228.176 168.703 228.325 168.705 228.477C168.708 228.629 168.677 228.779 168.617 228.916C168.556 229.053 168.467 229.172 168.356 229.263C168.246 229.355 168.117 229.417 167.98 229.443C167.844 229.468 167.705 229.458 167.573 229.414C167.442 229.369 167.321 229.291 167.222 229.187C166.189 228.085 162.994 224.675 162.715 224.18C162.14 223.432 161.504 222.743 160.815 222.122L164.306 229.393C164.37 229.494 164.414 229.609 164.433 229.73C164.453 229.851 164.449 229.975 164.421 230.094C164.392 230.213 164.341 230.324 164.27 230.419C164.199 230.514 164.11 230.591 164.01 230.645H163.958C162.772 230.695 162.173 229.769 161.323 228.855L157.648 224.913C157.648 224.913 152.018 226.22 150.414 225.751C148.811 225.282 145.154 222.147 145.154 222.147L147.488 216.74Z" fill="white" stroke="#263238" stroke-linecap="round" stroke-linejoin="round"/>
<path d="M147.488 216.74L147.328 223.749L145.114 222.153L147.488 216.74Z" fill="#263238" stroke="#263238" stroke-linecap="round" stroke-linejoin="round"/>
<path d="M170.804 221.521L169.543 218.723L165.094 215.156" fill="white"/>
<path d="M170.804 221.521L169.543 218.723L165.094 215.156" stroke="#263238" stroke-linecap="round" stroke-linejoin="round"/>
<path d="M164.968 220.726L162.948 218.411" stroke="#263238" stroke-linecap="round" stroke-linejoin="round"/>
<path d="M120.959 154.674C120.959 154.674 115.391 154.411 113.862 156.708C112.333 159.005 108.773 213.623 108.858 215.995C108.944 218.367 143.266 227.985 143.266 227.985L148.224 216.377L127.725 203.072L128.918 172.033" fill="white"/>
<path d="M120.959 154.674C120.959 154.674 115.391 154.411 113.862 156.708C112.333 159.005 108.773 213.623 108.858 215.995C108.944 218.367 143.266 227.985 143.266 227.985L148.224 216.377L127.725 203.072L128.918 172.033" stroke="#263238" stroke-linecap="round" stroke-linejoin="round"/>
<path d="M118.603 203.385C118.603 203.385 123.977 200.457 127.731 203.072" stroke="#263238" stroke-linecap="round" stroke-linejoin="round"/>
<path d="M120.725 205.231C122.413 204.112 124.344 203.512 126.316 203.492" stroke="#263238" stroke-linecap="round" stroke-linejoin="round"/>
<path d="M118.049 208.129C118.175 207.885 118.318 207.653 118.477 207.434" stroke="#263238" stroke-linecap="round" stroke-linejoin="round"/>
<path d="M251.611 219.236C251.611 219.236 249.061 215.682 249.061 213.523C249.061 211.364 251.029 214.543 251.029 214.543C251.029 214.543 246.865 206.164 247.213 202.734C247.561 199.305 250.681 208.704 250.681 208.704C250.681 208.704 249.643 189.411 251.378 190.044C253.112 190.676 255.314 208.817 255.314 209.975C255.314 211.133 256.814 201.977 257.973 204.643C259.131 207.309 259.114 213.654 259.114 213.654C259.114 213.654 260.62 204.005 261.778 207.309C262.936 210.613 260.397 219.362 260.397 219.362" fill="#92E3A9"/>
<path d="M263.301 222.171H249.215V234.994H263.301V222.171Z" stroke="#263238" stroke-linecap="round" stroke-linejoin="round"/>
<path d="M263.415 226.615V219.324H249.153V227.697C249.153 228.195 249.333 228.673 249.654 229.025C249.975 229.377 250.41 229.575 250.864 229.575H250.955C251.409 229.575 251.845 229.377 252.166 229.025C252.487 228.673 252.667 228.195 252.667 227.697V226.64H252.758V227.697C252.758 228.195 252.939 228.673 253.26 229.025C253.58 229.377 254.016 229.575 254.47 229.575H254.561C255.015 229.575 255.45 229.377 255.771 229.025C256.092 228.673 256.273 228.195 256.273 227.697V226.64H256.364V227.697C256.364 228.195 256.544 228.673 256.865 229.025C257.186 229.377 257.621 229.575 258.075 229.575H258.161C258.615 229.575 259.05 229.377 259.371 229.025C259.692 228.673 259.872 228.195 259.872 227.697V226.64H259.964V227.697C259.964 228.195 260.144 228.673 260.465 229.025C260.786 229.377 261.221 229.575 261.675 229.575H261.761C262.215 229.575 262.65 229.377 262.971 229.025C263.292 228.673 263.472 228.195 263.472 227.697V226.64L263.415 226.615Z" fill="white" stroke="#263238" stroke-linecap="round" stroke-linejoin="round"/>
<path d="M92.2167 225.426V220.038H81.4797V225.225L92.2167 225.426Z" fill="#BFBFBF" stroke="#263238" stroke-linecap="round" stroke-linejoin="round"/>
<path d="M81.4798 220.037L80.3901 217.24C82.5188 217.027 84.6645 217.162 86.757 217.641C88.7004 218.048 90.5541 218.861 92.2168 220.037H81.4798Z" fill="white" stroke="#263238" stroke-linecap="round" stroke-linejoin="round"/>
<path d="M80.3899 217.24C80.3899 217.24 76.75 217.441 74.7476 220.238C73.5015 222.107 72.7458 224.314 72.5625 226.621L81.4796 225.225V220.038L80.3899 217.24Z" fill="white" stroke="#263238" stroke-linecap="round" stroke-linejoin="round"/>
<path d="M78.57 221.834V225.82L75.8373 226.02C75.7631 224.918 75.9601 223.813 76.4078 222.823C76.5923 222.393 76.9157 222.054 77.3153 221.871C77.7148 221.689 78.162 221.675 78.57 221.834Z" fill="white" stroke="#263238" stroke-linecap="round" stroke-linejoin="round"/>
<path d="M81.1146 237.203H75.478L71.8381 230.213L78.9353 228.223L81.1146 237.203Z" fill="white" stroke="#263238" stroke-linecap="round" stroke-linejoin="round"/>
<path d="M105.681 229.618L102.041 237.203H81.1146L78.0225 230.613L105.681 229.618Z" fill="#A6A6A6" stroke="#263238" stroke-linecap="round" stroke-linejoin="round"/>
<path d="M78.0281 230.62H106.776V225.031H78.0281V230.62Z" fill="#BFBFBF" stroke="#263238" stroke-linecap="round" stroke-linejoin="round"/>
<path d="M78.0223 225.025L71.2903 227.622V231.014L78.0223 230.613V225.025Z" fill="white" stroke="#263238" stroke-linecap="round" stroke-linejoin="round"/>
<path d="M152.639 233.561L189.488 232.948L193.265 232.272H231.695L230.434 235.113H151.692L152.639 233.561Z" fill="#263238" stroke="#263238" stroke-linecap="round" stroke-linejoin="round"/>
<path d="M239.739 222.985H192.49L199.113 170.851H246.357L239.739 222.985Z" fill="#263238" stroke="#263238" stroke-linecap="round" stroke-linejoin="round"/>
<path d="M241.85 222.985H194.601L201.224 170.851H248.474L241.85 222.985Z" fill="#3D3D3D" stroke="#263238" stroke-linecap="round" stroke-linejoin="round"/>
<path d="M227.696 206.733H212.879L215.373 187.109H230.189L227.696 206.733Z" fill="#3D3D3D" stroke="#263238" stroke-linecap="round" stroke-linejoin="round"/>
<path d="M215.373 187.109L201.224 170.851H248.474L230.189 187.109H215.373Z" fill="#595959" stroke="#263238" stroke-linecap="round" stroke-linejoin="round"/>
<path d="M212.88 206.733L195.65 222.816L241.85 222.985L227.696 206.733H212.88Z" fill="#2E2E2E" stroke="#263238" stroke-linecap="round" stroke-linejoin="round"/>
<path d="M223.423 210.307C228.319 210.307 232.288 205.953 232.288 200.582C232.288 195.211 228.319 190.857 223.423 190.857C218.526 190.857 214.557 195.211 214.557 200.582C214.557 205.953 218.526 210.307 223.423 210.307Z" fill="#263238" stroke="#263238" stroke-linecap="round" stroke-linejoin="round"/>
<path d="M224.233 195.651H224.803C226.337 195.651 227.809 196.319 228.894 197.509C229.979 198.699 230.588 200.313 230.588 201.996V236.414H218.448V201.996C218.448 200.313 219.057 198.699 220.142 197.509C221.227 196.319 222.698 195.651 224.233 195.651Z" fill="#595959" stroke="#263238" stroke-linecap="round" stroke-linejoin="round"/>
<path d="M230.588 236.408V202.309C230.427 200.825 229.735 199.472 228.665 198.548C227.594 197.624 226.233 197.204 224.88 197.381C223.527 197.558 222.294 198.317 221.452 199.491C220.609 200.665 220.226 202.158 220.387 203.642V236.408H230.588Z" fill="#595959" stroke="#263238" stroke-linecap="round" stroke-linejoin="round"/>
<path d="M226.406 219.355H226.264C225.432 219.355 224.758 220.095 224.758 221.008V226.496C224.758 227.408 225.432 228.148 226.264 228.148H226.406C227.238 228.148 227.912 227.408 227.912 226.496V221.008C227.912 220.095 227.238 219.355 226.406 219.355Z" fill="#263238" stroke="#263238" stroke-linecap="round" stroke-linejoin="round"/>
<path d="M230.828 233.21H208.487V236.408H230.828V233.21Z" fill="#595959" stroke="#263238" stroke-linecap="round" stroke-linejoin="round"/>
<path d="M269.155 235.075H1.87061V240.67H269.155V235.075Z" fill="#263238" stroke="#263238" stroke-linecap="round" stroke-linejoin="round"/>
</svg>
