<svg width="336" height="251" viewBox="0 0 336 251" fill="none" xmlns="http://www.w3.org/2000/svg">
<path d="M173.287 250.166C262.921 250.166 335.584 247.652 335.584 244.55C335.584 241.449 262.921 238.935 173.287 238.935C83.653 238.935 10.9902 241.449 10.9902 244.55C10.9902 247.652 83.653 250.166 173.287 250.166Z" fill="#92E3A9"/>
<path opacity="0.5" d="M173.287 250.166C262.921 250.166 335.584 247.652 335.584 244.55C335.584 241.449 262.921 238.935 173.287 238.935C83.653 238.935 10.9902 241.449 10.9902 244.55C10.9902 247.652 83.653 250.166 173.287 250.166Z" fill="white"/>
<path d="M52.1275 171.309C52.1275 171.309 55.6888 168.493 56.6019 166.69C57.3629 165.168 57.9412 162.984 57.1346 161.363C56.9619 160.974 56.7095 160.625 56.3937 160.34C56.0779 160.055 55.7058 159.838 55.3013 159.706C54.8969 159.573 54.4691 159.527 54.0456 159.57C53.6221 159.613 53.2124 159.744 52.8428 159.955C50.6512 161.325 50.423 165.967 50.9785 168.204C50.9861 168.402 52.0818 171.331 52.1275 171.309Z" fill="#92E3A9"/>
<path d="M19.2159 194.754C19.3681 194.891 21.9021 196.732 21.9173 196.686C21.9325 196.641 23.3327 192.379 23.1044 190.37C22.899 188.658 22.1761 186.566 20.6009 185.615C20.2391 185.383 19.8325 185.231 19.4078 185.169C18.9831 185.106 18.5499 185.133 18.1367 185.25C17.7235 185.366 17.3396 185.569 17.0101 185.844C16.6807 186.119 16.4133 186.461 16.2254 186.847C15.1524 189.161 17.519 193.171 19.2159 194.754Z" fill="#92E3A9"/>
<path d="M93.805 175.562C93.805 175.562 80.7698 189.016 80.8687 205.536C80.9676 222.057 94.0865 235.404 94.0865 235.404C94.0865 235.404 107.114 221.95 107.023 205.422C106.931 188.894 93.805 175.562 93.805 175.562Z" fill="#92E3A9"/>
<path d="M75.2225 215.436C75.3945 215.251 75.5522 215.052 75.6943 214.843C76.6455 213.405 77.4521 211.312 76.8433 209.592C76.7184 209.18 76.5074 208.799 76.2244 208.475C75.9414 208.15 75.5927 207.89 75.2015 207.71C74.8102 207.53 74.3853 207.435 73.9547 207.432C73.5242 207.428 73.0978 207.516 72.7037 207.69C70.9383 208.519 70.0632 211.358 69.8806 213.679C69.1729 213.519 68.5337 213.397 67.9934 213.306L67.2857 211.715C67.027 211.167 66.8443 210.612 66.6237 210.056C66.3117 209.227 66.0301 208.359 65.7486 207.5C66.7759 207.035 69.7816 205.635 70.9002 204.395C72.0189 203.155 73.1831 201.176 72.8255 199.38C72.761 198.956 72.6077 198.551 72.3756 198.19C72.1435 197.829 71.8378 197.522 71.4786 197.288C71.1194 197.054 70.7147 196.898 70.2911 196.831C69.8676 196.764 69.4346 196.787 69.0207 196.899C66.5476 197.66 65.0941 202.059 65.0409 204.364C65.0409 204.441 65.0409 204.928 65.1322 205.506C64.8811 204.654 64.63 203.801 64.3712 202.934C63.7396 200.453 63.1689 197.919 62.583 195.378C62.4612 194.845 62.3319 194.32 62.2101 193.787C63.0776 193.407 66.3421 191.915 67.5368 190.614C68.7315 189.313 69.8197 187.395 69.4696 185.599C69.4052 185.175 69.2519 184.77 69.0198 184.409C68.7877 184.049 68.482 183.741 68.1228 183.507C67.7636 183.273 67.3589 183.117 66.9353 183.05C66.5117 182.983 66.0788 183.006 65.6649 183.119C63.1918 183.879 61.7383 188.278 61.6851 190.583C61.6851 190.667 61.7383 191.246 61.7916 191.9C61.4568 190.523 61.1067 189.153 60.711 187.806C60.0569 185.491 59.2458 183.223 58.2836 181.018C58.588 180.881 62.4536 179.215 63.7549 177.769C64.9115 176.498 66.0377 174.55 65.6877 172.754C65.6233 172.33 65.47 171.925 65.2379 171.564C65.0058 171.204 64.7001 170.896 64.3409 170.662C63.9816 170.428 63.577 170.272 63.1534 170.205C62.7298 170.138 62.2968 170.161 61.8829 170.274C59.4098 171.035 57.9564 175.433 57.9031 177.739C57.9031 177.898 58.0933 180.021 58.1847 180.782C58.1878 180.755 58.1878 180.726 58.1847 180.699C57.1861 178.556 55.9994 176.506 54.6386 174.573C53.417 172.854 52.0958 171.207 50.6816 169.642C49.4032 168.166 48.1324 166.887 47.0062 165.769C46.3898 165.168 45.8115 164.627 45.2712 164.133H45.3245C45.3778 164.133 44.1222 161.256 44.0233 161.089C42.8666 159.095 39.4575 155.922 36.9388 156.47C36.5217 156.571 36.1308 156.759 35.7916 157.022C35.4524 157.285 35.1727 157.617 34.9708 157.996C34.7688 158.374 34.6493 158.792 34.6199 159.22C34.5906 159.648 34.6521 160.077 34.8005 160.48C35.3636 162.215 37.2812 163.379 38.9096 163.942C40.5381 164.506 44.2363 164.239 45.119 164.163C45.6745 164.688 46.2529 165.259 46.8845 165.906C47.9879 167.047 49.2206 168.341 50.4686 169.847C50.8034 170.243 51.1458 170.684 51.4806 171.111C50.7653 170.517 49.7685 169.71 49.662 169.642C47.7139 168.409 43.2319 167.161 41.2458 168.813C40.9185 169.094 40.655 169.443 40.4727 169.834C40.2904 170.226 40.1936 170.652 40.1885 171.083C40.1835 171.515 40.2704 171.943 40.4435 172.339C40.6166 172.735 40.8719 173.089 41.1925 173.378C42.4937 174.657 44.731 174.809 46.4355 174.558C48.14 174.307 51.3817 172.313 52.0742 171.872C52.8351 172.823 53.5504 173.812 54.2505 174.915C55.553 176.854 56.6811 178.904 57.6216 181.041C57.6748 181.163 57.7129 181.3 57.7661 181.422C57.4618 181.072 55.6507 179.238 55.4833 179.139C53.6874 177.701 49.3956 175.966 47.2117 177.389C46.859 177.633 46.5622 177.95 46.3406 178.318C46.119 178.685 45.9777 179.096 45.926 179.522C45.8743 179.948 45.9132 180.38 46.0404 180.79C46.1675 181.2 46.38 181.579 46.6638 181.901C47.8128 183.309 50.0196 183.712 51.7394 183.644C53.7255 183.575 57.6292 181.604 57.7814 181.528C58.6563 183.685 59.3908 185.897 59.9805 188.148C60.4295 189.815 60.81 191.519 61.1752 193.232C60.7719 192.783 59.0826 191.078 58.9532 190.949C57.1498 189.503 52.8656 187.776 50.674 189.191C50.3214 189.436 50.0246 189.752 49.803 190.12C49.5814 190.488 49.4401 190.898 49.3883 191.324C49.3366 191.751 49.3756 192.183 49.5027 192.593C49.6299 193.003 49.8423 193.381 50.1261 193.703C51.2752 195.119 53.4896 195.515 55.2093 195.454C57.1422 195.385 60.8937 193.513 61.2057 193.353C61.3731 194.114 61.5481 194.875 61.7079 195.69C62.233 198.239 62.7504 200.803 63.3363 203.299C63.5418 204.174 63.7701 205.019 64.006 205.871C63.3668 205.217 62.1949 204.03 62.0884 203.946C60.2849 202.5 56.0007 200.765 53.8092 202.188C53.4565 202.433 53.1597 202.75 52.9381 203.117C52.7165 203.485 52.5752 203.895 52.5235 204.321C52.4717 204.748 52.5107 205.18 52.6379 205.59C52.765 206 52.9775 206.378 53.2613 206.701C54.4103 208.116 56.6247 208.512 58.3445 208.451C60.0642 208.39 63.2602 206.883 64.1506 206.442C64.5387 207.857 64.9648 209.257 65.4366 210.612C65.6573 211.19 65.8475 211.791 66.091 212.339L66.4486 213.207L65.954 213.153C65.954 213.153 65.916 213.96 65.954 215.277C64.0593 213.922 61.3274 212.758 59.5468 213.58C59.1614 213.768 58.8203 214.036 58.5457 214.366C58.2712 214.696 58.0695 215.08 57.9538 215.493C57.8381 215.906 57.8111 216.339 57.8745 216.763C57.9378 217.188 58.0902 217.594 58.3216 217.955C58.4398 218.147 58.5721 218.33 58.7173 218.503C59.0547 220.501 59.8983 222.379 61.1676 223.959C61.2665 224.073 62.5526 225.26 63.2298 225.854C62.5754 225.504 61.9286 225.154 61.2589 224.773C60.2925 224.241 59.2881 223.639 58.3064 223.069L56.7845 222.11C56.2671 221.79 55.8105 221.433 55.3159 221.09C54.6006 220.573 53.8853 220.002 53.1776 219.439C53.7787 218.488 55.5137 215.634 55.7572 214.013C56.0007 212.393 55.879 210.072 54.6082 208.763C54.3225 208.439 53.9712 208.179 53.5776 208.002C53.1841 207.824 52.7571 207.732 52.3253 207.732C51.8935 207.732 51.4666 207.824 51.073 208.002C50.6794 208.179 50.3281 208.439 50.0424 208.763C48.3836 210.741 49.6163 215.231 50.8034 217.187C50.8034 217.247 51.1458 217.635 51.5111 218.084C50.8338 217.514 50.149 216.943 49.4793 216.342C47.5845 214.63 45.6745 212.826 43.8178 211.015L42.6307 209.897C43.1482 209.136 45.0506 206.092 45.3093 204.326C45.568 202.561 45.4234 200.385 44.1526 199.083C43.867 198.76 43.5157 198.5 43.1221 198.322C42.7285 198.145 42.3016 198.053 41.8698 198.053C41.4379 198.053 41.011 198.145 40.6174 198.322C40.2238 198.5 39.8725 198.76 39.5869 199.083C37.928 201.062 39.1532 205.552 40.3479 207.5C40.3479 207.568 40.7512 208.032 41.1621 208.542C40.1196 207.576 39.0694 206.632 38.0041 205.727C36.1769 204.157 34.2474 202.711 32.2285 201.397C32.4111 201.123 34.7092 197.592 34.9983 195.674C35.2571 193.97 35.1201 191.733 33.8417 190.431C33.556 190.107 33.2048 189.848 32.8112 189.67C32.4176 189.493 31.9907 189.401 31.5588 189.401C31.127 189.401 30.7001 189.493 30.3065 189.67C29.9129 189.848 29.5616 190.107 29.2759 190.431C27.6171 192.41 28.8498 196.899 30.0749 198.847C30.1586 198.984 31.4827 200.636 31.9773 201.214L31.9088 201.161C29.8899 199.927 27.7663 198.872 25.5625 198.01C23.602 197.229 21.5973 196.563 19.5585 196.017C17.6714 195.492 15.9059 195.126 14.3536 194.814C13.5013 194.655 12.7251 194.525 12.0022 194.404H12.0479C12.0479 194.404 9.45303 192.669 9.2704 192.577C7.20821 191.55 2.61964 190.789 0.816178 192.63C0.523457 192.945 0.30059 193.318 0.162227 193.724C0.0238653 194.131 -0.0268578 194.562 0.0133927 194.99C0.0536432 195.418 0.183956 195.832 0.395763 196.206C0.607571 196.579 0.896078 196.904 1.24231 197.158C2.67291 198.292 4.91012 198.208 6.56901 197.782C8.22789 197.356 11.1347 195.096 11.8957 194.533C12.6567 194.67 13.4176 194.822 14.3308 195.012C15.8527 195.355 17.6257 195.773 19.4977 196.321L21.0196 196.816C20.0912 196.717 18.8204 196.603 18.691 196.603C16.4082 196.648 11.9642 198.079 11.2108 200.552C11.0987 200.965 11.0749 201.397 11.1409 201.819C11.2069 202.242 11.3612 202.646 11.5939 203.005C11.8265 203.364 12.1322 203.67 12.491 203.903C12.8498 204.136 13.2537 204.29 13.6763 204.357C15.4646 204.699 17.4202 203.596 18.6986 202.447C19.9771 201.298 21.5903 197.843 21.9251 197.12C23.0589 197.508 24.208 197.934 25.4027 198.444C27.5604 199.34 29.6334 200.427 31.5969 201.693C31.711 201.77 31.8175 201.861 31.9317 201.929C31.4751 201.808 28.9563 201.275 28.7737 201.26C26.4908 201.047 21.9251 202.021 20.9054 204.364C20.7541 204.777 20.6939 205.217 20.7288 205.655C20.7637 206.093 20.8929 206.518 21.1076 206.901C21.3224 207.284 21.6175 207.616 21.9727 207.875C22.3279 208.133 22.7348 208.311 23.1655 208.397C24.9081 208.938 26.9702 208.055 28.3704 207.051C29.9836 205.902 32.1752 202.104 32.2361 201.96C34.1575 203.273 35.9903 204.712 37.7226 206.267C39.0162 207.408 40.2718 208.618 41.5273 209.843C40.9338 209.691 38.59 209.204 38.4226 209.189C36.1398 208.976 31.574 209.912 30.5543 212.286C30.3956 212.684 30.3227 213.111 30.3404 213.539C30.3581 213.967 30.466 214.387 30.6571 214.771C30.8482 215.154 31.1181 215.493 31.4492 215.765C31.7803 216.037 32.1651 216.236 32.5785 216.349C34.3211 216.897 36.3833 216.007 37.7834 215.01C39.3586 213.884 41.4512 210.254 41.5882 209.942C42.1589 210.505 42.7296 211.053 43.2927 211.616C45.1419 213.458 46.9834 215.307 48.863 217.08C49.5098 217.689 50.1718 218.267 50.8338 218.853C49.9435 218.655 48.3151 218.313 48.1705 218.305C45.8876 218.092 41.3219 219.028 40.3022 221.402C40.1435 221.801 40.0709 222.228 40.0891 222.657C40.1073 223.086 40.2159 223.505 40.4077 223.889C40.5996 224.273 40.8704 224.612 41.2023 224.883C41.5343 225.155 41.9199 225.354 42.3339 225.466C44.0689 226.014 46.1387 225.123 47.5313 224.126C48.9238 223.13 50.7653 220.109 51.2752 219.249C52.3786 220.215 53.4972 221.144 54.6462 222.011C55.1485 222.376 55.6355 222.772 56.1681 223.092L57.652 224.088C58.6869 224.728 59.6457 225.329 60.6273 225.899L62.0732 226.729C61.1981 226.394 59.7903 225.877 59.6761 225.846C57.4389 225.283 52.8275 225.527 51.4274 227.718C51.2112 228.089 51.0761 228.502 51.0309 228.929C50.9857 229.357 51.0315 229.789 51.1652 230.197C51.2989 230.605 51.5175 230.98 51.8066 231.298C52.0958 231.616 52.4489 231.869 52.8428 232.04C54.4788 232.839 56.6475 232.276 58.1694 231.5C59.8588 230.648 62.408 227.49 62.7352 227.102C63.9147 227.779 65.0789 228.426 66.1747 229.012C69.0968 230.572 71.646 231.82 73.6321 232.756C80.0622 238.318 89.1251 238.927 89.1251 238.927C89.1251 238.927 89.5969 228.083 83.2125 220.938C80.9843 218.541 78.2566 216.663 75.2225 215.436ZM63.732 226.014C63.9299 225.572 65.4746 222.125 65.5812 220.177C65.9388 220.116 66.2965 220.04 66.6465 219.956C67.3005 223.383 68.661 226.635 70.6415 229.506C69.4773 228.951 68.2065 228.335 66.8367 227.65C65.8627 227.147 64.805 226.592 63.732 226.014Z" fill="#92E3A9"/>
<path d="M122.691 213.359C122.691 213.359 111.832 213.694 105.189 220.596C98.5457 227.497 98.6294 238.356 98.6294 238.356C98.6294 238.356 109.481 238.021 116.131 231.12C122.782 224.218 122.691 213.359 122.691 213.359Z" fill="#92E3A9"/>
<g opacity="0.5">
<path d="M52.1275 171.309C52.1275 171.309 55.6888 168.493 56.6019 166.69C57.3629 165.168 57.9412 162.984 57.1346 161.363C56.9619 160.974 56.7095 160.625 56.3937 160.34C56.0779 160.055 55.7058 159.838 55.3013 159.706C54.8969 159.573 54.4691 159.527 54.0456 159.57C53.6221 159.613 53.2124 159.744 52.8428 159.955C50.6512 161.325 50.423 165.967 50.9785 168.204C50.9861 168.402 52.0818 171.331 52.1275 171.309Z" fill="white"/>
<path d="M19.2159 194.754C19.3681 194.891 21.9021 196.732 21.9173 196.686C21.9325 196.641 23.3327 192.379 23.1044 190.37C22.899 188.658 22.1761 186.566 20.6009 185.615C20.2391 185.383 19.8325 185.231 19.4078 185.169C18.9831 185.106 18.5499 185.133 18.1367 185.25C17.7235 185.366 17.3396 185.569 17.0101 185.844C16.6807 186.119 16.4133 186.461 16.2254 186.847C15.1524 189.161 17.519 193.171 19.2159 194.754Z" fill="white"/>
<path d="M93.805 175.562C93.805 175.562 80.7698 189.016 80.8687 205.536C80.9676 222.057 94.0865 235.404 94.0865 235.404C94.0865 235.404 107.114 221.95 107.023 205.422C106.931 188.894 93.805 175.562 93.805 175.562Z" fill="white"/>
<path d="M75.2225 215.436C75.3945 215.251 75.5522 215.052 75.6943 214.843C76.6455 213.405 77.4521 211.312 76.8433 209.592C76.7184 209.18 76.5074 208.799 76.2244 208.475C75.9414 208.15 75.5927 207.89 75.2015 207.71C74.8102 207.53 74.3853 207.435 73.9547 207.432C73.5242 207.428 73.0978 207.516 72.7037 207.69C70.9383 208.519 70.0632 211.358 69.8806 213.679C69.1729 213.519 68.5337 213.397 67.9934 213.306L67.2857 211.715C67.027 211.167 66.8443 210.612 66.6237 210.056C66.3117 209.227 66.0301 208.359 65.7486 207.5C66.7759 207.035 69.7816 205.635 70.9002 204.395C72.0189 203.155 73.1831 201.176 72.8255 199.38C72.761 198.956 72.6077 198.551 72.3756 198.19C72.1435 197.829 71.8378 197.522 71.4786 197.288C71.1194 197.054 70.7147 196.898 70.2911 196.831C69.8676 196.764 69.4346 196.787 69.0207 196.899C66.5476 197.66 65.0941 202.059 65.0409 204.364C65.0409 204.441 65.0409 204.928 65.1322 205.506C64.8811 204.654 64.63 203.801 64.3712 202.934C63.7396 200.453 63.1689 197.919 62.583 195.378C62.4612 194.845 62.3319 194.32 62.2101 193.787C63.0776 193.407 66.3421 191.915 67.5368 190.614C68.7315 189.313 69.8197 187.395 69.4696 185.599C69.4052 185.175 69.2519 184.77 69.0198 184.409C68.7877 184.049 68.482 183.741 68.1228 183.507C67.7636 183.273 67.3589 183.117 66.9353 183.05C66.5117 182.983 66.0788 183.006 65.6649 183.119C63.1918 183.879 61.7383 188.278 61.6851 190.583C61.6851 190.667 61.7383 191.246 61.7916 191.9C61.4568 190.523 61.1067 189.153 60.711 187.806C60.0569 185.491 59.2458 183.223 58.2836 181.018C58.588 180.881 62.4536 179.215 63.7549 177.769C64.9115 176.498 66.0377 174.55 65.6877 172.754C65.6233 172.33 65.47 171.925 65.2379 171.564C65.0058 171.204 64.7001 170.896 64.3409 170.662C63.9816 170.428 63.577 170.272 63.1534 170.205C62.7298 170.138 62.2968 170.161 61.8829 170.274C59.4098 171.035 57.9564 175.433 57.9031 177.739C57.9031 177.898 58.0933 180.021 58.1847 180.782C58.1878 180.755 58.1878 180.726 58.1847 180.699C57.1861 178.556 55.9994 176.506 54.6386 174.573C53.417 172.854 52.0958 171.207 50.6816 169.642C49.4032 168.166 48.1324 166.887 47.0062 165.769C46.3898 165.168 45.8115 164.627 45.2712 164.133H45.3245C45.3778 164.133 44.1222 161.256 44.0233 161.089C42.8666 159.095 39.4575 155.922 36.9388 156.47C36.5217 156.571 36.1308 156.759 35.7916 157.022C35.4524 157.285 35.1727 157.617 34.9708 157.996C34.7688 158.374 34.6493 158.792 34.6199 159.22C34.5906 159.648 34.6521 160.077 34.8005 160.48C35.3636 162.215 37.2812 163.379 38.9096 163.942C40.5381 164.506 44.2363 164.239 45.119 164.163C45.6745 164.688 46.2529 165.259 46.8845 165.906C47.9879 167.047 49.2206 168.341 50.4686 169.847C50.8034 170.243 51.1458 170.684 51.4806 171.111C50.7653 170.517 49.7685 169.71 49.662 169.642C47.7139 168.409 43.2319 167.161 41.2458 168.813C40.9185 169.094 40.655 169.443 40.4727 169.834C40.2904 170.226 40.1936 170.652 40.1885 171.083C40.1835 171.515 40.2704 171.943 40.4435 172.339C40.6166 172.735 40.8719 173.089 41.1925 173.378C42.4937 174.657 44.731 174.809 46.4355 174.558C48.14 174.307 51.3817 172.313 52.0742 171.872C52.8351 172.823 53.5504 173.812 54.2505 174.915C55.553 176.854 56.6811 178.904 57.6216 181.041C57.6748 181.163 57.7129 181.3 57.7661 181.422C57.4618 181.072 55.6507 179.238 55.4833 179.139C53.6874 177.701 49.3956 175.966 47.2117 177.389C46.859 177.633 46.5622 177.95 46.3406 178.318C46.119 178.685 45.9777 179.096 45.926 179.522C45.8743 179.948 45.9132 180.38 46.0404 180.79C46.1675 181.2 46.38 181.579 46.6638 181.901C47.8128 183.309 50.0196 183.712 51.7394 183.644C53.7255 183.575 57.6292 181.604 57.7814 181.528C58.6563 183.685 59.3908 185.897 59.9805 188.148C60.4295 189.815 60.81 191.519 61.1752 193.232C60.7719 192.783 59.0826 191.078 58.9532 190.949C57.1498 189.503 52.8656 187.776 50.674 189.191C50.3214 189.436 50.0246 189.752 49.803 190.12C49.5814 190.488 49.4401 190.898 49.3883 191.324C49.3366 191.751 49.3756 192.183 49.5027 192.593C49.6299 193.003 49.8423 193.381 50.1261 193.703C51.2752 195.119 53.4896 195.515 55.2093 195.454C57.1422 195.385 60.8937 193.513 61.2057 193.353C61.3731 194.114 61.5481 194.875 61.7079 195.69C62.233 198.239 62.7504 200.803 63.3363 203.299C63.5418 204.174 63.7701 205.019 64.006 205.871C63.3668 205.217 62.1949 204.03 62.0884 203.946C60.2849 202.5 56.0007 200.765 53.8092 202.188C53.4565 202.433 53.1597 202.75 52.9381 203.117C52.7165 203.485 52.5752 203.895 52.5235 204.321C52.4717 204.748 52.5107 205.18 52.6379 205.59C52.765 206 52.9775 206.378 53.2613 206.701C54.4103 208.116 56.6247 208.512 58.3445 208.451C60.0642 208.39 63.2602 206.883 64.1506 206.442C64.5387 207.857 64.9648 209.257 65.4366 210.612C65.6573 211.19 65.8475 211.791 66.091 212.339L66.4486 213.207L65.954 213.153C65.954 213.153 65.916 213.96 65.954 215.277C64.0593 213.922 61.3274 212.758 59.5468 213.58C59.1614 213.768 58.8203 214.036 58.5457 214.366C58.2712 214.696 58.0695 215.08 57.9538 215.493C57.8381 215.906 57.8111 216.339 57.8745 216.763C57.9378 217.188 58.0902 217.594 58.3216 217.955C58.4398 218.147 58.5721 218.33 58.7173 218.503C59.0547 220.501 59.8983 222.379 61.1676 223.959C61.2665 224.073 62.5526 225.26 63.2298 225.854C62.5754 225.504 61.9286 225.154 61.2589 224.773C60.2925 224.241 59.2881 223.639 58.3064 223.069L56.7845 222.11C56.2671 221.79 55.8105 221.433 55.3159 221.09C54.6006 220.573 53.8853 220.002 53.1776 219.439C53.7787 218.488 55.5137 215.634 55.7572 214.013C56.0007 212.393 55.879 210.072 54.6082 208.763C54.3225 208.439 53.9712 208.179 53.5776 208.002C53.1841 207.824 52.7571 207.732 52.3253 207.732C51.8935 207.732 51.4666 207.824 51.073 208.002C50.6794 208.179 50.3281 208.439 50.0424 208.763C48.3836 210.741 49.6163 215.231 50.8034 217.187C50.8034 217.247 51.1458 217.635 51.5111 218.084C50.8338 217.514 50.149 216.943 49.4793 216.342C47.5845 214.63 45.6745 212.826 43.8178 211.015L42.6307 209.897C43.1482 209.136 45.0506 206.092 45.3093 204.326C45.568 202.561 45.4234 200.385 44.1526 199.083C43.867 198.76 43.5157 198.5 43.1221 198.322C42.7285 198.145 42.3016 198.053 41.8698 198.053C41.4379 198.053 41.011 198.145 40.6174 198.322C40.2238 198.5 39.8725 198.76 39.5869 199.083C37.928 201.062 39.1532 205.552 40.3479 207.5C40.3479 207.568 40.7512 208.032 41.1621 208.542C40.1196 207.576 39.0694 206.632 38.0041 205.727C36.1769 204.157 34.2474 202.711 32.2285 201.397C32.4111 201.123 34.7092 197.592 34.9983 195.674C35.2571 193.97 35.1201 191.733 33.8417 190.431C33.556 190.107 33.2048 189.848 32.8112 189.67C32.4176 189.493 31.9907 189.401 31.5588 189.401C31.127 189.401 30.7001 189.493 30.3065 189.67C29.9129 189.848 29.5616 190.107 29.2759 190.431C27.6171 192.41 28.8498 196.899 30.0749 198.847C30.1586 198.984 31.4827 200.636 31.9773 201.214L31.9088 201.161C29.8899 199.927 27.7663 198.872 25.5625 198.01C23.602 197.229 21.5973 196.563 19.5585 196.017C17.6714 195.492 15.9059 195.126 14.3536 194.814C13.5013 194.655 12.7251 194.525 12.0022 194.404H12.0479C12.0479 194.404 9.45303 192.669 9.2704 192.577C7.20821 191.55 2.61964 190.789 0.816178 192.63C0.523457 192.945 0.30059 193.318 0.162227 193.724C0.0238653 194.131 -0.0268578 194.562 0.0133927 194.99C0.0536432 195.418 0.183956 195.832 0.395763 196.206C0.607571 196.579 0.896078 196.904 1.24231 197.158C2.67291 198.292 4.91012 198.208 6.56901 197.782C8.22789 197.356 11.1347 195.096 11.8957 194.533C12.6567 194.67 13.4176 194.822 14.3308 195.012C15.8527 195.355 17.6257 195.773 19.4977 196.321L21.0196 196.816C20.0912 196.717 18.8204 196.603 18.691 196.603C16.4082 196.648 11.9642 198.079 11.2108 200.552C11.0987 200.965 11.0749 201.397 11.1409 201.819C11.2069 202.242 11.3612 202.646 11.5939 203.005C11.8265 203.364 12.1322 203.67 12.491 203.903C12.8498 204.136 13.2537 204.29 13.6763 204.357C15.4646 204.699 17.4202 203.596 18.6986 202.447C19.9771 201.298 21.5903 197.843 21.9251 197.12C23.0589 197.508 24.208 197.934 25.4027 198.444C27.5604 199.34 29.6334 200.427 31.5969 201.693C31.711 201.77 31.8175 201.861 31.9317 201.929C31.4751 201.808 28.9563 201.275 28.7737 201.26C26.4908 201.047 21.9251 202.021 20.9054 204.364C20.7541 204.777 20.6939 205.217 20.7288 205.655C20.7637 206.093 20.8929 206.518 21.1076 206.901C21.3224 207.284 21.6175 207.616 21.9727 207.875C22.3279 208.133 22.7348 208.311 23.1655 208.397C24.9081 208.938 26.9702 208.055 28.3704 207.051C29.9836 205.902 32.1752 202.104 32.2361 201.96C34.1575 203.273 35.9903 204.712 37.7226 206.267C39.0162 207.408 40.2718 208.618 41.5273 209.843C40.9338 209.691 38.59 209.204 38.4226 209.189C36.1398 208.976 31.574 209.912 30.5543 212.286C30.3956 212.684 30.3227 213.111 30.3404 213.539C30.3581 213.967 30.466 214.387 30.6571 214.771C30.8482 215.154 31.1181 215.493 31.4492 215.765C31.7803 216.037 32.1651 216.236 32.5785 216.349C34.3211 216.897 36.3833 216.007 37.7834 215.01C39.3586 213.884 41.4512 210.254 41.5882 209.942C42.1589 210.505 42.7296 211.053 43.2927 211.616C45.1419 213.458 46.9834 215.307 48.863 217.08C49.5098 217.689 50.1718 218.267 50.8338 218.853C49.9435 218.655 48.3151 218.313 48.1705 218.305C45.8876 218.092 41.3219 219.028 40.3022 221.402C40.1435 221.801 40.0709 222.228 40.0891 222.657C40.1073 223.086 40.2159 223.505 40.4077 223.889C40.5996 224.273 40.8704 224.612 41.2023 224.883C41.5343 225.155 41.9199 225.354 42.3339 225.466C44.0689 226.014 46.1387 225.123 47.5313 224.126C48.9238 223.13 50.7653 220.109 51.2752 219.249C52.3786 220.215 53.4972 221.144 54.6462 222.011C55.1485 222.376 55.6355 222.772 56.1681 223.092L57.652 224.088C58.6869 224.728 59.6457 225.329 60.6273 225.899L62.0732 226.729C61.1981 226.394 59.7903 225.877 59.6761 225.846C57.4389 225.283 52.8275 225.527 51.4274 227.718C51.2112 228.089 51.0761 228.502 51.0309 228.929C50.9857 229.357 51.0315 229.789 51.1652 230.197C51.2989 230.605 51.5175 230.98 51.8066 231.298C52.0958 231.616 52.4489 231.869 52.8428 232.04C54.4788 232.839 56.6475 232.276 58.1694 231.5C59.8588 230.648 62.408 227.49 62.7352 227.102C63.9147 227.779 65.0789 228.426 66.1747 229.012C69.0968 230.572 71.646 231.82 73.6321 232.756C80.0622 238.318 89.1251 238.927 89.1251 238.927C89.1251 238.927 89.5969 228.083 83.2125 220.938C80.9843 218.541 78.2566 216.663 75.2225 215.436ZM63.732 226.014C63.9299 225.572 65.4746 222.125 65.5812 220.177C65.9388 220.116 66.2965 220.04 66.6465 219.956C67.3005 223.383 68.661 226.635 70.6415 229.506C69.4773 228.951 68.2065 228.335 66.8367 227.65C65.8627 227.147 64.805 226.592 63.732 226.014Z" fill="white"/>
<path d="M122.691 213.359C122.691 213.359 111.832 213.694 105.189 220.596C98.5457 227.497 98.6294 238.356 98.6294 238.356C98.6294 238.356 109.481 238.021 116.131 231.12C122.782 224.218 122.691 213.359 122.691 213.359Z" fill="white"/>
</g>
<path d="M94.3379 220.352L104.999 210.764L104.542 210.262L94.3379 219.439L94.277 206.876L94.3379 206.914L103.355 193.726L102.785 193.346L94.277 205.787L94.1477 175.562H93.4628L93.5465 196.085L86.7588 190.211L86.3175 190.728L93.5541 196.991L93.615 211.662L83.3269 202.553L82.8779 203.071L93.6226 212.575L93.6759 225.93L85.9446 219.865L85.5261 220.405L93.6835 226.805L93.7216 235.404L94.4064 235.396L94.3379 220.345V220.352Z" fill="white"/>
<path d="M84.5215 224.05L83.8366 223.974L82.9768 231.569L78.4034 226.447H78.411L77.2468 217.263L76.5695 217.346L77.612 225.565L66.2281 212.842L65.7183 213.298L73.442 221.927L68.5566 221.988L68.5642 222.673L74.0431 222.605L79.4611 228.662L71.8135 228.669L71.8211 229.347L80.0699 229.339L84.9933 234.841L79.5981 235.168L79.6438 235.853L85.5716 235.495L88.8513 239.155L89.3612 238.699L83.5855 232.246L84.5215 224.05Z" fill="white"/>
<path d="M110.279 226.759L119.358 224.918L119.221 224.241L111.101 225.892L122.934 213.595L122.447 213.123L114.411 221.463L113.985 216.593L113.308 216.654L113.787 222.118L108.156 227.969L107.57 220.345L106.893 220.398L107.517 228.631L102.396 233.95L101.673 228.601L100.996 228.692L101.795 234.574L98.3857 238.12L98.8728 238.592L104.877 232.352L113.125 232.672L113.148 231.987L105.516 231.698L110.279 226.752V226.759Z" fill="white"/>
<path d="M324.055 135.977H274.494C271.657 135.977 269.357 138.277 269.357 141.114V238.668C269.357 241.505 271.657 243.805 274.494 243.805H324.055C326.892 243.805 329.191 241.505 329.191 238.668V141.114C329.191 138.277 326.892 135.977 324.055 135.977Z" fill="#263238" stroke="#263238" stroke-miterlimit="10"/>
<path d="M303.41 142.423H295.96C295.758 142.423 295.565 142.342 295.422 142.2C295.279 142.057 295.199 141.863 295.199 141.662C295.199 141.46 295.279 141.266 295.422 141.124C295.565 140.981 295.758 140.901 295.96 140.901H303.41C303.612 140.901 303.805 140.981 303.948 141.124C304.091 141.266 304.171 141.46 304.171 141.662C304.171 141.863 304.091 142.057 303.948 142.2C303.805 142.342 303.612 142.423 303.41 142.423Z" fill="white"/>
<path d="M325.409 234.171H273.139V142.506H285.528L286.92 143.663C287.408 144.066 288.022 144.287 288.655 144.287H310.51C311.17 144.289 311.808 144.051 312.306 143.617L313.561 142.506H325.409V234.171Z" fill="#92E3A9" stroke="#263238" stroke-linecap="round" stroke-linejoin="round"/>
<path d="M300.914 236.994C300.916 236.758 300.847 236.526 300.717 236.328C300.586 236.131 300.4 235.977 300.182 235.885C299.964 235.794 299.723 235.769 299.491 235.814C299.259 235.859 299.045 235.972 298.878 236.139C298.71 236.306 298.595 236.519 298.548 236.751C298.502 236.983 298.525 237.223 298.615 237.442C298.705 237.661 298.858 237.848 299.055 237.98C299.252 238.111 299.483 238.181 299.72 238.181C299.876 238.182 300.031 238.152 300.176 238.093C300.321 238.034 300.453 237.947 300.564 237.836C300.675 237.726 300.763 237.595 300.823 237.45C300.883 237.306 300.914 237.151 300.914 236.994Z" fill="white"/>
<path d="M322.602 215.649H276.153" stroke="#263238" stroke-linecap="round" stroke-linejoin="round"/>
<path d="M322.602 219.606H276.153" stroke="#263238" stroke-linecap="round" stroke-linejoin="round"/>
<path d="M322.602 223.563H276.153" stroke="#263238" stroke-linecap="round" stroke-linejoin="round"/>
<path d="M322.602 227.52H276.153" stroke="#263238" stroke-linecap="round" stroke-linejoin="round"/>
<path d="M322.602 231.477H276.153" stroke="#263238" stroke-linecap="round" stroke-linejoin="round"/>
<path d="M321.483 148.784H277.515C276.779 148.784 276.183 149.38 276.183 150.116V157.474C276.183 158.21 276.779 158.806 277.515 158.806H321.483C322.218 158.806 322.814 158.21 322.814 157.474V150.116C322.814 149.38 322.218 148.784 321.483 148.784Z" fill="#263238" stroke="#263238" stroke-linecap="round" stroke-linejoin="round"/>
<path d="M321.475 161.545H277.134C276.399 161.545 275.803 162.142 275.803 162.877V170.228C275.803 170.963 276.399 171.56 277.134 171.56H321.475C322.211 171.56 322.807 170.963 322.807 170.228V162.877C322.807 162.142 322.211 161.545 321.475 161.545Z" fill="white" stroke="#263238" stroke-linecap="round" stroke-linejoin="round"/>
<path d="M321.475 176.186H277.134C276.399 176.186 275.803 176.782 275.803 177.518V184.876C275.803 185.612 276.399 186.208 277.134 186.208H321.475C322.211 186.208 322.807 185.612 322.807 184.876V177.518C322.807 176.782 322.211 176.186 321.475 176.186Z" fill="white" stroke="#263238" stroke-linecap="round" stroke-linejoin="round"/>
<path d="M319.991 188.75H278.481C277.002 188.75 275.803 189.949 275.803 191.428V210.536C275.803 212.015 277.002 213.214 278.481 213.214H319.991C321.471 213.214 322.67 212.015 322.67 210.536V191.428C322.67 189.949 321.471 188.75 319.991 188.75Z" fill="#263238" stroke="#263238" stroke-linecap="round" stroke-linejoin="round"/>
<path d="M305.039 194.944C305.039 194.256 304.835 193.584 304.453 193.012C304.07 192.44 303.527 191.994 302.892 191.731C302.256 191.468 301.557 191.399 300.883 191.533C300.208 191.667 299.588 191.999 299.102 192.485C298.616 192.971 298.284 193.591 298.15 194.265C298.016 194.94 298.085 195.639 298.348 196.275C298.611 196.91 299.057 197.453 299.629 197.835C300.201 198.217 300.873 198.421 301.561 198.421C302.483 198.421 303.368 198.055 304.02 197.403C304.672 196.751 305.039 195.866 305.039 194.944Z" fill="white" stroke="#263238" stroke-linecap="round" stroke-linejoin="round"/>
<path d="M278.534 213.214H319.938C321.46 213.214 322.67 212.385 322.67 211.365V202.675L309.589 196.382L300.267 207.165L292.544 201.907L277.226 212.963C277.643 213.126 278.086 213.212 278.534 213.214Z" fill="white" stroke="#263238" stroke-linecap="round" stroke-linejoin="round"/>
<path d="M288.99 109.922H284.424V104.595L270.621 112.57L284.417 120.537V115.211H286.327V126.884H291.653V112.57C291.649 111.867 291.367 111.193 290.868 110.697C290.369 110.201 289.694 109.922 288.99 109.922Z" fill="#263238"/>
<path d="M184.808 219.591V201.556H131.693V219.591C131.694 225.475 129.707 231.186 126.055 235.799L123.726 238.737H192.775L190.454 235.799C186.8 231.187 184.81 225.476 184.808 219.591Z" fill="white" stroke="#263238" stroke-width="1.09543" stroke-linecap="round" stroke-linejoin="round"/>
<g style="mix-blend-mode:multiply">
<path d="M128.429 232.215H188.072C185.935 228.351 184.812 224.007 184.808 219.591V201.556H131.693V219.591C131.693 224.008 130.57 228.352 128.429 232.215Z" fill="#92E3A9"/>
</g>
<path d="M184.808 204.265H131.693V211.883H184.808V204.265Z" fill="#263238" stroke="#263238" stroke-width="1.09543" stroke-linecap="round" stroke-linejoin="round"/>
<path d="M257.928 47.1279H58.5805C54.6763 47.1279 51.5112 50.293 51.5112 54.1972V200.171C51.5112 204.076 54.6763 207.241 58.5805 207.241H257.928C261.832 207.241 264.997 204.076 264.997 200.171V54.1972C264.997 50.293 261.832 47.1279 257.928 47.1279Z" fill="#263238" stroke="#263238" stroke-width="1.09543" stroke-linecap="round" stroke-linejoin="round"/>
<path d="M51.5111 182.35H264.997V200.164C264.997 202.039 264.253 203.837 262.927 205.163C261.601 206.488 259.803 207.233 257.928 207.233H58.5576C56.6827 207.233 54.8846 206.488 53.5588 205.163C52.2331 203.837 51.4883 202.039 51.4883 200.164V182.35H51.5111Z" fill="white" stroke="#263238" stroke-width="1.09543" stroke-linecap="round" stroke-linejoin="round"/>
<path d="M254.253 57.0889H62.248V170.205H254.253V57.0889Z" fill="#92E3A9" stroke="#263238" stroke-width="1.09543" stroke-linecap="round" stroke-linejoin="round"/>
<path d="M162.192 194.799C162.194 194.019 161.964 193.256 161.531 192.607C161.099 191.958 160.484 191.451 159.764 191.152C159.044 190.852 158.251 190.773 157.486 190.924C156.721 191.076 156.018 191.45 155.466 192.001C154.914 192.552 154.538 193.255 154.385 194.02C154.232 194.784 154.31 195.577 154.608 196.298C154.906 197.019 155.411 197.635 156.06 198.068C156.708 198.502 157.47 198.733 158.25 198.733C159.294 198.733 160.296 198.319 161.035 197.581C161.774 196.844 162.19 195.843 162.192 194.799Z" fill="#263238" stroke="#263238" stroke-width="1.09543" stroke-linecap="round" stroke-linejoin="round"/>
<path d="M192.79 238.737H123.726V241.956H192.79V238.737Z" fill="white" stroke="#263238" stroke-width="1.09543" stroke-linecap="round" stroke-linejoin="round"/>
<path d="M242.222 69.7588H79.4613C77.9819 69.7588 76.7827 70.958 76.7827 72.4373V84.0952C76.7827 85.5745 77.9819 86.7738 79.4613 86.7738H242.222C243.702 86.7738 244.901 85.5745 244.901 84.0952V72.4373C244.901 70.958 243.702 69.7588 242.222 69.7588Z" fill="#263238" stroke="#263238" stroke-linecap="round" stroke-linejoin="round"/>
<path d="M122.173 119.19H78.639C77.1597 119.19 75.9604 120.39 75.9604 121.869V154.187C75.9604 155.666 77.1597 156.865 78.639 156.865H122.173C123.653 156.865 124.852 155.666 124.852 154.187V121.869C124.852 120.39 123.653 119.19 122.173 119.19Z" fill="#263238" stroke="#263238" stroke-linecap="round" stroke-linejoin="round"/>
<path d="M107.555 127.493C107.555 126.651 107.306 125.829 106.838 125.129C106.371 124.43 105.707 123.885 104.929 123.563C104.152 123.241 103.297 123.156 102.472 123.321C101.647 123.485 100.889 123.89 100.294 124.485C99.6988 125.08 99.2937 125.838 99.1296 126.663C98.9655 127.488 99.0497 128.343 99.3716 129.12C99.6936 129.898 100.239 130.562 100.938 131.029C101.638 131.497 102.46 131.746 103.302 131.746C103.86 131.746 104.413 131.636 104.929 131.422C105.446 131.209 105.914 130.895 106.309 130.5C106.704 130.105 107.018 129.636 107.232 129.12C107.445 128.604 107.555 128.051 107.555 127.493Z" fill="white" stroke="#263238" stroke-linecap="round" stroke-linejoin="round"/>
<path d="M78.8067 156.865H121.999C122.755 156.865 123.481 156.565 124.016 156.03C124.552 155.495 124.852 154.769 124.852 154.012V140.634L111.208 130.94L101.483 147.574L93.379 139.47L77.3989 156.508C77.8292 156.747 78.3144 156.87 78.8067 156.865Z" fill="white" stroke="#263238" stroke-linecap="round" stroke-linejoin="round"/>
<path d="M150.238 93.2571H80.6634C79.1841 93.2571 77.9849 94.4563 77.9849 95.9356V107.594C77.9849 109.073 79.1841 110.272 80.6634 110.272H150.238C151.717 110.272 152.916 109.073 152.916 107.594V95.9356C152.916 94.4563 151.717 93.2571 150.238 93.2571Z" fill="white" stroke="#263238" stroke-linecap="round" stroke-linejoin="round"/>
<path d="M242.229 93.2571H172.655C171.176 93.2571 169.977 94.4563 169.977 95.9356V107.594C169.977 109.073 171.176 110.272 172.655 110.272H242.229C243.709 110.272 244.908 109.073 244.908 107.594V95.9356C244.908 94.4563 243.709 93.2571 242.229 93.2571Z" fill="white" stroke="#263238" stroke-linecap="round" stroke-linejoin="round"/>
<path d="M243.668 119.997H137.203" stroke="#263238" stroke-linecap="round" stroke-linejoin="round"/>
<path d="M243.668 127.287H137.203" stroke="#263238" stroke-linecap="round" stroke-linejoin="round"/>
<path d="M243.668 134.585H137.203" stroke="#263238" stroke-linecap="round" stroke-linejoin="round"/>
<path d="M243.668 141.875H137.203" stroke="#263238" stroke-linecap="round" stroke-linejoin="round"/>
<path d="M243.668 149.165H137.203" stroke="#263238" stroke-linecap="round" stroke-linejoin="round"/>
<path d="M243.668 156.462H137.203" stroke="#263238" stroke-linecap="round" stroke-linejoin="round"/>
<path d="M248.408 64.356H75.0093V164.833H248.408V64.356Z" stroke="white" stroke-width="2" stroke-linecap="round" stroke-linejoin="round"/>
<path d="M78.3654 64.3561C78.3654 63.6923 78.1686 63.0435 77.7999 62.4917C77.4311 61.9398 76.907 61.5097 76.2938 61.2557C75.6806 61.0017 75.0059 60.9352 74.3549 61.0647C73.704 61.1942 73.106 61.5138 72.6367 61.9831C72.1674 62.4525 71.8478 63.0504 71.7183 63.7014C71.5888 64.3523 71.6553 65.0271 71.9093 65.6403C72.1633 66.2535 72.5934 66.7776 73.1452 67.1463C73.6971 67.5151 74.3459 67.7119 75.0096 67.7119C75.4506 67.7129 75.8874 67.6268 76.295 67.4585C76.7026 67.2902 77.073 67.043 77.3848 66.7312C77.6966 66.4194 77.9438 66.0491 78.112 65.6415C78.2803 65.2339 78.3664 64.797 78.3654 64.3561Z" fill="white"/>
<path d="M251.764 64.3561C251.764 63.692 251.567 63.0429 251.198 62.4909C250.829 61.9389 250.305 61.5087 249.691 61.255C249.077 61.0012 248.402 60.9352 247.751 61.0653C247.1 61.1954 246.502 61.5158 246.033 61.9858C245.564 62.4559 245.245 63.0546 245.116 63.706C244.988 64.3575 245.055 65.0325 245.31 65.6456C245.566 66.2586 245.997 66.7822 246.55 67.15C247.103 67.5178 247.752 67.7134 248.416 67.7119C248.857 67.7119 249.292 67.625 249.699 67.4563C250.106 67.2875 250.475 67.0402 250.786 66.7285C251.097 66.4168 251.344 66.0468 251.512 65.6397C251.68 65.2326 251.765 64.7964 251.764 64.3561Z" fill="white"/>
<path d="M163.509 64.3561C163.509 63.6923 163.312 63.0435 162.943 62.4917C162.574 61.9398 162.05 61.5097 161.437 61.2557C160.824 61.0017 160.149 60.9352 159.498 61.0647C158.847 61.1942 158.249 61.5138 157.78 61.9831C157.31 62.4525 156.991 63.0504 156.861 63.7014C156.732 64.3523 156.798 65.0271 157.052 65.6403C157.306 66.2535 157.736 66.7776 158.288 67.1463C158.84 67.5151 159.489 67.7119 160.153 67.7119C160.594 67.7129 161.031 67.6268 161.438 67.4585C161.846 67.2902 162.216 67.043 162.528 66.7312C162.84 66.4194 163.087 66.0491 163.255 65.6415C163.423 65.2339 163.51 64.797 163.509 64.3561Z" fill="white"/>
<path d="M163.508 164.954C163.51 164.29 163.314 163.641 162.947 163.088C162.579 162.535 162.055 162.104 161.442 161.849C160.829 161.594 160.154 161.526 159.503 161.655C158.851 161.783 158.253 162.102 157.782 162.571C157.312 163.04 156.992 163.638 156.862 164.289C156.732 164.941 156.798 165.616 157.052 166.229C157.305 166.843 157.735 167.368 158.288 167.737C158.84 168.106 159.489 168.303 160.153 168.303C160.593 168.304 161.029 168.218 161.436 168.05C161.843 167.882 162.213 167.636 162.525 167.325C162.837 167.014 163.084 166.644 163.253 166.238C163.422 165.831 163.508 165.395 163.508 164.954Z" fill="white"/>
<path d="M78.3654 164.954C78.3669 164.29 78.1714 163.641 77.8036 163.088C77.4358 162.535 76.9122 162.104 76.2991 161.849C75.6861 161.594 75.0111 161.526 74.3596 161.655C73.7081 161.783 73.1095 162.102 72.6394 162.571C72.1693 163.04 71.849 163.638 71.7189 164.289C71.5887 164.941 71.6548 165.616 71.9085 166.229C72.1623 166.843 72.5924 167.368 73.1444 167.737C73.6965 168.106 74.3456 168.303 75.0096 168.303C75.45 168.304 75.8862 168.218 76.2933 168.05C76.7004 167.882 77.0704 167.636 77.3821 167.325C77.6938 167.014 77.9411 166.644 78.1098 166.238C78.2786 165.831 78.3654 165.395 78.3654 164.954Z" fill="white"/>
<path d="M251.764 163.737C251.766 163.073 251.57 162.423 251.202 161.87C250.834 161.317 250.31 160.885 249.696 160.63C249.083 160.376 248.407 160.308 247.756 160.438C247.104 160.567 246.505 160.887 246.036 161.356C245.566 161.826 245.246 162.425 245.117 163.077C244.988 163.728 245.055 164.404 245.31 165.017C245.565 165.631 245.996 166.155 246.549 166.523C247.102 166.891 247.752 167.087 248.416 167.085C249.304 167.085 250.156 166.732 250.784 166.104C251.412 165.477 251.764 164.625 251.764 163.737Z" fill="white"/>
<path d="M86.8423 125.758C85.7222 126.788 84.6579 127.878 83.6539 129.022C82.8475 129.936 82.1479 130.94 81.5688 132.013C81.5688 132.013 81.2264 131.548 79.4153 129.037C77.6043 126.526 77.7869 124.563 77.7869 124.563L80.6176 121.846C80.6176 121.846 86.1041 122.615 86.8423 125.758Z" fill="white" stroke="#263238" stroke-linecap="round" stroke-linejoin="round"/>
<path d="M91.568 114.343C91.568 114.343 91.8495 116.626 92.4963 116.854C93.1431 117.083 95.3195 116.588 94.7412 118.201C94.3456 119.21 93.6 120.042 92.6409 120.545C92.6409 120.545 91.9332 126.115 91.4843 126.861C91.0353 127.607 90.4798 128.139 88.5394 127.455L84.9933 126.191C84.5221 126.169 84.0522 126.124 83.5855 126.054C82.718 125.925 82.7181 126.054 81.6223 123.992C80.5265 121.93 79.3394 123.231 80.283 120.515C81.2266 117.798 82.056 116.048 83.9736 114.731C85.8912 113.415 91.568 114.343 91.568 114.343Z" fill="white" stroke="#263238" stroke-linecap="round" stroke-linejoin="round"/>
<path d="M91.6515 117.897C91.6972 118.551 91.5982 119.099 91.4232 119.114C91.2482 119.13 91.0656 118.604 91.0123 117.942C90.959 117.28 91.0656 116.74 91.2406 116.725C91.4156 116.71 91.5754 117.227 91.6515 117.897Z" fill="#263238"/>
<path d="M71.3339 108.674C71.3339 108.674 70.0479 101.864 70.0479 99.4741C70.0479 97.0847 74.6136 82.17 74.6136 82.17C74.6136 82.17 71.0447 77.0259 70.7479 76.6454C70.4512 76.265 70.7479 75.5421 71.5089 76.0976C72.0719 76.5809 72.566 77.139 72.9775 77.7564L70.9534 73.7005C70.9534 73.7005 70.9534 72.7189 71.6535 72.9396C72.3535 73.1603 74.0809 76.3182 74.0809 76.3182L72.0568 71.7145C72.0771 71.5763 72.132 71.4456 72.2164 71.3343C72.3007 71.2231 72.4118 71.1349 72.5392 71.078C72.6667 71.0211 72.8065 70.9973 72.9456 71.0088C73.0848 71.0202 73.2188 71.0667 73.3352 71.1437C73.9211 71.4709 75.5572 74.8496 75.5572 74.8496L75.0017 71.3492C75.0017 71.3492 75.7626 70.1241 76.4779 71.7145C76.828 72.4754 78.3118 77.8021 78.3118 77.8021L80.9219 76.4933C81.1126 76.3974 81.3328 76.3787 81.5369 76.4411C81.741 76.5034 81.9132 76.642 82.0177 76.8281C82.114 76.9971 82.1485 77.1943 82.1151 77.386C82.0818 77.5776 81.9828 77.7516 81.8351 77.8782C81.1426 78.4565 79.9859 79.4458 79.6055 79.8262C78.9487 80.5887 78.3339 81.3863 77.7639 82.2156L76.8356 99.9003L77.7639 107.982L71.3339 108.674Z" fill="white"/>
<mask id="mask0_6_5838" style="mask-type:luminance" maskUnits="userSpaceOnUse" x="70" y="70" width="13" height="39">
<path d="M71.3339 108.674C71.3339 108.674 70.0479 101.864 70.0479 99.4741C70.0479 97.0847 74.6136 82.17 74.6136 82.17C74.6136 82.17 71.0447 77.0259 70.7479 76.6454C70.4512 76.265 70.7479 75.5421 71.5089 76.0976C72.0719 76.5809 72.566 77.139 72.9775 77.7564L70.9534 73.7005C70.9534 73.7005 70.9534 72.7189 71.6535 72.9396C72.3535 73.1603 74.0809 76.3182 74.0809 76.3182L72.0568 71.7145C72.0771 71.5763 72.132 71.4456 72.2164 71.3343C72.3007 71.2231 72.4118 71.1349 72.5392 71.078C72.6667 71.0211 72.8065 70.9973 72.9456 71.0088C73.0848 71.0202 73.2188 71.0667 73.3352 71.1437C73.9211 71.4709 75.5572 74.8496 75.5572 74.8496L75.0017 71.3492C75.0017 71.3492 75.7626 70.1241 76.4779 71.7145C76.828 72.4754 78.3118 77.8021 78.3118 77.8021L80.9219 76.4933C81.1126 76.3974 81.3328 76.3787 81.5369 76.4411C81.741 76.5034 81.9132 76.642 82.0177 76.8281C82.114 76.9971 82.1485 77.1943 82.1151 77.386C82.0818 77.5776 81.9828 77.7516 81.8351 77.8782C81.1426 78.4565 79.9859 79.4458 79.6055 79.8262C78.9487 80.5887 78.3339 81.3863 77.7639 82.2156L76.8356 99.9003L77.7639 107.982L71.3339 108.674Z" fill="white"/>
</mask>
<g mask="url(#mask0_6_5838)">
<path d="M73.0384 108.476C73.0384 106.513 73.0384 104.671 72.9471 103.393C72.7265 98.5533 74.6517 82.1699 74.6517 82.1699C74.6517 82.1699 70.0859 97.077 70.0859 99.4741C70.0859 101.871 71.3719 108.674 71.3719 108.674L73.0384 108.476Z" fill="#92E3A9"/>
<path opacity="0.5" d="M73.0384 108.476C73.0384 106.513 73.0384 104.671 72.9471 103.393C72.7265 98.5533 74.6517 82.1699 74.6517 82.1699C74.6517 82.1699 70.0859 97.077 70.0859 99.4741C70.0859 101.871 71.3719 108.674 71.3719 108.674L73.0384 108.476Z" fill="white"/>
</g>
<path d="M71.3339 108.674C71.3339 108.674 70.0479 101.864 70.0479 99.4741C70.0479 97.0847 74.6136 82.17 74.6136 82.17C74.6136 82.17 71.0447 77.0259 70.7479 76.6454C70.4512 76.265 70.7479 75.5421 71.5089 76.0976C72.0719 76.5809 72.566 77.139 72.9775 77.7564L70.9534 73.7005C70.9534 73.7005 70.9534 72.7189 71.6535 72.9396C72.3535 73.1603 74.0809 76.3182 74.0809 76.3182L72.0568 71.7145C72.0771 71.5763 72.132 71.4456 72.2164 71.3343C72.3007 71.2231 72.4118 71.1349 72.5392 71.078C72.6667 71.0211 72.8065 70.9973 72.9456 71.0088C73.0848 71.0202 73.2188 71.0667 73.3352 71.1437C73.9211 71.4709 75.5572 74.8496 75.5572 74.8496L75.0017 71.3492C75.0017 71.3492 75.7626 70.1241 76.4779 71.7145C76.828 72.4754 78.3118 77.8021 78.3118 77.8021L80.9219 76.4933C81.1126 76.3974 81.3328 76.3787 81.5369 76.4411C81.741 76.5034 81.9132 76.642 82.0177 76.8281C82.114 76.9971 82.1485 77.1943 82.1151 77.386C82.0818 77.5776 81.9828 77.7516 81.8351 77.8782C81.1426 78.4565 79.9859 79.4458 79.6055 79.8262C78.9487 80.5887 78.3339 81.3863 77.7639 82.2156L76.8356 99.9003L77.7639 107.982L71.3339 108.674Z" stroke="#263238" stroke-linecap="round" stroke-linejoin="round"/>
<path d="M87.3521 167.359C88.3691 168.466 89.7596 169.157 91.2557 169.3C93.6452 169.459 114.016 165.761 114.016 165.761C114.016 165.761 118.917 169.642 119.274 169.969C119.632 170.296 120.378 170.038 119.875 169.269C119.43 168.675 118.905 168.145 118.315 167.694L122.227 169.977C122.227 169.977 123.208 170.076 123.071 169.322C122.934 168.569 119.86 166.689 119.86 166.689L124.319 168.972C124.459 168.961 124.593 168.915 124.71 168.838C124.827 168.762 124.923 168.656 124.988 168.532C125.054 168.409 125.087 168.27 125.084 168.13C125.081 167.99 125.043 167.853 124.974 167.732C124.685 167.131 121.42 165.282 121.42 165.282L124.875 166.043C124.875 166.043 126.138 165.396 124.601 164.521C123.84 164.125 118.658 162.291 118.658 162.291L120.126 159.772C120.235 159.59 120.269 159.372 120.221 159.165C120.173 158.957 120.046 158.777 119.868 158.661C119.706 158.553 119.511 158.506 119.318 158.527C119.125 158.547 118.945 158.636 118.81 158.776C118.186 159.43 117.128 160.526 116.725 160.876C115.919 161.481 115.08 162.042 114.214 162.557L92.4124 161.797L88.5011 160.929L87.3521 167.359Z" fill="white" stroke="#263238" stroke-linecap="round" stroke-linejoin="round"/>
<path d="M81.2418 131.046C81.2418 131.046 87.9154 137.994 88.1361 139.257C88.3568 140.52 72.4071 161.096 69.9949 163.113C67.5826 165.129 62.5832 170.136 62.5832 170.136L48.125 162.124C48.125 162.124 65.5509 135.627 66.5401 133.42C67.5294 131.213 70.3449 125.118 70.3449 125.118C70.3449 125.118 70.3982 117.349 70.0177 111.292C69.6372 105.234 70.246 102.564 70.5656 101.658C70.8852 100.752 73.6779 100.06 75.7325 100.456C77.7871 100.851 77.536 101.095 77.536 101.095C77.536 101.095 79.8188 112.395 79.9254 112.951C80.0319 113.506 81.2418 131.046 81.2418 131.046Z" fill="white"/>
<mask id="mask1_6_5838" style="mask-type:luminance" maskUnits="userSpaceOnUse" x="48" y="100" width="41" height="71">
<path d="M81.2418 131.046C81.2418 131.046 87.9154 137.994 88.1361 139.257C88.3568 140.52 72.4071 161.096 69.9949 163.113C67.5826 165.129 62.5832 170.136 62.5832 170.136L48.125 162.124C48.125 162.124 65.5509 135.627 66.5401 133.42C67.5294 131.213 70.3449 125.118 70.3449 125.118C70.3449 125.118 70.3982 117.349 70.0177 111.292C69.6372 105.234 70.246 102.564 70.5656 101.658C70.8852 100.752 73.6779 100.06 75.7325 100.456C77.7871 100.851 77.536 101.095 77.536 101.095C77.536 101.095 79.8188 112.395 79.9254 112.951C80.0319 113.506 81.2418 131.046 81.2418 131.046Z" fill="white"/>
</mask>
<g mask="url(#mask1_6_5838)">
<path d="M81.7592 135.308C82.6419 133.108 80.6558 131.351 78.0153 129.144C77.2694 128.56 76.7191 127.764 76.4377 126.86C76.1562 125.955 76.1571 124.987 76.4401 124.083L72.9549 120.34C72.9549 120.34 73.1756 108.24 72.9549 103.393C72.9549 102.632 72.9549 101.643 72.9549 100.463C71.7146 100.676 70.6721 101.133 70.497 101.658C70.1774 102.564 69.5687 105.227 69.9491 111.292C70.3296 117.357 70.2764 125.118 70.2764 125.118L69.7361 126.283L70.0557 129.144L52.9189 157.101L63.0397 163.486L77.5663 148.738L79.2785 151.912C80.4656 150.39 81.645 148.83 82.7332 147.346C81.9494 141.639 81.3635 136.274 81.7592 135.308Z" fill="#92E3A9"/>
<path opacity="0.5" d="M81.7592 135.308C82.6419 133.108 80.6558 131.351 78.0153 129.144C77.2694 128.56 76.7191 127.764 76.4377 126.86C76.1562 125.955 76.1571 124.987 76.4401 124.083L72.9549 120.34C72.9549 120.34 73.1756 108.24 72.9549 103.393C72.9549 102.632 72.9549 101.643 72.9549 100.463C71.7146 100.676 70.6721 101.133 70.497 101.658C70.1774 102.564 69.5687 105.227 69.9491 111.292C70.3296 117.357 70.2764 125.118 70.2764 125.118L69.7361 126.283L70.0557 129.144L52.9189 157.101L63.0397 163.486L77.5663 148.738L79.2785 151.912C80.4656 150.39 81.645 148.83 82.7332 147.346C81.9494 141.639 81.3635 136.274 81.7592 135.308Z" fill="white"/>
</g>
<path d="M81.2418 131.046C81.2418 131.046 87.9154 137.994 88.1361 139.257C88.3568 140.52 72.4071 161.096 69.9949 163.113C67.5826 165.129 62.5832 170.136 62.5832 170.136L48.125 162.124C48.125 162.124 65.5509 135.627 66.5401 133.42C67.5294 131.213 70.3449 125.118 70.3449 125.118C70.3449 125.118 70.3982 117.349 70.0177 111.292C69.6372 105.234 70.246 102.564 70.5656 101.658C70.8852 100.752 73.6779 100.06 75.7325 100.456C77.7871 100.851 77.536 101.095 77.536 101.095C77.536 101.095 79.8188 112.395 79.9254 112.951C80.0319 113.506 81.2418 131.046 81.2418 131.046Z" stroke="#263238" stroke-linecap="round" stroke-linejoin="round"/>
<path d="M79.2022 124.396C79.6549 125.506 80.1629 126.593 80.7241 127.652C81.4851 128.931 82.7483 129.562 82.9385 130.476C83.1287 131.389 84.3767 134.478 84.3767 134.478C84.3767 134.478 80.1154 132.69 78.2434 130.331C76.3714 127.972 76.4019 124.084 76.4019 124.084C76.4019 124.084 78.3119 123.566 79.2022 124.396Z" fill="white" stroke="#263238" stroke-linecap="round" stroke-linejoin="round"/>
<path d="M75.5723 146.981C75.5723 146.981 79.9706 154.134 82.0556 158.258C84.1406 162.382 86.8953 168.447 89.3075 168.797C91.7198 169.147 93.1123 165.578 93.2493 164.27C93.3863 162.961 91.4458 160.419 90.6468 155.054C89.8478 149.69 88.1357 139.257 88.1357 139.257L86.4615 137.309" fill="white"/>
<mask id="mask2_6_5838" style="mask-type:luminance" maskUnits="userSpaceOnUse" x="75" y="137" width="19" height="32">
<path d="M75.5723 146.981C75.5723 146.981 79.9706 154.134 82.0556 158.258C84.1406 162.382 86.8953 168.447 89.3075 168.797C91.7198 169.147 93.1123 165.578 93.2493 164.27C93.3863 162.961 91.4458 160.419 90.6468 155.054C89.8478 149.69 88.1357 139.257 88.1357 139.257L86.4615 137.309" fill="white"/>
</mask>
<g mask="url(#mask2_6_5838)">
<path d="M81.9795 141.289L75.5723 146.981C75.5723 146.981 76.1506 147.924 76.9876 149.324L77.566 148.738L85.0538 162.603C85.0538 162.603 82.847 149.378 81.9795 141.289Z" fill="#92E3A9"/>
<path opacity="0.5" d="M81.9795 141.289L75.5723 146.981C75.5723 146.981 76.1506 147.924 76.9876 149.324L77.566 148.738L85.0538 162.603C85.0538 162.603 82.847 149.378 81.9795 141.289Z" fill="white"/>
</g>
<path d="M75.5723 146.981C75.5723 146.981 79.9706 154.134 82.0556 158.258C84.1406 162.382 86.8953 168.447 89.3075 168.797C91.7198 169.147 93.1123 165.578 93.2493 164.27C93.3863 162.961 91.4458 160.419 90.6468 155.054C89.8478 149.69 88.1357 139.257 88.1357 139.257L86.4615 137.309" stroke="#263238" stroke-linecap="round" stroke-linejoin="round"/>
<path d="M93.2498 164.269C93.3259 163.508 93.6074 161.271 92.3214 160.86C91.3699 161.887 90.2103 162.699 88.9199 163.242C87.7417 163.778 86.4984 164.156 85.2217 164.368C86.5762 166.72 87.9916 168.607 89.308 168.797C91.7279 169.155 93.128 165.578 93.2498 164.269Z" fill="white" stroke="#263238" stroke-linecap="round" stroke-linejoin="round"/>
<path d="M78.2509 104.877L77.4899 101.072C77.4899 101.072 77.7486 100.829 75.6865 100.433C73.6243 100.037 69.302 100.486 68.9748 101.392C68.7846 101.94 68.0997 103.591 69.9032 105.623C71.1719 104.941 72.5658 104.523 74.0006 104.395C75.4354 104.266 76.8813 104.43 78.2509 104.877Z" fill="white"/>
<mask id="mask3_6_5838" style="mask-type:luminance" maskUnits="userSpaceOnUse" x="68" y="100" width="11" height="6">
<path d="M78.2509 104.877L77.4899 101.072C77.4899 101.072 77.7486 100.829 75.6865 100.433C73.6243 100.037 69.302 100.486 68.9748 101.392C68.7846 101.94 68.0997 103.591 69.9032 105.623C71.1719 104.941 72.5658 104.523 74.0006 104.395C75.4354 104.266 76.8813 104.43 78.2509 104.877Z" fill="white"/>
</mask>
<g mask="url(#mask3_6_5838)">
<path d="M72.9849 104.557C72.9849 104.139 72.9849 103.743 72.9849 103.393C72.9849 102.632 72.9849 101.567 72.9849 100.349C71.1053 100.448 69.1801 100.844 68.9822 101.43C68.7844 102.016 68.1071 103.629 69.9106 105.661C70.8811 105.157 71.9152 104.785 72.9849 104.557Z" fill="#92E3A9"/>
<path opacity="0.5" d="M72.9849 104.557C72.9849 104.139 72.9849 103.743 72.9849 103.393C72.9849 102.632 72.9849 101.567 72.9849 100.349C71.1053 100.448 69.1801 100.844 68.9822 101.43C68.7844 102.016 68.1071 103.629 69.9106 105.661C70.8811 105.157 71.9152 104.785 72.9849 104.557Z" fill="white"/>
</g>
<path d="M78.2509 104.877L77.4899 101.072C77.4899 101.072 77.7486 100.829 75.6865 100.433C73.6243 100.037 69.302 100.486 68.9748 101.392C68.7846 101.94 68.0997 103.591 69.9032 105.623C71.1719 104.941 72.5658 104.523 74.0006 104.395C75.4354 104.266 76.8813 104.43 78.2509 104.877Z" stroke="#263238" stroke-linecap="round" stroke-linejoin="round"/>
<path d="M78.5785 152.574C76.4263 150.781 74.1075 149.199 71.6538 147.848" stroke="#263238" stroke-linecap="round" stroke-linejoin="round"/>
<path d="M86.5605 118.201C86.5605 118.201 94.9843 114.465 93.7287 109.291C92.4731 104.116 89.4902 101.788 86.1191 102.587C82.7481 103.386 83.3569 105.235 83.3569 105.235C83.3569 105.235 80.0087 104.413 78.2813 106.711C77.7781 107.348 77.4625 108.113 77.3697 108.919C77.277 109.726 77.4108 110.542 77.7562 111.277C76.2677 112.624 75.2447 114.409 74.8342 116.375C74.233 119.617 78.8825 125.453 79.9554 126.016C81.0284 126.579 82.3068 125.035 82.3068 125.035C82.3068 125.035 81.2871 121.763 82.1013 121.512C82.9155 121.26 84.3842 123.239 84.3842 123.239C84.3842 123.239 85.1451 124.228 85.8148 122.288C86.2511 120.967 86.5021 119.591 86.5605 118.201Z" fill="#263238" stroke="#263238" stroke-linecap="round" stroke-linejoin="round"/>
<path d="M92.6634 108.111C92.6634 108.111 94.2766 110.272 91.4991 113.057C88.7216 115.842 82.3068 117.128 80.7316 118.757C79.1564 120.385 79.2097 124.396 79.2097 124.396" stroke="white" stroke-width="0.75" stroke-linecap="round" stroke-linejoin="round"/>
<path d="M86.5608 118.201C86.5608 118.201 82.4364 119.951 82.1016 121.527" stroke="white" stroke-width="0.75" stroke-linecap="round" stroke-linejoin="round"/>
<path d="M71.1515 238.889L79.6134 243.455C79.7162 243.507 79.799 243.592 79.8493 243.696C79.8997 243.8 79.9148 243.918 79.8925 244.031C79.8702 244.145 79.8116 244.248 79.7255 244.325C79.6395 244.402 79.5307 244.449 79.4155 244.459L67.9479 245.57C67.6876 245.595 67.4249 245.561 67.1795 245.471C66.9341 245.38 66.7121 245.236 66.5301 245.048C66.3481 244.86 66.2108 244.634 66.1282 244.386C66.0456 244.137 66.02 243.874 66.0531 243.614L66.5173 240.061L71.1515 238.889Z" fill="white" stroke="#263238" stroke-linecap="round" stroke-linejoin="round"/>
<path d="M79.6815 243.455C77.0029 243.767 72.8329 243.5 69.9869 243.972C68.7075 244.25 67.3901 244.31 66.0908 244.147C66.177 244.565 66.4139 244.936 66.7564 245.19C67.0988 245.444 67.5229 245.563 67.9475 245.524L79.4152 244.413C79.5225 244.403 79.6243 244.361 79.707 244.292C79.7897 244.222 79.8494 244.13 79.8783 244.026C79.9072 243.922 79.9038 243.811 79.8687 243.71C79.8335 243.608 79.7683 243.519 79.6815 243.455Z" fill="white" stroke="#263238" stroke-linecap="round" stroke-linejoin="round"/>
<path d="M28.652 238.128L25.9049 240.867C25.7563 241.013 25.6382 241.187 25.5576 241.379C25.4771 241.571 25.4355 241.778 25.4355 241.986C25.4355 242.194 25.4771 242.4 25.5576 242.593C25.6382 242.785 25.7563 242.959 25.9049 243.105L30.9653 247.959L37.1671 248.507C37.3474 248.517 37.5266 248.473 37.6827 248.382C37.8387 248.291 37.9648 248.157 38.0456 247.995C38.1264 247.834 38.1583 247.652 38.1374 247.473C38.1165 247.294 38.0438 247.124 37.928 246.985L34.4048 242.755L33.0579 239.756L28.652 238.128Z" fill="white" stroke="#263238" stroke-linecap="round" stroke-linejoin="round"/>
<path d="M38.1868 247.777C36.0104 247.259 32.6394 246.468 31.7339 246.354C30.6153 246.217 27.2366 242.222 26.0267 240.746L25.9049 240.867C25.7563 241.013 25.6382 241.187 25.5576 241.379C25.4771 241.571 25.4355 241.778 25.4355 241.986C25.4355 242.194 25.4771 242.4 25.5576 242.593C25.6382 242.785 25.7563 242.959 25.9049 243.105L30.9653 247.959L37.1671 248.507C37.3973 248.533 37.629 248.473 37.8174 248.338C38.0058 248.203 38.1374 248.003 38.1868 247.777Z" fill="white" stroke="#263238" stroke-linecap="round" stroke-linejoin="round"/>
<path d="M66.0835 165.982L52.1504 156.143C52.1504 156.143 46.1388 162.991 45.5909 166.796C45.5301 167.222 45.4844 167.671 45.4464 168.128C45.1244 172.683 45.9759 177.244 47.9195 181.376L59.2577 205.871L66.5401 240.008L71.1743 238.866L69.6524 202.599L60.909 174.725L66.0835 165.982Z" fill="#263238" stroke="#263238" stroke-linecap="round" stroke-linejoin="round"/>
<path d="M48.5965 174.999L50.5141 178.553L46.4126 206.419L28.6519 238.12L33.0197 239.756L57.066 209.699L62.8036 176.369L64.7212 168.166" fill="#263238"/>
<path d="M48.5965 174.999L50.5141 178.553L46.4126 206.419L28.6519 238.12L33.0197 239.756L57.066 209.699L62.8036 176.369L64.7212 168.166" stroke="#263238" stroke-linecap="round" stroke-linejoin="round"/>
<path d="M62.2938 181.125L59.0674 202.987" stroke="white" stroke-width="0.75" stroke-linecap="round" stroke-linejoin="round"/>
<path d="M49.1217 183.605L49.3728 176.399L46.8921 170.936" stroke="white" stroke-width="0.75" stroke-linecap="round" stroke-linejoin="round"/>
<path d="M64.2569 165.472C64.2569 165.472 62.2708 170.19 57.7964 170.19" stroke="white" stroke-width="0.75" stroke-linecap="round" stroke-linejoin="round"/>
<path d="M61.7991 163.729L59.3107 165.966V167.953L55.8332 167.207L57.5758 172.176L52.1045 206.221" stroke="white" stroke-width="0.75" stroke-linecap="round" stroke-linejoin="round"/>
<path d="M51.359 208.207L50.1187 209.942" stroke="white" stroke-width="0.75" stroke-linecap="round" stroke-linejoin="round"/>
</svg>
